%TF.GenerationSoftware,KiCad,Pcbnew,9.0.2*%
%TF.CreationDate,2025-05-19T15:54:50+02:00*%
%TF.ProjectId,ESC-TFG-KiCad,4553432d-5446-4472-9d4b-694361642e6b,v1.0*%
%TF.SameCoordinates,Original*%
%TF.FileFunction,Copper,L3,Inr*%
%TF.FilePolarity,Positive*%
%FSLAX46Y46*%
G04 Gerber Fmt 4.6, Leading zero omitted, Abs format (unit mm)*
G04 Created by KiCad (PCBNEW 9.0.2) date 2025-05-19 15:54:50*
%MOMM*%
%LPD*%
G01*
G04 APERTURE LIST*
G04 Aperture macros list*
%AMRoundRect*
0 Rectangle with rounded corners*
0 $1 Rounding radius*
0 $2 $3 $4 $5 $6 $7 $8 $9 X,Y pos of 4 corners*
0 Add a 4 corners polygon primitive as box body*
4,1,4,$2,$3,$4,$5,$6,$7,$8,$9,$2,$3,0*
0 Add four circle primitives for the rounded corners*
1,1,$1+$1,$2,$3*
1,1,$1+$1,$4,$5*
1,1,$1+$1,$6,$7*
1,1,$1+$1,$8,$9*
0 Add four rect primitives between the rounded corners*
20,1,$1+$1,$2,$3,$4,$5,0*
20,1,$1+$1,$4,$5,$6,$7,0*
20,1,$1+$1,$6,$7,$8,$9,0*
20,1,$1+$1,$8,$9,$2,$3,0*%
G04 Aperture macros list end*
%TA.AperFunction,ComponentPad*%
%ADD10C,2.900000*%
%TD*%
%TA.AperFunction,ComponentPad*%
%ADD11R,1.000000X1.000000*%
%TD*%
%TA.AperFunction,ComponentPad*%
%ADD12C,1.000000*%
%TD*%
%TA.AperFunction,ComponentPad*%
%ADD13R,1.700000X1.700000*%
%TD*%
%TA.AperFunction,ComponentPad*%
%ADD14O,1.700000X1.700000*%
%TD*%
%TA.AperFunction,ComponentPad*%
%ADD15R,2.000000X1.905000*%
%TD*%
%TA.AperFunction,ComponentPad*%
%ADD16O,2.000000X1.905000*%
%TD*%
%TA.AperFunction,ComponentPad*%
%ADD17R,1.905000X2.000000*%
%TD*%
%TA.AperFunction,ComponentPad*%
%ADD18O,1.905000X2.000000*%
%TD*%
%TA.AperFunction,ComponentPad*%
%ADD19C,0.800000*%
%TD*%
%TA.AperFunction,ComponentPad*%
%ADD20C,6.400000*%
%TD*%
%TA.AperFunction,HeatsinkPad*%
%ADD21O,1.000000X2.100000*%
%TD*%
%TA.AperFunction,HeatsinkPad*%
%ADD22O,1.000000X1.600000*%
%TD*%
%TA.AperFunction,ComponentPad*%
%ADD23R,2.400000X2.400000*%
%TD*%
%TA.AperFunction,ComponentPad*%
%ADD24C,2.400000*%
%TD*%
%TA.AperFunction,ComponentPad*%
%ADD25RoundRect,0.250000X-0.350000X-0.625000X0.350000X-0.625000X0.350000X0.625000X-0.350000X0.625000X0*%
%TD*%
%TA.AperFunction,ComponentPad*%
%ADD26O,1.200000X1.750000*%
%TD*%
%TA.AperFunction,ComponentPad*%
%ADD27RoundRect,0.500000X-1.000000X-2.000000X1.000000X-2.000000X1.000000X2.000000X-1.000000X2.000000X0*%
%TD*%
%TA.AperFunction,ComponentPad*%
%ADD28O,3.000000X5.000000*%
%TD*%
%TA.AperFunction,ComponentPad*%
%ADD29C,3.000000*%
%TD*%
%TA.AperFunction,ViaPad*%
%ADD30C,0.800000*%
%TD*%
%TA.AperFunction,Conductor*%
%ADD31C,0.250000*%
%TD*%
%TA.AperFunction,Conductor*%
%ADD32C,1.524000*%
%TD*%
G04 APERTURE END LIST*
D10*
%TO.N,Net-(D19-A2)*%
%TO.C,J8*%
X205973000Y-100504000D03*
%TD*%
D11*
%TO.N,/Sensores/T5*%
%TO.C,TH5*%
X119040980Y-100250000D03*
D12*
%TO.N,GND*%
X117770980Y-100250000D03*
%TD*%
D13*
%TO.N,+5V*%
%TO.C,L2*%
X96774250Y-96059000D03*
D14*
%TO.N,Net-(Q1-D)*%
X96774250Y-98599000D03*
%TD*%
D15*
%TO.N,/V_DIV_12*%
%TO.C,U2*%
X218490000Y-96208000D03*
D16*
%TO.N,+12V*%
X218490000Y-98748000D03*
%TO.N,+24V*%
X218490000Y-101288000D03*
%TD*%
D10*
%TO.N,/Medio-Puente-W/PHASE_OUT*%
%TO.C,J7*%
X194161000Y-67235001D03*
%TD*%
D11*
%TO.N,/Sensores/T1*%
%TO.C,TH1*%
X105832980Y-100250000D03*
D12*
%TO.N,GND*%
X104562980Y-100250000D03*
%TD*%
D17*
%TO.N,Net-(Q4-G)*%
%TO.C,Q4*%
X135487000Y-67220000D03*
D18*
%TO.N,+24V*%
X138027000Y-67220000D03*
%TO.N,/Medio-Puente-V/PHASE_OUT*%
X140567000Y-67220000D03*
%TD*%
D19*
%TO.N,GND*%
%TO.C,H1*%
X68953000Y-115490000D03*
X69655944Y-113792944D03*
X69655944Y-117187056D03*
X71353000Y-113090000D03*
D20*
X71353000Y-115490000D03*
D19*
X71353000Y-117890000D03*
X73050056Y-113792944D03*
X73050056Y-117187056D03*
X73753000Y-115490000D03*
%TD*%
D11*
%TO.N,/Sensores/T4*%
%TO.C,TH4*%
X115738980Y-100250000D03*
D12*
%TO.N,GND*%
X114468980Y-100250000D03*
%TD*%
D21*
%TO.N,unconnected-(J2-SHIELD-PadS1)_1*%
%TO.C,J2*%
X140033000Y-113051000D03*
D22*
%TO.N,unconnected-(J2-SHIELD-PadS1)_2*%
X140033000Y-117231000D03*
D21*
%TO.N,unconnected-(J2-SHIELD-PadS1)_3*%
X148673000Y-113051000D03*
D22*
%TO.N,unconnected-(J2-SHIELD-PadS1)*%
X148673000Y-117231000D03*
%TD*%
D17*
%TO.N,Net-(Q3-G)*%
%TO.C,Q3*%
X107293000Y-67220000D03*
D18*
%TO.N,/Medio-Puente-U/PHASE_OUT*%
X109833000Y-67220000D03*
%TO.N,/Medio-Puente-U/Shunt*%
X112373000Y-67220000D03*
%TD*%
D10*
%TO.N,/Medio-Puente-U/PHASE_OUT*%
%TO.C,J5*%
X101705000Y-67291000D03*
%TD*%
D23*
%TO.N,+24V*%
%TO.C,C25*%
X82148000Y-74205000D03*
D24*
%TO.N,GND*%
X82148000Y-79205000D03*
%TD*%
D17*
%TO.N,Net-(Q7-G)*%
%TO.C,Q7*%
X199749000Y-67164001D03*
D18*
%TO.N,/Medio-Puente-W/PHASE_OUT*%
X202289000Y-67164001D03*
%TO.N,/Medio-Puente-W/Shunt*%
X204829000Y-67164001D03*
%TD*%
D19*
%TO.N,GND*%
%TO.C,H3*%
X214953000Y-68490000D03*
X215655944Y-66792944D03*
X215655944Y-70187056D03*
X217353000Y-66090000D03*
D20*
X217353000Y-68490000D03*
D19*
X217353000Y-70890000D03*
X219050056Y-66792944D03*
X219050056Y-70187056D03*
X219753000Y-68490000D03*
%TD*%
D13*
%TO.N,GND*%
%TO.C,J3*%
X121153000Y-107340000D03*
D14*
X121153000Y-109880000D03*
%TO.N,/SWSCK*%
X118613000Y-107340000D03*
%TO.N,/I2C_SCL*%
X118613000Y-109880000D03*
%TO.N,/SWDIO*%
X116073000Y-107340000D03*
%TO.N,/I2C_SDA*%
X116073000Y-109880000D03*
%TO.N,+3V3*%
X113533000Y-107340000D03*
X113533000Y-109880000D03*
%TD*%
D11*
%TO.N,/Sensores/T3*%
%TO.C,TH3*%
X112436980Y-100250000D03*
D12*
%TO.N,GND*%
X111166980Y-100250000D03*
%TD*%
D15*
%TO.N,/24V fused*%
%TO.C,D12*%
X70012000Y-90090000D03*
D16*
%TO.N,+24V*%
X70012000Y-87550000D03*
%TO.N,/24V fused*%
X70012000Y-85010000D03*
%TD*%
D19*
%TO.N,GND*%
%TO.C,H2*%
X68953000Y-68490000D03*
X69655944Y-66792944D03*
X69655944Y-70187056D03*
X71353000Y-66090000D03*
D20*
X71353000Y-68490000D03*
D19*
X71353000Y-70890000D03*
X73050056Y-66792944D03*
X73050056Y-70187056D03*
X73753000Y-68490000D03*
%TD*%
D25*
%TO.N,GND*%
%TO.C,J1*%
X167353000Y-113640000D03*
D26*
%TO.N,/PB3*%
X169353000Y-113640000D03*
%TO.N,/PB4*%
X171353000Y-113640000D03*
%TO.N,/PB5*%
X173353000Y-113640000D03*
%TO.N,+3V3*%
X175353000Y-113640000D03*
%TD*%
D10*
%TO.N,/Medio-Puente-V/PHASE_OUT*%
%TO.C,J6*%
X147933000Y-67291001D03*
%TD*%
D27*
%TO.N,Net-(D29-A2)*%
%TO.C,J9*%
X186853200Y-108190000D03*
D28*
%TO.N,Net-(D24-A2)*%
X196353200Y-108190000D03*
%TO.N,Net-(D19-A2)*%
X205853000Y-108180000D03*
%TD*%
D23*
%TO.N,+24V*%
%TO.C,C45*%
X174604000Y-74149000D03*
D24*
%TO.N,GND*%
X174604000Y-79149000D03*
%TD*%
D10*
%TO.N,Net-(D24-A2)*%
%TO.C,J10*%
X196321000Y-100504000D03*
%TD*%
D17*
%TO.N,Net-(Q2-G)*%
%TO.C,Q2*%
X89259000Y-67220000D03*
D18*
%TO.N,+24V*%
X91799000Y-67220000D03*
%TO.N,/Medio-Puente-U/PHASE_OUT*%
X94339000Y-67220000D03*
%TD*%
D17*
%TO.N,Net-(Q6-G)*%
%TO.C,Q6*%
X181715000Y-67164000D03*
D18*
%TO.N,+24V*%
X184255000Y-67164000D03*
%TO.N,/Medio-Puente-W/PHASE_OUT*%
X186795000Y-67164000D03*
%TD*%
D29*
%TO.N,/24V in*%
%TO.C,F2*%
X72193000Y-107690000D03*
X75593000Y-107690000D03*
%TO.N,/24V fused*%
X72193000Y-97890000D03*
X75593000Y-97890000D03*
%TD*%
D11*
%TO.N,/Sensores/T6*%
%TO.C,TH6*%
X122342980Y-100250000D03*
D12*
%TO.N,GND*%
X121072980Y-100250000D03*
%TD*%
D19*
%TO.N,GND*%
%TO.C,H4*%
X214953000Y-115490000D03*
X215655944Y-113792944D03*
X215655944Y-117187056D03*
X217353000Y-113090000D03*
D20*
X217353000Y-115490000D03*
D19*
X217353000Y-117890000D03*
X219050056Y-113792944D03*
X219050056Y-117187056D03*
X219753000Y-115490000D03*
%TD*%
D27*
%TO.N,/24V in*%
%TO.C,J4*%
X84603000Y-108134000D03*
D28*
%TO.N,GND*%
X94103000Y-108134000D03*
%TD*%
D10*
%TO.N,Net-(D29-A2)*%
%TO.C,J11*%
X186923000Y-100504000D03*
%TD*%
D11*
%TO.N,/Sensores/T2*%
%TO.C,TH2*%
X109134980Y-100250000D03*
D12*
%TO.N,GND*%
X107864980Y-100250000D03*
%TD*%
D23*
%TO.N,+24V*%
%TO.C,C35*%
X128376000Y-74205000D03*
D24*
%TO.N,GND*%
X128376000Y-79205000D03*
%TD*%
D17*
%TO.N,Net-(Q5-G)*%
%TO.C,Q5*%
X153521000Y-67220001D03*
D18*
%TO.N,/Medio-Puente-V/PHASE_OUT*%
X156061000Y-67220001D03*
%TO.N,/Medio-Puente-V/Shunt*%
X158601000Y-67220001D03*
%TD*%
D30*
%TO.N,GND*%
X78465000Y-86534000D03*
X102595000Y-118792000D03*
X82529000Y-69262000D03*
X210545000Y-112950000D03*
X132821000Y-65198000D03*
X204576000Y-79681000D03*
X208513000Y-114982000D03*
X118851000Y-114728000D03*
X77957000Y-114728000D03*
X190225000Y-102790000D03*
X151109000Y-117776000D03*
X151170000Y-78656000D03*
X177017000Y-79930000D03*
X80497000Y-69262000D03*
X202417000Y-90598000D03*
X124693000Y-69262000D03*
X163809000Y-108378000D03*
X178033000Y-95424000D03*
X82021000Y-114728000D03*
X136377000Y-115744000D03*
X167873000Y-101520000D03*
X202417000Y-106854000D03*
X200385000Y-119046000D03*
X86085000Y-118792000D03*
X168889000Y-81962000D03*
X180065000Y-114982000D03*
X206481000Y-117014000D03*
X176001000Y-108378000D03*
X170921000Y-65198000D03*
X200385000Y-112950000D03*
X92181000Y-104568000D03*
X98277000Y-110664000D03*
X190225000Y-96694000D03*
X138917000Y-89074000D03*
X161777000Y-115236000D03*
X96245000Y-108632000D03*
X198353000Y-112950000D03*
X159364000Y-79737000D03*
X97641000Y-81515000D03*
X190225000Y-110918000D03*
X92181000Y-114728000D03*
X112119000Y-80753000D03*
X162031000Y-100504000D03*
X151109000Y-115744000D03*
X113135000Y-77705000D03*
X165841000Y-101520000D03*
X166475000Y-82023000D03*
X116057000Y-118792000D03*
X184129000Y-114982000D03*
X197398000Y-78600000D03*
X190097000Y-81459000D03*
X192257000Y-98726000D03*
X130154000Y-117903000D03*
X78465000Y-84502000D03*
X76433000Y-67230000D03*
X212577000Y-102536000D03*
X124185000Y-115744000D03*
X98277000Y-116760000D03*
X121137000Y-88566000D03*
X86085000Y-114728000D03*
X78465000Y-69262000D03*
X172953000Y-69262000D03*
X188193000Y-117014000D03*
X176001000Y-93392000D03*
X146283000Y-117014000D03*
X181081000Y-77898000D03*
X80497000Y-88566000D03*
X202417000Y-119046000D03*
X115167000Y-82531000D03*
X176001000Y-106092000D03*
X124693000Y-67230000D03*
X205592000Y-79681000D03*
X212577000Y-110664000D03*
X194289000Y-112950000D03*
X192257000Y-114982000D03*
X178033000Y-93392000D03*
X204449000Y-112950000D03*
X140949000Y-89074000D03*
X190225000Y-98726000D03*
X183113000Y-79930000D03*
X202417000Y-108886000D03*
X148888000Y-90025000D03*
X182097000Y-103806000D03*
X128757000Y-65198000D03*
X75925000Y-114728000D03*
X146283000Y-114982000D03*
X75925000Y-118792000D03*
X160380000Y-78721000D03*
X202417000Y-102790000D03*
X78465000Y-80438000D03*
X96245000Y-106600000D03*
X179049000Y-69262000D03*
X180065000Y-93392000D03*
X90149000Y-110664000D03*
X178033000Y-110664000D03*
X136885000Y-113966000D03*
X151109000Y-107616000D03*
X142981000Y-94154000D03*
X84561000Y-86534000D03*
X180065000Y-108378000D03*
X147045000Y-89074000D03*
X102849000Y-90598000D03*
X94213000Y-118792000D03*
X200385000Y-100758000D03*
X119105000Y-88566000D03*
X136885000Y-81962000D03*
X179049000Y-65198000D03*
X202417000Y-92630000D03*
X108231500Y-118967500D03*
X84561000Y-90598000D03*
X90657000Y-92630000D03*
X98277000Y-108632000D03*
X98785000Y-88566000D03*
X163490000Y-97772000D03*
X114151000Y-77705000D03*
X196321000Y-89074000D03*
X152314000Y-82340000D03*
X88117000Y-116760000D03*
X174985000Y-67230000D03*
X106086000Y-82340000D03*
X124693000Y-81962000D03*
X96245000Y-110664000D03*
X149394000Y-108378000D03*
X98277000Y-118792000D03*
X138409000Y-117776000D03*
X113135000Y-79737000D03*
X138917000Y-91106000D03*
X98277000Y-112696000D03*
X86593000Y-67230000D03*
X82021000Y-112696000D03*
X98277000Y-114728000D03*
X90657000Y-90598000D03*
X190225000Y-90598000D03*
X176001000Y-101520000D03*
X78465000Y-82470000D03*
X212703000Y-81967000D03*
X171937000Y-101520000D03*
X214990000Y-84184000D03*
X206608000Y-77649000D03*
X136885000Y-98218000D03*
X86085000Y-112696000D03*
X82529000Y-86534000D03*
X192257000Y-94662000D03*
X158348000Y-78721000D03*
X204449000Y-117014000D03*
X205973000Y-89074000D03*
X207623000Y-82475000D03*
X173969000Y-91360000D03*
X90657000Y-78406000D03*
X182097000Y-95424000D03*
X126725000Y-100758000D03*
X151109000Y-113712000D03*
X88625000Y-65198000D03*
X170921000Y-67230000D03*
X200385000Y-90598000D03*
X84561000Y-88566000D03*
X150509393Y-96909190D03*
X192257000Y-106854000D03*
X82529000Y-88566000D03*
X180065000Y-119046000D03*
X100817000Y-88566000D03*
X114151000Y-80753000D03*
X88625000Y-84502000D03*
X134853000Y-81962000D03*
X177017000Y-81962000D03*
X147045000Y-91106000D03*
X138917000Y-98218000D03*
X84561000Y-84502000D03*
X115041000Y-88566000D03*
X210545000Y-114982000D03*
X170921000Y-69262000D03*
X79989000Y-118792000D03*
X98785000Y-90598000D03*
X192257000Y-102790000D03*
X200385000Y-108886000D03*
X92181000Y-110664000D03*
X206608000Y-79681000D03*
X170921000Y-81962000D03*
X114025000Y-116760000D03*
X208513000Y-96440000D03*
X122661000Y-69262000D03*
X110977000Y-88566000D03*
X121137000Y-114728000D03*
X158348000Y-77705000D03*
X158348000Y-80753000D03*
X144251000Y-117014000D03*
X76433000Y-84502000D03*
X126725000Y-81962000D03*
X155173000Y-105838000D03*
X204576000Y-77649000D03*
X144251000Y-114982000D03*
X202417000Y-114982000D03*
X100817000Y-90598000D03*
X128249000Y-115744000D03*
X114025000Y-114728000D03*
X77957000Y-112696000D03*
X122661000Y-67230000D03*
X210545000Y-117014000D03*
X82021000Y-116760000D03*
X212577000Y-119046000D03*
X76433000Y-88566000D03*
X165841000Y-106092000D03*
X196321000Y-112950000D03*
X160634000Y-107235000D03*
X200385000Y-102790000D03*
X134853000Y-98218000D03*
X177017000Y-65198000D03*
X76433000Y-82470000D03*
X202417000Y-96694000D03*
X179049000Y-79930000D03*
X190225000Y-119046000D03*
X180065000Y-117014000D03*
X178033000Y-108378000D03*
X179049000Y-81962000D03*
X186161000Y-112950000D03*
X88117000Y-110664000D03*
X80497000Y-65198000D03*
X92689000Y-92630000D03*
X169905000Y-101520000D03*
X180065000Y-110664000D03*
X161395000Y-80753000D03*
X90055000Y-100303500D03*
X182097000Y-108378000D03*
X180065000Y-101520000D03*
X76433000Y-86534000D03*
X88625000Y-86534000D03*
X88625000Y-80438000D03*
X90149000Y-106600000D03*
X182097000Y-99488000D03*
X212577000Y-112950000D03*
X92689000Y-86534000D03*
X212577000Y-108632000D03*
X80497000Y-67230000D03*
X202417000Y-112950000D03*
X137393000Y-106600000D03*
X88625000Y-92630000D03*
X208513000Y-117014000D03*
X161777000Y-105838000D03*
X192257000Y-119046000D03*
X184129000Y-112950000D03*
X190225000Y-108886000D03*
X113009000Y-88566000D03*
X86593000Y-88566000D03*
X136885000Y-79930000D03*
X144378000Y-108555800D03*
X168889000Y-79930000D03*
X112119000Y-78721000D03*
X163809000Y-115236000D03*
X210545000Y-108632000D03*
X194289000Y-114982000D03*
X130789000Y-67230000D03*
X114025000Y-118792000D03*
X160761000Y-113839000D03*
X90149000Y-104568000D03*
X94213000Y-112696000D03*
X92181000Y-112696000D03*
X135615000Y-96948000D03*
X212577000Y-117014000D03*
X82529000Y-82470000D03*
X139362000Y-108441000D03*
X172953000Y-67230000D03*
X178033000Y-106092000D03*
X84561000Y-78406000D03*
X163809000Y-117522000D03*
X159413000Y-98661000D03*
X190225000Y-94662000D03*
X130408000Y-94154000D03*
X132313000Y-117776000D03*
X92181000Y-116760000D03*
X122661000Y-81962000D03*
X173969000Y-89328000D03*
X217149000Y-94557000D03*
X88117000Y-108632000D03*
X84561000Y-67230000D03*
X86085000Y-116760000D03*
X208513000Y-90344000D03*
X88117000Y-118792000D03*
X202417000Y-94662000D03*
X180065000Y-99488000D03*
X160380000Y-79737000D03*
X161395000Y-82531000D03*
X142473000Y-101520000D03*
X214863000Y-86810000D03*
X210545000Y-104568000D03*
X198353000Y-114982000D03*
X132821000Y-79930000D03*
X124693000Y-77898000D03*
X135939208Y-89184000D03*
X113135000Y-78721000D03*
X212577000Y-114982000D03*
X80497000Y-82470000D03*
X212577000Y-100504000D03*
X138409000Y-115744000D03*
X163809000Y-106092000D03*
X183113000Y-81962000D03*
X86593000Y-82470000D03*
X90657000Y-86534000D03*
X168279400Y-109800400D03*
X177017000Y-67230000D03*
X208513000Y-92376000D03*
X130281000Y-115744000D03*
X138966870Y-111567870D03*
X96753000Y-86534000D03*
X120247000Y-82023000D03*
X159101000Y-109775000D03*
X132821000Y-81962000D03*
X146791000Y-101520000D03*
X134853000Y-65198000D03*
X145013000Y-94154000D03*
X83513000Y-100885000D03*
X132821000Y-77898000D03*
X188193000Y-119046000D03*
X128757000Y-69262000D03*
X78465000Y-88566000D03*
X180065000Y-97456000D03*
X91546000Y-77517000D03*
X136123000Y-101520000D03*
X88625000Y-78406000D03*
X124693000Y-65198000D03*
X76433000Y-65198000D03*
X137775000Y-77478000D03*
X178033000Y-103806000D03*
X176001000Y-89328000D03*
X210545000Y-106600000D03*
X132059000Y-96186000D03*
X80497000Y-86534000D03*
X204576000Y-78665000D03*
X145013000Y-89074000D03*
X190225000Y-114982000D03*
X168889000Y-65198000D03*
X92181000Y-118792000D03*
X190225000Y-112950000D03*
X96245000Y-114728000D03*
X206608000Y-78665000D03*
X192257000Y-110918000D03*
X90149000Y-116760000D03*
X178033000Y-97456000D03*
X84053000Y-114728000D03*
X94213000Y-116760000D03*
X198353000Y-117014000D03*
X165841000Y-108378000D03*
X98785000Y-92630000D03*
X200385000Y-104822000D03*
X176001000Y-103806000D03*
X204576000Y-80697000D03*
X206481000Y-119046000D03*
X130027000Y-98218000D03*
X90149000Y-108632000D03*
X142981000Y-96186000D03*
X142219000Y-114982000D03*
X138917000Y-96186000D03*
X90657000Y-80438000D03*
X190225000Y-104822000D03*
X131932000Y-107489000D03*
X172953000Y-81962000D03*
X128757000Y-81962000D03*
X176001000Y-97456000D03*
X202417000Y-110918000D03*
X176001000Y-95424000D03*
X124693000Y-79930000D03*
X86593000Y-90598000D03*
X83545000Y-93519000D03*
X200385000Y-106854000D03*
X130789000Y-79930000D03*
X92689000Y-90598000D03*
X128757000Y-67230000D03*
X210545000Y-90344000D03*
X153903000Y-102536000D03*
X192257000Y-104822000D03*
X90657000Y-82470000D03*
X200385000Y-114982000D03*
X92689000Y-88566000D03*
X192257000Y-117014000D03*
X117073000Y-88566000D03*
X130789000Y-69262000D03*
X207623000Y-80697000D03*
X146791000Y-105584000D03*
X96753000Y-92630000D03*
X77957000Y-116760000D03*
X200385000Y-117014000D03*
X86593000Y-80438000D03*
X190225000Y-106854000D03*
X139425000Y-106600000D03*
X208513000Y-94408000D03*
X88117000Y-112696000D03*
X173969000Y-101520000D03*
X114151000Y-78721000D03*
X94721000Y-92630000D03*
X168889000Y-77898000D03*
X208513000Y-119046000D03*
X163809000Y-110664000D03*
X140949000Y-91106000D03*
X160380000Y-80753000D03*
X194289000Y-119046000D03*
X88117000Y-114728000D03*
X173969000Y-97456000D03*
X115803000Y-112442000D03*
X122661000Y-79930000D03*
X204449000Y-114982000D03*
X122661000Y-65198000D03*
X115167000Y-80753000D03*
X149705000Y-111546000D03*
X130027000Y-96186000D03*
X151109000Y-109648000D03*
X206481000Y-114982000D03*
X178033000Y-114982000D03*
X159364000Y-78721000D03*
X198542000Y-82284000D03*
X180065000Y-91360000D03*
X142981000Y-91106000D03*
X80497000Y-84502000D03*
X148823000Y-105584000D03*
X174985000Y-69262000D03*
X138917000Y-94154000D03*
X194289000Y-117014000D03*
X200385000Y-96694000D03*
X84561000Y-65198000D03*
X151109000Y-111680000D03*
X132821000Y-69262000D03*
X88625000Y-88566000D03*
X182097000Y-93392000D03*
X82529000Y-90598000D03*
X138409000Y-101520000D03*
X130789000Y-81962000D03*
X215244000Y-106495000D03*
X86593000Y-84502000D03*
X210545000Y-110664000D03*
X202417000Y-98726000D03*
X181081000Y-81962000D03*
X178033000Y-89328000D03*
X182097000Y-91360000D03*
X98277000Y-104568000D03*
X192257000Y-112950000D03*
X202417000Y-100758000D03*
X77957000Y-118792000D03*
X126084347Y-117897347D03*
X118089000Y-118792000D03*
X163809000Y-112950000D03*
X132048699Y-90989301D03*
X108691000Y-106600000D03*
X88625000Y-90598000D03*
X129541000Y-110642000D03*
X212577000Y-104568000D03*
X88117000Y-104568000D03*
X186161000Y-117014000D03*
X90149000Y-114728000D03*
X188193000Y-114982000D03*
X188193000Y-112950000D03*
X130789000Y-77898000D03*
X96245000Y-112696000D03*
X180065000Y-89328000D03*
X82529000Y-67230000D03*
X205592000Y-78665000D03*
X180065000Y-106092000D03*
X132313000Y-115744000D03*
X205592000Y-77649000D03*
X159364000Y-80753000D03*
X182097000Y-106092000D03*
X182097000Y-89328000D03*
X126725000Y-69262000D03*
X176001000Y-91360000D03*
X210545000Y-94408000D03*
X108945000Y-88566000D03*
X215244000Y-110686000D03*
X210545000Y-100504000D03*
X202417000Y-104822000D03*
X90657000Y-88566000D03*
X121137000Y-112442000D03*
X78465000Y-65198000D03*
X200385000Y-92630000D03*
X90657000Y-84502000D03*
X178033000Y-112950000D03*
X136377000Y-117776000D03*
X134853000Y-79930000D03*
X86593000Y-86534000D03*
X177017000Y-77898000D03*
X182097000Y-119046000D03*
X132821000Y-67230000D03*
X186161000Y-119046000D03*
X110723000Y-111426000D03*
X79989000Y-116760000D03*
X140949000Y-98218000D03*
X192257000Y-100758000D03*
X106913000Y-88566000D03*
X75925000Y-116760000D03*
X192257000Y-108886000D03*
X146791000Y-107616000D03*
X84053000Y-118792000D03*
X192257000Y-92630000D03*
X170921000Y-77898000D03*
X141457000Y-106600000D03*
X161777000Y-110664000D03*
X104942000Y-78656000D03*
X206481000Y-112950000D03*
X190225000Y-100758000D03*
X84561000Y-69262000D03*
X186923000Y-89074000D03*
X204449000Y-119046000D03*
X96245000Y-104568000D03*
X122661000Y-77898000D03*
X104119000Y-117544000D03*
X159364000Y-77705000D03*
X90149000Y-118792000D03*
X126725000Y-65198000D03*
X182097000Y-112950000D03*
X98277000Y-106600000D03*
X98785000Y-86534000D03*
X116057000Y-116760000D03*
X96753000Y-90598000D03*
X126725000Y-67230000D03*
X205592000Y-80697000D03*
X132059000Y-98218000D03*
X210545000Y-98472000D03*
X79989000Y-112696000D03*
X206608000Y-80697000D03*
X140949000Y-96186000D03*
X114151000Y-79737000D03*
X113135000Y-80753000D03*
X180065000Y-112950000D03*
X182097000Y-117014000D03*
X94213000Y-114728000D03*
X182097000Y-101520000D03*
X76433000Y-69262000D03*
X190225000Y-117014000D03*
X168635000Y-108378000D03*
X210545000Y-96440000D03*
X102595000Y-108378000D03*
X172953000Y-65198000D03*
X168889000Y-69262000D03*
X196321000Y-114982000D03*
X171429000Y-106092000D03*
X168635000Y-106092000D03*
X178033000Y-91360000D03*
X96753000Y-88566000D03*
X210545000Y-102536000D03*
X178033000Y-119046000D03*
X88625000Y-82470000D03*
X192257000Y-96694000D03*
X164013347Y-92162347D03*
X111993000Y-118792000D03*
X82529000Y-84502000D03*
X190225000Y-92630000D03*
X170921000Y-79930000D03*
X75925000Y-112696000D03*
X102595000Y-112696000D03*
X182097000Y-97456000D03*
X88117000Y-106600000D03*
X200385000Y-94662000D03*
X82021000Y-118792000D03*
X178033000Y-99488000D03*
X196321000Y-117014000D03*
X161777000Y-117522000D03*
X142219000Y-117014000D03*
X184003000Y-77478000D03*
X102595000Y-106600000D03*
X202417000Y-117014000D03*
X178033000Y-101520000D03*
X82529000Y-65198000D03*
X173969000Y-106092000D03*
X143869000Y-81515000D03*
X200385000Y-98726000D03*
X184129000Y-119046000D03*
X142981000Y-98218000D03*
X140949000Y-94154000D03*
X94721000Y-88566000D03*
X174985000Y-65198000D03*
X173969000Y-99488000D03*
X134345000Y-117776000D03*
X86593000Y-69262000D03*
X208513000Y-110664000D03*
X168889000Y-67230000D03*
X153141000Y-113839000D03*
X173969000Y-108378000D03*
X112119000Y-79737000D03*
X126217000Y-115744000D03*
X84561000Y-80438000D03*
X160380000Y-77705000D03*
X169143000Y-89963000D03*
X182097000Y-110664000D03*
X173066000Y-95613000D03*
X111993000Y-116760000D03*
X84053000Y-116760000D03*
X112119000Y-77705000D03*
X79989000Y-114728000D03*
X96245000Y-116760000D03*
X198353000Y-119046000D03*
X78465000Y-67230000D03*
X134345000Y-115744000D03*
X118851000Y-112442000D03*
X179049000Y-67230000D03*
X181081000Y-79930000D03*
X90149000Y-112696000D03*
X192257000Y-90598000D03*
X179049000Y-77898000D03*
X182097000Y-114982000D03*
X210545000Y-119046000D03*
X196321000Y-119046000D03*
X181081000Y-65198000D03*
X134853000Y-77898000D03*
X208513000Y-112950000D03*
X84561000Y-82470000D03*
X111739000Y-102790000D03*
X186161000Y-114982000D03*
X200385000Y-110918000D03*
X177017000Y-69262000D03*
X174350000Y-109775000D03*
X184129000Y-117014000D03*
X84053000Y-112696000D03*
X96245000Y-118792000D03*
X176001000Y-99488000D03*
X130789000Y-65198000D03*
X140441000Y-101520000D03*
X104881000Y-88566000D03*
X210545000Y-92376000D03*
X180065000Y-95424000D03*
X178033000Y-117014000D03*
X86593000Y-65198000D03*
X94721000Y-86534000D03*
X214990000Y-81073000D03*
X158348000Y-79737000D03*
X173969000Y-93392000D03*
X212577000Y-106600000D03*
X94721000Y-90598000D03*
X180065000Y-103806000D03*
X102849000Y-88566000D03*
X86593000Y-78406000D03*
X174985000Y-81962000D03*
%TO.N,+3V3*%
X110248980Y-94310000D03*
X126598000Y-85198000D03*
X113517000Y-94343980D03*
X124591400Y-98421200D03*
X106877980Y-94310000D03*
X162597847Y-91291847D03*
X137348500Y-91084000D03*
X153076000Y-97658000D03*
X159101000Y-116379000D03*
X212323000Y-85198000D03*
X160963000Y-97658000D03*
X103644980Y-94310000D03*
X153014000Y-107235000D03*
X120154980Y-94310000D03*
X153076000Y-90025000D03*
X148754000Y-99361000D03*
X167492000Y-85198000D03*
X116852980Y-94310000D03*
%TO.N,/BOOT0*%
X157777000Y-112632000D03*
X157777000Y-100427800D03*
%TO.N,/NRST*%
X159364000Y-105711000D03*
X164825000Y-91233000D03*
%TO.N,/Sensores/12V_SENS*%
X209021000Y-88058000D03*
X126336183Y-89574183D03*
%TO.N,/SWSCK*%
X149516400Y-97645000D03*
%TO.N,/SWDIO*%
X149516400Y-96129402D03*
%TO.N,/PB7*%
X93761500Y-93900000D03*
X156759000Y-98788000D03*
%TO.N,/I2C_SCL*%
X132821000Y-101012000D03*
X160442000Y-100439000D03*
%TO.N,/I2C_SDA*%
X160442000Y-98915000D03*
X134345000Y-101012000D03*
%TO.N,+12V*%
X140060000Y-83640000D03*
X186288000Y-83674000D03*
X93832000Y-83640000D03*
%TO.N,+24V*%
X220963000Y-81073000D03*
X83545000Y-95424000D03*
%TO.N,/Sensores/24V_SENS*%
X126344000Y-88566000D03*
X209021000Y-87057997D03*
%TO.N,/24V fused*%
X73512000Y-93392000D03*
X71226000Y-95678000D03*
X69067000Y-97837000D03*
X69067000Y-93392000D03*
X69067000Y-95678000D03*
X80116000Y-95678000D03*
X73512000Y-95678000D03*
X77830000Y-95678000D03*
X75798000Y-95678000D03*
X71226000Y-93392000D03*
%TO.N,/24V in*%
X82021000Y-109902000D03*
X77957000Y-109902000D03*
X79989000Y-109902000D03*
X69829000Y-109902000D03*
X75925000Y-105330000D03*
X79989000Y-107616000D03*
X79989000Y-105330000D03*
X75925000Y-109902000D03*
X71861000Y-109902000D03*
X69829000Y-107616000D03*
X82021000Y-105330000D03*
X73893000Y-105330000D03*
X69829000Y-105330000D03*
X82021000Y-107616000D03*
X77957000Y-105330000D03*
X77957000Y-107616000D03*
X73893000Y-109902000D03*
X71861000Y-105330000D03*
%TO.N,VDC*%
X141908000Y-111115000D03*
X147299000Y-111172000D03*
%TD*%
D31*
%TO.N,/I2C_SCL*%
X133329000Y-101520000D02*
X132821000Y-101012000D01*
X133329000Y-103399600D02*
X133329000Y-101520000D01*
X159948200Y-99945200D02*
X159465600Y-99945200D01*
X134395800Y-104466400D02*
X133329000Y-103399600D01*
X159053000Y-100357800D02*
X159053000Y-101828000D01*
X156414600Y-104466400D02*
X134395800Y-104466400D01*
X160442000Y-100439000D02*
X159948200Y-99945200D01*
X159053000Y-101828000D02*
X156414600Y-104466400D01*
X159465600Y-99945200D02*
X159053000Y-100357800D01*
%TO.N,/I2C_SDA*%
X134584268Y-104011400D02*
X133837000Y-103264132D01*
X159281600Y-99494200D02*
X159278790Y-99494200D01*
X133837000Y-103264132D02*
X133837000Y-101520000D01*
X159278790Y-99494200D02*
X158602000Y-100170990D01*
X159388800Y-99387000D02*
X159281600Y-99494200D01*
X158602000Y-101635532D02*
X156226132Y-104011400D01*
X156226132Y-104011400D02*
X134584268Y-104011400D01*
X159970000Y-99387000D02*
X159388800Y-99387000D01*
X133837000Y-101520000D02*
X134345000Y-101012000D01*
X160442000Y-98915000D02*
X159970000Y-99387000D01*
X158602000Y-100170990D02*
X158602000Y-101635532D01*
D32*
%TO.N,/Medio-Puente-U/PHASE_OUT*%
X103765400Y-65216200D02*
X101731400Y-67250200D01*
X97921400Y-67179200D02*
X101787400Y-67179200D01*
X109859400Y-65840700D02*
X109859400Y-67179200D01*
X94365400Y-67179200D02*
X97921400Y-67179200D01*
X109234900Y-65216200D02*
X109859400Y-65840700D01*
X109234900Y-65216200D02*
X103765400Y-65216200D01*
%TO.N,/Medio-Puente-V/PHASE_OUT*%
X155437500Y-65216200D02*
X149968000Y-65216200D01*
X144124000Y-67179200D02*
X147990000Y-67179200D01*
X155437500Y-65216200D02*
X156062000Y-65840700D01*
X156062000Y-65840700D02*
X156062000Y-67179200D01*
X140568000Y-67179200D02*
X144124000Y-67179200D01*
X149968000Y-65216200D02*
X147934000Y-67250200D01*
%TO.N,/Medio-Puente-W/PHASE_OUT*%
X201665500Y-65165400D02*
X196196000Y-65165400D01*
X196196000Y-65165400D02*
X194162000Y-67199400D01*
X201665500Y-65165400D02*
X202290000Y-65789900D01*
X190352000Y-67128400D02*
X194218000Y-67128400D01*
X186796000Y-67128400D02*
X190352000Y-67128400D01*
X202290000Y-65789900D02*
X202290000Y-67128400D01*
%TD*%
%TA.AperFunction,Conductor*%
%TO.N,/24V in*%
G36*
X86556681Y-104350319D02*
G01*
X86593000Y-104438000D01*
X86593000Y-111048000D01*
X86556681Y-111135681D01*
X86469000Y-111172000D01*
X68937000Y-111172000D01*
X68849319Y-111135681D01*
X68813000Y-111048000D01*
X68813000Y-104438000D01*
X68849319Y-104350319D01*
X68937000Y-104314000D01*
X86469000Y-104314000D01*
X86556681Y-104350319D01*
G37*
%TD.AperFunction*%
%TD*%
%TA.AperFunction,Conductor*%
%TO.N,/24V fused*%
G36*
X72840681Y-82760319D02*
G01*
X72877000Y-82848000D01*
X72877000Y-91614000D01*
X75163000Y-93900000D01*
X80445638Y-93900000D01*
X80533319Y-93936319D01*
X81476681Y-94879681D01*
X81513000Y-94967362D01*
X81513000Y-99182638D01*
X81476681Y-99270319D01*
X80533319Y-100213681D01*
X80445638Y-100250000D01*
X70388362Y-100250000D01*
X70300681Y-100213681D01*
X67325319Y-97238319D01*
X67289000Y-97150638D01*
X67289000Y-87406887D01*
X68511500Y-87406887D01*
X68511500Y-87693112D01*
X68567336Y-87973816D01*
X68567338Y-87973824D01*
X68676866Y-88238250D01*
X68676871Y-88238259D01*
X68835881Y-88476232D01*
X68835884Y-88476236D01*
X69038263Y-88678615D01*
X69038267Y-88678618D01*
X69276240Y-88837628D01*
X69276246Y-88837631D01*
X69276247Y-88837632D01*
X69540676Y-88947162D01*
X69821387Y-89002999D01*
X69821390Y-89003000D01*
X69821392Y-89003000D01*
X70202610Y-89003000D01*
X70202611Y-89002999D01*
X70483324Y-88947162D01*
X70747753Y-88837632D01*
X70985733Y-88678618D01*
X71188118Y-88476233D01*
X71347132Y-88238253D01*
X71456662Y-87973824D01*
X71512500Y-87693108D01*
X71512500Y-87406892D01*
X71512500Y-87406889D01*
X71512499Y-87406887D01*
X71456663Y-87126183D01*
X71456662Y-87126176D01*
X71347132Y-86861747D01*
X71347131Y-86861746D01*
X71347128Y-86861740D01*
X71188118Y-86623767D01*
X71188115Y-86623763D01*
X70985736Y-86421384D01*
X70985732Y-86421381D01*
X70747759Y-86262371D01*
X70747750Y-86262366D01*
X70483324Y-86152838D01*
X70483316Y-86152836D01*
X70202611Y-86097000D01*
X70202608Y-86097000D01*
X69821392Y-86097000D01*
X69821389Y-86097000D01*
X69540683Y-86152836D01*
X69540675Y-86152838D01*
X69276249Y-86262366D01*
X69276240Y-86262371D01*
X69038267Y-86421381D01*
X69038263Y-86421384D01*
X68835884Y-86623763D01*
X68835881Y-86623767D01*
X68676871Y-86861740D01*
X68676866Y-86861749D01*
X68567338Y-87126175D01*
X68567336Y-87126183D01*
X68511500Y-87406887D01*
X67289000Y-87406887D01*
X67289000Y-82848000D01*
X67325319Y-82760319D01*
X67413000Y-82724000D01*
X72753000Y-82724000D01*
X72840681Y-82760319D01*
G37*
%TD.AperFunction*%
%TD*%
%TA.AperFunction,Conductor*%
%TO.N,GND*%
G36*
X102612974Y-64407819D02*
G01*
X102649293Y-64495500D01*
X102612974Y-64583181D01*
X101891974Y-65304181D01*
X101804293Y-65340500D01*
X101512887Y-65340500D01*
X101136067Y-65415454D01*
X101136059Y-65415456D01*
X100781090Y-65562489D01*
X100461632Y-65775943D01*
X100461630Y-65775945D01*
X100461628Y-65775946D01*
X100461628Y-65775947D01*
X100357193Y-65880381D01*
X100269514Y-65916700D01*
X95112509Y-65916700D01*
X95043619Y-65895802D01*
X95027264Y-65884874D01*
X95027250Y-65884866D01*
X94762824Y-65775338D01*
X94762816Y-65775336D01*
X94482111Y-65719500D01*
X94482108Y-65719500D01*
X94195892Y-65719500D01*
X94195889Y-65719500D01*
X93915183Y-65775336D01*
X93915175Y-65775338D01*
X93650749Y-65884866D01*
X93650740Y-65884871D01*
X93412767Y-66043881D01*
X93412763Y-66043884D01*
X93210384Y-66246263D01*
X93210381Y-66246267D01*
X93172102Y-66303556D01*
X93093191Y-66356282D01*
X93000109Y-66337767D01*
X92965898Y-66303556D01*
X92927618Y-66246267D01*
X92927615Y-66246263D01*
X92725236Y-66043884D01*
X92725232Y-66043881D01*
X92487259Y-65884871D01*
X92487250Y-65884866D01*
X92222824Y-65775338D01*
X92222816Y-65775336D01*
X91942111Y-65719500D01*
X91942108Y-65719500D01*
X91655892Y-65719500D01*
X91655889Y-65719500D01*
X91375183Y-65775336D01*
X91375175Y-65775338D01*
X91110749Y-65884866D01*
X91110740Y-65884871D01*
X90872767Y-66043881D01*
X90868057Y-66047747D01*
X90866623Y-66046000D01*
X90785805Y-66079463D01*
X90698128Y-66043132D01*
X90682720Y-66024354D01*
X90589517Y-65884868D01*
X90572340Y-65859160D01*
X90406785Y-65748540D01*
X90406783Y-65748539D01*
X90406780Y-65748538D01*
X90260796Y-65719500D01*
X88257210Y-65719500D01*
X88111212Y-65748540D01*
X87945660Y-65859160D01*
X87835040Y-66024715D01*
X87835038Y-66024719D01*
X87806000Y-66170702D01*
X87806000Y-68269289D01*
X87835040Y-68415287D01*
X87891065Y-68499133D01*
X87945660Y-68580840D01*
X88111215Y-68691460D01*
X88111218Y-68691460D01*
X88111219Y-68691461D01*
X88184211Y-68705980D01*
X88257207Y-68720500D01*
X90260792Y-68720499D01*
X90406785Y-68691460D01*
X90406786Y-68691459D01*
X90406787Y-68691459D01*
X90490592Y-68635462D01*
X90572340Y-68580840D01*
X90682720Y-68415643D01*
X90761629Y-68362918D01*
X90854711Y-68381432D01*
X90867992Y-68392332D01*
X90868057Y-68392253D01*
X90872767Y-68396118D01*
X91110740Y-68555128D01*
X91110749Y-68555133D01*
X91170652Y-68579945D01*
X91375176Y-68664662D01*
X91655887Y-68720499D01*
X91655890Y-68720500D01*
X91655892Y-68720500D01*
X91942110Y-68720500D01*
X91942111Y-68720499D01*
X92222824Y-68664662D01*
X92487253Y-68555132D01*
X92725233Y-68396118D01*
X92927618Y-68193733D01*
X92965034Y-68137737D01*
X92965898Y-68136444D01*
X93044808Y-68083717D01*
X93137890Y-68102232D01*
X93172102Y-68136444D01*
X93210378Y-68193728D01*
X93210384Y-68193736D01*
X93412763Y-68396115D01*
X93412767Y-68396118D01*
X93650740Y-68555128D01*
X93650749Y-68555133D01*
X93710652Y-68579945D01*
X93915176Y-68664662D01*
X94195887Y-68720499D01*
X94195890Y-68720500D01*
X94195892Y-68720500D01*
X94482110Y-68720500D01*
X94482111Y-68720499D01*
X94762824Y-68664662D01*
X95027253Y-68555132D01*
X95165739Y-68462597D01*
X95234630Y-68441700D01*
X97797055Y-68441700D01*
X100061747Y-68441700D01*
X100149428Y-68478019D01*
X100164850Y-68496811D01*
X100189945Y-68534370D01*
X100189949Y-68534375D01*
X100461624Y-68806050D01*
X100461632Y-68806056D01*
X100781090Y-69019510D01*
X100781091Y-69019510D01*
X100781092Y-69019511D01*
X101136060Y-69166544D01*
X101512887Y-69241499D01*
X101512891Y-69241500D01*
X101512892Y-69241500D01*
X101897109Y-69241500D01*
X101897110Y-69241499D01*
X102273940Y-69166544D01*
X102628908Y-69019511D01*
X102948372Y-68806053D01*
X103220053Y-68534372D01*
X103433511Y-68214908D01*
X103580544Y-67859940D01*
X103655500Y-67483108D01*
X103655500Y-67162906D01*
X103691819Y-67075225D01*
X104252025Y-66515019D01*
X104339706Y-66478700D01*
X105716000Y-66478700D01*
X105803681Y-66515019D01*
X105840000Y-66602700D01*
X105840000Y-68269289D01*
X105869040Y-68415287D01*
X105925065Y-68499133D01*
X105979660Y-68580840D01*
X106145215Y-68691460D01*
X106145218Y-68691460D01*
X106145219Y-68691461D01*
X106218211Y-68705980D01*
X106291207Y-68720500D01*
X108294792Y-68720499D01*
X108440785Y-68691460D01*
X108440786Y-68691459D01*
X108440787Y-68691459D01*
X108524592Y-68635462D01*
X108606340Y-68580840D01*
X108716720Y-68415643D01*
X108795629Y-68362918D01*
X108888711Y-68381432D01*
X108901992Y-68392332D01*
X108902057Y-68392253D01*
X108906767Y-68396118D01*
X109144740Y-68555128D01*
X109144749Y-68555133D01*
X109204652Y-68579945D01*
X109409176Y-68664662D01*
X109689887Y-68720499D01*
X109689890Y-68720500D01*
X109689892Y-68720500D01*
X109976110Y-68720500D01*
X109976111Y-68720499D01*
X110256824Y-68664662D01*
X110521253Y-68555132D01*
X110759233Y-68396118D01*
X110961618Y-68193733D01*
X110999034Y-68137737D01*
X110999898Y-68136444D01*
X111078808Y-68083717D01*
X111171890Y-68102232D01*
X111206102Y-68136444D01*
X111244378Y-68193728D01*
X111244384Y-68193736D01*
X111446763Y-68396115D01*
X111446767Y-68396118D01*
X111684740Y-68555128D01*
X111684749Y-68555133D01*
X111744652Y-68579945D01*
X111949176Y-68664662D01*
X112229887Y-68720499D01*
X112229890Y-68720500D01*
X112229892Y-68720500D01*
X112516110Y-68720500D01*
X112516111Y-68720499D01*
X112796824Y-68664662D01*
X113061253Y-68555132D01*
X113299233Y-68396118D01*
X113501618Y-68193733D01*
X113660632Y-67955753D01*
X113770162Y-67691324D01*
X113826000Y-67410608D01*
X113826000Y-67029392D01*
X113826000Y-67029390D01*
X113826000Y-67029389D01*
X113825999Y-67029387D01*
X113814860Y-66973388D01*
X113770162Y-66748676D01*
X113660632Y-66484247D01*
X113660631Y-66484246D01*
X113660628Y-66484240D01*
X113501618Y-66246267D01*
X113501615Y-66246263D01*
X113299236Y-66043884D01*
X113299232Y-66043881D01*
X113061259Y-65884871D01*
X113061250Y-65884866D01*
X112796824Y-65775338D01*
X112796816Y-65775336D01*
X112516111Y-65719500D01*
X112516108Y-65719500D01*
X112229892Y-65719500D01*
X112229889Y-65719500D01*
X111949183Y-65775336D01*
X111949175Y-65775338D01*
X111684749Y-65884866D01*
X111684740Y-65884871D01*
X111446767Y-66043881D01*
X111446763Y-66043884D01*
X111333581Y-66157067D01*
X111245900Y-66193386D01*
X111158219Y-66157067D01*
X111121900Y-66069386D01*
X111121900Y-65716352D01*
X111100301Y-65607771D01*
X111073383Y-65472442D01*
X110978213Y-65242682D01*
X110964777Y-65222574D01*
X110840048Y-65035903D01*
X110840046Y-65035900D01*
X110659878Y-64855732D01*
X110659855Y-64855711D01*
X110387326Y-64583181D01*
X110351007Y-64495500D01*
X110387326Y-64407819D01*
X110475007Y-64371500D01*
X148727893Y-64371500D01*
X148815574Y-64407819D01*
X148851893Y-64495500D01*
X148815574Y-64583181D01*
X148094573Y-65304182D01*
X148006892Y-65340501D01*
X147740887Y-65340501D01*
X147364067Y-65415455D01*
X147364059Y-65415457D01*
X147009090Y-65562490D01*
X146689632Y-65775944D01*
X146689630Y-65775946D01*
X146689628Y-65775947D01*
X146689628Y-65775948D01*
X146585194Y-65880381D01*
X146497515Y-65916700D01*
X141340509Y-65916700D01*
X141271619Y-65895802D01*
X141255264Y-65884874D01*
X141255250Y-65884866D01*
X140990824Y-65775338D01*
X140990816Y-65775336D01*
X140710111Y-65719500D01*
X140710108Y-65719500D01*
X140423892Y-65719500D01*
X140423889Y-65719500D01*
X140143183Y-65775336D01*
X140143175Y-65775338D01*
X139878749Y-65884866D01*
X139878740Y-65884871D01*
X139640767Y-66043881D01*
X139640763Y-66043884D01*
X139438384Y-66246263D01*
X139438381Y-66246267D01*
X139400102Y-66303556D01*
X139321191Y-66356282D01*
X139228109Y-66337767D01*
X139193898Y-66303556D01*
X139155618Y-66246267D01*
X139155615Y-66246263D01*
X138953236Y-66043884D01*
X138953232Y-66043881D01*
X138715259Y-65884871D01*
X138715250Y-65884866D01*
X138450824Y-65775338D01*
X138450816Y-65775336D01*
X138170111Y-65719500D01*
X138170108Y-65719500D01*
X137883892Y-65719500D01*
X137883889Y-65719500D01*
X137603183Y-65775336D01*
X137603175Y-65775338D01*
X137338749Y-65884866D01*
X137338740Y-65884871D01*
X137100767Y-66043881D01*
X137096057Y-66047747D01*
X137094623Y-66046000D01*
X137013805Y-66079463D01*
X136926128Y-66043132D01*
X136910720Y-66024354D01*
X136817517Y-65884868D01*
X136800340Y-65859160D01*
X136634785Y-65748540D01*
X136634783Y-65748539D01*
X136634780Y-65748538D01*
X136488796Y-65719500D01*
X134485210Y-65719500D01*
X134339212Y-65748540D01*
X134173660Y-65859160D01*
X134063040Y-66024715D01*
X134063038Y-66024719D01*
X134034000Y-66170702D01*
X134034000Y-68269289D01*
X134063040Y-68415287D01*
X134119065Y-68499133D01*
X134173660Y-68580840D01*
X134339215Y-68691460D01*
X134339218Y-68691460D01*
X134339219Y-68691461D01*
X134412211Y-68705980D01*
X134485207Y-68720500D01*
X136488792Y-68720499D01*
X136634785Y-68691460D01*
X136634786Y-68691459D01*
X136634787Y-68691459D01*
X136718592Y-68635462D01*
X136800340Y-68580840D01*
X136910720Y-68415643D01*
X136989629Y-68362918D01*
X137082711Y-68381432D01*
X137095992Y-68392332D01*
X137096057Y-68392253D01*
X137100767Y-68396118D01*
X137338740Y-68555128D01*
X137338749Y-68555133D01*
X137398652Y-68579945D01*
X137603176Y-68664662D01*
X137883887Y-68720499D01*
X137883890Y-68720500D01*
X137883892Y-68720500D01*
X138170110Y-68720500D01*
X138170111Y-68720499D01*
X138450824Y-68664662D01*
X138715253Y-68555132D01*
X138953233Y-68396118D01*
X139155618Y-68193733D01*
X139193034Y-68137737D01*
X139193898Y-68136444D01*
X139272808Y-68083717D01*
X139365890Y-68102232D01*
X139400102Y-68136444D01*
X139438378Y-68193728D01*
X139438384Y-68193736D01*
X139640763Y-68396115D01*
X139640767Y-68396118D01*
X139878740Y-68555128D01*
X139878749Y-68555133D01*
X139938652Y-68579945D01*
X140143176Y-68664662D01*
X140423887Y-68720499D01*
X140423890Y-68720500D01*
X140423892Y-68720500D01*
X140710110Y-68720500D01*
X140710111Y-68720499D01*
X140990824Y-68664662D01*
X141255253Y-68555132D01*
X141393739Y-68462597D01*
X141462630Y-68441700D01*
X143999655Y-68441700D01*
X146289745Y-68441700D01*
X146377426Y-68478019D01*
X146392847Y-68496809D01*
X146417946Y-68534372D01*
X146417949Y-68534376D01*
X146689624Y-68806051D01*
X146689632Y-68806057D01*
X147009090Y-69019511D01*
X147009091Y-69019511D01*
X147009092Y-69019512D01*
X147364060Y-69166545D01*
X147740882Y-69241499D01*
X147740887Y-69241500D01*
X147740891Y-69241501D01*
X147740892Y-69241501D01*
X148125109Y-69241501D01*
X148125110Y-69241500D01*
X148501940Y-69166545D01*
X148856908Y-69019512D01*
X149176372Y-68806054D01*
X149448053Y-68534373D01*
X149661511Y-68214909D01*
X149808544Y-67859941D01*
X149883500Y-67483109D01*
X149883500Y-67137505D01*
X149919819Y-67049824D01*
X150454625Y-66515019D01*
X150542306Y-66478700D01*
X151944000Y-66478700D01*
X152031681Y-66515019D01*
X152068000Y-66602700D01*
X152068000Y-68269290D01*
X152097040Y-68415288D01*
X152153065Y-68499134D01*
X152207660Y-68580841D01*
X152373215Y-68691461D01*
X152373218Y-68691461D01*
X152373219Y-68691462D01*
X152446211Y-68705981D01*
X152519207Y-68720501D01*
X154522792Y-68720500D01*
X154668785Y-68691461D01*
X154668786Y-68691460D01*
X154668787Y-68691460D01*
X154724219Y-68654420D01*
X154834340Y-68580841D01*
X154944720Y-68415644D01*
X155023629Y-68362919D01*
X155116711Y-68381433D01*
X155129992Y-68392333D01*
X155130057Y-68392254D01*
X155134767Y-68396119D01*
X155372740Y-68555129D01*
X155372746Y-68555132D01*
X155372747Y-68555133D01*
X155637176Y-68664663D01*
X155917882Y-68720499D01*
X155917887Y-68720500D01*
X155917890Y-68720501D01*
X155917892Y-68720501D01*
X156204110Y-68720501D01*
X156204111Y-68720500D01*
X156484824Y-68664663D01*
X156749253Y-68555133D01*
X156987233Y-68396119D01*
X157189618Y-68193734D01*
X157212887Y-68158910D01*
X157227898Y-68136445D01*
X157306808Y-68083718D01*
X157399890Y-68102233D01*
X157434102Y-68136445D01*
X157472378Y-68193729D01*
X157472384Y-68193737D01*
X157674763Y-68396116D01*
X157674767Y-68396119D01*
X157912740Y-68555129D01*
X157912746Y-68555132D01*
X157912747Y-68555133D01*
X158177176Y-68664663D01*
X158457882Y-68720499D01*
X158457887Y-68720500D01*
X158457890Y-68720501D01*
X158457892Y-68720501D01*
X158744110Y-68720501D01*
X158744111Y-68720500D01*
X159024824Y-68664663D01*
X159289253Y-68555133D01*
X159527233Y-68396119D01*
X159729618Y-68193734D01*
X159888632Y-67955754D01*
X159998162Y-67691325D01*
X160054000Y-67410609D01*
X160054000Y-67029393D01*
X160054000Y-67029392D01*
X160054000Y-67029390D01*
X160053999Y-67029388D01*
X160032561Y-66921614D01*
X159998162Y-66748677D01*
X159888632Y-66484248D01*
X159888631Y-66484247D01*
X159888628Y-66484241D01*
X159729618Y-66246268D01*
X159729615Y-66246264D01*
X159527236Y-66043885D01*
X159527232Y-66043882D01*
X159289259Y-65884872D01*
X159289250Y-65884867D01*
X159024824Y-65775339D01*
X159024816Y-65775337D01*
X158744111Y-65719501D01*
X158744108Y-65719501D01*
X158457892Y-65719501D01*
X158457889Y-65719501D01*
X158177183Y-65775337D01*
X158177175Y-65775339D01*
X157912749Y-65884867D01*
X157912740Y-65884872D01*
X157674767Y-66043882D01*
X157674763Y-66043885D01*
X157536181Y-66182468D01*
X157448500Y-66218787D01*
X157360819Y-66182468D01*
X157324500Y-66094787D01*
X157324500Y-65716352D01*
X157302901Y-65607771D01*
X157275983Y-65472442D01*
X157180813Y-65242682D01*
X157167377Y-65222574D01*
X157042648Y-65035903D01*
X157042646Y-65035900D01*
X156862478Y-64855732D01*
X156862455Y-64855711D01*
X156589926Y-64583181D01*
X156553607Y-64495500D01*
X156589926Y-64407819D01*
X156677607Y-64371500D01*
X194905094Y-64371500D01*
X194992775Y-64407819D01*
X195029094Y-64495500D01*
X194992775Y-64583181D01*
X194327774Y-65248182D01*
X194240093Y-65284501D01*
X193968887Y-65284501D01*
X193592067Y-65359455D01*
X193592059Y-65359457D01*
X193237090Y-65506490D01*
X192917632Y-65719944D01*
X192917629Y-65719946D01*
X192889038Y-65748538D01*
X192807994Y-65829581D01*
X192720315Y-65865900D01*
X187576291Y-65865900D01*
X187507400Y-65845002D01*
X187483259Y-65828871D01*
X187483250Y-65828866D01*
X187218824Y-65719338D01*
X187218816Y-65719336D01*
X186938111Y-65663500D01*
X186938108Y-65663500D01*
X186651892Y-65663500D01*
X186651889Y-65663500D01*
X186371183Y-65719336D01*
X186371175Y-65719338D01*
X186106749Y-65828866D01*
X186106740Y-65828871D01*
X185868767Y-65987881D01*
X185868763Y-65987884D01*
X185666384Y-66190263D01*
X185666381Y-66190267D01*
X185628102Y-66247556D01*
X185549191Y-66300282D01*
X185456109Y-66281767D01*
X185421898Y-66247556D01*
X185383618Y-66190267D01*
X185383615Y-66190263D01*
X185181236Y-65987884D01*
X185181232Y-65987881D01*
X184943259Y-65828871D01*
X184943250Y-65828866D01*
X184678824Y-65719338D01*
X184678816Y-65719336D01*
X184398111Y-65663500D01*
X184398108Y-65663500D01*
X184111892Y-65663500D01*
X184111889Y-65663500D01*
X183831183Y-65719336D01*
X183831175Y-65719338D01*
X183566749Y-65828866D01*
X183566740Y-65828871D01*
X183328767Y-65987881D01*
X183324057Y-65991747D01*
X183322623Y-65990000D01*
X183241805Y-66023463D01*
X183154128Y-65987132D01*
X183138720Y-65968354D01*
X183065758Y-65859160D01*
X183028340Y-65803160D01*
X182862785Y-65692540D01*
X182862783Y-65692539D01*
X182862780Y-65692538D01*
X182716796Y-65663500D01*
X180713210Y-65663500D01*
X180567212Y-65692540D01*
X180401660Y-65803160D01*
X180291040Y-65968715D01*
X180291038Y-65968719D01*
X180262000Y-66114702D01*
X180262000Y-68213289D01*
X180291040Y-68359287D01*
X180348987Y-68446009D01*
X180401660Y-68524840D01*
X180567215Y-68635460D01*
X180567218Y-68635460D01*
X180567219Y-68635461D01*
X180640211Y-68649980D01*
X180713207Y-68664500D01*
X182716792Y-68664499D01*
X182862785Y-68635460D01*
X182862786Y-68635459D01*
X182862787Y-68635459D01*
X182944531Y-68580839D01*
X183028340Y-68524840D01*
X183138720Y-68359643D01*
X183217629Y-68306918D01*
X183310711Y-68325432D01*
X183323992Y-68336332D01*
X183324057Y-68336253D01*
X183328767Y-68340118D01*
X183566740Y-68499128D01*
X183566749Y-68499133D01*
X183626652Y-68523945D01*
X183831176Y-68608662D01*
X184111887Y-68664499D01*
X184111890Y-68664500D01*
X184111892Y-68664500D01*
X184398110Y-68664500D01*
X184398111Y-68664499D01*
X184678824Y-68608662D01*
X184943253Y-68499132D01*
X185181233Y-68340118D01*
X185383618Y-68137733D01*
X185398918Y-68114834D01*
X185421898Y-68080444D01*
X185500808Y-68027717D01*
X185593890Y-68046232D01*
X185628102Y-68080444D01*
X185666378Y-68137728D01*
X185666384Y-68137736D01*
X185868763Y-68340115D01*
X185868767Y-68340118D01*
X186106740Y-68499128D01*
X186106749Y-68499133D01*
X186166652Y-68523945D01*
X186371176Y-68608662D01*
X186651887Y-68664499D01*
X186651890Y-68664500D01*
X186651892Y-68664500D01*
X186938110Y-68664500D01*
X186938111Y-68664499D01*
X187218824Y-68608662D01*
X187483253Y-68499132D01*
X187613957Y-68411797D01*
X187682848Y-68390900D01*
X190227655Y-68390900D01*
X192521220Y-68390900D01*
X192608901Y-68427219D01*
X192624322Y-68446009D01*
X192645710Y-68478019D01*
X192645948Y-68478374D01*
X192645951Y-68478378D01*
X192917624Y-68750051D01*
X192917632Y-68750057D01*
X193237090Y-68963511D01*
X193237091Y-68963511D01*
X193237092Y-68963512D01*
X193592060Y-69110545D01*
X193968887Y-69185500D01*
X193968891Y-69185501D01*
X193968892Y-69185501D01*
X194353109Y-69185501D01*
X194353110Y-69185500D01*
X194729940Y-69110545D01*
X195084908Y-68963512D01*
X195404372Y-68750054D01*
X195676053Y-68478373D01*
X195889511Y-68158909D01*
X196036544Y-67803941D01*
X196111500Y-67427109D01*
X196111500Y-67086705D01*
X196147819Y-66999024D01*
X196682625Y-66464219D01*
X196770306Y-66427900D01*
X198172000Y-66427900D01*
X198259681Y-66464219D01*
X198296000Y-66551900D01*
X198296000Y-68213290D01*
X198325040Y-68359288D01*
X198362698Y-68415646D01*
X198435660Y-68524841D01*
X198601215Y-68635461D01*
X198601218Y-68635461D01*
X198601219Y-68635462D01*
X198674211Y-68649981D01*
X198747207Y-68664501D01*
X200750792Y-68664500D01*
X200896785Y-68635461D01*
X200896786Y-68635460D01*
X200896787Y-68635460D01*
X201017003Y-68555134D01*
X201062340Y-68524841D01*
X201172720Y-68359644D01*
X201251629Y-68306919D01*
X201344711Y-68325433D01*
X201357992Y-68336333D01*
X201358057Y-68336254D01*
X201362767Y-68340119D01*
X201600740Y-68499129D01*
X201600746Y-68499132D01*
X201600747Y-68499133D01*
X201865176Y-68608663D01*
X202145882Y-68664499D01*
X202145887Y-68664500D01*
X202145890Y-68664501D01*
X202145892Y-68664501D01*
X202432110Y-68664501D01*
X202432111Y-68664500D01*
X202712824Y-68608663D01*
X202977253Y-68499133D01*
X203215233Y-68340119D01*
X203417618Y-68137734D01*
X203453711Y-68083718D01*
X203455898Y-68080445D01*
X203534808Y-68027718D01*
X203627890Y-68046233D01*
X203662102Y-68080445D01*
X203700378Y-68137729D01*
X203700384Y-68137737D01*
X203902763Y-68340116D01*
X203902767Y-68340119D01*
X204140740Y-68499129D01*
X204140746Y-68499132D01*
X204140747Y-68499133D01*
X204405176Y-68608663D01*
X204685882Y-68664499D01*
X204685887Y-68664500D01*
X204685890Y-68664501D01*
X204685892Y-68664501D01*
X204972110Y-68664501D01*
X204972111Y-68664500D01*
X205252824Y-68608663D01*
X205517253Y-68499133D01*
X205755233Y-68340119D01*
X205957618Y-68137734D01*
X206116632Y-67899754D01*
X206226162Y-67635325D01*
X206282000Y-67354609D01*
X206282000Y-66973393D01*
X206282000Y-66973390D01*
X206281999Y-66973388D01*
X206270170Y-66913918D01*
X206226162Y-66692677D01*
X206120688Y-66438039D01*
X206116633Y-66428250D01*
X206116628Y-66428241D01*
X205957618Y-66190268D01*
X205957615Y-66190264D01*
X205755236Y-65987885D01*
X205755232Y-65987882D01*
X205517259Y-65828872D01*
X205517250Y-65828867D01*
X205252824Y-65719339D01*
X205252816Y-65719337D01*
X204972111Y-65663501D01*
X204972108Y-65663501D01*
X204685892Y-65663501D01*
X204685889Y-65663501D01*
X204405183Y-65719337D01*
X204405175Y-65719339D01*
X204140749Y-65828867D01*
X204140740Y-65828872D01*
X203902767Y-65987882D01*
X203902763Y-65987885D01*
X203764181Y-66126468D01*
X203676500Y-66162787D01*
X203588819Y-66126468D01*
X203552500Y-66038787D01*
X203552500Y-65665555D01*
X203552091Y-65663502D01*
X203552086Y-65663476D01*
X203535040Y-65577781D01*
X203503983Y-65421642D01*
X203421525Y-65222572D01*
X203408814Y-65191884D01*
X203408809Y-65191876D01*
X203341982Y-65091862D01*
X203341980Y-65091860D01*
X203341977Y-65091855D01*
X203270648Y-64985103D01*
X203270646Y-64985100D01*
X203090478Y-64804932D01*
X203090455Y-64804911D01*
X202868726Y-64583181D01*
X202832407Y-64495500D01*
X202868726Y-64407819D01*
X202956407Y-64371500D01*
X217277115Y-64371500D01*
X217348933Y-64371500D01*
X217357043Y-64371765D01*
X217882480Y-64406203D01*
X217898538Y-64408318D01*
X218335172Y-64495170D01*
X218410972Y-64510248D01*
X218426639Y-64514446D01*
X218629127Y-64583181D01*
X218921387Y-64682390D01*
X218936364Y-64688593D01*
X219381043Y-64907884D01*
X219404960Y-64919679D01*
X219419008Y-64927789D01*
X219853430Y-65218061D01*
X219866290Y-65227929D01*
X220016269Y-65359457D01*
X220259108Y-65572422D01*
X220270577Y-65583891D01*
X220615067Y-65976705D01*
X220624940Y-65989571D01*
X220648181Y-66024354D01*
X220915210Y-66423992D01*
X220923320Y-66438039D01*
X221154403Y-66906628D01*
X221160610Y-66921614D01*
X221328553Y-67416360D01*
X221332751Y-67432027D01*
X221434679Y-67944450D01*
X221436797Y-67960531D01*
X221471235Y-68485956D01*
X221471500Y-68494066D01*
X221471500Y-80115386D01*
X221435181Y-80203067D01*
X221347500Y-80239386D01*
X221315407Y-80235161D01*
X221175477Y-80197667D01*
X221081553Y-80172500D01*
X220844447Y-80172500D01*
X220707030Y-80209320D01*
X220615418Y-80233868D01*
X220615417Y-80233869D01*
X220410078Y-80352422D01*
X220242422Y-80520078D01*
X220123869Y-80725417D01*
X220123868Y-80725418D01*
X220093184Y-80839933D01*
X220062500Y-80954447D01*
X220062500Y-81191553D01*
X220108526Y-81363323D01*
X220123868Y-81420581D01*
X220123869Y-81420582D01*
X220242421Y-81625920D01*
X220410080Y-81793579D01*
X220615420Y-81912132D01*
X220844447Y-81973500D01*
X220844450Y-81973500D01*
X221081550Y-81973500D01*
X221081553Y-81973500D01*
X221310580Y-81912132D01*
X221310582Y-81912130D01*
X221315406Y-81910838D01*
X221409500Y-81923226D01*
X221467275Y-81998519D01*
X221471500Y-82030613D01*
X221471500Y-115485933D01*
X221471235Y-115494043D01*
X221436797Y-116019468D01*
X221434679Y-116035549D01*
X221332751Y-116547972D01*
X221328553Y-116563639D01*
X221160610Y-117058385D01*
X221154403Y-117073371D01*
X220923320Y-117541960D01*
X220915210Y-117556007D01*
X220624941Y-117990426D01*
X220615067Y-118003294D01*
X220270577Y-118396108D01*
X220259108Y-118407577D01*
X219866294Y-118752067D01*
X219853426Y-118761941D01*
X219419007Y-119052210D01*
X219404960Y-119060320D01*
X218936371Y-119291403D01*
X218921385Y-119297610D01*
X218426639Y-119465553D01*
X218410972Y-119469751D01*
X217898549Y-119571679D01*
X217882468Y-119573797D01*
X217357043Y-119608235D01*
X217348933Y-119608500D01*
X71357067Y-119608500D01*
X71348957Y-119608235D01*
X70823531Y-119573797D01*
X70807450Y-119571679D01*
X70295027Y-119469751D01*
X70279360Y-119465553D01*
X69784614Y-119297610D01*
X69769628Y-119291403D01*
X69301039Y-119060320D01*
X69286992Y-119052210D01*
X68852573Y-118761941D01*
X68839705Y-118752067D01*
X68446891Y-118407577D01*
X68435422Y-118396108D01*
X68090932Y-118003294D01*
X68081058Y-117990426D01*
X68032115Y-117917178D01*
X67790789Y-117556007D01*
X67782679Y-117541960D01*
X67653248Y-117279500D01*
X67551593Y-117073364D01*
X67545389Y-117058385D01*
X67468207Y-116831013D01*
X67457436Y-116799282D01*
X139032500Y-116799282D01*
X139032500Y-117662718D01*
X139083637Y-117853563D01*
X139100683Y-117917179D01*
X139100684Y-117917180D01*
X139232398Y-118145317D01*
X139232400Y-118145320D01*
X139232401Y-118145321D01*
X139418679Y-118331599D01*
X139646822Y-118463317D01*
X139901282Y-118531500D01*
X139901285Y-118531500D01*
X140164715Y-118531500D01*
X140164718Y-118531500D01*
X140419178Y-118463317D01*
X140647321Y-118331599D01*
X140833599Y-118145321D01*
X140965317Y-117917178D01*
X141033500Y-117662718D01*
X141033500Y-116799282D01*
X147672500Y-116799282D01*
X147672500Y-117662718D01*
X147723637Y-117853563D01*
X147740683Y-117917179D01*
X147740684Y-117917180D01*
X147872398Y-118145317D01*
X147872400Y-118145320D01*
X147872401Y-118145321D01*
X148058679Y-118331599D01*
X148286822Y-118463317D01*
X148541282Y-118531500D01*
X148541285Y-118531500D01*
X148804715Y-118531500D01*
X148804718Y-118531500D01*
X149059178Y-118463317D01*
X149287321Y-118331599D01*
X149473599Y-118145321D01*
X149605317Y-117917178D01*
X149673500Y-117662718D01*
X149673500Y-116799282D01*
X149605317Y-116544822D01*
X149473599Y-116316679D01*
X149417367Y-116260447D01*
X158200500Y-116260447D01*
X158200500Y-116497553D01*
X158218208Y-116563639D01*
X158261868Y-116726581D01*
X158261869Y-116726582D01*
X158380421Y-116931920D01*
X158548080Y-117099579D01*
X158753420Y-117218132D01*
X158982447Y-117279500D01*
X158982450Y-117279500D01*
X159219550Y-117279500D01*
X159219553Y-117279500D01*
X159448580Y-117218132D01*
X159653920Y-117099579D01*
X159821579Y-116931920D01*
X159940132Y-116726580D01*
X160001500Y-116497553D01*
X160001500Y-116260447D01*
X159940132Y-116031420D01*
X159821579Y-115826080D01*
X159653920Y-115658421D01*
X159448582Y-115539869D01*
X159448581Y-115539868D01*
X159391323Y-115524526D01*
X159219553Y-115478500D01*
X158982447Y-115478500D01*
X158845030Y-115515320D01*
X158753418Y-115539868D01*
X158753417Y-115539869D01*
X158548078Y-115658422D01*
X158380422Y-115826078D01*
X158261869Y-116031417D01*
X158261868Y-116031418D01*
X158235347Y-116130398D01*
X158200500Y-116260447D01*
X149417367Y-116260447D01*
X149287321Y-116130401D01*
X149287320Y-116130400D01*
X149287317Y-116130398D01*
X149059180Y-115998684D01*
X149059179Y-115998683D01*
X148995563Y-115981637D01*
X148804718Y-115930500D01*
X148541282Y-115930500D01*
X148388606Y-115971409D01*
X148286820Y-115998683D01*
X148286819Y-115998684D01*
X148058682Y-116130398D01*
X148058677Y-116130402D01*
X147872402Y-116316677D01*
X147872398Y-116316682D01*
X147740684Y-116544819D01*
X147740683Y-116544820D01*
X147706591Y-116672052D01*
X147672500Y-116799282D01*
X141033500Y-116799282D01*
X140965317Y-116544822D01*
X140833599Y-116316679D01*
X140647321Y-116130401D01*
X140647320Y-116130400D01*
X140647317Y-116130398D01*
X140419180Y-115998684D01*
X140419179Y-115998683D01*
X140355563Y-115981637D01*
X140164718Y-115930500D01*
X139901282Y-115930500D01*
X139748606Y-115971409D01*
X139646820Y-115998683D01*
X139646819Y-115998684D01*
X139418682Y-116130398D01*
X139418677Y-116130402D01*
X139232402Y-116316677D01*
X139232398Y-116316682D01*
X139100684Y-116544819D01*
X139100683Y-116544820D01*
X139066591Y-116672052D01*
X139032500Y-116799282D01*
X67457436Y-116799282D01*
X67377446Y-116563639D01*
X67373248Y-116547972D01*
X67316056Y-116260449D01*
X67271318Y-116035538D01*
X67269203Y-116019480D01*
X67234765Y-115494043D01*
X67234500Y-115485933D01*
X67234500Y-112369282D01*
X139032500Y-112369282D01*
X139032500Y-113732718D01*
X139063570Y-113848672D01*
X139100683Y-113987179D01*
X139100684Y-113987180D01*
X139232398Y-114215317D01*
X139232400Y-114215320D01*
X139232401Y-114215321D01*
X139418679Y-114401599D01*
X139646822Y-114533317D01*
X139901282Y-114601500D01*
X139901285Y-114601500D01*
X140164715Y-114601500D01*
X140164718Y-114601500D01*
X140419178Y-114533317D01*
X140647321Y-114401599D01*
X140833599Y-114215321D01*
X140954315Y-114006233D01*
X141029608Y-113948458D01*
X141123701Y-113960846D01*
X141149383Y-113980552D01*
X141165328Y-113996497D01*
X141301898Y-114053066D01*
X141358469Y-114076499D01*
X141358470Y-114076499D01*
X141358472Y-114076500D01*
X141358473Y-114076500D01*
X141567527Y-114076500D01*
X141567528Y-114076500D01*
X141760672Y-113996497D01*
X141908497Y-113848672D01*
X141988500Y-113655528D01*
X141988500Y-113446472D01*
X141908497Y-113253328D01*
X141760672Y-113105503D01*
X141743833Y-113098528D01*
X141567530Y-113025500D01*
X141567528Y-113025500D01*
X141358472Y-113025500D01*
X141358469Y-113025500D01*
X141204953Y-113089089D01*
X141110047Y-113089089D01*
X141042939Y-113021981D01*
X141033500Y-112974528D01*
X141033500Y-112369284D01*
X141033500Y-112369282D01*
X140965317Y-112114822D01*
X140872542Y-111954130D01*
X140833601Y-111886682D01*
X140833597Y-111886677D01*
X140647322Y-111700402D01*
X140647317Y-111700398D01*
X140419180Y-111568684D01*
X140419179Y-111568683D01*
X140355563Y-111551637D01*
X140164718Y-111500500D01*
X139901282Y-111500500D01*
X139748606Y-111541409D01*
X139646820Y-111568683D01*
X139646819Y-111568684D01*
X139418682Y-111700398D01*
X139418677Y-111700402D01*
X139232402Y-111886677D01*
X139232398Y-111886682D01*
X139100684Y-112114819D01*
X139100683Y-112114820D01*
X139099506Y-112119214D01*
X139032500Y-112369282D01*
X67234500Y-112369282D01*
X67234500Y-111048004D01*
X68302339Y-111048004D01*
X68341210Y-111243417D01*
X68341212Y-111243423D01*
X68377529Y-111331101D01*
X68488226Y-111496770D01*
X68488229Y-111496773D01*
X68564041Y-111547429D01*
X68653896Y-111607469D01*
X68653897Y-111607469D01*
X68653898Y-111607470D01*
X68741574Y-111643787D01*
X68741575Y-111643787D01*
X68741577Y-111643788D01*
X68741579Y-111643788D01*
X68753554Y-111646170D01*
X68753556Y-111646170D01*
X68797913Y-111654993D01*
X68936997Y-111682660D01*
X68937000Y-111682660D01*
X86469004Y-111682660D01*
X86600475Y-111656508D01*
X86664423Y-111643788D01*
X86752104Y-111607469D01*
X86917771Y-111496773D01*
X87028469Y-111331104D01*
X87064788Y-111243423D01*
X87064788Y-111243421D01*
X87097862Y-111077148D01*
X87103660Y-111048002D01*
X87103660Y-107206982D01*
X112182500Y-107206982D01*
X112182500Y-107473017D01*
X112234397Y-107733918D01*
X112234399Y-107733926D01*
X112336201Y-107979697D01*
X112336206Y-107979707D01*
X112483998Y-108200892D01*
X112484001Y-108200896D01*
X112672103Y-108388998D01*
X112672107Y-108389001D01*
X112848551Y-108506898D01*
X112901277Y-108585809D01*
X112882762Y-108678891D01*
X112848551Y-108713102D01*
X112672107Y-108830998D01*
X112672103Y-108831001D01*
X112484001Y-109019103D01*
X112483998Y-109019107D01*
X112336206Y-109240292D01*
X112336201Y-109240302D01*
X112234399Y-109486073D01*
X112234397Y-109486081D01*
X112182500Y-109746982D01*
X112182500Y-110013017D01*
X112234397Y-110273918D01*
X112234399Y-110273926D01*
X112336201Y-110519697D01*
X112336206Y-110519707D01*
X112483998Y-110740892D01*
X112484001Y-110740896D01*
X112672103Y-110928998D01*
X112672107Y-110929001D01*
X112893292Y-111076793D01*
X112893296Y-111076795D01*
X112893299Y-111076797D01*
X113139074Y-111178601D01*
X113399982Y-111230499D01*
X113399985Y-111230500D01*
X113399987Y-111230500D01*
X113666015Y-111230500D01*
X113666016Y-111230499D01*
X113926926Y-111178601D01*
X114172701Y-111076797D01*
X114393893Y-110929001D01*
X114582001Y-110740893D01*
X114699898Y-110564448D01*
X114778809Y-110511722D01*
X114871891Y-110530237D01*
X114906102Y-110564448D01*
X115023998Y-110740892D01*
X115024001Y-110740896D01*
X115212103Y-110928998D01*
X115212107Y-110929001D01*
X115433292Y-111076793D01*
X115433296Y-111076795D01*
X115433299Y-111076797D01*
X115679074Y-111178601D01*
X115939982Y-111230499D01*
X115939985Y-111230500D01*
X115939987Y-111230500D01*
X116206015Y-111230500D01*
X116206016Y-111230499D01*
X116466926Y-111178601D01*
X116712701Y-111076797D01*
X116933893Y-110929001D01*
X117122001Y-110740893D01*
X117239898Y-110564448D01*
X117318809Y-110511722D01*
X117411891Y-110530237D01*
X117446102Y-110564448D01*
X117563998Y-110740892D01*
X117564001Y-110740896D01*
X117752103Y-110928998D01*
X117752107Y-110929001D01*
X117973292Y-111076793D01*
X117973296Y-111076795D01*
X117973299Y-111076797D01*
X118219074Y-111178601D01*
X118479982Y-111230499D01*
X118479985Y-111230500D01*
X118479987Y-111230500D01*
X118746015Y-111230500D01*
X118746016Y-111230499D01*
X119006926Y-111178601D01*
X119252701Y-111076797D01*
X119372953Y-110996447D01*
X141007500Y-110996447D01*
X141007500Y-111233553D01*
X141033638Y-111331101D01*
X141068868Y-111462581D01*
X141068869Y-111462582D01*
X141187421Y-111667920D01*
X141355080Y-111835579D01*
X141560420Y-111954132D01*
X141789447Y-112015500D01*
X141789450Y-112015500D01*
X142026550Y-112015500D01*
X142026553Y-112015500D01*
X142255580Y-111954132D01*
X142460920Y-111835579D01*
X142628579Y-111667920D01*
X142747132Y-111462580D01*
X142808500Y-111233553D01*
X142808500Y-111053447D01*
X146398500Y-111053447D01*
X146398500Y-111290553D01*
X146409365Y-111331101D01*
X146459868Y-111519581D01*
X146459869Y-111519582D01*
X146578421Y-111724920D01*
X146746080Y-111892579D01*
X146951420Y-112011132D01*
X147180447Y-112072500D01*
X147180450Y-112072500D01*
X147417550Y-112072500D01*
X147417553Y-112072500D01*
X147570441Y-112031533D01*
X147664531Y-112043921D01*
X147722307Y-112119214D01*
X147722307Y-112183401D01*
X147672500Y-112369282D01*
X147672500Y-112369284D01*
X147672500Y-112974528D01*
X147636181Y-113062209D01*
X147548500Y-113098528D01*
X147501047Y-113089089D01*
X147347530Y-113025500D01*
X147347528Y-113025500D01*
X147138472Y-113025500D01*
X147138469Y-113025500D01*
X146945327Y-113105503D01*
X146797503Y-113253327D01*
X146717500Y-113446469D01*
X146717500Y-113655530D01*
X146797503Y-113848672D01*
X146945328Y-113996497D01*
X147081898Y-114053066D01*
X147138469Y-114076499D01*
X147138470Y-114076499D01*
X147138472Y-114076500D01*
X147138473Y-114076500D01*
X147347527Y-114076500D01*
X147347528Y-114076500D01*
X147540672Y-113996497D01*
X147556615Y-113980553D01*
X147644294Y-113944233D01*
X147731976Y-113980550D01*
X147751684Y-114006233D01*
X147872398Y-114215317D01*
X147872400Y-114215320D01*
X147872401Y-114215321D01*
X148058679Y-114401599D01*
X148286822Y-114533317D01*
X148541282Y-114601500D01*
X148541285Y-114601500D01*
X148804715Y-114601500D01*
X148804718Y-114601500D01*
X149059178Y-114533317D01*
X149287321Y-114401599D01*
X149473599Y-114215321D01*
X149605317Y-113987178D01*
X149673500Y-113732718D01*
X149673500Y-112513447D01*
X156876500Y-112513447D01*
X156876500Y-112750553D01*
X156915486Y-112896050D01*
X156937868Y-112979581D01*
X156937869Y-112979582D01*
X157056421Y-113184920D01*
X157224080Y-113352579D01*
X157429420Y-113471132D01*
X157658447Y-113532500D01*
X157658450Y-113532500D01*
X157895550Y-113532500D01*
X157895553Y-113532500D01*
X158124580Y-113471132D01*
X158329920Y-113352579D01*
X158462383Y-113220116D01*
X168252500Y-113220116D01*
X168252500Y-114059884D01*
X168294149Y-114215322D01*
X168327498Y-114339779D01*
X168327498Y-114339780D01*
X168363190Y-114401599D01*
X168472381Y-114590723D01*
X168677277Y-114795619D01*
X168928223Y-114940503D01*
X169208116Y-115015500D01*
X169208118Y-115015500D01*
X169497882Y-115015500D01*
X169497884Y-115015500D01*
X169777777Y-114940503D01*
X170028723Y-114795619D01*
X170233619Y-114590723D01*
X170245613Y-114569947D01*
X170320905Y-114512174D01*
X170414999Y-114524560D01*
X170460385Y-114569946D01*
X170472381Y-114590723D01*
X170677277Y-114795619D01*
X170928223Y-114940503D01*
X171208116Y-115015500D01*
X171208118Y-115015500D01*
X171497882Y-115015500D01*
X171497884Y-115015500D01*
X171777777Y-114940503D01*
X172028723Y-114795619D01*
X172233619Y-114590723D01*
X172245613Y-114569947D01*
X172320905Y-114512174D01*
X172414999Y-114524560D01*
X172460385Y-114569946D01*
X172472381Y-114590723D01*
X172677277Y-114795619D01*
X172928223Y-114940503D01*
X173208116Y-115015500D01*
X173208118Y-115015500D01*
X173497882Y-115015500D01*
X173497884Y-115015500D01*
X173777777Y-114940503D01*
X174028723Y-114795619D01*
X174233619Y-114590723D01*
X174245613Y-114569947D01*
X174320905Y-114512174D01*
X174414999Y-114524560D01*
X174460385Y-114569946D01*
X174472381Y-114590723D01*
X174677277Y-114795619D01*
X174928223Y-114940503D01*
X175208116Y-115015500D01*
X175208118Y-115015500D01*
X175497882Y-115015500D01*
X175497884Y-115015500D01*
X175777777Y-114940503D01*
X176028723Y-114795619D01*
X176233619Y-114590723D01*
X176378503Y-114339777D01*
X176453500Y-114059884D01*
X176453500Y-113220116D01*
X176378503Y-112940223D01*
X176233619Y-112689277D01*
X176028723Y-112484381D01*
X175777777Y-112339497D01*
X175497884Y-112264500D01*
X175208116Y-112264500D01*
X174928223Y-112339497D01*
X174928222Y-112339497D01*
X174928220Y-112339498D01*
X174928219Y-112339498D01*
X174677280Y-112484379D01*
X174677274Y-112484383D01*
X174472383Y-112689274D01*
X174472378Y-112689280D01*
X174460387Y-112710051D01*
X174385093Y-112767826D01*
X174291000Y-112755438D01*
X174245613Y-112710051D01*
X174233621Y-112689280D01*
X174233616Y-112689274D01*
X174028725Y-112484383D01*
X174028723Y-112484381D01*
X173777777Y-112339497D01*
X173497884Y-112264500D01*
X173208116Y-112264500D01*
X172928223Y-112339497D01*
X172928222Y-112339497D01*
X172928220Y-112339498D01*
X172928219Y-112339498D01*
X172677280Y-112484379D01*
X172677274Y-112484383D01*
X172472383Y-112689274D01*
X172472378Y-112689280D01*
X172460387Y-112710051D01*
X172385093Y-112767826D01*
X172291000Y-112755438D01*
X172245613Y-112710051D01*
X172233621Y-112689280D01*
X172233616Y-112689274D01*
X172028725Y-112484383D01*
X172028723Y-112484381D01*
X171777777Y-112339497D01*
X171497884Y-112264500D01*
X171208116Y-112264500D01*
X170928223Y-112339497D01*
X170928222Y-112339497D01*
X170928220Y-112339498D01*
X170928219Y-112339498D01*
X170677280Y-112484379D01*
X170677274Y-112484383D01*
X170472383Y-112689274D01*
X170472378Y-112689280D01*
X170460387Y-112710051D01*
X170385093Y-112767826D01*
X170291000Y-112755438D01*
X170245613Y-112710051D01*
X170233621Y-112689280D01*
X170233616Y-112689274D01*
X170028725Y-112484383D01*
X170028723Y-112484381D01*
X169777777Y-112339497D01*
X169497884Y-112264500D01*
X169208116Y-112264500D01*
X168928223Y-112339497D01*
X168928222Y-112339497D01*
X168928220Y-112339498D01*
X168928219Y-112339498D01*
X168677280Y-112484379D01*
X168677274Y-112484383D01*
X168472383Y-112689274D01*
X168472379Y-112689280D01*
X168327498Y-112940219D01*
X168327498Y-112940220D01*
X168327497Y-112940222D01*
X168327497Y-112940223D01*
X168252500Y-113220116D01*
X158462383Y-113220116D01*
X158497579Y-113184920D01*
X158616132Y-112979580D01*
X158677500Y-112750553D01*
X158677500Y-112513447D01*
X158616132Y-112284420D01*
X158497579Y-112079080D01*
X158329920Y-111911421D01*
X158124582Y-111792869D01*
X158124581Y-111792868D01*
X158067323Y-111777526D01*
X157895553Y-111731500D01*
X157658447Y-111731500D01*
X157521030Y-111768320D01*
X157429418Y-111792868D01*
X157429417Y-111792869D01*
X157224078Y-111911422D01*
X157056422Y-112079078D01*
X156937869Y-112284417D01*
X156937868Y-112284418D01*
X156907184Y-112398933D01*
X156876500Y-112513447D01*
X149673500Y-112513447D01*
X149673500Y-112369282D01*
X149605317Y-112114822D01*
X149512542Y-111954130D01*
X149473601Y-111886682D01*
X149473597Y-111886677D01*
X149287322Y-111700402D01*
X149287317Y-111700398D01*
X149059180Y-111568684D01*
X149059179Y-111568683D01*
X148995563Y-111551637D01*
X148804718Y-111500500D01*
X148541282Y-111500500D01*
X148319910Y-111559816D01*
X148225818Y-111547429D01*
X148168043Y-111472136D01*
X148168043Y-111407951D01*
X148199500Y-111290553D01*
X148199500Y-111053447D01*
X148138132Y-110824420D01*
X148019579Y-110619080D01*
X147851920Y-110451421D01*
X147646582Y-110332869D01*
X147646581Y-110332868D01*
X147589323Y-110317526D01*
X147417553Y-110271500D01*
X147180447Y-110271500D01*
X147043030Y-110308320D01*
X146951418Y-110332868D01*
X146951417Y-110332869D01*
X146746078Y-110451422D01*
X146578422Y-110619078D01*
X146459869Y-110824417D01*
X146459868Y-110824418D01*
X146431846Y-110928998D01*
X146398500Y-111053447D01*
X142808500Y-111053447D01*
X142808500Y-110996447D01*
X142747132Y-110767420D01*
X142628579Y-110562080D01*
X142460920Y-110394421D01*
X142272592Y-110285690D01*
X142255582Y-110275869D01*
X142255581Y-110275868D01*
X142198323Y-110260526D01*
X142026553Y-110214500D01*
X141789447Y-110214500D01*
X141652030Y-110251320D01*
X141560418Y-110275868D01*
X141560417Y-110275869D01*
X141355078Y-110394422D01*
X141187422Y-110562078D01*
X141068869Y-110767417D01*
X141068868Y-110767418D01*
X141053595Y-110824418D01*
X141007500Y-110996447D01*
X119372953Y-110996447D01*
X119473893Y-110929001D01*
X119473896Y-110928998D01*
X119502256Y-110900639D01*
X119661998Y-110740896D01*
X119662001Y-110740893D01*
X119809797Y-110519701D01*
X119911601Y-110273926D01*
X119963500Y-110013013D01*
X119963500Y-109746987D01*
X119963500Y-109746984D01*
X119963499Y-109746982D01*
X119911602Y-109486081D01*
X119911601Y-109486074D01*
X119809797Y-109240299D01*
X119809795Y-109240296D01*
X119809793Y-109240292D01*
X119662001Y-109019107D01*
X119661998Y-109019103D01*
X119473896Y-108831001D01*
X119473892Y-108830998D01*
X119297448Y-108713102D01*
X119244722Y-108634191D01*
X119263237Y-108541109D01*
X119297448Y-108506898D01*
X119306512Y-108500841D01*
X119473893Y-108389001D01*
X119662001Y-108200893D01*
X119809797Y-107979701D01*
X119911601Y-107733926D01*
X119963500Y-107473013D01*
X119963500Y-107206987D01*
X119963500Y-107206984D01*
X119948686Y-107132512D01*
X119948686Y-107132511D01*
X119945491Y-107116447D01*
X152113500Y-107116447D01*
X152113500Y-107353553D01*
X152159526Y-107525323D01*
X152174868Y-107582581D01*
X152174869Y-107582582D01*
X152293421Y-107787920D01*
X152461080Y-107955579D01*
X152666420Y-108074132D01*
X152895447Y-108135500D01*
X152895450Y-108135500D01*
X153132550Y-108135500D01*
X153132553Y-108135500D01*
X153361580Y-108074132D01*
X153566920Y-107955579D01*
X153734579Y-107787920D01*
X153853132Y-107582580D01*
X153914500Y-107353553D01*
X153914500Y-107116447D01*
X153853132Y-106887420D01*
X153734579Y-106682080D01*
X153566920Y-106514421D01*
X153361582Y-106395869D01*
X153361581Y-106395868D01*
X153304323Y-106380526D01*
X153132553Y-106334500D01*
X152895447Y-106334500D01*
X152758030Y-106371320D01*
X152666418Y-106395868D01*
X152666417Y-106395869D01*
X152461078Y-106514422D01*
X152293422Y-106682078D01*
X152174869Y-106887417D01*
X152174868Y-106887418D01*
X152149267Y-106982963D01*
X152113500Y-107116447D01*
X119945491Y-107116447D01*
X119920927Y-106992959D01*
X119911601Y-106946074D01*
X119809797Y-106700299D01*
X119809795Y-106700296D01*
X119809793Y-106700292D01*
X119662001Y-106479107D01*
X119661998Y-106479103D01*
X119473896Y-106291001D01*
X119473892Y-106290998D01*
X119252707Y-106143206D01*
X119252697Y-106143201D01*
X119006926Y-106041399D01*
X119006918Y-106041397D01*
X118746016Y-105989500D01*
X118746013Y-105989500D01*
X118479987Y-105989500D01*
X118479984Y-105989500D01*
X118219081Y-106041397D01*
X118219073Y-106041399D01*
X117973302Y-106143201D01*
X117973292Y-106143206D01*
X117752107Y-106290998D01*
X117752103Y-106291001D01*
X117564001Y-106479103D01*
X117563998Y-106479107D01*
X117446102Y-106655551D01*
X117367191Y-106708277D01*
X117274109Y-106689762D01*
X117239898Y-106655551D01*
X117122001Y-106479107D01*
X117121998Y-106479103D01*
X116933896Y-106291001D01*
X116933892Y-106290998D01*
X116712707Y-106143206D01*
X116712697Y-106143201D01*
X116466926Y-106041399D01*
X116466918Y-106041397D01*
X116206016Y-105989500D01*
X116206013Y-105989500D01*
X115939987Y-105989500D01*
X115939984Y-105989500D01*
X115679081Y-106041397D01*
X115679073Y-106041399D01*
X115433302Y-106143201D01*
X115433292Y-106143206D01*
X115212107Y-106290998D01*
X115212103Y-106291001D01*
X115024001Y-106479103D01*
X115023998Y-106479107D01*
X114906102Y-106655551D01*
X114827191Y-106708277D01*
X114734109Y-106689762D01*
X114699898Y-106655551D01*
X114582001Y-106479107D01*
X114581998Y-106479103D01*
X114393896Y-106291001D01*
X114393892Y-106290998D01*
X114172707Y-106143206D01*
X114172697Y-106143201D01*
X113926926Y-106041399D01*
X113926918Y-106041397D01*
X113666016Y-105989500D01*
X113666013Y-105989500D01*
X113399987Y-105989500D01*
X113399984Y-105989500D01*
X113139081Y-106041397D01*
X113139073Y-106041399D01*
X112893302Y-106143201D01*
X112893292Y-106143206D01*
X112672107Y-106290998D01*
X112672103Y-106291001D01*
X112484001Y-106479103D01*
X112483998Y-106479107D01*
X112336206Y-106700292D01*
X112336201Y-106700302D01*
X112234399Y-106946073D01*
X112234397Y-106946081D01*
X112182500Y-107206982D01*
X87103660Y-107206982D01*
X87103660Y-105592447D01*
X158463500Y-105592447D01*
X158463500Y-105829553D01*
X158486330Y-105914754D01*
X158524868Y-106058581D01*
X158524869Y-106058582D01*
X158643421Y-106263920D01*
X158811080Y-106431579D01*
X159016420Y-106550132D01*
X159245447Y-106611500D01*
X159245450Y-106611500D01*
X159482550Y-106611500D01*
X159482553Y-106611500D01*
X159711580Y-106550132D01*
X159916920Y-106431579D01*
X160084579Y-106263920D01*
X160182504Y-106094309D01*
X184852700Y-106094309D01*
X184852700Y-106094316D01*
X184852700Y-106094317D01*
X184852700Y-110285688D01*
X184852701Y-110285690D01*
X184865512Y-110404858D01*
X184865512Y-110404860D01*
X184865513Y-110404862D01*
X184966051Y-110674416D01*
X184966053Y-110674419D01*
X185138465Y-110904735D01*
X185368781Y-111077147D01*
X185638342Y-111177688D01*
X185757509Y-111190500D01*
X187948890Y-111190499D01*
X188068058Y-111177688D01*
X188337619Y-111077147D01*
X188567935Y-110904735D01*
X188740347Y-110674419D01*
X188840888Y-110404858D01*
X188853700Y-110285691D01*
X188853699Y-106992963D01*
X194352700Y-106992963D01*
X194352700Y-109387036D01*
X194429576Y-109773516D01*
X194429578Y-109773524D01*
X194580378Y-110137589D01*
X194580383Y-110137598D01*
X194799309Y-110465245D01*
X195077954Y-110743890D01*
X195405601Y-110962816D01*
X195405607Y-110962819D01*
X195405608Y-110962820D01*
X195769676Y-111113622D01*
X196091748Y-111177686D01*
X196156163Y-111190499D01*
X196156166Y-111190500D01*
X196156168Y-111190500D01*
X196550234Y-111190500D01*
X196550235Y-111190499D01*
X196936724Y-111113622D01*
X197300792Y-110962820D01*
X197628445Y-110743890D01*
X197907090Y-110465245D01*
X198126020Y-110137592D01*
X198276822Y-109773524D01*
X198353700Y-109387032D01*
X198353700Y-106992968D01*
X198351710Y-106982963D01*
X203852500Y-106982963D01*
X203852500Y-109377036D01*
X203929376Y-109763516D01*
X203929378Y-109763524D01*
X204080178Y-110127589D01*
X204080183Y-110127598D01*
X204299109Y-110455245D01*
X204577754Y-110733890D01*
X204905401Y-110952816D01*
X204905410Y-110952821D01*
X204987885Y-110986983D01*
X205269476Y-111103622D01*
X205641821Y-111177686D01*
X205655963Y-111180499D01*
X205655966Y-111180500D01*
X205655968Y-111180500D01*
X206050034Y-111180500D01*
X206050035Y-111180499D01*
X206436524Y-111103622D01*
X206800592Y-110952820D01*
X207128245Y-110733890D01*
X207406890Y-110455245D01*
X207625820Y-110127592D01*
X207776622Y-109763524D01*
X207853500Y-109377032D01*
X207853500Y-106982968D01*
X207853500Y-106982965D01*
X207853499Y-106982963D01*
X207832427Y-106877025D01*
X207776622Y-106596476D01*
X207625820Y-106232408D01*
X207625819Y-106232407D01*
X207625816Y-106232401D01*
X207406890Y-105904754D01*
X207128245Y-105626109D01*
X206800598Y-105407183D01*
X206800589Y-105407178D01*
X206436524Y-105256378D01*
X206436516Y-105256376D01*
X206050035Y-105179500D01*
X206050032Y-105179500D01*
X205655968Y-105179500D01*
X205655965Y-105179500D01*
X205269483Y-105256376D01*
X205269475Y-105256378D01*
X204905410Y-105407178D01*
X204905401Y-105407183D01*
X204577754Y-105626109D01*
X204299109Y-105904754D01*
X204080183Y-106232401D01*
X204080178Y-106232410D01*
X203929378Y-106596475D01*
X203929376Y-106596483D01*
X203852500Y-106982963D01*
X198351710Y-106982963D01*
X198276822Y-106606476D01*
X198126020Y-106242408D01*
X198126019Y-106242407D01*
X198126016Y-106242401D01*
X197907090Y-105914754D01*
X197628445Y-105636109D01*
X197300798Y-105417183D01*
X197300789Y-105417178D01*
X196936724Y-105266378D01*
X196936716Y-105266376D01*
X196550235Y-105189500D01*
X196550232Y-105189500D01*
X196156168Y-105189500D01*
X196156165Y-105189500D01*
X195769683Y-105266376D01*
X195769675Y-105266378D01*
X195405610Y-105417178D01*
X195405601Y-105417183D01*
X195077954Y-105636109D01*
X194799309Y-105914754D01*
X194580383Y-106242401D01*
X194580378Y-106242410D01*
X194429578Y-106606475D01*
X194429576Y-106606483D01*
X194352700Y-106992963D01*
X188853699Y-106992963D01*
X188853699Y-106094310D01*
X188840888Y-105975142D01*
X188740347Y-105705581D01*
X188567935Y-105475265D01*
X188337619Y-105302853D01*
X188337618Y-105302852D01*
X188068061Y-105202313D01*
X188068060Y-105202312D01*
X188068058Y-105202312D01*
X187948891Y-105189500D01*
X187948881Y-105189500D01*
X185757511Y-105189500D01*
X185757510Y-105189501D01*
X185638342Y-105202312D01*
X185638340Y-105202312D01*
X185638337Y-105202313D01*
X185368783Y-105302851D01*
X185368780Y-105302853D01*
X185138465Y-105475265D01*
X184966053Y-105705580D01*
X184966052Y-105705581D01*
X184865513Y-105975138D01*
X184865512Y-105975142D01*
X184852700Y-106094309D01*
X160182504Y-106094309D01*
X160203132Y-106058580D01*
X160264500Y-105829553D01*
X160264500Y-105592447D01*
X160203132Y-105363420D01*
X160084579Y-105158080D01*
X159916920Y-104990421D01*
X159711582Y-104871869D01*
X159711581Y-104871868D01*
X159654323Y-104856526D01*
X159482553Y-104810500D01*
X159245447Y-104810500D01*
X159108030Y-104847320D01*
X159016418Y-104871868D01*
X159016417Y-104871869D01*
X158811078Y-104990422D01*
X158643422Y-105158078D01*
X158524869Y-105363417D01*
X158524868Y-105363418D01*
X158510463Y-105417178D01*
X158463500Y-105592447D01*
X87103660Y-105592447D01*
X87103660Y-104437995D01*
X87064789Y-104242582D01*
X87064788Y-104242579D01*
X87064788Y-104242577D01*
X87028469Y-104154896D01*
X86917773Y-103989229D01*
X86917770Y-103989226D01*
X86752101Y-103878529D01*
X86664425Y-103842212D01*
X86652446Y-103839830D01*
X86652446Y-103839829D01*
X86652441Y-103839829D01*
X86593084Y-103828022D01*
X86469002Y-103803340D01*
X86469000Y-103803340D01*
X68936998Y-103803340D01*
X68936996Y-103803340D01*
X68741582Y-103842210D01*
X68741576Y-103842212D01*
X68653898Y-103878529D01*
X68488229Y-103989226D01*
X68488226Y-103989229D01*
X68377529Y-104154898D01*
X68341212Y-104242574D01*
X68338909Y-104254154D01*
X68338890Y-104254248D01*
X68302340Y-104438000D01*
X68302340Y-111048002D01*
X68302340Y-111048004D01*
X68302339Y-111048004D01*
X67234500Y-111048004D01*
X67234500Y-98169044D01*
X67270819Y-98081363D01*
X67358500Y-98045044D01*
X67446181Y-98081363D01*
X69939586Y-100574769D01*
X69939590Y-100574772D01*
X70105258Y-100685469D01*
X70105259Y-100685469D01*
X70105260Y-100685470D01*
X70192936Y-100721787D01*
X70192937Y-100721787D01*
X70192939Y-100721788D01*
X70192941Y-100721788D01*
X70204916Y-100724170D01*
X70204918Y-100724170D01*
X70249275Y-100732993D01*
X70388359Y-100760660D01*
X70388362Y-100760660D01*
X80445642Y-100760660D01*
X80577113Y-100734508D01*
X80641061Y-100721788D01*
X80728742Y-100685469D01*
X80894410Y-100574772D01*
X81837772Y-99631410D01*
X81948469Y-99465742D01*
X81984788Y-99378061D01*
X81984788Y-99378059D01*
X82007758Y-99262581D01*
X82023660Y-99182640D01*
X82023660Y-95305447D01*
X82644500Y-95305447D01*
X82644500Y-95542553D01*
X82690526Y-95714323D01*
X82705868Y-95771581D01*
X82705869Y-95771582D01*
X82824421Y-95976920D01*
X82992080Y-96144579D01*
X83197420Y-96263132D01*
X83426447Y-96324500D01*
X83426450Y-96324500D01*
X83663550Y-96324500D01*
X83663553Y-96324500D01*
X83892580Y-96263132D01*
X84097920Y-96144579D01*
X84265579Y-95976920D01*
X84384132Y-95771580D01*
X84445500Y-95542553D01*
X84445500Y-95305447D01*
X84406447Y-95159702D01*
X95423750Y-95159702D01*
X95423750Y-96958289D01*
X95452790Y-97104287D01*
X95523285Y-97209789D01*
X95563410Y-97269840D01*
X95728965Y-97380460D01*
X95728967Y-97380460D01*
X95728968Y-97380461D01*
X95796644Y-97393923D01*
X95875554Y-97446650D01*
X95894069Y-97539732D01*
X95860134Y-97603221D01*
X95725248Y-97738107D01*
X95577456Y-97959292D01*
X95577451Y-97959302D01*
X95475649Y-98205073D01*
X95475647Y-98205081D01*
X95423750Y-98465982D01*
X95423750Y-98732017D01*
X95475647Y-98992918D01*
X95475649Y-98992926D01*
X95577451Y-99238697D01*
X95577456Y-99238707D01*
X95725248Y-99459892D01*
X95725251Y-99459896D01*
X95913353Y-99647998D01*
X95913357Y-99648001D01*
X96134542Y-99795793D01*
X96134546Y-99795795D01*
X96134549Y-99795797D01*
X96380324Y-99897601D01*
X96568678Y-99935067D01*
X96641232Y-99949499D01*
X96641235Y-99949500D01*
X96641237Y-99949500D01*
X96907265Y-99949500D01*
X96907266Y-99949499D01*
X97168176Y-99897601D01*
X97413951Y-99795797D01*
X97556271Y-99700702D01*
X104832480Y-99700702D01*
X104832480Y-100799289D01*
X104861520Y-100945287D01*
X104935266Y-101055655D01*
X104972140Y-101110840D01*
X105137695Y-101221460D01*
X105137698Y-101221460D01*
X105137699Y-101221461D01*
X105210691Y-101235980D01*
X105283687Y-101250500D01*
X106382272Y-101250499D01*
X106528265Y-101221460D01*
X106528266Y-101221459D01*
X106528267Y-101221459D01*
X106556046Y-101202897D01*
X106693820Y-101110840D01*
X106804440Y-100945285D01*
X106833480Y-100799293D01*
X106833479Y-99700708D01*
X106833478Y-99700702D01*
X108134480Y-99700702D01*
X108134480Y-100799289D01*
X108163520Y-100945287D01*
X108237266Y-101055655D01*
X108274140Y-101110840D01*
X108439695Y-101221460D01*
X108439698Y-101221460D01*
X108439699Y-101221461D01*
X108512691Y-101235980D01*
X108585687Y-101250500D01*
X109684272Y-101250499D01*
X109830265Y-101221460D01*
X109830266Y-101221459D01*
X109830267Y-101221459D01*
X109858046Y-101202897D01*
X109995820Y-101110840D01*
X110106440Y-100945285D01*
X110135480Y-100799293D01*
X110135479Y-99700708D01*
X110135478Y-99700702D01*
X111436480Y-99700702D01*
X111436480Y-100799289D01*
X111465520Y-100945287D01*
X111539266Y-101055655D01*
X111576140Y-101110840D01*
X111741695Y-101221460D01*
X111741698Y-101221460D01*
X111741699Y-101221461D01*
X111814691Y-101235980D01*
X111887687Y-101250500D01*
X112986272Y-101250499D01*
X113132265Y-101221460D01*
X113132266Y-101221459D01*
X113132267Y-101221459D01*
X113160046Y-101202897D01*
X113297820Y-101110840D01*
X113408440Y-100945285D01*
X113437480Y-100799293D01*
X113437479Y-99700708D01*
X113437478Y-99700702D01*
X114738480Y-99700702D01*
X114738480Y-100799289D01*
X114767520Y-100945287D01*
X114841266Y-101055655D01*
X114878140Y-101110840D01*
X115043695Y-101221460D01*
X115043698Y-101221460D01*
X115043699Y-101221461D01*
X115116691Y-101235980D01*
X115189687Y-101250500D01*
X116288272Y-101250499D01*
X116434265Y-101221460D01*
X116434266Y-101221459D01*
X116434267Y-101221459D01*
X116462046Y-101202897D01*
X116599820Y-101110840D01*
X116710440Y-100945285D01*
X116739480Y-100799293D01*
X116739479Y-99700708D01*
X116739478Y-99700702D01*
X118040480Y-99700702D01*
X118040480Y-100799289D01*
X118069520Y-100945287D01*
X118143266Y-101055655D01*
X118180140Y-101110840D01*
X118345695Y-101221460D01*
X118345698Y-101221460D01*
X118345699Y-101221461D01*
X118418691Y-101235980D01*
X118491687Y-101250500D01*
X119590272Y-101250499D01*
X119736265Y-101221460D01*
X119736266Y-101221459D01*
X119736267Y-101221459D01*
X119764046Y-101202897D01*
X119901820Y-101110840D01*
X120012440Y-100945285D01*
X120041480Y-100799293D01*
X120041479Y-99700708D01*
X120041478Y-99700702D01*
X121342480Y-99700702D01*
X121342480Y-100799289D01*
X121371520Y-100945287D01*
X121445266Y-101055655D01*
X121482140Y-101110840D01*
X121647695Y-101221460D01*
X121647698Y-101221460D01*
X121647699Y-101221461D01*
X121720691Y-101235980D01*
X121793687Y-101250500D01*
X122892272Y-101250499D01*
X123038265Y-101221460D01*
X123038266Y-101221459D01*
X123038267Y-101221459D01*
X123066046Y-101202897D01*
X123203820Y-101110840D01*
X123314440Y-100945285D01*
X123314441Y-100945280D01*
X123324752Y-100893447D01*
X131920500Y-100893447D01*
X131920500Y-101130553D01*
X131960044Y-101278131D01*
X131981868Y-101359581D01*
X131981869Y-101359582D01*
X132100421Y-101564920D01*
X132268080Y-101732579D01*
X132473420Y-101851132D01*
X132611595Y-101888156D01*
X132686887Y-101945930D01*
X132703500Y-102007930D01*
X132703500Y-103317252D01*
X132703500Y-103481948D01*
X132746127Y-103641034D01*
X132746128Y-103641035D01*
X132746129Y-103641040D01*
X132828470Y-103783659D01*
X132828474Y-103783664D01*
X132828475Y-103783666D01*
X134011734Y-104966925D01*
X134011736Y-104966926D01*
X134011740Y-104966929D01*
X134154359Y-105049270D01*
X134154364Y-105049272D01*
X134154366Y-105049273D01*
X134313451Y-105091900D01*
X134313452Y-105091900D01*
X134313454Y-105091900D01*
X156496946Y-105091900D01*
X156496948Y-105091900D01*
X156496949Y-105091900D01*
X156656034Y-105049273D01*
X156656037Y-105049271D01*
X156656040Y-105049270D01*
X156798659Y-104966929D01*
X156798658Y-104966929D01*
X156798666Y-104966925D01*
X159553525Y-102212066D01*
X159635873Y-102069434D01*
X159672425Y-101933022D01*
X159678500Y-101910349D01*
X159678500Y-101248361D01*
X159714819Y-101160680D01*
X159802500Y-101124361D01*
X159880928Y-101156847D01*
X159882630Y-101154630D01*
X159889076Y-101159576D01*
X159889078Y-101159577D01*
X159889080Y-101159579D01*
X160094420Y-101278132D01*
X160323447Y-101339500D01*
X160323450Y-101339500D01*
X160560550Y-101339500D01*
X160560553Y-101339500D01*
X160789580Y-101278132D01*
X160994920Y-101159579D01*
X161162579Y-100991920D01*
X161281132Y-100786580D01*
X161342500Y-100557553D01*
X161342500Y-100320447D01*
X161340206Y-100311887D01*
X184972500Y-100311887D01*
X184972500Y-100696112D01*
X185047454Y-101072932D01*
X185047456Y-101072940D01*
X185194489Y-101427909D01*
X185407943Y-101747367D01*
X185407949Y-101747375D01*
X185679624Y-102019050D01*
X185679632Y-102019056D01*
X185999090Y-102232510D01*
X185999091Y-102232510D01*
X185999092Y-102232511D01*
X186354060Y-102379544D01*
X186730887Y-102454499D01*
X186730891Y-102454500D01*
X186730892Y-102454500D01*
X187115109Y-102454500D01*
X187115110Y-102454499D01*
X187491940Y-102379544D01*
X187846908Y-102232511D01*
X188166372Y-102019053D01*
X188438053Y-101747372D01*
X188651511Y-101427908D01*
X188798544Y-101072940D01*
X188873500Y-100696108D01*
X188873500Y-100311892D01*
X188873499Y-100311887D01*
X194370500Y-100311887D01*
X194370500Y-100696112D01*
X194445454Y-101072932D01*
X194445456Y-101072940D01*
X194592489Y-101427909D01*
X194805943Y-101747367D01*
X194805949Y-101747375D01*
X195077624Y-102019050D01*
X195077632Y-102019056D01*
X195397090Y-102232510D01*
X195397091Y-102232510D01*
X195397092Y-102232511D01*
X195752060Y-102379544D01*
X196128887Y-102454499D01*
X196128891Y-102454500D01*
X196128892Y-102454500D01*
X196513109Y-102454500D01*
X196513110Y-102454499D01*
X196889940Y-102379544D01*
X197244908Y-102232511D01*
X197564372Y-102019053D01*
X197836053Y-101747372D01*
X198049511Y-101427908D01*
X198196544Y-101072940D01*
X198271500Y-100696108D01*
X198271500Y-100311892D01*
X198271499Y-100311887D01*
X204022500Y-100311887D01*
X204022500Y-100696112D01*
X204097454Y-101072932D01*
X204097456Y-101072940D01*
X204244489Y-101427909D01*
X204457943Y-101747367D01*
X204457949Y-101747375D01*
X204729624Y-102019050D01*
X204729632Y-102019056D01*
X205049090Y-102232510D01*
X205049091Y-102232510D01*
X205049092Y-102232511D01*
X205404060Y-102379544D01*
X205780887Y-102454499D01*
X205780891Y-102454500D01*
X205780892Y-102454500D01*
X206165109Y-102454500D01*
X206165110Y-102454499D01*
X206541940Y-102379544D01*
X206896908Y-102232511D01*
X207216372Y-102019053D01*
X207488053Y-101747372D01*
X207701511Y-101427908D01*
X207848544Y-101072940D01*
X207923500Y-100696108D01*
X207923500Y-100311892D01*
X207848544Y-99935060D01*
X207701511Y-99580092D01*
X207684557Y-99554719D01*
X207488056Y-99260632D01*
X207488050Y-99260624D01*
X207216375Y-98988949D01*
X207216367Y-98988943D01*
X206896909Y-98775489D01*
X206541940Y-98628456D01*
X206541932Y-98628454D01*
X206165112Y-98553500D01*
X206165108Y-98553500D01*
X205780892Y-98553500D01*
X205780887Y-98553500D01*
X205404067Y-98628454D01*
X205404059Y-98628456D01*
X205049090Y-98775489D01*
X204729632Y-98988943D01*
X204729624Y-98988949D01*
X204457949Y-99260624D01*
X204457943Y-99260632D01*
X204244489Y-99580090D01*
X204097456Y-99935059D01*
X204097454Y-99935067D01*
X204022500Y-100311887D01*
X198271499Y-100311887D01*
X198196544Y-99935060D01*
X198049511Y-99580092D01*
X198032557Y-99554719D01*
X197836056Y-99260632D01*
X197836050Y-99260624D01*
X197564375Y-98988949D01*
X197564367Y-98988943D01*
X197244909Y-98775489D01*
X196889940Y-98628456D01*
X196889932Y-98628454D01*
X196513112Y-98553500D01*
X196513108Y-98553500D01*
X196128892Y-98553500D01*
X196128887Y-98553500D01*
X195752067Y-98628454D01*
X195752059Y-98628456D01*
X195397090Y-98775489D01*
X195077632Y-98988943D01*
X195077624Y-98988949D01*
X194805949Y-99260624D01*
X194805943Y-99260632D01*
X194592489Y-99580090D01*
X194445456Y-99935059D01*
X194445454Y-99935067D01*
X194370500Y-100311887D01*
X188873499Y-100311887D01*
X188798544Y-99935060D01*
X188651511Y-99580092D01*
X188634557Y-99554719D01*
X188438056Y-99260632D01*
X188438050Y-99260624D01*
X188166375Y-98988949D01*
X188166367Y-98988943D01*
X187846909Y-98775489D01*
X187491940Y-98628456D01*
X187491932Y-98628454D01*
X187115112Y-98553500D01*
X187115108Y-98553500D01*
X186730892Y-98553500D01*
X186730887Y-98553500D01*
X186354067Y-98628454D01*
X186354059Y-98628456D01*
X185999090Y-98775489D01*
X185679632Y-98988943D01*
X185679624Y-98988949D01*
X185407949Y-99260624D01*
X185407943Y-99260632D01*
X185194489Y-99580090D01*
X185047456Y-99935059D01*
X185047454Y-99935067D01*
X184972500Y-100311887D01*
X161340206Y-100311887D01*
X161281132Y-100091420D01*
X161162579Y-99886080D01*
X161041180Y-99764681D01*
X161004861Y-99677000D01*
X161041180Y-99589319D01*
X161101560Y-99528939D01*
X161162579Y-99467920D01*
X161281132Y-99262580D01*
X161342500Y-99033553D01*
X161342500Y-98796447D01*
X161293392Y-98613176D01*
X161305780Y-98519085D01*
X161351164Y-98473700D01*
X161515920Y-98378579D01*
X161683579Y-98210920D01*
X161802132Y-98005580D01*
X161863500Y-97776553D01*
X161863500Y-97539447D01*
X161802132Y-97310420D01*
X161683579Y-97105080D01*
X161515920Y-96937421D01*
X161310582Y-96818869D01*
X161310581Y-96818868D01*
X161253323Y-96803526D01*
X161081553Y-96757500D01*
X160844447Y-96757500D01*
X160707030Y-96794320D01*
X160615418Y-96818868D01*
X160615417Y-96818869D01*
X160410078Y-96937422D01*
X160242422Y-97105078D01*
X160123869Y-97310417D01*
X160123868Y-97310418D01*
X160111712Y-97355785D01*
X160062500Y-97539447D01*
X160062500Y-97776553D01*
X160111467Y-97959299D01*
X160111607Y-97959820D01*
X160099219Y-98053914D01*
X160053832Y-98099301D01*
X159889078Y-98194422D01*
X159721422Y-98362078D01*
X159602869Y-98567417D01*
X159602868Y-98567418D01*
X159592829Y-98604887D01*
X159575489Y-98669595D01*
X159517716Y-98744887D01*
X159455716Y-98761500D01*
X159306451Y-98761500D01*
X159254243Y-98775488D01*
X159254244Y-98775489D01*
X159147364Y-98804127D01*
X159147359Y-98804129D01*
X159004733Y-98886474D01*
X158912538Y-98978668D01*
X158900351Y-98989356D01*
X158894726Y-98993672D01*
X158302900Y-99585497D01*
X158215219Y-99621816D01*
X158153221Y-99605203D01*
X158124580Y-99588668D01*
X157895553Y-99527300D01*
X157658447Y-99527300D01*
X157606098Y-99541327D01*
X157512005Y-99528939D01*
X157454230Y-99453645D01*
X157466618Y-99359552D01*
X157475632Y-99346062D01*
X157479573Y-99340925D01*
X157479579Y-99340920D01*
X157598132Y-99135580D01*
X157659500Y-98906553D01*
X157659500Y-98669447D01*
X157598132Y-98440420D01*
X157479579Y-98235080D01*
X157311920Y-98067421D01*
X157161602Y-97980635D01*
X157106582Y-97948869D01*
X157106581Y-97948868D01*
X157049323Y-97933526D01*
X156877553Y-97887500D01*
X156640447Y-97887500D01*
X156503030Y-97924320D01*
X156411418Y-97948868D01*
X156411417Y-97948869D01*
X156206078Y-98067422D01*
X156038422Y-98235078D01*
X155919869Y-98440417D01*
X155919868Y-98440418D01*
X155898044Y-98521868D01*
X155858500Y-98669447D01*
X155858500Y-98906553D01*
X155887135Y-99013418D01*
X155919868Y-99135581D01*
X155919869Y-99135582D01*
X156038421Y-99340920D01*
X156206080Y-99508579D01*
X156411420Y-99627132D01*
X156640447Y-99688500D01*
X156640450Y-99688500D01*
X156877551Y-99688500D01*
X156877553Y-99688500D01*
X156929901Y-99674473D01*
X157023992Y-99686859D01*
X157081768Y-99762152D01*
X157069382Y-99856245D01*
X157060375Y-99869727D01*
X157056421Y-99874879D01*
X156937869Y-100080217D01*
X156937868Y-100080218D01*
X156916657Y-100159381D01*
X156876500Y-100309247D01*
X156876500Y-100546353D01*
X156908136Y-100664418D01*
X156937868Y-100775381D01*
X156937869Y-100775382D01*
X157056421Y-100980720D01*
X157224080Y-101148379D01*
X157429420Y-101266932D01*
X157658447Y-101328300D01*
X157658450Y-101328300D01*
X157725279Y-101328300D01*
X157812960Y-101364619D01*
X157849279Y-101452300D01*
X157812960Y-101539981D01*
X156003360Y-103349581D01*
X155915679Y-103385900D01*
X134894720Y-103385900D01*
X134807039Y-103349581D01*
X134498819Y-103041360D01*
X134462500Y-102953679D01*
X134462500Y-102007930D01*
X134498819Y-101920249D01*
X134554403Y-101888156D01*
X134692580Y-101851132D01*
X134897920Y-101732579D01*
X135065579Y-101564920D01*
X135184132Y-101359580D01*
X135245500Y-101130553D01*
X135245500Y-100893447D01*
X135184132Y-100664420D01*
X135065579Y-100459080D01*
X134897920Y-100291421D01*
X134692582Y-100172869D01*
X134692581Y-100172868D01*
X134635323Y-100157526D01*
X134463553Y-100111500D01*
X134226447Y-100111500D01*
X134089030Y-100148320D01*
X133997418Y-100172868D01*
X133997417Y-100172869D01*
X133792078Y-100291422D01*
X133670681Y-100412820D01*
X133583000Y-100449139D01*
X133495319Y-100412820D01*
X133373921Y-100291422D01*
X133373920Y-100291421D01*
X133168582Y-100172869D01*
X133168581Y-100172868D01*
X133111323Y-100157526D01*
X132939553Y-100111500D01*
X132702447Y-100111500D01*
X132565030Y-100148320D01*
X132473418Y-100172868D01*
X132473417Y-100172869D01*
X132268078Y-100291422D01*
X132100422Y-100459078D01*
X131981869Y-100664417D01*
X131981868Y-100664418D01*
X131956080Y-100760660D01*
X131920500Y-100893447D01*
X123324752Y-100893447D01*
X123331181Y-100861128D01*
X123331181Y-100861127D01*
X123343479Y-100799297D01*
X123343480Y-100799293D01*
X123343479Y-99700708D01*
X123314440Y-99554715D01*
X123314439Y-99554714D01*
X123314439Y-99554712D01*
X123235284Y-99436250D01*
X123203820Y-99389160D01*
X123038265Y-99278540D01*
X123038263Y-99278539D01*
X123038260Y-99278538D01*
X122892276Y-99249500D01*
X121793690Y-99249500D01*
X121647692Y-99278540D01*
X121482140Y-99389160D01*
X121371520Y-99554715D01*
X121371518Y-99554719D01*
X121342480Y-99700702D01*
X120041478Y-99700702D01*
X120012440Y-99554715D01*
X120012439Y-99554714D01*
X120012439Y-99554712D01*
X119933284Y-99436250D01*
X119901820Y-99389160D01*
X119736265Y-99278540D01*
X119736263Y-99278539D01*
X119736260Y-99278538D01*
X119590276Y-99249500D01*
X118491690Y-99249500D01*
X118345692Y-99278540D01*
X118180140Y-99389160D01*
X118069520Y-99554715D01*
X118069518Y-99554719D01*
X118040480Y-99700702D01*
X116739478Y-99700702D01*
X116710440Y-99554715D01*
X116710439Y-99554714D01*
X116710439Y-99554712D01*
X116631284Y-99436250D01*
X116599820Y-99389160D01*
X116434265Y-99278540D01*
X116434263Y-99278539D01*
X116434260Y-99278538D01*
X116288276Y-99249500D01*
X115189690Y-99249500D01*
X115043692Y-99278540D01*
X114878140Y-99389160D01*
X114767520Y-99554715D01*
X114767518Y-99554719D01*
X114738480Y-99700702D01*
X113437478Y-99700702D01*
X113408440Y-99554715D01*
X113408439Y-99554714D01*
X113408439Y-99554712D01*
X113329284Y-99436250D01*
X113297820Y-99389160D01*
X113132265Y-99278540D01*
X113132263Y-99278539D01*
X113132260Y-99278538D01*
X112986276Y-99249500D01*
X111887690Y-99249500D01*
X111741692Y-99278540D01*
X111576140Y-99389160D01*
X111465520Y-99554715D01*
X111465518Y-99554719D01*
X111436480Y-99700702D01*
X110135478Y-99700702D01*
X110106440Y-99554715D01*
X110106439Y-99554714D01*
X110106439Y-99554712D01*
X110027284Y-99436250D01*
X109995820Y-99389160D01*
X109830265Y-99278540D01*
X109830263Y-99278539D01*
X109830260Y-99278538D01*
X109684276Y-99249500D01*
X108585690Y-99249500D01*
X108439692Y-99278540D01*
X108274140Y-99389160D01*
X108163520Y-99554715D01*
X108163518Y-99554719D01*
X108134480Y-99700702D01*
X106833478Y-99700702D01*
X106804440Y-99554715D01*
X106804439Y-99554714D01*
X106804439Y-99554712D01*
X106725284Y-99436250D01*
X106693820Y-99389160D01*
X106528265Y-99278540D01*
X106528263Y-99278539D01*
X106528260Y-99278538D01*
X106382276Y-99249500D01*
X105283690Y-99249500D01*
X105137692Y-99278540D01*
X104972140Y-99389160D01*
X104861520Y-99554715D01*
X104861518Y-99554719D01*
X104832480Y-99700702D01*
X97556271Y-99700702D01*
X97635143Y-99648001D01*
X97651735Y-99631409D01*
X97676211Y-99606934D01*
X97823248Y-99459896D01*
X97823251Y-99459893D01*
X97971047Y-99238701D01*
X98072851Y-98992926D01*
X98124750Y-98732013D01*
X98124750Y-98465987D01*
X98124750Y-98465984D01*
X98095455Y-98318712D01*
X98095455Y-98318711D01*
X98092260Y-98302647D01*
X123690900Y-98302647D01*
X123690900Y-98539753D01*
X123725652Y-98669447D01*
X123752268Y-98768781D01*
X123752269Y-98768782D01*
X123768243Y-98796449D01*
X123870821Y-98974120D01*
X124038480Y-99141779D01*
X124243820Y-99260332D01*
X124472847Y-99321700D01*
X124472850Y-99321700D01*
X124709950Y-99321700D01*
X124709953Y-99321700D01*
X124938980Y-99260332D01*
X124969958Y-99242447D01*
X147853500Y-99242447D01*
X147853500Y-99479553D01*
X147893044Y-99627131D01*
X147914868Y-99708581D01*
X147914869Y-99708582D01*
X148033421Y-99913920D01*
X148201080Y-100081579D01*
X148406420Y-100200132D01*
X148635447Y-100261500D01*
X148635450Y-100261500D01*
X148872550Y-100261500D01*
X148872553Y-100261500D01*
X149101580Y-100200132D01*
X149306920Y-100081579D01*
X149474579Y-99913920D01*
X149593132Y-99708580D01*
X149654500Y-99479553D01*
X149654500Y-99242447D01*
X149593132Y-99013420D01*
X149474579Y-98808080D01*
X149423680Y-98757181D01*
X149387361Y-98669500D01*
X149423680Y-98581819D01*
X149511361Y-98545500D01*
X149634950Y-98545500D01*
X149634953Y-98545500D01*
X149863980Y-98484132D01*
X150069320Y-98365579D01*
X150236979Y-98197920D01*
X150355532Y-97992580D01*
X150416900Y-97763553D01*
X150416900Y-97539447D01*
X152175500Y-97539447D01*
X152175500Y-97776553D01*
X152221526Y-97948323D01*
X152236868Y-98005581D01*
X152236869Y-98005582D01*
X152264774Y-98053914D01*
X152355421Y-98210920D01*
X152523080Y-98378579D01*
X152728420Y-98497132D01*
X152957447Y-98558500D01*
X152957450Y-98558500D01*
X153194550Y-98558500D01*
X153194553Y-98558500D01*
X153423580Y-98497132D01*
X153628920Y-98378579D01*
X153796579Y-98210920D01*
X153915132Y-98005580D01*
X153976500Y-97776553D01*
X153976500Y-97539447D01*
X153915132Y-97310420D01*
X153796579Y-97105080D01*
X153628920Y-96937421D01*
X153423582Y-96818869D01*
X153423581Y-96818868D01*
X153366323Y-96803526D01*
X153194553Y-96757500D01*
X152957447Y-96757500D01*
X152820030Y-96794320D01*
X152728418Y-96818868D01*
X152728417Y-96818869D01*
X152523078Y-96937422D01*
X152355422Y-97105078D01*
X152236869Y-97310417D01*
X152236868Y-97310418D01*
X152224712Y-97355785D01*
X152175500Y-97539447D01*
X150416900Y-97539447D01*
X150416900Y-97526447D01*
X150355532Y-97297420D01*
X150236979Y-97092080D01*
X150119781Y-96974882D01*
X150083462Y-96887201D01*
X150119781Y-96799520D01*
X150161801Y-96757500D01*
X150236979Y-96682322D01*
X150355532Y-96476982D01*
X150416900Y-96247955D01*
X150416900Y-96010849D01*
X150355532Y-95781822D01*
X150236979Y-95576482D01*
X150069320Y-95408823D01*
X149890267Y-95305447D01*
X149863982Y-95290271D01*
X149863981Y-95290270D01*
X149806723Y-95274928D01*
X149634953Y-95228902D01*
X149397847Y-95228902D01*
X149260430Y-95265722D01*
X149168818Y-95290270D01*
X149168817Y-95290271D01*
X148963478Y-95408824D01*
X148795822Y-95576480D01*
X148677269Y-95781819D01*
X148677268Y-95781820D01*
X148646584Y-95896335D01*
X148615900Y-96010849D01*
X148615900Y-96247955D01*
X148661926Y-96419725D01*
X148677268Y-96476983D01*
X148677269Y-96476984D01*
X148795822Y-96682323D01*
X148913019Y-96799520D01*
X148949338Y-96887201D01*
X148913019Y-96974882D01*
X148795822Y-97092078D01*
X148677269Y-97297417D01*
X148677268Y-97297418D01*
X148655017Y-97380460D01*
X148615900Y-97526447D01*
X148615900Y-97763553D01*
X148649112Y-97887500D01*
X148677268Y-97992581D01*
X148677269Y-97992582D01*
X148684774Y-98005581D01*
X148793801Y-98194422D01*
X148795822Y-98197921D01*
X148846720Y-98248819D01*
X148883039Y-98336500D01*
X148846720Y-98424181D01*
X148759039Y-98460500D01*
X148635447Y-98460500D01*
X148498743Y-98497130D01*
X148406418Y-98521868D01*
X148406417Y-98521869D01*
X148201078Y-98640422D01*
X148033422Y-98808078D01*
X147914869Y-99013417D01*
X147914868Y-99013418D01*
X147909474Y-99033550D01*
X147853500Y-99242447D01*
X124969958Y-99242447D01*
X125144320Y-99141779D01*
X125311979Y-98974120D01*
X125430532Y-98768780D01*
X125491900Y-98539753D01*
X125491900Y-98302647D01*
X125430532Y-98073620D01*
X125311979Y-97868280D01*
X125144320Y-97700621D01*
X124938982Y-97582069D01*
X124938981Y-97582068D01*
X124881723Y-97566726D01*
X124709953Y-97520700D01*
X124472847Y-97520700D01*
X124335430Y-97557520D01*
X124243818Y-97582068D01*
X124243817Y-97582069D01*
X124038478Y-97700622D01*
X123870822Y-97868278D01*
X123752269Y-98073617D01*
X123752268Y-98073618D01*
X123726699Y-98169044D01*
X123690900Y-98302647D01*
X98092260Y-98302647D01*
X98081552Y-98248819D01*
X98072851Y-98205074D01*
X97971047Y-97959299D01*
X97971045Y-97959296D01*
X97971043Y-97959292D01*
X97823251Y-97738107D01*
X97823248Y-97738103D01*
X97688365Y-97603220D01*
X97652046Y-97515539D01*
X97688365Y-97427858D01*
X97751853Y-97393922D01*
X97819535Y-97380460D01*
X97819536Y-97380459D01*
X97819537Y-97380459D01*
X97856471Y-97355780D01*
X97985090Y-97269840D01*
X98095710Y-97104285D01*
X98124750Y-96958293D01*
X98124749Y-95159708D01*
X98095710Y-95013715D01*
X98095709Y-95013714D01*
X98095709Y-95013712D01*
X98040274Y-94930748D01*
X97985090Y-94848160D01*
X97819535Y-94737540D01*
X97819533Y-94737539D01*
X97819530Y-94737538D01*
X97673546Y-94708500D01*
X95874960Y-94708500D01*
X95728962Y-94737540D01*
X95563410Y-94848160D01*
X95452790Y-95013715D01*
X95452788Y-95013719D01*
X95423750Y-95159702D01*
X84406447Y-95159702D01*
X84384132Y-95076420D01*
X84265579Y-94871080D01*
X84097920Y-94703421D01*
X83892582Y-94584869D01*
X83892581Y-94584868D01*
X83835323Y-94569526D01*
X83663553Y-94523500D01*
X83426447Y-94523500D01*
X83289030Y-94560320D01*
X83197418Y-94584868D01*
X83197417Y-94584869D01*
X82992078Y-94703422D01*
X82824422Y-94871078D01*
X82705869Y-95076417D01*
X82705868Y-95076418D01*
X82683551Y-95159707D01*
X82644500Y-95305447D01*
X82023660Y-95305447D01*
X82023660Y-94967357D01*
X81984789Y-94771944D01*
X81984788Y-94771943D01*
X81984788Y-94771939D01*
X81956407Y-94703421D01*
X81948470Y-94684260D01*
X81905919Y-94620579D01*
X81837772Y-94518590D01*
X81837769Y-94518586D01*
X81100630Y-93781447D01*
X92861000Y-93781447D01*
X92861000Y-94018553D01*
X92896550Y-94151225D01*
X92922368Y-94247581D01*
X92922369Y-94247582D01*
X93040921Y-94452920D01*
X93208580Y-94620579D01*
X93413920Y-94739132D01*
X93642947Y-94800500D01*
X93642950Y-94800500D01*
X93880050Y-94800500D01*
X93880053Y-94800500D01*
X94109080Y-94739132D01*
X94314420Y-94620579D01*
X94482079Y-94452920D01*
X94600632Y-94247580D01*
X94615673Y-94191447D01*
X102744480Y-94191447D01*
X102744480Y-94428553D01*
X102769921Y-94523500D01*
X102805848Y-94657581D01*
X102805849Y-94657582D01*
X102821252Y-94684260D01*
X102924401Y-94862920D01*
X103092060Y-95030579D01*
X103297400Y-95149132D01*
X103526427Y-95210500D01*
X103526430Y-95210500D01*
X103763530Y-95210500D01*
X103763533Y-95210500D01*
X103992560Y-95149132D01*
X104197900Y-95030579D01*
X104365559Y-94862920D01*
X104484112Y-94657580D01*
X104545480Y-94428553D01*
X104545480Y-94191447D01*
X105977480Y-94191447D01*
X105977480Y-94428553D01*
X106002921Y-94523500D01*
X106038848Y-94657581D01*
X106038849Y-94657582D01*
X106054252Y-94684260D01*
X106157401Y-94862920D01*
X106325060Y-95030579D01*
X106530400Y-95149132D01*
X106759427Y-95210500D01*
X106759430Y-95210500D01*
X106996530Y-95210500D01*
X106996533Y-95210500D01*
X107225560Y-95149132D01*
X107430900Y-95030579D01*
X107598559Y-94862920D01*
X107717112Y-94657580D01*
X107778480Y-94428553D01*
X107778480Y-94191447D01*
X109348480Y-94191447D01*
X109348480Y-94428553D01*
X109373921Y-94523500D01*
X109409848Y-94657581D01*
X109409849Y-94657582D01*
X109425252Y-94684260D01*
X109528401Y-94862920D01*
X109696060Y-95030579D01*
X109901400Y-95149132D01*
X110130427Y-95210500D01*
X110130430Y-95210500D01*
X110367530Y-95210500D01*
X110367533Y-95210500D01*
X110596560Y-95149132D01*
X110801900Y-95030579D01*
X110969559Y-94862920D01*
X111088112Y-94657580D01*
X111149480Y-94428553D01*
X111149480Y-94225427D01*
X112616500Y-94225427D01*
X112616500Y-94462533D01*
X112649280Y-94584868D01*
X112677868Y-94691561D01*
X112677869Y-94691562D01*
X112687648Y-94708500D01*
X112796421Y-94896900D01*
X112964080Y-95064559D01*
X113169420Y-95183112D01*
X113398447Y-95244480D01*
X113398450Y-95244480D01*
X113635550Y-95244480D01*
X113635553Y-95244480D01*
X113864580Y-95183112D01*
X114069920Y-95064559D01*
X114237579Y-94896900D01*
X114356132Y-94691560D01*
X114417500Y-94462533D01*
X114417500Y-94225427D01*
X114408395Y-94191447D01*
X115952480Y-94191447D01*
X115952480Y-94428553D01*
X115977921Y-94523500D01*
X116013848Y-94657581D01*
X116013849Y-94657582D01*
X116029252Y-94684260D01*
X116132401Y-94862920D01*
X116300060Y-95030579D01*
X116505400Y-95149132D01*
X116734427Y-95210500D01*
X116734430Y-95210500D01*
X116971530Y-95210500D01*
X116971533Y-95210500D01*
X117200560Y-95149132D01*
X117405900Y-95030579D01*
X117573559Y-94862920D01*
X117692112Y-94657580D01*
X117753480Y-94428553D01*
X117753480Y-94191447D01*
X119254480Y-94191447D01*
X119254480Y-94428553D01*
X119279921Y-94523500D01*
X119315848Y-94657581D01*
X119315849Y-94657582D01*
X119331252Y-94684260D01*
X119434401Y-94862920D01*
X119602060Y-95030579D01*
X119807400Y-95149132D01*
X120036427Y-95210500D01*
X120036430Y-95210500D01*
X120273530Y-95210500D01*
X120273533Y-95210500D01*
X120289573Y-95206202D01*
X216989500Y-95206202D01*
X216989500Y-97209789D01*
X217018540Y-97355787D01*
X217079254Y-97446650D01*
X217129160Y-97521340D01*
X217294355Y-97631719D01*
X217347081Y-97710630D01*
X217328566Y-97803712D01*
X217317668Y-97816992D01*
X217317747Y-97817057D01*
X217313881Y-97821767D01*
X217154871Y-98059740D01*
X217154866Y-98059749D01*
X217045338Y-98324175D01*
X217045336Y-98324183D01*
X216989500Y-98604887D01*
X216989500Y-98891112D01*
X217045336Y-99171816D01*
X217045338Y-99171824D01*
X217154866Y-99436250D01*
X217154871Y-99436259D01*
X217313881Y-99674232D01*
X217313884Y-99674236D01*
X217516263Y-99876615D01*
X217516267Y-99876618D01*
X217573556Y-99914898D01*
X217626282Y-99993809D01*
X217607767Y-100086891D01*
X217573556Y-100121102D01*
X217516267Y-100159381D01*
X217516263Y-100159384D01*
X217313884Y-100361763D01*
X217313881Y-100361767D01*
X217154871Y-100599740D01*
X217154866Y-100599749D01*
X217045338Y-100864175D01*
X217045336Y-100864183D01*
X216989500Y-101144887D01*
X216989500Y-101431112D01*
X217045336Y-101711816D01*
X217045338Y-101711824D01*
X217154866Y-101976250D01*
X217154871Y-101976259D01*
X217313881Y-102214232D01*
X217313884Y-102214236D01*
X217516263Y-102416615D01*
X217516267Y-102416618D01*
X217754240Y-102575628D01*
X217754246Y-102575631D01*
X217754247Y-102575632D01*
X218018676Y-102685162D01*
X218299387Y-102740999D01*
X218299390Y-102741000D01*
X218299392Y-102741000D01*
X218680610Y-102741000D01*
X218680611Y-102740999D01*
X218961324Y-102685162D01*
X219225753Y-102575632D01*
X219463733Y-102416618D01*
X219666118Y-102214233D01*
X219825132Y-101976253D01*
X219934662Y-101711824D01*
X219990500Y-101431108D01*
X219990500Y-101144892D01*
X219990500Y-101144889D01*
X219990499Y-101144887D01*
X219950796Y-100945287D01*
X219934662Y-100864176D01*
X219825132Y-100599747D01*
X219825131Y-100599746D01*
X219825128Y-100599740D01*
X219666118Y-100361767D01*
X219666115Y-100361763D01*
X219463736Y-100159384D01*
X219463728Y-100159378D01*
X219406444Y-100121102D01*
X219353717Y-100042192D01*
X219372232Y-99949110D01*
X219406444Y-99914898D01*
X219449575Y-99886078D01*
X219463733Y-99876618D01*
X219666118Y-99674233D01*
X219825132Y-99436253D01*
X219934662Y-99171824D01*
X219990500Y-98891108D01*
X219990500Y-98604892D01*
X219990500Y-98604889D01*
X219990499Y-98604887D01*
X219962869Y-98465982D01*
X219934662Y-98324176D01*
X219831810Y-98075868D01*
X219825133Y-98059749D01*
X219825128Y-98059740D01*
X219666118Y-97821767D01*
X219662253Y-97817057D01*
X219664003Y-97815620D01*
X219630536Y-97734822D01*
X219666855Y-97647141D01*
X219685645Y-97631720D01*
X219759952Y-97582069D01*
X219850840Y-97521340D01*
X219961460Y-97355785D01*
X219990500Y-97209793D01*
X219990499Y-95206208D01*
X219961460Y-95060215D01*
X219961459Y-95060214D01*
X219961459Y-95060212D01*
X219899414Y-94967357D01*
X219850840Y-94894660D01*
X219685285Y-94784040D01*
X219685283Y-94784039D01*
X219685280Y-94784038D01*
X219539296Y-94755000D01*
X217440710Y-94755000D01*
X217294712Y-94784040D01*
X217129160Y-94894660D01*
X217018540Y-95060215D01*
X217018538Y-95060219D01*
X216989500Y-95206202D01*
X120289573Y-95206202D01*
X120502560Y-95149132D01*
X120707900Y-95030579D01*
X120875559Y-94862920D01*
X120994112Y-94657580D01*
X121055480Y-94428553D01*
X121055480Y-94191447D01*
X120994112Y-93962420D01*
X120875559Y-93757080D01*
X120707900Y-93589421D01*
X120502562Y-93470869D01*
X120502561Y-93470868D01*
X120445303Y-93455526D01*
X120273533Y-93409500D01*
X120036427Y-93409500D01*
X119909613Y-93443480D01*
X119807398Y-93470868D01*
X119807397Y-93470869D01*
X119602058Y-93589422D01*
X119434402Y-93757078D01*
X119315849Y-93962417D01*
X119315848Y-93962418D01*
X119300807Y-94018552D01*
X119254480Y-94191447D01*
X117753480Y-94191447D01*
X117692112Y-93962420D01*
X117573559Y-93757080D01*
X117405900Y-93589421D01*
X117200562Y-93470869D01*
X117200561Y-93470868D01*
X117143303Y-93455526D01*
X116971533Y-93409500D01*
X116734427Y-93409500D01*
X116607613Y-93443480D01*
X116505398Y-93470868D01*
X116505397Y-93470869D01*
X116300058Y-93589422D01*
X116132402Y-93757078D01*
X116013849Y-93962417D01*
X116013848Y-93962418D01*
X115998807Y-94018552D01*
X115952480Y-94191447D01*
X114408395Y-94191447D01*
X114356132Y-93996400D01*
X114237579Y-93791060D01*
X114069920Y-93623401D01*
X113864582Y-93504849D01*
X113864581Y-93504848D01*
X113807323Y-93489506D01*
X113635553Y-93443480D01*
X113398447Y-93443480D01*
X113296231Y-93470869D01*
X113169418Y-93504848D01*
X113169417Y-93504849D01*
X112964078Y-93623402D01*
X112796422Y-93791058D01*
X112677869Y-93996397D01*
X112677868Y-93996398D01*
X112671932Y-94018552D01*
X112616500Y-94225427D01*
X111149480Y-94225427D01*
X111149480Y-94191447D01*
X111088112Y-93962420D01*
X110969559Y-93757080D01*
X110801900Y-93589421D01*
X110596562Y-93470869D01*
X110596561Y-93470868D01*
X110539303Y-93455526D01*
X110367533Y-93409500D01*
X110130427Y-93409500D01*
X110003613Y-93443480D01*
X109901398Y-93470868D01*
X109901397Y-93470869D01*
X109696058Y-93589422D01*
X109528402Y-93757078D01*
X109409849Y-93962417D01*
X109409848Y-93962418D01*
X109394807Y-94018552D01*
X109348480Y-94191447D01*
X107778480Y-94191447D01*
X107717112Y-93962420D01*
X107598559Y-93757080D01*
X107430900Y-93589421D01*
X107225562Y-93470869D01*
X107225561Y-93470868D01*
X107168303Y-93455526D01*
X106996533Y-93409500D01*
X106759427Y-93409500D01*
X106632613Y-93443480D01*
X106530398Y-93470868D01*
X106530397Y-93470869D01*
X106325058Y-93589422D01*
X106157402Y-93757078D01*
X106038849Y-93962417D01*
X106038848Y-93962418D01*
X106023807Y-94018552D01*
X105977480Y-94191447D01*
X104545480Y-94191447D01*
X104484112Y-93962420D01*
X104365559Y-93757080D01*
X104197900Y-93589421D01*
X103992562Y-93470869D01*
X103992561Y-93470868D01*
X103935303Y-93455526D01*
X103763533Y-93409500D01*
X103526427Y-93409500D01*
X103399613Y-93443480D01*
X103297398Y-93470868D01*
X103297397Y-93470869D01*
X103092058Y-93589422D01*
X102924402Y-93757078D01*
X102805849Y-93962417D01*
X102805848Y-93962418D01*
X102790807Y-94018552D01*
X102744480Y-94191447D01*
X94615673Y-94191447D01*
X94662000Y-94018553D01*
X94662000Y-93781447D01*
X94600632Y-93552420D01*
X94482079Y-93347080D01*
X94314420Y-93179421D01*
X94109082Y-93060869D01*
X94109081Y-93060868D01*
X94051823Y-93045526D01*
X93880053Y-92999500D01*
X93642947Y-92999500D01*
X93505530Y-93036320D01*
X93413918Y-93060868D01*
X93413917Y-93060869D01*
X93208578Y-93179422D01*
X93040922Y-93347078D01*
X92922369Y-93552417D01*
X92922368Y-93552418D01*
X92903348Y-93623402D01*
X92861000Y-93781447D01*
X81100630Y-93781447D01*
X80894413Y-93575230D01*
X80894409Y-93575227D01*
X80728739Y-93464529D01*
X80641063Y-93428212D01*
X80629084Y-93425830D01*
X80629084Y-93425829D01*
X80629079Y-93425829D01*
X80569722Y-93414022D01*
X80445640Y-93389340D01*
X80445638Y-93389340D01*
X75425884Y-93389340D01*
X75338203Y-93353021D01*
X73423979Y-91438797D01*
X73387660Y-91351116D01*
X73387660Y-90965447D01*
X136448000Y-90965447D01*
X136448000Y-91202553D01*
X136487808Y-91351116D01*
X136509368Y-91431581D01*
X136509369Y-91431582D01*
X136627921Y-91636920D01*
X136795580Y-91804579D01*
X137000920Y-91923132D01*
X137229947Y-91984500D01*
X137229950Y-91984500D01*
X137467050Y-91984500D01*
X137467053Y-91984500D01*
X137696080Y-91923132D01*
X137901420Y-91804579D01*
X138069079Y-91636920D01*
X138187632Y-91431580D01*
X138249000Y-91202553D01*
X138249000Y-91173294D01*
X161697347Y-91173294D01*
X161697347Y-91410400D01*
X161742947Y-91580580D01*
X161758715Y-91639428D01*
X161758716Y-91639429D01*
X161877268Y-91844767D01*
X162044927Y-92012426D01*
X162250267Y-92130979D01*
X162479294Y-92192347D01*
X162479297Y-92192347D01*
X162716397Y-92192347D01*
X162716400Y-92192347D01*
X162945427Y-92130979D01*
X163150767Y-92012426D01*
X163318426Y-91844767D01*
X163436979Y-91639427D01*
X163498347Y-91410400D01*
X163498347Y-91173294D01*
X163482579Y-91114447D01*
X163924500Y-91114447D01*
X163924500Y-91351553D01*
X163970526Y-91523323D01*
X163985868Y-91580581D01*
X163985869Y-91580582D01*
X164104421Y-91785920D01*
X164272080Y-91953579D01*
X164477420Y-92072132D01*
X164706447Y-92133500D01*
X164706450Y-92133500D01*
X164943550Y-92133500D01*
X164943553Y-92133500D01*
X165172580Y-92072132D01*
X165377920Y-91953579D01*
X165545579Y-91785920D01*
X165664132Y-91580580D01*
X165725500Y-91351553D01*
X165725500Y-91114447D01*
X165664132Y-90885420D01*
X165545579Y-90680080D01*
X165377920Y-90512421D01*
X165206263Y-90413315D01*
X165172582Y-90393869D01*
X165172581Y-90393868D01*
X165093136Y-90372581D01*
X164943553Y-90332500D01*
X164706447Y-90332500D01*
X164569030Y-90369320D01*
X164477418Y-90393868D01*
X164477417Y-90393869D01*
X164272078Y-90512422D01*
X164104422Y-90680078D01*
X163985869Y-90885417D01*
X163985868Y-90885418D01*
X163970100Y-90944265D01*
X163924500Y-91114447D01*
X163482579Y-91114447D01*
X163436979Y-90944267D01*
X163318426Y-90738927D01*
X163150767Y-90571268D01*
X162945429Y-90452716D01*
X162945428Y-90452715D01*
X162888170Y-90437373D01*
X162716400Y-90391347D01*
X162479294Y-90391347D01*
X162341877Y-90428167D01*
X162250265Y-90452715D01*
X162250264Y-90452716D01*
X162044925Y-90571269D01*
X161877269Y-90738925D01*
X161758716Y-90944264D01*
X161758715Y-90944265D01*
X161753039Y-90965449D01*
X161697347Y-91173294D01*
X138249000Y-91173294D01*
X138249000Y-90965447D01*
X138187632Y-90736420D01*
X138069079Y-90531080D01*
X137901420Y-90363421D01*
X137696082Y-90244869D01*
X137696081Y-90244868D01*
X137638823Y-90229526D01*
X137467053Y-90183500D01*
X137229947Y-90183500D01*
X137092530Y-90220320D01*
X137000918Y-90244868D01*
X137000917Y-90244869D01*
X136795578Y-90363422D01*
X136627922Y-90531078D01*
X136509369Y-90736417D01*
X136509368Y-90736418D01*
X136478684Y-90850933D01*
X136448000Y-90965447D01*
X73387660Y-90965447D01*
X73387660Y-89455630D01*
X125435683Y-89455630D01*
X125435683Y-89692736D01*
X125481709Y-89864506D01*
X125497051Y-89921764D01*
X125497052Y-89921765D01*
X125615604Y-90127103D01*
X125783263Y-90294762D01*
X125988603Y-90413315D01*
X126217630Y-90474683D01*
X126217633Y-90474683D01*
X126454733Y-90474683D01*
X126454736Y-90474683D01*
X126683763Y-90413315D01*
X126889103Y-90294762D01*
X127056762Y-90127103D01*
X127175315Y-89921763D01*
X127179419Y-89906447D01*
X152175500Y-89906447D01*
X152175500Y-90143553D01*
X152202648Y-90244869D01*
X152236868Y-90372581D01*
X152236869Y-90372582D01*
X152355421Y-90577920D01*
X152523080Y-90745579D01*
X152728420Y-90864132D01*
X152957447Y-90925500D01*
X152957450Y-90925500D01*
X153194550Y-90925500D01*
X153194553Y-90925500D01*
X153423580Y-90864132D01*
X153628920Y-90745579D01*
X153796579Y-90577920D01*
X153915132Y-90372580D01*
X153976500Y-90143553D01*
X153976500Y-89906447D01*
X153915132Y-89677420D01*
X153796579Y-89472080D01*
X153628920Y-89304421D01*
X153423582Y-89185869D01*
X153423581Y-89185868D01*
X153366323Y-89170526D01*
X153194553Y-89124500D01*
X152957447Y-89124500D01*
X152820030Y-89161320D01*
X152728418Y-89185868D01*
X152728417Y-89185869D01*
X152523078Y-89304422D01*
X152355422Y-89472078D01*
X152236869Y-89677417D01*
X152236868Y-89677418D01*
X152232764Y-89692735D01*
X152175500Y-89906447D01*
X127179419Y-89906447D01*
X127236683Y-89692736D01*
X127236683Y-89455630D01*
X127175315Y-89226603D01*
X127124656Y-89138860D01*
X127112269Y-89044768D01*
X127124655Y-89014863D01*
X127183132Y-88913580D01*
X127244500Y-88684553D01*
X127244500Y-88447447D01*
X127183132Y-88218420D01*
X127064579Y-88013080D01*
X126896920Y-87845421D01*
X126691582Y-87726869D01*
X126691581Y-87726868D01*
X126630181Y-87710416D01*
X126462553Y-87665500D01*
X126225447Y-87665500D01*
X126088030Y-87702320D01*
X125996418Y-87726868D01*
X125996417Y-87726869D01*
X125791078Y-87845422D01*
X125623422Y-88013078D01*
X125504869Y-88218417D01*
X125504868Y-88218418D01*
X125474184Y-88332933D01*
X125443500Y-88447447D01*
X125443500Y-88684553D01*
X125500461Y-88897132D01*
X125504869Y-88913583D01*
X125555525Y-89001321D01*
X125567913Y-89095414D01*
X125555526Y-89125320D01*
X125497051Y-89226602D01*
X125497051Y-89226603D01*
X125435683Y-89455630D01*
X73387660Y-89455630D01*
X73387660Y-86939444D01*
X208120500Y-86939444D01*
X208120500Y-87176550D01*
X208166526Y-87348320D01*
X208181868Y-87405578D01*
X208181869Y-87405579D01*
X208234072Y-87495998D01*
X208246460Y-87590092D01*
X208234073Y-87619997D01*
X208181868Y-87710419D01*
X208181868Y-87710420D01*
X208120500Y-87939447D01*
X208120500Y-88176553D01*
X208166526Y-88348323D01*
X208181868Y-88405581D01*
X208181869Y-88405582D01*
X208300421Y-88610920D01*
X208468080Y-88778579D01*
X208673420Y-88897132D01*
X208902447Y-88958500D01*
X208902450Y-88958500D01*
X209139550Y-88958500D01*
X209139553Y-88958500D01*
X209368580Y-88897132D01*
X209573920Y-88778579D01*
X209741579Y-88610920D01*
X209860132Y-88405580D01*
X209921500Y-88176553D01*
X209921500Y-87939447D01*
X209860132Y-87710420D01*
X209834197Y-87665500D01*
X209807927Y-87619998D01*
X209795539Y-87525905D01*
X209807927Y-87495998D01*
X209860132Y-87405577D01*
X209921500Y-87176550D01*
X209921500Y-86939444D01*
X209860132Y-86710417D01*
X209741579Y-86505077D01*
X209573920Y-86337418D01*
X209368582Y-86218866D01*
X209368581Y-86218865D01*
X209311323Y-86203523D01*
X209139553Y-86157497D01*
X208902447Y-86157497D01*
X208765030Y-86194317D01*
X208673418Y-86218865D01*
X208673417Y-86218866D01*
X208468078Y-86337419D01*
X208300422Y-86505075D01*
X208181869Y-86710414D01*
X208181868Y-86710415D01*
X208151184Y-86824930D01*
X208120500Y-86939444D01*
X73387660Y-86939444D01*
X73387660Y-85079447D01*
X125697500Y-85079447D01*
X125697500Y-85316553D01*
X125743526Y-85488323D01*
X125758868Y-85545581D01*
X125758869Y-85545582D01*
X125877421Y-85750920D01*
X126045080Y-85918579D01*
X126250420Y-86037132D01*
X126479447Y-86098500D01*
X126479450Y-86098500D01*
X126716550Y-86098500D01*
X126716553Y-86098500D01*
X126945580Y-86037132D01*
X127150920Y-85918579D01*
X127318579Y-85750920D01*
X127437132Y-85545580D01*
X127498500Y-85316553D01*
X127498500Y-85079447D01*
X166591500Y-85079447D01*
X166591500Y-85316553D01*
X166637526Y-85488323D01*
X166652868Y-85545581D01*
X166652869Y-85545582D01*
X166771421Y-85750920D01*
X166939080Y-85918579D01*
X167144420Y-86037132D01*
X167373447Y-86098500D01*
X167373450Y-86098500D01*
X167610550Y-86098500D01*
X167610553Y-86098500D01*
X167839580Y-86037132D01*
X168044920Y-85918579D01*
X168212579Y-85750920D01*
X168331132Y-85545580D01*
X168392500Y-85316553D01*
X168392500Y-85079447D01*
X211422500Y-85079447D01*
X211422500Y-85316553D01*
X211468526Y-85488323D01*
X211483868Y-85545581D01*
X211483869Y-85545582D01*
X211602421Y-85750920D01*
X211770080Y-85918579D01*
X211975420Y-86037132D01*
X212204447Y-86098500D01*
X212204450Y-86098500D01*
X212441550Y-86098500D01*
X212441553Y-86098500D01*
X212670580Y-86037132D01*
X212875920Y-85918579D01*
X213043579Y-85750920D01*
X213162132Y-85545580D01*
X213223500Y-85316553D01*
X213223500Y-85079447D01*
X213162132Y-84850420D01*
X213043579Y-84645080D01*
X212875920Y-84477421D01*
X212670582Y-84358869D01*
X212670581Y-84358868D01*
X212613323Y-84343526D01*
X212441553Y-84297500D01*
X212204447Y-84297500D01*
X212067030Y-84334320D01*
X211975418Y-84358868D01*
X211975417Y-84358869D01*
X211770078Y-84477422D01*
X211602422Y-84645078D01*
X211483869Y-84850417D01*
X211483868Y-84850418D01*
X211453184Y-84964933D01*
X211422500Y-85079447D01*
X168392500Y-85079447D01*
X168331132Y-84850420D01*
X168212579Y-84645080D01*
X168044920Y-84477421D01*
X167839582Y-84358869D01*
X167839581Y-84358868D01*
X167782323Y-84343526D01*
X167610553Y-84297500D01*
X167373447Y-84297500D01*
X167236030Y-84334320D01*
X167144418Y-84358868D01*
X167144417Y-84358869D01*
X166939078Y-84477422D01*
X166771422Y-84645078D01*
X166652869Y-84850417D01*
X166652868Y-84850418D01*
X166622184Y-84964933D01*
X166591500Y-85079447D01*
X127498500Y-85079447D01*
X127437132Y-84850420D01*
X127318579Y-84645080D01*
X127150920Y-84477421D01*
X126945582Y-84358869D01*
X126945581Y-84358868D01*
X126888323Y-84343526D01*
X126716553Y-84297500D01*
X126479447Y-84297500D01*
X126342030Y-84334320D01*
X126250418Y-84358868D01*
X126250417Y-84358869D01*
X126045078Y-84477422D01*
X125877422Y-84645078D01*
X125758869Y-84850417D01*
X125758868Y-84850418D01*
X125728184Y-84964933D01*
X125697500Y-85079447D01*
X73387660Y-85079447D01*
X73387660Y-83521447D01*
X92931500Y-83521447D01*
X92931500Y-83758553D01*
X92977526Y-83930323D01*
X92992868Y-83987581D01*
X92992869Y-83987582D01*
X93111421Y-84192920D01*
X93279080Y-84360579D01*
X93484420Y-84479132D01*
X93713447Y-84540500D01*
X93713450Y-84540500D01*
X93950550Y-84540500D01*
X93950553Y-84540500D01*
X94179580Y-84479132D01*
X94384920Y-84360579D01*
X94552579Y-84192920D01*
X94671132Y-83987580D01*
X94732500Y-83758553D01*
X94732500Y-83521447D01*
X139159500Y-83521447D01*
X139159500Y-83758553D01*
X139205526Y-83930323D01*
X139220868Y-83987581D01*
X139220869Y-83987582D01*
X139339421Y-84192920D01*
X139507080Y-84360579D01*
X139712420Y-84479132D01*
X139941447Y-84540500D01*
X139941450Y-84540500D01*
X140178550Y-84540500D01*
X140178553Y-84540500D01*
X140407580Y-84479132D01*
X140612920Y-84360579D01*
X140780579Y-84192920D01*
X140899132Y-83987580D01*
X140960500Y-83758553D01*
X140960500Y-83555447D01*
X185387500Y-83555447D01*
X185387500Y-83792553D01*
X185433526Y-83964323D01*
X185448868Y-84021581D01*
X185448869Y-84021582D01*
X185567421Y-84226920D01*
X185735080Y-84394579D01*
X185940420Y-84513132D01*
X186169447Y-84574500D01*
X186169450Y-84574500D01*
X186406550Y-84574500D01*
X186406553Y-84574500D01*
X186635580Y-84513132D01*
X186840920Y-84394579D01*
X187008579Y-84226920D01*
X187127132Y-84021580D01*
X187188500Y-83792553D01*
X187188500Y-83555447D01*
X187127132Y-83326420D01*
X187008579Y-83121080D01*
X186840920Y-82953421D01*
X186635582Y-82834869D01*
X186635581Y-82834868D01*
X186578323Y-82819526D01*
X186406553Y-82773500D01*
X186169447Y-82773500D01*
X186032030Y-82810320D01*
X185940418Y-82834868D01*
X185940417Y-82834869D01*
X185735078Y-82953422D01*
X185567422Y-83121078D01*
X185448869Y-83326417D01*
X185448868Y-83326418D01*
X185418184Y-83440933D01*
X185387500Y-83555447D01*
X140960500Y-83555447D01*
X140960500Y-83521447D01*
X140899132Y-83292420D01*
X140780579Y-83087080D01*
X140612920Y-82919421D01*
X140407582Y-82800869D01*
X140407581Y-82800868D01*
X140350323Y-82785526D01*
X140178553Y-82739500D01*
X139941447Y-82739500D01*
X139814558Y-82773500D01*
X139712418Y-82800868D01*
X139712417Y-82800869D01*
X139507078Y-82919422D01*
X139339422Y-83087078D01*
X139220869Y-83292417D01*
X139220868Y-83292418D01*
X139190184Y-83406933D01*
X139159500Y-83521447D01*
X94732500Y-83521447D01*
X94671132Y-83292420D01*
X94552579Y-83087080D01*
X94384920Y-82919421D01*
X94179582Y-82800869D01*
X94179581Y-82800868D01*
X94122323Y-82785526D01*
X93950553Y-82739500D01*
X93713447Y-82739500D01*
X93586558Y-82773500D01*
X93484418Y-82800868D01*
X93484417Y-82800869D01*
X93279078Y-82919422D01*
X93111422Y-83087078D01*
X92992869Y-83292417D01*
X92992868Y-83292418D01*
X92962184Y-83406933D01*
X92931500Y-83521447D01*
X73387660Y-83521447D01*
X73387660Y-82847995D01*
X73348789Y-82652582D01*
X73348788Y-82652581D01*
X73348788Y-82652577D01*
X73312469Y-82564896D01*
X73201773Y-82399229D01*
X73201770Y-82399226D01*
X73036101Y-82288529D01*
X72948425Y-82252212D01*
X72936446Y-82249830D01*
X72936446Y-82249829D01*
X72936441Y-82249829D01*
X72877084Y-82238022D01*
X72753002Y-82213340D01*
X72753000Y-82213340D01*
X67412998Y-82213340D01*
X67412997Y-82213340D01*
X67382688Y-82219368D01*
X67289607Y-82200851D01*
X67236882Y-82121938D01*
X67234500Y-82097750D01*
X67234500Y-72955702D01*
X80447500Y-72955702D01*
X80447500Y-75454289D01*
X80476540Y-75600287D01*
X80549741Y-75709839D01*
X80587160Y-75765840D01*
X80752715Y-75876460D01*
X80752718Y-75876460D01*
X80752719Y-75876461D01*
X80825711Y-75890980D01*
X80898707Y-75905500D01*
X83397292Y-75905499D01*
X83543285Y-75876460D01*
X83543286Y-75876459D01*
X83543287Y-75876459D01*
X83571066Y-75857897D01*
X83708840Y-75765840D01*
X83819460Y-75600285D01*
X83848500Y-75454293D01*
X83848499Y-72955708D01*
X83848498Y-72955702D01*
X126675500Y-72955702D01*
X126675500Y-75454289D01*
X126704540Y-75600287D01*
X126777741Y-75709839D01*
X126815160Y-75765840D01*
X126980715Y-75876460D01*
X126980718Y-75876460D01*
X126980719Y-75876461D01*
X127053711Y-75890980D01*
X127126707Y-75905500D01*
X129625292Y-75905499D01*
X129771285Y-75876460D01*
X129771286Y-75876459D01*
X129771287Y-75876459D01*
X129799066Y-75857897D01*
X129936840Y-75765840D01*
X130047460Y-75600285D01*
X130076500Y-75454293D01*
X130076499Y-72955708D01*
X130068960Y-72917804D01*
X130068960Y-72917802D01*
X130065360Y-72899702D01*
X172903500Y-72899702D01*
X172903500Y-75398289D01*
X172932540Y-75544287D01*
X172969959Y-75600287D01*
X173043160Y-75709840D01*
X173208715Y-75820460D01*
X173208718Y-75820460D01*
X173208719Y-75820461D01*
X173281711Y-75834980D01*
X173354707Y-75849500D01*
X175853292Y-75849499D01*
X175999285Y-75820460D01*
X175999286Y-75820459D01*
X175999287Y-75820459D01*
X176027066Y-75801897D01*
X176164840Y-75709840D01*
X176275460Y-75544285D01*
X176304500Y-75398293D01*
X176304499Y-72899708D01*
X176275460Y-72753715D01*
X176275459Y-72753714D01*
X176275459Y-72753712D01*
X176202258Y-72644160D01*
X176164840Y-72588160D01*
X175999285Y-72477540D01*
X175999283Y-72477539D01*
X175999280Y-72477538D01*
X175853296Y-72448500D01*
X173354710Y-72448500D01*
X173208712Y-72477540D01*
X173043160Y-72588160D01*
X172932540Y-72753715D01*
X172932538Y-72753719D01*
X172903500Y-72899702D01*
X130065360Y-72899702D01*
X130047460Y-72809715D01*
X130047460Y-72809714D01*
X130003151Y-72743402D01*
X129936840Y-72644160D01*
X129771285Y-72533540D01*
X129771283Y-72533539D01*
X129771280Y-72533538D01*
X129625296Y-72504500D01*
X127126710Y-72504500D01*
X126980712Y-72533540D01*
X126815160Y-72644160D01*
X126704540Y-72809715D01*
X126704538Y-72809719D01*
X126675500Y-72955702D01*
X83848498Y-72955702D01*
X83819460Y-72809715D01*
X83819459Y-72809714D01*
X83819459Y-72809712D01*
X83764024Y-72726748D01*
X83708840Y-72644160D01*
X83543285Y-72533540D01*
X83543283Y-72533539D01*
X83543280Y-72533538D01*
X83397296Y-72504500D01*
X80898710Y-72504500D01*
X80752712Y-72533540D01*
X80587160Y-72644160D01*
X80476540Y-72809715D01*
X80476538Y-72809719D01*
X80447500Y-72955702D01*
X67234500Y-72955702D01*
X67234500Y-68494066D01*
X67234765Y-68485956D01*
X67239474Y-68414115D01*
X67269203Y-67960517D01*
X67271318Y-67944463D01*
X67373248Y-67432025D01*
X67377446Y-67416360D01*
X67488821Y-67088259D01*
X67545392Y-66921606D01*
X67551590Y-66906641D01*
X67782682Y-66438033D01*
X67790785Y-66423998D01*
X68081066Y-65989561D01*
X68090923Y-65976716D01*
X68435427Y-65583885D01*
X68446885Y-65572427D01*
X68839716Y-65227923D01*
X68852561Y-65218066D01*
X69286998Y-64927785D01*
X69301033Y-64919682D01*
X69769641Y-64688590D01*
X69784606Y-64682392D01*
X70132015Y-64564462D01*
X70279360Y-64514446D01*
X70295027Y-64510248D01*
X70807463Y-64408318D01*
X70823517Y-64406203D01*
X71348957Y-64371765D01*
X71357067Y-64371500D01*
X71428885Y-64371500D01*
X102525293Y-64371500D01*
X102612974Y-64407819D01*
G37*
%TD.AperFunction*%
%TD*%
M02*
