M48
; DRILL file {KiCad 9.0.2} date 2025-05-19T15:54:46+0200
; FORMAT={-:-/ absolute / metric / decimal}
; #@! TF.CreationDate,2025-05-19T15:54:46+02:00
; #@! TF.GenerationSoftware,Kicad,Pcbnew,9.0.2
; #@! TF.FileFunction,Plated,1,4,PTH
FMAT,2
METRIC
; #@! TA.AperFunction,Plated,PTH,ViaDrill
T1C0.400
; #@! TA.AperFunction,Plated,PTH,ComponentDrill
T2C0.500
; #@! TA.AperFunction,Plated,PTH,ComponentDrill
T3C0.600
; #@! TA.AperFunction,Plated,PTH,ComponentDrill
T4C0.750
; #@! TA.AperFunction,Plated,PTH,ComponentDrill
T5C1.000
; #@! TA.AperFunction,Plated,PTH,ComponentDrill
T6C1.100
; #@! TA.AperFunction,Plated,PTH,ComponentDrill
T7C1.200
; #@! TA.AperFunction,Plated,PTH,ComponentDrill
T8C1.700
; #@! TA.AperFunction,Plated,PTH,ComponentDrill
T9C2.100
; #@! TA.AperFunction,Plated,PTH,ComponentDrill
T10C2.500
; #@! TA.AperFunction,Plated,PTH,ComponentDrill
T11C3.200
%
G90
G05
T1
X69.067Y-93.392
X69.067Y-95.678
X69.067Y-97.837
X69.829Y-105.33
X69.829Y-107.616
X69.829Y-109.902
X71.226Y-93.392
X71.226Y-95.678
X71.861Y-105.33
X71.861Y-109.902
X73.512Y-93.392
X73.512Y-95.678
X73.893Y-105.33
X73.893Y-109.902
X75.798Y-95.678
X75.925Y-105.33
X75.925Y-109.902
X75.925Y-112.696
X75.925Y-114.728
X75.925Y-116.76
X75.925Y-118.792
X76.433Y-65.198
X76.433Y-67.23
X76.433Y-69.262
X76.433Y-82.47
X76.433Y-84.502
X76.433Y-86.534
X76.433Y-88.566
X77.83Y-95.678
X77.957Y-105.33
X77.957Y-107.616
X77.957Y-109.902
X77.957Y-112.696
X77.957Y-114.728
X77.957Y-116.76
X77.957Y-118.792
X78.465Y-65.198
X78.465Y-67.23
X78.465Y-69.262
X78.465Y-80.438
X78.465Y-82.47
X78.465Y-84.502
X78.465Y-86.534
X78.465Y-88.566
X79.989Y-105.33
X79.989Y-107.616
X79.989Y-109.902
X79.989Y-112.696
X79.989Y-114.728
X79.989Y-116.76
X79.989Y-118.792
X80.116Y-95.678
X80.497Y-65.198
X80.497Y-67.23
X80.497Y-69.262
X80.497Y-82.47
X80.497Y-84.502
X80.497Y-86.534
X80.497Y-88.566
X82.021Y-105.33
X82.021Y-107.616
X82.021Y-109.902
X82.021Y-112.696
X82.021Y-114.728
X82.021Y-116.76
X82.021Y-118.792
X82.529Y-65.198
X82.529Y-67.23
X82.529Y-69.262
X82.529Y-82.47
X82.529Y-84.502
X82.529Y-86.534
X82.529Y-88.566
X82.529Y-90.598
X83.513Y-100.885
X83.545Y-93.519
X83.545Y-95.424
X84.053Y-112.696
X84.053Y-114.728
X84.053Y-116.76
X84.053Y-118.792
X84.561Y-65.198
X84.561Y-67.23
X84.561Y-69.262
X84.561Y-78.406
X84.561Y-80.438
X84.561Y-82.47
X84.561Y-84.502
X84.561Y-86.534
X84.561Y-88.566
X84.561Y-90.598
X86.085Y-112.696
X86.085Y-114.728
X86.085Y-116.76
X86.085Y-118.792
X86.593Y-65.198
X86.593Y-67.23
X86.593Y-69.262
X86.593Y-78.406
X86.593Y-80.438
X86.593Y-82.47
X86.593Y-84.502
X86.593Y-86.534
X86.593Y-88.566
X86.593Y-90.598
X88.117Y-104.568
X88.117Y-106.6
X88.117Y-108.632
X88.117Y-110.664
X88.117Y-112.696
X88.117Y-114.728
X88.117Y-116.76
X88.117Y-118.792
X88.625Y-65.198
X88.625Y-78.406
X88.625Y-80.438
X88.625Y-82.47
X88.625Y-84.502
X88.625Y-86.534
X88.625Y-88.566
X88.625Y-90.598
X88.625Y-92.63
X90.055Y-100.303
X90.149Y-104.568
X90.149Y-106.6
X90.149Y-108.632
X90.149Y-110.664
X90.149Y-112.696
X90.149Y-114.728
X90.149Y-116.76
X90.149Y-118.792
X90.657Y-78.406
X90.657Y-80.438
X90.657Y-82.47
X90.657Y-84.502
X90.657Y-86.534
X90.657Y-88.566
X90.657Y-90.598
X90.657Y-92.63
X91.546Y-77.517
X92.181Y-104.568
X92.181Y-110.664
X92.181Y-112.696
X92.181Y-114.728
X92.181Y-116.76
X92.181Y-118.792
X92.689Y-86.534
X92.689Y-88.566
X92.689Y-90.598
X92.689Y-92.63
X93.761Y-93.9
X93.832Y-83.64
X94.213Y-112.696
X94.213Y-114.728
X94.213Y-116.76
X94.213Y-118.792
X94.721Y-86.534
X94.721Y-88.566
X94.721Y-90.598
X94.721Y-92.63
X96.245Y-104.568
X96.245Y-106.6
X96.245Y-108.632
X96.245Y-110.664
X96.245Y-112.696
X96.245Y-114.728
X96.245Y-116.76
X96.245Y-118.792
X96.753Y-86.534
X96.753Y-88.566
X96.753Y-90.598
X96.753Y-92.63
X97.641Y-81.515
X98.277Y-104.568
X98.277Y-106.6
X98.277Y-108.632
X98.277Y-110.664
X98.277Y-112.696
X98.277Y-114.728
X98.277Y-116.76
X98.277Y-118.792
X98.785Y-86.534
X98.785Y-88.566
X98.785Y-90.598
X98.785Y-92.63
X100.817Y-88.566
X100.817Y-90.598
X102.595Y-106.6
X102.595Y-108.378
X102.595Y-112.696
X102.595Y-118.792
X102.849Y-88.566
X102.849Y-90.598
X103.645Y-94.31
X104.119Y-117.544
X104.881Y-88.566
X104.942Y-78.656
X106.086Y-82.34
X106.878Y-94.31
X106.913Y-88.566
X108.231Y-118.968
X108.691Y-106.6
X108.945Y-88.566
X110.249Y-94.31
X110.723Y-111.426
X110.977Y-88.566
X111.739Y-102.79
X111.993Y-116.76
X111.993Y-118.792
X112.119Y-77.705
X112.119Y-78.721
X112.119Y-79.737
X112.119Y-80.753
X113.009Y-88.566
X113.135Y-77.705
X113.135Y-78.721
X113.135Y-79.737
X113.135Y-80.753
X113.517Y-94.344
X114.025Y-114.728
X114.025Y-116.76
X114.025Y-118.792
X114.151Y-77.705
X114.151Y-78.721
X114.151Y-79.737
X114.151Y-80.753
X115.041Y-88.566
X115.167Y-80.753
X115.167Y-82.531
X115.803Y-112.442
X116.057Y-116.76
X116.057Y-118.792
X116.853Y-94.31
X117.073Y-88.566
X118.089Y-118.792
X118.851Y-112.442
X118.851Y-114.728
X119.105Y-88.566
X120.155Y-94.31
X120.247Y-82.023
X121.137Y-88.566
X121.137Y-112.442
X121.137Y-114.728
X122.661Y-65.198
X122.661Y-67.23
X122.661Y-69.262
X122.661Y-77.898
X122.661Y-79.93
X122.661Y-81.962
X124.185Y-115.744
X124.591Y-98.421
X124.693Y-65.198
X124.693Y-67.23
X124.693Y-69.262
X124.693Y-77.898
X124.693Y-79.93
X124.693Y-81.962
X126.084Y-117.897
X126.217Y-115.744
X126.336Y-89.574
X126.344Y-88.566
X126.598Y-85.198
X126.725Y-65.198
X126.725Y-67.23
X126.725Y-69.262
X126.725Y-81.962
X126.725Y-100.758
X128.249Y-115.744
X128.757Y-65.198
X128.757Y-67.23
X128.757Y-69.262
X128.757Y-81.962
X129.541Y-110.642
X130.027Y-96.186
X130.027Y-98.218
X130.154Y-117.903
X130.281Y-115.744
X130.408Y-94.154
X130.789Y-65.198
X130.789Y-67.23
X130.789Y-69.262
X130.789Y-77.898
X130.789Y-79.93
X130.789Y-81.962
X131.932Y-107.489
X132.049Y-90.989
X132.059Y-96.186
X132.059Y-98.218
X132.313Y-115.744
X132.313Y-117.776
X132.821Y-65.198
X132.821Y-67.23
X132.821Y-69.262
X132.821Y-77.898
X132.821Y-79.93
X132.821Y-81.962
X132.821Y-101.012
X134.345Y-101.012
X134.345Y-115.744
X134.345Y-117.776
X134.853Y-65.198
X134.853Y-77.898
X134.853Y-79.93
X134.853Y-81.962
X134.853Y-98.218
X135.615Y-96.948
X135.939Y-89.184
X136.123Y-101.52
X136.377Y-115.744
X136.377Y-117.776
X136.885Y-79.93
X136.885Y-81.962
X136.885Y-98.218
X136.885Y-113.966
X137.349Y-91.084
X137.393Y-106.6
X137.775Y-77.478
X138.409Y-101.52
X138.409Y-115.744
X138.409Y-117.776
X138.917Y-89.074
X138.917Y-91.106
X138.917Y-94.154
X138.917Y-96.186
X138.917Y-98.218
X138.967Y-111.568
X139.362Y-108.441
X139.425Y-106.6
X140.06Y-83.64
X140.441Y-101.52
X140.949Y-89.074
X140.949Y-91.106
X140.949Y-94.154
X140.949Y-96.186
X140.949Y-98.218
X141.457Y-106.6
X141.908Y-111.115
X142.219Y-114.982
X142.219Y-117.014
X142.473Y-101.52
X142.981Y-91.106
X142.981Y-94.154
X142.981Y-96.186
X142.981Y-98.218
X143.869Y-81.515
X144.251Y-114.982
X144.251Y-117.014
X144.378Y-108.556
X145.013Y-89.074
X145.013Y-94.154
X146.283Y-114.982
X146.283Y-117.014
X146.791Y-101.52
X146.791Y-105.584
X146.791Y-107.616
X147.045Y-89.074
X147.045Y-91.106
X147.299Y-111.172
X148.754Y-99.361
X148.823Y-105.584
X148.888Y-90.025
X149.394Y-108.378
X149.516Y-96.129
X149.516Y-97.645
X149.705Y-111.546
X150.509Y-96.909
X151.109Y-107.616
X151.109Y-109.648
X151.109Y-111.68
X151.109Y-113.712
X151.109Y-115.744
X151.109Y-117.776
X151.17Y-78.656
X152.314Y-82.34
X153.014Y-107.235
X153.076Y-90.025
X153.076Y-97.658
X153.141Y-113.839
X153.903Y-102.536
X155.173Y-105.838
X156.759Y-98.788
X157.777Y-100.428
X157.777Y-112.632
X158.348Y-77.705
X158.348Y-78.721
X158.348Y-79.737
X158.348Y-80.753
X159.101Y-109.775
X159.101Y-116.379
X159.364Y-77.705
X159.364Y-78.721
X159.364Y-79.737
X159.364Y-80.753
X159.364Y-105.711
X159.413Y-98.661
X160.38Y-77.705
X160.38Y-78.721
X160.38Y-79.737
X160.38Y-80.753
X160.442Y-98.915
X160.442Y-100.439
X160.634Y-107.235
X160.761Y-113.839
X160.963Y-97.658
X161.395Y-80.753
X161.395Y-82.531
X161.777Y-105.838
X161.777Y-110.664
X161.777Y-115.236
X161.777Y-117.522
X162.031Y-100.504
X162.598Y-91.292
X163.49Y-97.772
X163.809Y-106.092
X163.809Y-108.378
X163.809Y-110.664
X163.809Y-112.95
X163.809Y-115.236
X163.809Y-117.522
X164.013Y-92.162
X164.825Y-91.233
X165.841Y-101.52
X165.841Y-106.092
X165.841Y-108.378
X166.475Y-82.023
X167.492Y-85.198
X167.873Y-101.52
X168.279Y-109.8
X168.635Y-106.092
X168.635Y-108.378
X168.889Y-65.198
X168.889Y-67.23
X168.889Y-69.262
X168.889Y-77.898
X168.889Y-79.93
X168.889Y-81.962
X169.143Y-89.963
X169.905Y-101.52
X170.921Y-65.198
X170.921Y-67.23
X170.921Y-69.262
X170.921Y-77.898
X170.921Y-79.93
X170.921Y-81.962
X171.429Y-106.092
X171.937Y-101.52
X172.953Y-65.198
X172.953Y-67.23
X172.953Y-69.262
X172.953Y-81.962
X173.066Y-95.613
X173.969Y-89.328
X173.969Y-91.36
X173.969Y-93.392
X173.969Y-97.456
X173.969Y-99.488
X173.969Y-101.52
X173.969Y-106.092
X173.969Y-108.378
X174.35Y-109.775
X174.985Y-65.198
X174.985Y-67.23
X174.985Y-69.262
X174.985Y-81.962
X176.001Y-89.328
X176.001Y-91.36
X176.001Y-93.392
X176.001Y-95.424
X176.001Y-97.456
X176.001Y-99.488
X176.001Y-101.52
X176.001Y-103.806
X176.001Y-106.092
X176.001Y-108.378
X177.017Y-65.198
X177.017Y-67.23
X177.017Y-69.262
X177.017Y-77.898
X177.017Y-79.93
X177.017Y-81.962
X178.033Y-89.328
X178.033Y-91.36
X178.033Y-93.392
X178.033Y-95.424
X178.033Y-97.456
X178.033Y-99.488
X178.033Y-101.52
X178.033Y-103.806
X178.033Y-106.092
X178.033Y-108.378
X178.033Y-110.664
X178.033Y-112.95
X178.033Y-114.982
X178.033Y-117.014
X178.033Y-119.046
X179.049Y-65.198
X179.049Y-67.23
X179.049Y-69.262
X179.049Y-77.898
X179.049Y-79.93
X179.049Y-81.962
X180.065Y-89.328
X180.065Y-91.36
X180.065Y-93.392
X180.065Y-95.424
X180.065Y-97.456
X180.065Y-99.488
X180.065Y-101.52
X180.065Y-103.806
X180.065Y-106.092
X180.065Y-108.378
X180.065Y-110.664
X180.065Y-112.95
X180.065Y-114.982
X180.065Y-117.014
X180.065Y-119.046
X181.081Y-65.198
X181.081Y-77.898
X181.081Y-79.93
X181.081Y-81.962
X182.097Y-89.328
X182.097Y-91.36
X182.097Y-93.392
X182.097Y-95.424
X182.097Y-97.456
X182.097Y-99.488
X182.097Y-101.52
X182.097Y-103.806
X182.097Y-106.092
X182.097Y-108.378
X182.097Y-110.664
X182.097Y-112.95
X182.097Y-114.982
X182.097Y-117.014
X182.097Y-119.046
X183.113Y-79.93
X183.113Y-81.962
X184.003Y-77.478
X184.129Y-112.95
X184.129Y-114.982
X184.129Y-117.014
X184.129Y-119.046
X186.161Y-112.95
X186.161Y-114.982
X186.161Y-117.014
X186.161Y-119.046
X186.288Y-83.674
X186.923Y-89.074
X188.193Y-112.95
X188.193Y-114.982
X188.193Y-117.014
X188.193Y-119.046
X190.097Y-81.459
X190.225Y-90.598
X190.225Y-92.63
X190.225Y-94.662
X190.225Y-96.694
X190.225Y-98.726
X190.225Y-100.758
X190.225Y-102.79
X190.225Y-104.822
X190.225Y-106.854
X190.225Y-108.886
X190.225Y-110.918
X190.225Y-112.95
X190.225Y-114.982
X190.225Y-117.014
X190.225Y-119.046
X192.257Y-90.598
X192.257Y-92.63
X192.257Y-94.662
X192.257Y-96.694
X192.257Y-98.726
X192.257Y-100.758
X192.257Y-102.79
X192.257Y-104.822
X192.257Y-106.854
X192.257Y-108.886
X192.257Y-110.918
X192.257Y-112.95
X192.257Y-114.982
X192.257Y-117.014
X192.257Y-119.046
X194.289Y-112.95
X194.289Y-114.982
X194.289Y-117.014
X194.289Y-119.046
X196.321Y-89.074
X196.321Y-112.95
X196.321Y-114.982
X196.321Y-117.014
X196.321Y-119.046
X197.398Y-78.6
X198.353Y-112.95
X198.353Y-114.982
X198.353Y-117.014
X198.353Y-119.046
X198.542Y-82.284
X200.385Y-90.598
X200.385Y-92.63
X200.385Y-94.662
X200.385Y-96.694
X200.385Y-98.726
X200.385Y-100.758
X200.385Y-102.79
X200.385Y-104.822
X200.385Y-106.854
X200.385Y-108.886
X200.385Y-110.918
X200.385Y-112.95
X200.385Y-114.982
X200.385Y-117.014
X200.385Y-119.046
X202.417Y-90.598
X202.417Y-92.63
X202.417Y-94.662
X202.417Y-96.694
X202.417Y-98.726
X202.417Y-100.758
X202.417Y-102.79
X202.417Y-104.822
X202.417Y-106.854
X202.417Y-108.886
X202.417Y-110.918
X202.417Y-112.95
X202.417Y-114.982
X202.417Y-117.014
X202.417Y-119.046
X204.449Y-112.95
X204.449Y-114.982
X204.449Y-117.014
X204.449Y-119.046
X204.576Y-77.649
X204.576Y-78.665
X204.576Y-79.681
X204.576Y-80.697
X205.592Y-77.649
X205.592Y-78.665
X205.592Y-79.681
X205.592Y-80.697
X205.973Y-89.074
X206.481Y-112.95
X206.481Y-114.982
X206.481Y-117.014
X206.481Y-119.046
X206.608Y-77.649
X206.608Y-78.665
X206.608Y-79.681
X206.608Y-80.697
X207.623Y-80.697
X207.623Y-82.475
X208.513Y-90.344
X208.513Y-92.376
X208.513Y-94.408
X208.513Y-96.44
X208.513Y-110.664
X208.513Y-112.95
X208.513Y-114.982
X208.513Y-117.014
X208.513Y-119.046
X209.021Y-87.058
X209.021Y-88.058
X210.545Y-90.344
X210.545Y-92.376
X210.545Y-94.408
X210.545Y-96.44
X210.545Y-98.472
X210.545Y-100.504
X210.545Y-102.536
X210.545Y-104.568
X210.545Y-106.6
X210.545Y-108.632
X210.545Y-110.664
X210.545Y-112.95
X210.545Y-114.982
X210.545Y-117.014
X210.545Y-119.046
X212.323Y-85.198
X212.577Y-100.504
X212.577Y-102.536
X212.577Y-104.568
X212.577Y-106.6
X212.577Y-108.632
X212.577Y-110.664
X212.577Y-112.95
X212.577Y-114.982
X212.577Y-117.014
X212.577Y-119.046
X212.703Y-81.967
X214.863Y-86.81
X214.99Y-81.073
X214.99Y-84.184
X215.244Y-106.495
X215.244Y-110.686
X217.149Y-94.557
X220.963Y-81.073
T2
X68.953Y-68.49
X68.953Y-115.49
X69.656Y-66.793
X69.656Y-70.187
X69.656Y-113.793
X69.656Y-117.187
X71.353Y-66.09
X71.353Y-70.89
X71.353Y-113.09
X71.353Y-117.89
X73.05Y-66.793
X73.05Y-70.187
X73.05Y-113.793
X73.05Y-117.187
X73.753Y-68.49
X73.753Y-115.49
X104.563Y-100.25
X105.833Y-100.25
X107.865Y-100.25
X109.135Y-100.25
X111.167Y-100.25
X112.437Y-100.25
X114.469Y-100.25
X115.739Y-100.25
X117.771Y-100.25
X119.041Y-100.25
X121.073Y-100.25
X122.343Y-100.25
X214.953Y-68.49
X214.953Y-115.49
X215.656Y-66.793
X215.656Y-70.187
X215.656Y-113.793
X215.656Y-117.187
X217.353Y-66.09
X217.353Y-70.89
X217.353Y-113.09
X217.353Y-117.89
X219.05Y-66.793
X219.05Y-70.187
X219.05Y-113.793
X219.05Y-117.187
X219.753Y-68.49
X219.753Y-115.49
T4
X167.353Y-113.64
X169.353Y-113.64
X171.353Y-113.64
X173.353Y-113.64
X175.353Y-113.64
T5
X96.774Y-96.059
X96.774Y-98.599
X113.533Y-107.34
X113.533Y-109.88
X116.073Y-107.34
X116.073Y-109.88
X118.613Y-107.34
X118.613Y-109.88
X121.153Y-107.34
X121.153Y-109.88
T6
X70.012Y-85.01
X70.012Y-87.55
X70.012Y-90.09
X89.259Y-67.22
X91.799Y-67.22
X94.339Y-67.22
X107.293Y-67.22
X109.833Y-67.22
X112.373Y-67.22
X135.487Y-67.22
X138.027Y-67.22
X140.567Y-67.22
X153.521Y-67.22
X156.061Y-67.22
X158.601Y-67.22
X181.715Y-67.164
X184.255Y-67.164
X186.795Y-67.164
X199.749Y-67.164
X202.289Y-67.164
X204.829Y-67.164
X218.49Y-96.208
X218.49Y-98.748
X218.49Y-101.288
T7
X82.148Y-74.205
X82.148Y-79.205
X128.376Y-74.205
X128.376Y-79.205
X174.604Y-74.149
X174.604Y-79.149
T8
X72.193Y-97.89
X72.193Y-107.69
X75.593Y-97.89
X75.593Y-107.69
T9
X84.603Y-108.134
X94.103Y-108.134
X186.853Y-108.19
X196.353Y-108.19
X205.853Y-108.18
T10
X101.705Y-67.291
X147.933Y-67.291
X186.923Y-100.504
X194.161Y-67.235
X196.321Y-100.504
X205.973Y-100.504
T11
X71.353Y-68.49
X71.353Y-115.49
X217.353Y-68.49
X217.353Y-115.49
T3
G00X140.033Y-112.501
M15
G01X140.033Y-113.601
M16
G05
G00X140.033Y-116.931
M15
G01X140.033Y-117.531
M16
G05
G00X148.673Y-112.501
M15
G01X148.673Y-113.601
M16
G05
G00X148.673Y-116.931
M15
G01X148.673Y-117.531
M16
G05
M30
