%TF.GenerationSoftware,KiCad,Pcbnew,9.0.2*%
%TF.CreationDate,2025-05-19T15:54:50+02:00*%
%TF.ProjectId,ESC-TFG-KiCad,4553432d-5446-4472-9d4b-694361642e6b,v1.0*%
%TF.SameCoordinates,Original*%
%TF.FileFunction,Copper,L1,Top*%
%TF.FilePolarity,Positive*%
%FSLAX46Y46*%
G04 Gerber Fmt 4.6, Leading zero omitted, Abs format (unit mm)*
G04 Created by KiCad (PCBNEW 9.0.2) date 2025-05-19 15:54:50*
%MOMM*%
%LPD*%
G01*
G04 APERTURE LIST*
G04 Aperture macros list*
%AMRoundRect*
0 Rectangle with rounded corners*
0 $1 Rounding radius*
0 $2 $3 $4 $5 $6 $7 $8 $9 X,Y pos of 4 corners*
0 Add a 4 corners polygon primitive as box body*
4,1,4,$2,$3,$4,$5,$6,$7,$8,$9,$2,$3,0*
0 Add four circle primitives for the rounded corners*
1,1,$1+$1,$2,$3*
1,1,$1+$1,$4,$5*
1,1,$1+$1,$6,$7*
1,1,$1+$1,$8,$9*
0 Add four rect primitives between the rounded corners*
20,1,$1+$1,$2,$3,$4,$5,0*
20,1,$1+$1,$4,$5,$6,$7,0*
20,1,$1+$1,$6,$7,$8,$9,0*
20,1,$1+$1,$8,$9,$2,$3,0*%
%AMFreePoly0*
4,1,9,3.862500,-0.866500,0.737500,-0.866500,0.737500,-0.450000,-0.737500,-0.450000,-0.737500,0.450000,0.737500,0.450000,0.737500,0.866500,3.862500,0.866500,3.862500,-0.866500,3.862500,-0.866500,$1*%
G04 Aperture macros list end*
%TA.AperFunction,SMDPad,CuDef*%
%ADD10RoundRect,0.225000X0.250000X-0.225000X0.250000X0.225000X-0.250000X0.225000X-0.250000X-0.225000X0*%
%TD*%
%TA.AperFunction,SMDPad,CuDef*%
%ADD11RoundRect,0.200000X0.200000X0.275000X-0.200000X0.275000X-0.200000X-0.275000X0.200000X-0.275000X0*%
%TD*%
%TA.AperFunction,SMDPad,CuDef*%
%ADD12RoundRect,0.225000X-0.250000X0.225000X-0.250000X-0.225000X0.250000X-0.225000X0.250000X0.225000X0*%
%TD*%
%TA.AperFunction,ComponentPad*%
%ADD13C,2.900000*%
%TD*%
%TA.AperFunction,ConnectorPad*%
%ADD14C,5.000000*%
%TD*%
%TA.AperFunction,SMDPad,CuDef*%
%ADD15RoundRect,0.200000X-0.200000X-0.275000X0.200000X-0.275000X0.200000X0.275000X-0.200000X0.275000X0*%
%TD*%
%TA.AperFunction,SMDPad,CuDef*%
%ADD16RoundRect,0.225000X-0.225000X-0.250000X0.225000X-0.250000X0.225000X0.250000X-0.225000X0.250000X0*%
%TD*%
%TA.AperFunction,SMDPad,CuDef*%
%ADD17RoundRect,0.200000X0.275000X-0.200000X0.275000X0.200000X-0.275000X0.200000X-0.275000X-0.200000X0*%
%TD*%
%TA.AperFunction,SMDPad,CuDef*%
%ADD18RoundRect,0.243750X0.456250X-0.243750X0.456250X0.243750X-0.456250X0.243750X-0.456250X-0.243750X0*%
%TD*%
%TA.AperFunction,SMDPad,CuDef*%
%ADD19RoundRect,0.250000X0.450000X-0.262500X0.450000X0.262500X-0.450000X0.262500X-0.450000X-0.262500X0*%
%TD*%
%TA.AperFunction,ComponentPad*%
%ADD20R,1.000000X1.000000*%
%TD*%
%TA.AperFunction,ComponentPad*%
%ADD21C,1.000000*%
%TD*%
%TA.AperFunction,SMDPad,CuDef*%
%ADD22RoundRect,0.243750X-0.243750X-0.456250X0.243750X-0.456250X0.243750X0.456250X-0.243750X0.456250X0*%
%TD*%
%TA.AperFunction,SMDPad,CuDef*%
%ADD23RoundRect,0.097500X-0.502500X-0.227500X0.502500X-0.227500X0.502500X0.227500X-0.502500X0.227500X0*%
%TD*%
%TA.AperFunction,SMDPad,CuDef*%
%ADD24RoundRect,0.225000X0.225000X-0.425000X0.225000X0.425000X-0.225000X0.425000X-0.225000X-0.425000X0*%
%TD*%
%TA.AperFunction,SMDPad,CuDef*%
%ADD25FreePoly0,90.000000*%
%TD*%
%TA.AperFunction,SMDPad,CuDef*%
%ADD26RoundRect,0.250000X0.550000X-1.050000X0.550000X1.050000X-0.550000X1.050000X-0.550000X-1.050000X0*%
%TD*%
%TA.AperFunction,ComponentPad*%
%ADD27R,1.700000X1.700000*%
%TD*%
%TA.AperFunction,ComponentPad*%
%ADD28O,1.700000X1.700000*%
%TD*%
%TA.AperFunction,SMDPad,CuDef*%
%ADD29RoundRect,0.218750X0.218750X0.381250X-0.218750X0.381250X-0.218750X-0.381250X0.218750X-0.381250X0*%
%TD*%
%TA.AperFunction,SMDPad,CuDef*%
%ADD30RoundRect,0.200000X-0.275000X0.200000X-0.275000X-0.200000X0.275000X-0.200000X0.275000X0.200000X0*%
%TD*%
%TA.AperFunction,ComponentPad*%
%ADD31R,2.000000X1.905000*%
%TD*%
%TA.AperFunction,ComponentPad*%
%ADD32O,2.000000X1.905000*%
%TD*%
%TA.AperFunction,SMDPad,CuDef*%
%ADD33RoundRect,0.250000X-0.250000X0.250000X-0.250000X-0.250000X0.250000X-0.250000X0.250000X0.250000X0*%
%TD*%
%TA.AperFunction,SMDPad,CuDef*%
%ADD34RoundRect,0.062500X0.375000X0.062500X-0.375000X0.062500X-0.375000X-0.062500X0.375000X-0.062500X0*%
%TD*%
%TA.AperFunction,SMDPad,CuDef*%
%ADD35RoundRect,0.062500X0.062500X0.375000X-0.062500X0.375000X-0.062500X-0.375000X0.062500X-0.375000X0*%
%TD*%
%TA.AperFunction,HeatsinkPad*%
%ADD36R,5.600000X5.600000*%
%TD*%
%TA.AperFunction,SMDPad,CuDef*%
%ADD37RoundRect,0.225000X0.375000X-0.225000X0.375000X0.225000X-0.375000X0.225000X-0.375000X-0.225000X0*%
%TD*%
%TA.AperFunction,SMDPad,CuDef*%
%ADD38RoundRect,0.100000X-0.637500X-0.100000X0.637500X-0.100000X0.637500X0.100000X-0.637500X0.100000X0*%
%TD*%
%TA.AperFunction,ComponentPad*%
%ADD39R,1.905000X2.000000*%
%TD*%
%TA.AperFunction,ComponentPad*%
%ADD40O,1.905000X2.000000*%
%TD*%
%TA.AperFunction,SMDPad,CuDef*%
%ADD41RoundRect,0.243750X0.243750X0.456250X-0.243750X0.456250X-0.243750X-0.456250X0.243750X-0.456250X0*%
%TD*%
%TA.AperFunction,SMDPad,CuDef*%
%ADD42RoundRect,0.250000X-0.550000X1.050000X-0.550000X-1.050000X0.550000X-1.050000X0.550000X1.050000X0*%
%TD*%
%TA.AperFunction,ComponentPad*%
%ADD43C,0.800000*%
%TD*%
%TA.AperFunction,ComponentPad*%
%ADD44C,6.400000*%
%TD*%
%TA.AperFunction,SMDPad,CuDef*%
%ADD45RoundRect,0.250000X-0.250000X-0.250000X0.250000X-0.250000X0.250000X0.250000X-0.250000X0.250000X0*%
%TD*%
%TA.AperFunction,SMDPad,CuDef*%
%ADD46RoundRect,0.250000X0.312500X1.450000X-0.312500X1.450000X-0.312500X-1.450000X0.312500X-1.450000X0*%
%TD*%
%TA.AperFunction,SMDPad,CuDef*%
%ADD47R,0.300000X1.150000*%
%TD*%
%TA.AperFunction,HeatsinkPad*%
%ADD48O,1.000000X2.100000*%
%TD*%
%TA.AperFunction,HeatsinkPad*%
%ADD49O,1.000000X1.600000*%
%TD*%
%TA.AperFunction,SMDPad,CuDef*%
%ADD50RoundRect,0.225000X0.225000X0.250000X-0.225000X0.250000X-0.225000X-0.250000X0.225000X-0.250000X0*%
%TD*%
%TA.AperFunction,SMDPad,CuDef*%
%ADD51R,1.300000X1.100000*%
%TD*%
%TA.AperFunction,SMDPad,CuDef*%
%ADD52RoundRect,0.100000X0.155000X0.100000X-0.155000X0.100000X-0.155000X-0.100000X0.155000X-0.100000X0*%
%TD*%
%TA.AperFunction,SMDPad,CuDef*%
%ADD53RoundRect,0.150000X-0.587500X-0.150000X0.587500X-0.150000X0.587500X0.150000X-0.587500X0.150000X0*%
%TD*%
%TA.AperFunction,ComponentPad*%
%ADD54R,2.400000X2.400000*%
%TD*%
%TA.AperFunction,ComponentPad*%
%ADD55C,2.400000*%
%TD*%
%TA.AperFunction,SMDPad,CuDef*%
%ADD56RoundRect,0.250000X-0.450000X0.262500X-0.450000X-0.262500X0.450000X-0.262500X0.450000X0.262500X0*%
%TD*%
%TA.AperFunction,SMDPad,CuDef*%
%ADD57RoundRect,0.150000X0.150000X-0.825000X0.150000X0.825000X-0.150000X0.825000X-0.150000X-0.825000X0*%
%TD*%
%TA.AperFunction,SMDPad,CuDef*%
%ADD58RoundRect,0.225000X-0.375000X0.225000X-0.375000X-0.225000X0.375000X-0.225000X0.375000X0.225000X0*%
%TD*%
%TA.AperFunction,SMDPad,CuDef*%
%ADD59RoundRect,0.250000X-0.900000X1.000000X-0.900000X-1.000000X0.900000X-1.000000X0.900000X1.000000X0*%
%TD*%
%TA.AperFunction,ComponentPad*%
%ADD60RoundRect,0.250000X-0.350000X-0.625000X0.350000X-0.625000X0.350000X0.625000X-0.350000X0.625000X0*%
%TD*%
%TA.AperFunction,ComponentPad*%
%ADD61O,1.200000X1.750000*%
%TD*%
%TA.AperFunction,SMDPad,CuDef*%
%ADD62RoundRect,0.250000X-1.425000X0.362500X-1.425000X-0.362500X1.425000X-0.362500X1.425000X0.362500X0*%
%TD*%
%TA.AperFunction,SMDPad,CuDef*%
%ADD63RoundRect,0.250000X0.262500X0.450000X-0.262500X0.450000X-0.262500X-0.450000X0.262500X-0.450000X0*%
%TD*%
%TA.AperFunction,ComponentPad*%
%ADD64RoundRect,0.500000X-1.000000X-2.000000X1.000000X-2.000000X1.000000X2.000000X-1.000000X2.000000X0*%
%TD*%
%TA.AperFunction,ComponentPad*%
%ADD65O,3.000000X5.000000*%
%TD*%
%TA.AperFunction,SMDPad,CuDef*%
%ADD66RoundRect,0.250000X-1.000000X-0.650000X1.000000X-0.650000X1.000000X0.650000X-1.000000X0.650000X0*%
%TD*%
%TA.AperFunction,SMDPad,CuDef*%
%ADD67RoundRect,0.250000X0.250000X0.250000X-0.250000X0.250000X-0.250000X-0.250000X0.250000X-0.250000X0*%
%TD*%
%TA.AperFunction,SMDPad,CuDef*%
%ADD68RoundRect,0.100000X-0.100000X0.155000X-0.100000X-0.155000X0.100000X-0.155000X0.100000X0.155000X0*%
%TD*%
%TA.AperFunction,SMDPad,CuDef*%
%ADD69RoundRect,0.150000X-0.150000X0.825000X-0.150000X-0.825000X0.150000X-0.825000X0.150000X0.825000X0*%
%TD*%
%TA.AperFunction,ComponentPad*%
%ADD70C,3.000000*%
%TD*%
%TA.AperFunction,SMDPad,CuDef*%
%ADD71RoundRect,0.250000X0.250000X-0.250000X0.250000X0.250000X-0.250000X0.250000X-0.250000X-0.250000X0*%
%TD*%
%TA.AperFunction,SMDPad,CuDef*%
%ADD72RoundRect,0.250000X-1.050000X-0.550000X1.050000X-0.550000X1.050000X0.550000X-1.050000X0.550000X0*%
%TD*%
%TA.AperFunction,SMDPad,CuDef*%
%ADD73RoundRect,0.250000X1.000000X0.650000X-1.000000X0.650000X-1.000000X-0.650000X1.000000X-0.650000X0*%
%TD*%
%TA.AperFunction,ViaPad*%
%ADD74C,0.800000*%
%TD*%
%TA.AperFunction,Conductor*%
%ADD75C,0.250000*%
%TD*%
%TA.AperFunction,Conductor*%
%ADD76C,1.524000*%
%TD*%
%TA.AperFunction,Conductor*%
%ADD77C,0.254000*%
%TD*%
%TA.AperFunction,Conductor*%
%ADD78C,0.508000*%
%TD*%
%TA.AperFunction,Conductor*%
%ADD79C,1.778000*%
%TD*%
%TA.AperFunction,Conductor*%
%ADD80C,0.762000*%
%TD*%
%TA.AperFunction,Conductor*%
%ADD81C,0.200000*%
%TD*%
%TA.AperFunction,Conductor*%
%ADD82C,2.540000*%
%TD*%
%TA.AperFunction,Conductor*%
%ADD83C,5.080000*%
%TD*%
%TA.AperFunction,Conductor*%
%ADD84C,2.032000*%
%TD*%
G04 APERTURE END LIST*
D10*
%TO.P,C7,1*%
%TO.N,+3V3*%
X151806000Y-97912000D03*
%TO.P,C7,2*%
%TO.N,GND*%
X151806000Y-96362000D03*
%TD*%
D11*
%TO.P,R41,1*%
%TO.N,Net-(R41-Pad1)*%
X118024000Y-79229000D03*
%TO.P,R41,2*%
%TO.N,/PB0*%
X116374000Y-79229000D03*
%TD*%
%TO.P,R12,1*%
%TO.N,/PB3*%
X167478800Y-110855000D03*
%TO.P,R12,2*%
%TO.N,+3V3*%
X165828800Y-110855000D03*
%TD*%
D12*
%TO.P,C41,1*%
%TO.N,+3V3*%
X165967000Y-79216000D03*
%TO.P,C41,2*%
%TO.N,GND*%
X165967000Y-80766000D03*
%TD*%
D13*
%TO.P,J8,1,Pin_1*%
%TO.N,Net-(D19-A2)*%
X205973000Y-100504000D03*
D14*
X205973000Y-100504000D03*
%TD*%
D12*
%TO.P,C51,1*%
%TO.N,+3V3*%
X212195000Y-79160000D03*
%TO.P,C51,2*%
%TO.N,GND*%
X212195000Y-80710000D03*
%TD*%
D15*
%TO.P,R70,1*%
%TO.N,/Sensores/S3*%
X110976980Y-95424000D03*
%TO.P,R70,2*%
%TO.N,/Sensores/T3*%
X112626980Y-95424000D03*
%TD*%
D16*
%TO.P,C16,1*%
%TO.N,+3V3*%
X133062000Y-88693000D03*
%TO.P,C16,2*%
%TO.N,GND*%
X134612000Y-88693000D03*
%TD*%
D17*
%TO.P,R23,1*%
%TO.N,GND*%
X90055000Y-99109000D03*
%TO.P,R23,2*%
%TO.N,Net-(Q1-G)*%
X90055000Y-97459000D03*
%TD*%
D18*
%TO.P,D8,1,K*%
%TO.N,GND*%
X109834000Y-118967500D03*
%TO.P,D8,2,A*%
%TO.N,Net-(D8-A)*%
X109834000Y-117092500D03*
%TD*%
D19*
%TO.P,R54,1*%
%TO.N,Net-(U9-HO)*%
X181715000Y-72084501D03*
%TO.P,R54,2*%
%TO.N,Net-(Q6-G)*%
X181715000Y-70259501D03*
%TD*%
D20*
%TO.P,TH5,1*%
%TO.N,/Sensores/T5*%
X119040980Y-100250000D03*
D21*
%TO.P,TH5,2*%
%TO.N,GND*%
X117770980Y-100250000D03*
%TD*%
D22*
%TO.P,D15,1,K*%
%TO.N,GND*%
X84766500Y-93519000D03*
%TO.P,D15,2,A*%
%TO.N,Net-(D15-A)*%
X86641500Y-93519000D03*
%TD*%
D11*
%TO.P,R3,1*%
%TO.N,+12V*%
X216069000Y-94198000D03*
%TO.P,R3,2*%
%TO.N,Net-(R3-Pad2)*%
X214419000Y-94198000D03*
%TD*%
D23*
%TO.P,SW2,1,A*%
%TO.N,GND*%
X159101000Y-110850000D03*
X159101000Y-108700000D03*
%TO.P,SW2,2,B*%
%TO.N,/NRST*%
X154801000Y-110850000D03*
X154801000Y-108700000D03*
%TD*%
D24*
%TO.P,U1,1,ADJ*%
%TO.N,/V_DIV_3*%
X104651000Y-109566000D03*
D25*
%TO.P,U1,2,VO*%
%TO.N,+3V3*%
X106151000Y-109478500D03*
D24*
%TO.P,U1,3,VI*%
%TO.N,+5V*%
X107651000Y-109566000D03*
%TD*%
D26*
%TO.P,C23,1*%
%TO.N,+12V*%
X93831000Y-79251000D03*
%TO.P,C23,2*%
%TO.N,GND*%
X93831000Y-75651000D03*
%TD*%
D27*
%TO.P,L2,1,1*%
%TO.N,+5V*%
X96774250Y-96059000D03*
D28*
%TO.P,L2,2,2*%
%TO.N,Net-(Q1-D)*%
X96774250Y-98599000D03*
%TD*%
D29*
%TO.P,L1,1,1*%
%TO.N,VDDA*%
X164744500Y-89963000D03*
%TO.P,L1,2,2*%
%TO.N,+3V3*%
X162619500Y-89963000D03*
%TD*%
D11*
%TO.P,R63,1*%
%TO.N,Net-(R63-Pad1)*%
X210480000Y-79173000D03*
%TO.P,R63,2*%
%TO.N,/PA0*%
X208830000Y-79173000D03*
%TD*%
D30*
%TO.P,R24,1*%
%TO.N,+3V3*%
X109834000Y-113903000D03*
%TO.P,R24,2*%
%TO.N,Net-(D8-A)*%
X109834000Y-115553000D03*
%TD*%
D26*
%TO.P,C47,1*%
%TO.N,/Medio-Puente-W/VB*%
X201019000Y-78179000D03*
%TO.P,C47,2*%
%TO.N,/Medio-Puente-W/PHASE_OUT*%
X201019000Y-74579000D03*
%TD*%
D11*
%TO.P,R48,1*%
%TO.N,/Medio-Puente-V/Shunt*%
X155108000Y-69577001D03*
%TO.P,R48,2*%
%TO.N,Net-(Q5-G)*%
X153458000Y-69577001D03*
%TD*%
D31*
%TO.P,U2,1,ADJ*%
%TO.N,/V_DIV_12*%
X218490000Y-96208000D03*
D32*
%TO.P,U2,2,VO*%
%TO.N,+12V*%
X218490000Y-98748000D03*
%TO.P,U2,3,VI*%
%TO.N,+24V*%
X218490000Y-101288000D03*
%TD*%
D33*
%TO.P,D2,1,A1*%
%TO.N,GND*%
X214863000Y-88249000D03*
%TO.P,D2,2,A2*%
%TO.N,+12V*%
X214863000Y-90749000D03*
%TD*%
D34*
%TO.P,U3,1,VBAT*%
%TO.N,unconnected-(U3-VBAT-Pad1)*%
X160196500Y-96458000D03*
%TO.P,U3,2,PC13*%
%TO.N,/PC13*%
X160196500Y-95958000D03*
%TO.P,U3,3,PC14*%
%TO.N,/LSE_1*%
X160196500Y-95458000D03*
%TO.P,U3,4,PC15*%
%TO.N,/LSE_2*%
X160196500Y-94958000D03*
%TO.P,U3,5,PH0*%
%TO.N,/HSE_1*%
X160196500Y-94458000D03*
%TO.P,U3,6,PH1*%
%TO.N,/HSE_2*%
X160196500Y-93958000D03*
%TO.P,U3,7,NRST*%
%TO.N,/NRST*%
X160196500Y-93458000D03*
%TO.P,U3,8,VSSA*%
%TO.N,GND*%
X160196500Y-92958000D03*
%TO.P,U3,9,VDDA*%
%TO.N,VDDA*%
X160196500Y-92458000D03*
%TO.P,U3,10,PA0*%
%TO.N,/PA0*%
X160196500Y-91958000D03*
%TO.P,U3,11,PA1*%
%TO.N,/PA1*%
X160196500Y-91458000D03*
%TO.P,U3,12,PA2*%
%TO.N,/PA2*%
X160196500Y-90958000D03*
D35*
%TO.P,U3,13,PA3*%
%TO.N,/PA3*%
X159509000Y-90270500D03*
%TO.P,U3,14,PA4*%
%TO.N,/PA4*%
X159009000Y-90270500D03*
%TO.P,U3,15,PA5*%
%TO.N,/PA5*%
X158509000Y-90270500D03*
%TO.P,U3,16,PA6*%
%TO.N,/PA6*%
X158009000Y-90270500D03*
%TO.P,U3,17,PA7*%
%TO.N,/PA7*%
X157509000Y-90270500D03*
%TO.P,U3,18,PB0*%
%TO.N,/PB0*%
X157009000Y-90270500D03*
%TO.P,U3,19,PB1*%
%TO.N,/PB1*%
X156509000Y-90270500D03*
%TO.P,U3,20,PB2*%
%TO.N,/PB2*%
X156009000Y-90270500D03*
%TO.P,U3,21,PB10*%
%TO.N,/PB10*%
X155509000Y-90270500D03*
%TO.P,U3,22,VCAP1*%
%TO.N,/VCAP1*%
X155009000Y-90270500D03*
%TO.P,U3,23,VSS*%
%TO.N,GND*%
X154509000Y-90270500D03*
%TO.P,U3,24,VDD*%
%TO.N,+3V3*%
X154009000Y-90270500D03*
D34*
%TO.P,U3,25,PB12*%
%TO.N,/PB12*%
X153321500Y-90958000D03*
%TO.P,U3,26,PB13*%
%TO.N,/PB13*%
X153321500Y-91458000D03*
%TO.P,U3,27,PB14*%
%TO.N,/PB14*%
X153321500Y-91958000D03*
%TO.P,U3,28,PB15*%
%TO.N,/PB15*%
X153321500Y-92458000D03*
%TO.P,U3,29,PA8*%
%TO.N,/PA8*%
X153321500Y-92958000D03*
%TO.P,U3,30,PA9*%
%TO.N,/PA9*%
X153321500Y-93458000D03*
%TO.P,U3,31,PA10*%
%TO.N,/PA10*%
X153321500Y-93958000D03*
%TO.P,U3,32,PA11*%
%TO.N,/USB_N*%
X153321500Y-94458000D03*
%TO.P,U3,33,PA12*%
%TO.N,/USB_P*%
X153321500Y-94958000D03*
%TO.P,U3,34,PA13*%
%TO.N,/SWDIO*%
X153321500Y-95458000D03*
%TO.P,U3,35,VSS*%
%TO.N,GND*%
X153321500Y-95958000D03*
%TO.P,U3,36,VDD*%
%TO.N,+3V3*%
X153321500Y-96458000D03*
D35*
%TO.P,U3,37,PA14*%
%TO.N,/SWSCK*%
X154009000Y-97145500D03*
%TO.P,U3,38,PA15*%
%TO.N,/PA15*%
X154509000Y-97145500D03*
%TO.P,U3,39,PB3*%
%TO.N,/PB3*%
X155009000Y-97145500D03*
%TO.P,U3,40,PB4*%
%TO.N,/PB4*%
X155509000Y-97145500D03*
%TO.P,U3,41,PB5*%
%TO.N,/PB5*%
X156009000Y-97145500D03*
%TO.P,U3,42,PB6*%
%TO.N,/PB6*%
X156509000Y-97145500D03*
%TO.P,U3,43,PB7*%
%TO.N,/PB7*%
X157009000Y-97145500D03*
%TO.P,U3,44,BOOT0*%
%TO.N,/BOOT0*%
X157509000Y-97145500D03*
%TO.P,U3,45,PB8*%
%TO.N,/I2C_SCL*%
X158009000Y-97145500D03*
%TO.P,U3,46,PB9*%
%TO.N,/I2C_SDA*%
X158509000Y-97145500D03*
%TO.P,U3,47,VSS*%
%TO.N,GND*%
X159009000Y-97145500D03*
%TO.P,U3,48,VDD*%
%TO.N,+3V3*%
X159509000Y-97145500D03*
D36*
%TO.P,U3,49,VSS*%
%TO.N,GND*%
X156759000Y-93708000D03*
%TD*%
D37*
%TO.P,D28,1,K*%
%TO.N,Net-(D28-K)*%
X184255000Y-72822001D03*
%TO.P,D28,2,A*%
%TO.N,+24V*%
X184255000Y-69522001D03*
%TD*%
D38*
%TO.P,U4,1,CH0*%
%TO.N,/Sensores/24V_SENS*%
X124685000Y-88704000D03*
%TO.P,U4,2,CH1*%
%TO.N,/Sensores/12V_SENS*%
X124685000Y-89354000D03*
%TO.P,U4,3,CH2*%
%TO.N,/Sensores/S1*%
X124685000Y-90004000D03*
%TO.P,U4,4,CH3*%
%TO.N,/Sensores/S2*%
X124685000Y-90654000D03*
%TO.P,U4,5,CH4*%
%TO.N,/Sensores/S3*%
X124685000Y-91304000D03*
%TO.P,U4,6,CH5*%
%TO.N,/Sensores/S4*%
X124685000Y-91954000D03*
%TO.P,U4,7,CH6*%
%TO.N,/Sensores/S5*%
X124685000Y-92604000D03*
%TO.P,U4,8,CH7*%
%TO.N,/Sensores/S6*%
X124685000Y-93254000D03*
%TO.P,U4,9,GND*%
%TO.N,GND*%
X130410000Y-93254000D03*
%TO.P,U4,10,REFin/REFout*%
%TO.N,Net-(U4-REFin{slash}REFout)*%
X130410000Y-92604000D03*
%TO.P,U4,11,COM*%
%TO.N,unconnected-(U4-COM-Pad11)*%
X130410000Y-91954000D03*
%TO.P,U4,12,A0*%
%TO.N,GND*%
X130410000Y-91304000D03*
%TO.P,U4,13,A1*%
X130410000Y-90654000D03*
%TO.P,U4,14,SCL*%
%TO.N,/I2C_SCL*%
X130410000Y-90004000D03*
%TO.P,U4,15,SDA*%
%TO.N,/I2C_SDA*%
X130410000Y-89354000D03*
%TO.P,U4,16,VDD*%
%TO.N,+3V3*%
X130410000Y-88704000D03*
%TD*%
D17*
%TO.P,R49,1*%
%TO.N,GND*%
X153775000Y-82340000D03*
%TO.P,R49,2*%
%TO.N,/PA5*%
X153775000Y-80690000D03*
%TD*%
D15*
%TO.P,R30,1*%
%TO.N,Net-(R29-Pad2)*%
X133520000Y-105584000D03*
%TO.P,R30,2*%
%TO.N,Net-(D16-A)*%
X135170000Y-105584000D03*
%TD*%
D13*
%TO.P,J7,1,Pin_1*%
%TO.N,/Medio-Puente-W/PHASE_OUT*%
X194161000Y-67235001D03*
D14*
X194161000Y-67235001D03*
%TD*%
D17*
%TO.P,R42,1*%
%TO.N,Net-(D23-K)*%
X140059000Y-72053001D03*
%TO.P,R42,2*%
%TO.N,+24V*%
X140059000Y-70403001D03*
%TD*%
%TO.P,R47,1*%
%TO.N,Net-(D25-K)*%
X166221000Y-68370001D03*
%TO.P,R47,2*%
%TO.N,/Medio-Puente-V/PHASE_OUT*%
X166221000Y-66720001D03*
%TD*%
D20*
%TO.P,TH1,1*%
%TO.N,/Sensores/T1*%
X105832980Y-100250000D03*
D21*
%TO.P,TH1,2*%
%TO.N,GND*%
X104562980Y-100250000D03*
%TD*%
D37*
%TO.P,D25,1,K*%
%TO.N,Net-(D25-K)*%
X164189000Y-68433001D03*
%TO.P,D25,2,A*%
%TO.N,/Medio-Puente-V/PHASE_OUT*%
X164189000Y-65133001D03*
%TD*%
D12*
%TO.P,C24,1*%
%TO.N,+12V*%
X97641000Y-78708000D03*
%TO.P,C24,2*%
%TO.N,GND*%
X97641000Y-80258000D03*
%TD*%
D39*
%TO.P,Q4,1,G*%
%TO.N,Net-(Q4-G)*%
X135487000Y-67220000D03*
D40*
%TO.P,Q4,2,D*%
%TO.N,+24V*%
X138027000Y-67220000D03*
%TO.P,Q4,3,S*%
%TO.N,/Medio-Puente-V/PHASE_OUT*%
X140567000Y-67220000D03*
%TD*%
D30*
%TO.P,R7,1*%
%TO.N,GND*%
X216006000Y-95659000D03*
%TO.P,R7,2*%
%TO.N,/V_DIV_12*%
X216006000Y-97309000D03*
%TD*%
D41*
%TO.P,D9,1,K*%
%TO.N,/PA15*%
X153867000Y-100628000D03*
%TO.P,D9,2,A*%
%TO.N,Net-(D9-A)*%
X151992000Y-100628000D03*
%TD*%
D42*
%TO.P,C2,1*%
%TO.N,+3V3*%
X106151000Y-113944000D03*
%TO.P,C2,2*%
%TO.N,GND*%
X106151000Y-117544000D03*
%TD*%
D10*
%TO.P,C26,1*%
%TO.N,Net-(D18-K)*%
X95355000Y-72003000D03*
%TO.P,C26,2*%
%TO.N,/Medio-Puente-U/PHASE_OUT*%
X95355000Y-70453000D03*
%TD*%
D30*
%TO.P,R18,1*%
%TO.N,/Sensores/24V_SENS*%
X219562000Y-79486000D03*
%TO.P,R18,2*%
%TO.N,+24V*%
X219562000Y-81136000D03*
%TD*%
D11*
%TO.P,R52,1*%
%TO.N,Net-(R52-Pad1)*%
X164252000Y-79229000D03*
%TO.P,R52,2*%
%TO.N,/PA4*%
X162602000Y-79229000D03*
%TD*%
D43*
%TO.P,H1,1,1*%
%TO.N,GND*%
X68953000Y-115490000D03*
X69655944Y-113792944D03*
X69655944Y-117187056D03*
X71353000Y-113090000D03*
D44*
X71353000Y-115490000D03*
D43*
X71353000Y-117890000D03*
X73050056Y-113792944D03*
X73050056Y-117187056D03*
X73753000Y-115490000D03*
%TD*%
D45*
%TO.P,D26,1,A1*%
%TO.N,GND*%
X162685000Y-82531000D03*
%TO.P,D26,2,A2*%
%TO.N,/PA4*%
X165185000Y-82531000D03*
%TD*%
D11*
%TO.P,R69,1*%
%TO.N,/Sensores/T4*%
X115928980Y-97075000D03*
%TO.P,R69,2*%
%TO.N,+3V3*%
X114278980Y-97075000D03*
%TD*%
D46*
%TO.P,F1,1*%
%TO.N,VDC*%
X136482500Y-110664000D03*
%TO.P,F1,2*%
%TO.N,/5V fused*%
X132207500Y-110664000D03*
%TD*%
D12*
%TO.P,C3,1*%
%TO.N,+24V*%
X215244000Y-107774000D03*
%TO.P,C3,2*%
%TO.N,GND*%
X215244000Y-109324000D03*
%TD*%
D20*
%TO.P,TH4,1*%
%TO.N,/Sensores/T4*%
X115738980Y-100250000D03*
D21*
%TO.P,TH4,2*%
%TO.N,GND*%
X114468980Y-100250000D03*
%TD*%
D47*
%TO.P,J2,A1,GND*%
%TO.N,GND*%
X141003000Y-112486000D03*
%TO.P,J2,A4,VBUS*%
%TO.N,VDC*%
X141803000Y-112486000D03*
%TO.P,J2,A5,CC1*%
%TO.N,/USB_CC1*%
X143103000Y-112486000D03*
%TO.P,J2,A6,D+*%
%TO.N,/USB_R_P*%
X144103000Y-112486000D03*
%TO.P,J2,A7,D-*%
%TO.N,/USB_R_N*%
X144603000Y-112486000D03*
%TO.P,J2,A8,SBU1*%
%TO.N,unconnected-(J2-SBU1-PadA8)*%
X145603000Y-112486000D03*
%TO.P,J2,A9,VBUS*%
%TO.N,VDC*%
X146903000Y-112486000D03*
%TO.P,J2,A12,GND*%
%TO.N,GND*%
X147703000Y-112486000D03*
%TO.P,J2,B1,GND*%
X147403000Y-112486000D03*
%TO.P,J2,B4,VBUS*%
%TO.N,VDC*%
X146603000Y-112486000D03*
%TO.P,J2,B5,CC2*%
%TO.N,/USB_CC2*%
X146103000Y-112486000D03*
%TO.P,J2,B6,D+*%
%TO.N,/USB_R_P*%
X145103000Y-112486000D03*
%TO.P,J2,B7,D-*%
%TO.N,/USB_R_N*%
X143603000Y-112486000D03*
%TO.P,J2,B8,SBU2*%
%TO.N,unconnected-(J2-SBU2-PadB8)*%
X142603000Y-112486000D03*
%TO.P,J2,B9,VBUS*%
%TO.N,VDC*%
X142103000Y-112486000D03*
%TO.P,J2,B12,GND*%
%TO.N,GND*%
X141303000Y-112486000D03*
D48*
%TO.P,J2,S1,SHIELD*%
%TO.N,unconnected-(J2-SHIELD-PadS1)_1*%
X140033000Y-113051000D03*
D49*
%TO.N,unconnected-(J2-SHIELD-PadS1)_2*%
X140033000Y-117231000D03*
D48*
%TO.N,unconnected-(J2-SHIELD-PadS1)_3*%
X148673000Y-113051000D03*
D49*
%TO.N,unconnected-(J2-SHIELD-PadS1)*%
X148673000Y-117231000D03*
%TD*%
D11*
%TO.P,R40,1*%
%TO.N,Net-(R40-Pad1)*%
X118786000Y-70085000D03*
%TO.P,R40,2*%
%TO.N,Net-(R40-Pad2)*%
X117136000Y-70085000D03*
%TD*%
%TO.P,R1,1*%
%TO.N,+3V3*%
X106214000Y-111426000D03*
%TO.P,R1,2*%
%TO.N,/V_DIV_3*%
X104564000Y-111426000D03*
%TD*%
D50*
%TO.P,C53,1*%
%TO.N,/Sensores/T1*%
X105972980Y-98726000D03*
%TO.P,C53,2*%
%TO.N,GND*%
X104422980Y-98726000D03*
%TD*%
D39*
%TO.P,Q3,1,G*%
%TO.N,Net-(Q3-G)*%
X107293000Y-67220000D03*
D40*
%TO.P,Q3,2,D*%
%TO.N,/Medio-Puente-U/PHASE_OUT*%
X109833000Y-67220000D03*
%TO.P,Q3,3,S*%
%TO.N,/Medio-Puente-U/Shunt*%
X112373000Y-67220000D03*
%TD*%
D16*
%TO.P,C13,1*%
%TO.N,/HSE_1*%
X166195000Y-93581000D03*
%TO.P,C13,2*%
%TO.N,GND*%
X167745000Y-93581000D03*
%TD*%
%TO.P,C1,1*%
%TO.N,+5V*%
X107916000Y-111426000D03*
%TO.P,C1,2*%
%TO.N,GND*%
X109466000Y-111426000D03*
%TD*%
D11*
%TO.P,R68,1*%
%TO.N,/Sensores/T3*%
X112626980Y-97075000D03*
%TO.P,R68,2*%
%TO.N,+3V3*%
X110976980Y-97075000D03*
%TD*%
D42*
%TO.P,C4,1*%
%TO.N,+24V*%
X218546000Y-105965000D03*
%TO.P,C4,2*%
%TO.N,GND*%
X218546000Y-109565000D03*
%TD*%
D30*
%TO.P,R20,1*%
%TO.N,/I2C_SCL*%
X128372500Y-96758000D03*
%TO.P,R20,2*%
%TO.N,+3V3*%
X128372500Y-98408000D03*
%TD*%
%TO.P,R13,1*%
%TO.N,/PB4*%
X171378200Y-109268000D03*
%TO.P,R13,2*%
%TO.N,+3V3*%
X171378200Y-110918000D03*
%TD*%
D15*
%TO.P,R74,1*%
%TO.N,/Sensores/S5*%
X117580980Y-95424000D03*
%TO.P,R74,2*%
%TO.N,/Sensores/T5*%
X119230980Y-95424000D03*
%TD*%
D16*
%TO.P,C52,1*%
%TO.N,GND*%
X208880000Y-80697000D03*
%TO.P,C52,2*%
%TO.N,/PA0*%
X210430000Y-80697000D03*
%TD*%
D12*
%TO.P,C34,1*%
%TO.N,+12V*%
X143869000Y-78708000D03*
%TO.P,C34,2*%
%TO.N,GND*%
X143869000Y-80258000D03*
%TD*%
D37*
%TO.P,D18,1,K*%
%TO.N,Net-(D18-K)*%
X91799000Y-72878000D03*
%TO.P,D18,2,A*%
%TO.N,+24V*%
X91799000Y-69578000D03*
%TD*%
D10*
%TO.P,C36,1*%
%TO.N,Net-(D23-K)*%
X141583000Y-72003001D03*
%TO.P,C36,2*%
%TO.N,/Medio-Puente-V/PHASE_OUT*%
X141583000Y-70453001D03*
%TD*%
D51*
%TO.P,Y1,1,1*%
%TO.N,/HSE_1*%
X169603000Y-93517000D03*
%TO.P,Y1,2,2*%
%TO.N,GND*%
X171703000Y-93517000D03*
%TO.P,Y1,3,3*%
%TO.N,/HSE_2*%
X171703000Y-91867000D03*
%TO.P,Y1,4,4*%
%TO.N,GND*%
X169603000Y-91867000D03*
%TD*%
D15*
%TO.P,R29,1*%
%TO.N,+5V*%
X127424000Y-105584000D03*
%TO.P,R29,2*%
%TO.N,Net-(R29-Pad2)*%
X129074000Y-105584000D03*
%TD*%
D11*
%TO.P,R73,1*%
%TO.N,/Sensores/T6*%
X122532980Y-97075000D03*
%TO.P,R73,2*%
%TO.N,+3V3*%
X120882980Y-97075000D03*
%TD*%
D13*
%TO.P,J5,1,Pin_1*%
%TO.N,/Medio-Puente-U/PHASE_OUT*%
X101705000Y-67291000D03*
D14*
X101705000Y-67291000D03*
%TD*%
D30*
%TO.P,R21,1*%
%TO.N,/I2C_SDA*%
X126721500Y-96758000D03*
%TO.P,R21,2*%
%TO.N,+3V3*%
X126721500Y-98408000D03*
%TD*%
D52*
%TO.P,D7,1*%
%TO.N,/I2C_SCL*%
X127731000Y-117403000D03*
%TO.P,D7,2*%
%TO.N,/I2C_SDA*%
X127731000Y-118403000D03*
%TO.P,D7,3*%
%TO.N,GND*%
X129021000Y-117903000D03*
%TD*%
D11*
%TO.P,R34,1*%
%TO.N,/PB1*%
X109388000Y-72117000D03*
%TO.P,R34,2*%
%TO.N,/Medio-Puente-U/PHASE_OUT*%
X107738000Y-72117000D03*
%TD*%
D53*
%TO.P,Q1,1,G*%
%TO.N,Net-(Q1-G)*%
X91911500Y-97334000D03*
%TO.P,Q1,2,S*%
%TO.N,GND*%
X91911500Y-99234000D03*
%TO.P,Q1,3,D*%
%TO.N,Net-(Q1-D)*%
X93786500Y-98284000D03*
%TD*%
D11*
%TO.P,R64,1*%
%TO.N,/Sensores/T1*%
X106022980Y-97075000D03*
%TO.P,R64,2*%
%TO.N,+3V3*%
X104372980Y-97075000D03*
%TD*%
%TO.P,R37,1*%
%TO.N,/Medio-Puente-U/Shunt*%
X108880000Y-69577000D03*
%TO.P,R37,2*%
%TO.N,Net-(Q3-G)*%
X107230000Y-69577000D03*
%TD*%
%TO.P,R56,1*%
%TO.N,/PA1*%
X201844000Y-72061001D03*
%TO.P,R56,2*%
%TO.N,/Medio-Puente-W/PHASE_OUT*%
X200194000Y-72061001D03*
%TD*%
D54*
%TO.P,C25,1*%
%TO.N,+24V*%
X82148000Y-74205000D03*
D55*
%TO.P,C25,2*%
%TO.N,GND*%
X82148000Y-79205000D03*
%TD*%
D15*
%TO.P,R14,1*%
%TO.N,/PB5*%
X175226800Y-110855000D03*
%TO.P,R14,2*%
%TO.N,+3V3*%
X176876800Y-110855000D03*
%TD*%
D51*
%TO.P,Y2,1,1*%
%TO.N,/LSE_1*%
X169603000Y-97454000D03*
%TO.P,Y2,2,2*%
%TO.N,GND*%
X171703000Y-97454000D03*
%TO.P,Y2,3,3*%
%TO.N,/LSE_2*%
X171703000Y-95804000D03*
%TO.P,Y2,4,4*%
%TO.N,GND*%
X169603000Y-95804000D03*
%TD*%
D56*
%TO.P,R57,1*%
%TO.N,Net-(Q7-G)*%
X197971000Y-69624501D03*
%TO.P,R57,2*%
%TO.N,Net-(U9-LO)*%
X197971000Y-71449501D03*
%TD*%
D39*
%TO.P,Q7,1,G*%
%TO.N,Net-(Q7-G)*%
X199749000Y-67164001D03*
D40*
%TO.P,Q7,2,D*%
%TO.N,/Medio-Puente-W/PHASE_OUT*%
X202289000Y-67164001D03*
%TO.P,Q7,3,S*%
%TO.N,/Medio-Puente-W/Shunt*%
X204829000Y-67164001D03*
%TD*%
D42*
%TO.P,C17,1*%
%TO.N,+3V3*%
X135615000Y-91084000D03*
%TO.P,C17,2*%
%TO.N,GND*%
X135615000Y-94684000D03*
%TD*%
D10*
%TO.P,C48,1*%
%TO.N,/Medio-Puente-W/VB*%
X197717000Y-76900000D03*
%TO.P,C48,2*%
%TO.N,/Medio-Puente-W/PHASE_OUT*%
X197717000Y-75350000D03*
%TD*%
D43*
%TO.P,H3,1,1*%
%TO.N,GND*%
X214953000Y-68490000D03*
X215655944Y-66792944D03*
X215655944Y-70187056D03*
X217353000Y-66090000D03*
D44*
X217353000Y-68490000D03*
D43*
X217353000Y-70890000D03*
X219050056Y-66792944D03*
X219050056Y-70187056D03*
X219753000Y-68490000D03*
%TD*%
D17*
%TO.P,R55,1*%
%TO.N,/Medio-Puente-W/PHASE_OUT*%
X190351000Y-66917001D03*
%TO.P,R55,2*%
%TO.N,Net-(Q6-G)*%
X190351000Y-65267001D03*
%TD*%
D26*
%TO.P,C27,1*%
%TO.N,/Medio-Puente-U/VB*%
X108563000Y-78235000D03*
%TO.P,C27,2*%
%TO.N,/Medio-Puente-U/PHASE_OUT*%
X108563000Y-74635000D03*
%TD*%
D12*
%TO.P,C12,1*%
%TO.N,/Sensores/12V_SENS*%
X216260000Y-82711000D03*
%TO.P,C12,2*%
%TO.N,GND*%
X216260000Y-84261000D03*
%TD*%
D57*
%TO.P,U5,1,VCC*%
%TO.N,+12V*%
X99800000Y-78656000D03*
%TO.P,U5,2,HIN*%
%TO.N,/PA9*%
X101070000Y-78656000D03*
%TO.P,U5,3,~{LIN}*%
%TO.N,/PA8*%
X102340000Y-78656000D03*
%TO.P,U5,4,COM*%
%TO.N,GND*%
X103610000Y-78656000D03*
%TO.P,U5,5,LO*%
%TO.N,Net-(U5-LO)*%
X103610000Y-73706000D03*
%TO.P,U5,6,VS*%
%TO.N,/Medio-Puente-U/PHASE_OUT*%
X102340000Y-73706000D03*
%TO.P,U5,7,HO*%
%TO.N,Net-(U5-HO)*%
X101070000Y-73706000D03*
%TO.P,U5,8,VB*%
%TO.N,/Medio-Puente-U/VB*%
X99800000Y-73706000D03*
%TD*%
D37*
%TO.P,D23,1,K*%
%TO.N,Net-(D23-K)*%
X138027000Y-72878001D03*
%TO.P,D23,2,A*%
%TO.N,+24V*%
X138027000Y-69578001D03*
%TD*%
D11*
%TO.P,R45,1*%
%TO.N,/PA5*%
X155616000Y-72117001D03*
%TO.P,R45,2*%
%TO.N,/Medio-Puente-V/PHASE_OUT*%
X153966000Y-72117001D03*
%TD*%
D56*
%TO.P,R46,1*%
%TO.N,Net-(Q5-G)*%
X151743000Y-69680501D03*
%TO.P,R46,2*%
%TO.N,Net-(U7-LO)*%
X151743000Y-71505501D03*
%TD*%
D50*
%TO.P,C20,1*%
%TO.N,/VCAP1*%
X153216000Y-88501000D03*
%TO.P,C20,2*%
%TO.N,GND*%
X151666000Y-88501000D03*
%TD*%
D11*
%TO.P,R62,1*%
%TO.N,Net-(R62-Pad1)*%
X211242000Y-70029001D03*
%TO.P,R62,2*%
%TO.N,Net-(R62-Pad2)*%
X209592000Y-70029001D03*
%TD*%
D50*
%TO.P,C9,1*%
%TO.N,+3V3*%
X151692000Y-90025000D03*
%TO.P,C9,2*%
%TO.N,GND*%
X150142000Y-90025000D03*
%TD*%
D17*
%TO.P,R36,1*%
%TO.N,Net-(D20-K)*%
X119993000Y-68370000D03*
%TO.P,R36,2*%
%TO.N,/Medio-Puente-U/PHASE_OUT*%
X119993000Y-66720000D03*
%TD*%
D50*
%TO.P,C54,1*%
%TO.N,/Sensores/T2*%
X109274980Y-98726000D03*
%TO.P,C54,2*%
%TO.N,GND*%
X107724980Y-98726000D03*
%TD*%
D16*
%TO.P,C6,1*%
%TO.N,GND*%
X154525000Y-113839000D03*
%TO.P,C6,2*%
%TO.N,/BOOT0*%
X156075000Y-113839000D03*
%TD*%
D27*
%TO.P,J3,1,Pin_1*%
%TO.N,GND*%
X121153000Y-107340000D03*
D28*
%TO.P,J3,2,Pin_2*%
X121153000Y-109880000D03*
%TO.P,J3,3,Pin_3*%
%TO.N,/SWSCK*%
X118613000Y-107340000D03*
%TO.P,J3,4,Pin_4*%
%TO.N,/I2C_SCL*%
X118613000Y-109880000D03*
%TO.P,J3,5,Pin_5*%
%TO.N,/SWDIO*%
X116073000Y-107340000D03*
%TO.P,J3,6,Pin_6*%
%TO.N,/I2C_SDA*%
X116073000Y-109880000D03*
%TO.P,J3,7,Pin_7*%
%TO.N,+3V3*%
X113533000Y-107340000D03*
%TO.P,J3,8,Pin_8*%
X113533000Y-109880000D03*
%TD*%
D30*
%TO.P,R15,1*%
%TO.N,/Sensores/12V_SENS*%
X217911000Y-82661000D03*
%TO.P,R15,2*%
%TO.N,GND*%
X217911000Y-84311000D03*
%TD*%
D50*
%TO.P,C11,1*%
%TO.N,GND*%
X159377000Y-107235000D03*
%TO.P,C11,2*%
%TO.N,/NRST*%
X157827000Y-107235000D03*
%TD*%
D17*
%TO.P,R53,1*%
%TO.N,Net-(D28-K)*%
X186287000Y-71997001D03*
%TO.P,R53,2*%
%TO.N,+24V*%
X186287000Y-70347001D03*
%TD*%
D20*
%TO.P,TH3,1*%
%TO.N,/Sensores/T3*%
X112436980Y-100250000D03*
D21*
%TO.P,TH3,2*%
%TO.N,GND*%
X111166980Y-100250000D03*
%TD*%
D31*
%TO.P,D12,1,A*%
%TO.N,/24V fused*%
X70012000Y-90090000D03*
D32*
%TO.P,D12,2,K*%
%TO.N,+24V*%
X70012000Y-87550000D03*
%TO.P,D12,3,A*%
%TO.N,/24V fused*%
X70012000Y-85010000D03*
%TD*%
D58*
%TO.P,D22,1,K*%
%TO.N,/Medio-Puente-V/VB*%
X143869000Y-73769000D03*
%TO.P,D22,2,A*%
%TO.N,+12V*%
X143869000Y-77069000D03*
%TD*%
D17*
%TO.P,R60,1*%
%TO.N,GND*%
X200003000Y-82284000D03*
%TO.P,R60,2*%
%TO.N,/PA1*%
X200003000Y-80634000D03*
%TD*%
D23*
%TO.P,SW1,1,A*%
%TO.N,+3V3*%
X159101000Y-117454000D03*
X159101000Y-115304000D03*
%TO.P,SW1,2,B*%
%TO.N,/BOOT0*%
X154801000Y-117454000D03*
X154801000Y-115304000D03*
%TD*%
D30*
%TO.P,R4,1*%
%TO.N,Net-(R3-Pad2)*%
X214482000Y-95659000D03*
%TO.P,R4,2*%
%TO.N,Net-(R4-Pad2)*%
X214482000Y-97309000D03*
%TD*%
D12*
%TO.P,C44,1*%
%TO.N,+12V*%
X190097000Y-78652000D03*
%TO.P,C44,2*%
%TO.N,GND*%
X190097000Y-80202000D03*
%TD*%
D43*
%TO.P,H2,1,1*%
%TO.N,GND*%
X68953000Y-68490000D03*
X69655944Y-66792944D03*
X69655944Y-70187056D03*
X71353000Y-66090000D03*
D44*
X71353000Y-68490000D03*
D43*
X71353000Y-70890000D03*
X73050056Y-66792944D03*
X73050056Y-70187056D03*
X73753000Y-68490000D03*
%TD*%
D59*
%TO.P,D24,1,A1*%
%TO.N,GND*%
X196321000Y-91496000D03*
%TO.P,D24,2,A2*%
%TO.N,Net-(D24-A2)*%
X196321000Y-95796000D03*
%TD*%
D60*
%TO.P,J1,1,Pin_1*%
%TO.N,GND*%
X167353000Y-113640000D03*
D61*
%TO.P,J1,2,Pin_2*%
%TO.N,/PB3*%
X169353000Y-113640000D03*
%TO.P,J1,3,Pin_3*%
%TO.N,/PB4*%
X171353000Y-113640000D03*
%TO.P,J1,4,Pin_4*%
%TO.N,/PB5*%
X173353000Y-113640000D03*
%TO.P,J1,5,Pin_5*%
%TO.N,+3V3*%
X175353000Y-113640000D03*
%TD*%
D17*
%TO.P,R6,1*%
%TO.N,/V_DIV_3*%
X102595000Y-111489000D03*
%TO.P,R6,2*%
%TO.N,GND*%
X102595000Y-109839000D03*
%TD*%
D16*
%TO.P,C19,1*%
%TO.N,/LSE_2*%
X166195000Y-95867000D03*
%TO.P,C19,2*%
%TO.N,GND*%
X167745000Y-95867000D03*
%TD*%
D18*
%TO.P,D10,1,K*%
%TO.N,GND*%
X215244000Y-105295500D03*
%TO.P,D10,2,A*%
%TO.N,Net-(D10-A)*%
X215244000Y-103420500D03*
%TD*%
D37*
%TO.P,D20,1,K*%
%TO.N,Net-(D20-K)*%
X117961000Y-68433000D03*
%TO.P,D20,2,A*%
%TO.N,/Medio-Puente-U/PHASE_OUT*%
X117961000Y-65133000D03*
%TD*%
D50*
%TO.P,C58,1*%
%TO.N,/Sensores/T6*%
X122482980Y-98726000D03*
%TO.P,C58,2*%
%TO.N,GND*%
X120932980Y-98726000D03*
%TD*%
D13*
%TO.P,J6,1,Pin_1*%
%TO.N,/Medio-Puente-V/PHASE_OUT*%
X147933000Y-67291001D03*
D14*
X147933000Y-67291001D03*
%TD*%
D11*
%TO.P,R51,1*%
%TO.N,Net-(R51-Pad1)*%
X165014000Y-70085001D03*
%TO.P,R51,2*%
%TO.N,Net-(R51-Pad2)*%
X163364000Y-70085001D03*
%TD*%
D30*
%TO.P,R27,1*%
%TO.N,+12V*%
X214482000Y-100231000D03*
%TO.P,R27,2*%
%TO.N,Net-(D10-A)*%
X214482000Y-101881000D03*
%TD*%
D12*
%TO.P,C15,1*%
%TO.N,/Sensores/24V_SENS*%
X216260000Y-79536000D03*
%TO.P,C15,2*%
%TO.N,GND*%
X216260000Y-81086000D03*
%TD*%
%TO.P,C39,1*%
%TO.N,/PA5*%
X155807000Y-80740000D03*
%TO.P,C39,2*%
%TO.N,GND*%
X155807000Y-82290000D03*
%TD*%
D16*
%TO.P,C18,1*%
%TO.N,/LSE_1*%
X166195000Y-97391000D03*
%TO.P,C18,2*%
%TO.N,GND*%
X167745000Y-97391000D03*
%TD*%
D26*
%TO.P,C33,1*%
%TO.N,+12V*%
X140059000Y-79251000D03*
%TO.P,C33,2*%
%TO.N,GND*%
X140059000Y-75651000D03*
%TD*%
D12*
%TO.P,C21,1*%
%TO.N,Net-(U4-REFin{slash}REFout)*%
X132313000Y-92617000D03*
%TO.P,C21,2*%
%TO.N,GND*%
X132313000Y-94167000D03*
%TD*%
D17*
%TO.P,R44,1*%
%TO.N,/Medio-Puente-V/PHASE_OUT*%
X144123000Y-66973001D03*
%TO.P,R44,2*%
%TO.N,Net-(Q4-G)*%
X144123000Y-65323001D03*
%TD*%
D62*
%TO.P,R39,1*%
%TO.N,/Medio-Puente-U/Shunt*%
X113135000Y-69662500D03*
%TO.P,R39,2*%
%TO.N,GND*%
X113135000Y-75587500D03*
%TD*%
D11*
%TO.P,R72,1*%
%TO.N,/Sensores/T5*%
X119230980Y-97075000D03*
%TO.P,R72,2*%
%TO.N,+3V3*%
X117580980Y-97075000D03*
%TD*%
D63*
%TO.P,R22,1*%
%TO.N,/PB7*%
X93761500Y-95490000D03*
%TO.P,R22,2*%
%TO.N,Net-(Q1-G)*%
X91936500Y-95490000D03*
%TD*%
D15*
%TO.P,R5,1*%
%TO.N,Net-(R4-Pad2)*%
X214419000Y-98770000D03*
%TO.P,R5,2*%
%TO.N,/V_DIV_12*%
X216069000Y-98770000D03*
%TD*%
D30*
%TO.P,R17,1*%
%TO.N,/USB_P*%
X145292400Y-105775000D03*
%TO.P,R17,2*%
%TO.N,/USB_R_P*%
X145292400Y-107425000D03*
%TD*%
D10*
%TO.P,C30,1*%
%TO.N,Net-(D20-K)*%
X115929000Y-68320000D03*
%TO.P,C30,2*%
%TO.N,/Medio-Puente-U/Shunt*%
X115929000Y-66770000D03*
%TD*%
D12*
%TO.P,C49,1*%
%TO.N,/PA1*%
X202035000Y-80684000D03*
%TO.P,C49,2*%
%TO.N,GND*%
X202035000Y-82234000D03*
%TD*%
D11*
%TO.P,R65,1*%
%TO.N,/Sensores/T2*%
X109324980Y-97075000D03*
%TO.P,R65,2*%
%TO.N,+3V3*%
X107674980Y-97075000D03*
%TD*%
D22*
%TO.P,D16,1,K*%
%TO.N,GND*%
X133407500Y-107489000D03*
%TO.P,D16,2,A*%
%TO.N,Net-(D16-A)*%
X135282500Y-107489000D03*
%TD*%
D15*
%TO.P,R8,1*%
%TO.N,+3V3*%
X154475000Y-107235000D03*
%TO.P,R8,2*%
%TO.N,/NRST*%
X156125000Y-107235000D03*
%TD*%
D64*
%TO.P,J9,1,Pin_1*%
%TO.N,Net-(D29-A2)*%
X186853200Y-108190000D03*
D65*
%TO.P,J9,2,Pin_2*%
%TO.N,Net-(D24-A2)*%
X196353200Y-108190000D03*
%TO.P,J9,3,Pin_3*%
%TO.N,Net-(D19-A2)*%
X205853000Y-108180000D03*
%TD*%
D17*
%TO.P,R31,1*%
%TO.N,Net-(D18-K)*%
X93831000Y-72053000D03*
%TO.P,R31,2*%
%TO.N,+24V*%
X93831000Y-70403000D03*
%TD*%
%TO.P,R19,1*%
%TO.N,GND*%
X217911000Y-81136000D03*
%TO.P,R19,2*%
%TO.N,/Sensores/24V_SENS*%
X217911000Y-79486000D03*
%TD*%
D62*
%TO.P,R61,1*%
%TO.N,/Medio-Puente-W/Shunt*%
X205591000Y-69606501D03*
%TO.P,R61,2*%
%TO.N,GND*%
X205591000Y-75531501D03*
%TD*%
D54*
%TO.P,C45,1*%
%TO.N,+24V*%
X174604000Y-74149000D03*
D55*
%TO.P,C45,2*%
%TO.N,GND*%
X174604000Y-79149000D03*
%TD*%
D50*
%TO.P,C56,1*%
%TO.N,/Sensores/T4*%
X115878980Y-98726000D03*
%TO.P,C56,2*%
%TO.N,GND*%
X114328980Y-98726000D03*
%TD*%
D15*
%TO.P,R66,1*%
%TO.N,/Sensores/S1*%
X104372980Y-95424000D03*
%TO.P,R66,2*%
%TO.N,/Sensores/T1*%
X106022980Y-95424000D03*
%TD*%
D57*
%TO.P,U9,1,VCC*%
%TO.N,+12V*%
X192256000Y-78600000D03*
%TO.P,U9,2,HIN*%
%TO.N,/PA3*%
X193526000Y-78600000D03*
%TO.P,U9,3,~{LIN}*%
%TO.N,/PA2*%
X194796000Y-78600000D03*
%TO.P,U9,4,COM*%
%TO.N,GND*%
X196066000Y-78600000D03*
%TO.P,U9,5,LO*%
%TO.N,Net-(U9-LO)*%
X196066000Y-73650000D03*
%TO.P,U9,6,VS*%
%TO.N,/Medio-Puente-W/PHASE_OUT*%
X194796000Y-73650000D03*
%TO.P,U9,7,HO*%
%TO.N,Net-(U9-HO)*%
X193526000Y-73650000D03*
%TO.P,U9,8,VB*%
%TO.N,/Medio-Puente-W/VB*%
X192256000Y-73650000D03*
%TD*%
D11*
%TO.P,R2,1*%
%TO.N,GND*%
X159427000Y-113839000D03*
%TO.P,R2,2*%
%TO.N,/BOOT0*%
X157777000Y-113839000D03*
%TD*%
D13*
%TO.P,J10,1,Pin_1*%
%TO.N,Net-(D24-A2)*%
X196321000Y-100504000D03*
D14*
X196321000Y-100504000D03*
%TD*%
D45*
%TO.P,D21,1,A1*%
%TO.N,GND*%
X116457000Y-82531000D03*
%TO.P,D21,2,A2*%
%TO.N,/PB0*%
X118957000Y-82531000D03*
%TD*%
D57*
%TO.P,U7,1,VCC*%
%TO.N,+12V*%
X146028000Y-78656000D03*
%TO.P,U7,2,HIN*%
%TO.N,/PA7*%
X147298000Y-78656000D03*
%TO.P,U7,3,~{LIN}*%
%TO.N,/PA6*%
X148568000Y-78656000D03*
%TO.P,U7,4,COM*%
%TO.N,GND*%
X149838000Y-78656000D03*
%TO.P,U7,5,LO*%
%TO.N,Net-(U7-LO)*%
X149838000Y-73706000D03*
%TO.P,U7,6,VS*%
%TO.N,/Medio-Puente-V/PHASE_OUT*%
X148568000Y-73706000D03*
%TO.P,U7,7,HO*%
%TO.N,Net-(U7-HO)*%
X147298000Y-73706000D03*
%TO.P,U7,8,VB*%
%TO.N,/Medio-Puente-V/VB*%
X146028000Y-73706000D03*
%TD*%
D11*
%TO.P,R59,1*%
%TO.N,/Medio-Puente-W/Shunt*%
X201336000Y-69521001D03*
%TO.P,R59,2*%
%TO.N,Net-(Q7-G)*%
X199686000Y-69521001D03*
%TD*%
D62*
%TO.P,R50,1*%
%TO.N,/Medio-Puente-V/Shunt*%
X159363000Y-69662501D03*
%TO.P,R50,2*%
%TO.N,GND*%
X159363000Y-75587501D03*
%TD*%
D26*
%TO.P,C37,1*%
%TO.N,/Medio-Puente-V/VB*%
X154791000Y-78235000D03*
%TO.P,C37,2*%
%TO.N,/Medio-Puente-V/PHASE_OUT*%
X154791000Y-74635000D03*
%TD*%
D17*
%TO.P,R33,1*%
%TO.N,/Medio-Puente-U/PHASE_OUT*%
X97895000Y-66973000D03*
%TO.P,R33,2*%
%TO.N,Net-(Q2-G)*%
X97895000Y-65323000D03*
%TD*%
D15*
%TO.P,R28,1*%
%TO.N,+24V*%
X84879000Y-95424000D03*
%TO.P,R28,2*%
%TO.N,Net-(D15-A)*%
X86529000Y-95424000D03*
%TD*%
D10*
%TO.P,C28,1*%
%TO.N,/Medio-Puente-U/VB*%
X105261000Y-76956000D03*
%TO.P,C28,2*%
%TO.N,/Medio-Puente-U/PHASE_OUT*%
X105261000Y-75406000D03*
%TD*%
D17*
%TO.P,R38,1*%
%TO.N,GND*%
X107547000Y-82340000D03*
%TO.P,R38,2*%
%TO.N,/PB1*%
X107547000Y-80690000D03*
%TD*%
D26*
%TO.P,C43,1*%
%TO.N,+12V*%
X186287000Y-79195000D03*
%TO.P,C43,2*%
%TO.N,GND*%
X186287000Y-75595000D03*
%TD*%
D39*
%TO.P,Q2,1,G*%
%TO.N,Net-(Q2-G)*%
X89259000Y-67220000D03*
D40*
%TO.P,Q2,2,D*%
%TO.N,+24V*%
X91799000Y-67220000D03*
%TO.P,Q2,3,S*%
%TO.N,/Medio-Puente-U/PHASE_OUT*%
X94339000Y-67220000D03*
%TD*%
D19*
%TO.P,R32,1*%
%TO.N,Net-(U5-HO)*%
X89259000Y-72140500D03*
%TO.P,R32,2*%
%TO.N,Net-(Q2-G)*%
X89259000Y-70315500D03*
%TD*%
D17*
%TO.P,R26,1*%
%TO.N,Net-(D10-A)*%
X216006000Y-101881000D03*
%TO.P,R26,2*%
%TO.N,+12V*%
X216006000Y-100231000D03*
%TD*%
D16*
%TO.P,C14,1*%
%TO.N,/HSE_2*%
X166195000Y-92057000D03*
%TO.P,C14,2*%
%TO.N,GND*%
X167745000Y-92057000D03*
%TD*%
D12*
%TO.P,C31,1*%
%TO.N,+3V3*%
X119739000Y-79216000D03*
%TO.P,C31,2*%
%TO.N,GND*%
X119739000Y-80766000D03*
%TD*%
D66*
%TO.P,D11,1,K*%
%TO.N,+5V*%
X125741000Y-113204000D03*
%TO.P,D11,2,A*%
%TO.N,/5V fused*%
X129741000Y-113204000D03*
%TD*%
D15*
%TO.P,R67,1*%
%TO.N,/Sensores/S2*%
X107674980Y-95424000D03*
%TO.P,R67,2*%
%TO.N,/Sensores/T2*%
X109324980Y-95424000D03*
%TD*%
%TO.P,R9,1*%
%TO.N,GND*%
X139362000Y-109648000D03*
%TO.P,R9,2*%
%TO.N,/USB_CC1*%
X141012000Y-109648000D03*
%TD*%
D19*
%TO.P,R43,1*%
%TO.N,Net-(U7-HO)*%
X135487000Y-72140501D03*
%TO.P,R43,2*%
%TO.N,Net-(Q4-G)*%
X135487000Y-70315501D03*
%TD*%
D30*
%TO.P,R16,1*%
%TO.N,/USB_N*%
X143514400Y-105775000D03*
%TO.P,R16,2*%
%TO.N,/USB_R_N*%
X143514400Y-107425000D03*
%TD*%
D10*
%TO.P,C46,1*%
%TO.N,Net-(D28-K)*%
X187811000Y-71947001D03*
%TO.P,C46,2*%
%TO.N,/Medio-Puente-W/PHASE_OUT*%
X187811000Y-70397001D03*
%TD*%
D16*
%TO.P,C32,1*%
%TO.N,GND*%
X116424000Y-80753000D03*
%TO.P,C32,2*%
%TO.N,/PB0*%
X117974000Y-80753000D03*
%TD*%
D67*
%TO.P,D13,1,A1*%
%TO.N,GND*%
X135595000Y-113966000D03*
%TO.P,D13,2,A2*%
%TO.N,/5V fused*%
X133095000Y-113966000D03*
%TD*%
D39*
%TO.P,Q6,1,G*%
%TO.N,Net-(Q6-G)*%
X181715000Y-67164000D03*
D40*
%TO.P,Q6,2,D*%
%TO.N,+24V*%
X184255000Y-67164000D03*
%TO.P,Q6,3,S*%
%TO.N,/Medio-Puente-W/PHASE_OUT*%
X186795000Y-67164000D03*
%TD*%
D68*
%TO.P,D4,1*%
%TO.N,/PB5*%
X172859400Y-111093600D03*
%TO.P,D4,2*%
%TO.N,+3V3*%
X173859400Y-111093600D03*
%TO.P,D4,3*%
%TO.N,GND*%
X173359400Y-109803600D03*
%TD*%
D16*
%TO.P,C10,1*%
%TO.N,VDDA*%
X166209000Y-89963000D03*
%TO.P,C10,2*%
%TO.N,GND*%
X167759000Y-89963000D03*
%TD*%
D26*
%TO.P,C5,1*%
%TO.N,+12V*%
X218419000Y-91553000D03*
%TO.P,C5,2*%
%TO.N,GND*%
X218419000Y-87953000D03*
%TD*%
D69*
%TO.P,U6,1,-*%
%TO.N,GND*%
X119866000Y-72182000D03*
%TO.P,U6,2,Rg*%
%TO.N,Net-(R40-Pad1)*%
X118596000Y-72182000D03*
%TO.P,U6,3,Rg*%
%TO.N,Net-(R40-Pad2)*%
X117326000Y-72182000D03*
%TO.P,U6,4,+*%
%TO.N,/Medio-Puente-U/Shunt*%
X116056000Y-72182000D03*
%TO.P,U6,5,Vs-*%
%TO.N,GND*%
X116056000Y-77132000D03*
%TO.P,U6,6,Ref*%
X117326000Y-77132000D03*
%TO.P,U6,7*%
%TO.N,Net-(R41-Pad1)*%
X118596000Y-77132000D03*
%TO.P,U6,8,Vs+*%
%TO.N,+3V3*%
X119866000Y-77132000D03*
%TD*%
D16*
%TO.P,C8,1*%
%TO.N,+3V3*%
X161953000Y-96629000D03*
%TO.P,C8,2*%
%TO.N,GND*%
X163503000Y-96629000D03*
%TD*%
D70*
%TO.P,F2,1*%
%TO.N,/24V in*%
X72193000Y-107690000D03*
X75593000Y-107690000D03*
%TO.P,F2,2*%
%TO.N,/24V fused*%
X72193000Y-97890000D03*
X75593000Y-97890000D03*
%TD*%
D71*
%TO.P,D1,1,A1*%
%TO.N,GND*%
X102595000Y-116994000D03*
%TO.P,D1,2,A2*%
%TO.N,+3V3*%
X102595000Y-114494000D03*
%TD*%
D20*
%TO.P,TH6,1*%
%TO.N,/Sensores/T6*%
X122342980Y-100250000D03*
D21*
%TO.P,TH6,2*%
%TO.N,GND*%
X121072980Y-100250000D03*
%TD*%
D11*
%TO.P,R11,1*%
%TO.N,GND*%
X149394000Y-109648000D03*
%TO.P,R11,2*%
%TO.N,/USB_CC2*%
X147744000Y-109648000D03*
%TD*%
D43*
%TO.P,H4,1,1*%
%TO.N,GND*%
X214953000Y-115490000D03*
X215655944Y-113792944D03*
X215655944Y-117187056D03*
X217353000Y-113090000D03*
D44*
X217353000Y-115490000D03*
D43*
X217353000Y-117890000D03*
X219050056Y-113792944D03*
X219050056Y-117187056D03*
X219753000Y-115490000D03*
%TD*%
D12*
%TO.P,C29,1*%
%TO.N,/PB1*%
X109579000Y-80740000D03*
%TO.P,C29,2*%
%TO.N,GND*%
X109579000Y-82290000D03*
%TD*%
D64*
%TO.P,J4,1,Pin_1*%
%TO.N,/24V in*%
X84603000Y-108134000D03*
D65*
%TO.P,J4,2,Pin_2*%
%TO.N,GND*%
X94103000Y-108134000D03*
%TD*%
D56*
%TO.P,R35,1*%
%TO.N,Net-(Q3-G)*%
X105515000Y-69680500D03*
%TO.P,R35,2*%
%TO.N,Net-(U5-LO)*%
X105515000Y-71505500D03*
%TD*%
D72*
%TO.P,C22,1*%
%TO.N,+5V*%
X125941000Y-108886000D03*
%TO.P,C22,2*%
%TO.N,GND*%
X129541000Y-108886000D03*
%TD*%
D13*
%TO.P,J11,1,Pin_1*%
%TO.N,Net-(D29-A2)*%
X186923000Y-100504000D03*
D14*
X186923000Y-100504000D03*
%TD*%
D59*
%TO.P,D29,1,A1*%
%TO.N,GND*%
X186923000Y-91496000D03*
%TO.P,D29,2,A2*%
%TO.N,Net-(D29-A2)*%
X186923000Y-95796000D03*
%TD*%
D10*
%TO.P,C38,1*%
%TO.N,/Medio-Puente-V/VB*%
X151489000Y-76956000D03*
%TO.P,C38,2*%
%TO.N,/Medio-Puente-V/PHASE_OUT*%
X151489000Y-75406000D03*
%TD*%
D15*
%TO.P,R25,1*%
%TO.N,+3V3*%
X148754000Y-100628000D03*
%TO.P,R25,2*%
%TO.N,Net-(D9-A)*%
X150404000Y-100628000D03*
%TD*%
D69*
%TO.P,U10,1,-*%
%TO.N,GND*%
X212322000Y-72126000D03*
%TO.P,U10,2,Rg*%
%TO.N,Net-(R62-Pad1)*%
X211052000Y-72126000D03*
%TO.P,U10,3,Rg*%
%TO.N,Net-(R62-Pad2)*%
X209782000Y-72126000D03*
%TO.P,U10,4,+*%
%TO.N,/Medio-Puente-W/Shunt*%
X208512000Y-72126000D03*
%TO.P,U10,5,Vs-*%
%TO.N,GND*%
X208512000Y-77076000D03*
%TO.P,U10,6,Ref*%
X209782000Y-77076000D03*
%TO.P,U10,7*%
%TO.N,Net-(R63-Pad1)*%
X211052000Y-77076000D03*
%TO.P,U10,8,Vs+*%
%TO.N,+3V3*%
X212322000Y-77076000D03*
%TD*%
D20*
%TO.P,TH2,1*%
%TO.N,/Sensores/T2*%
X109134980Y-100250000D03*
D21*
%TO.P,TH2,2*%
%TO.N,GND*%
X107864980Y-100250000D03*
%TD*%
D30*
%TO.P,R10,1*%
%TO.N,/Sensores/12V_SENS*%
X219562000Y-82661000D03*
%TO.P,R10,2*%
%TO.N,+12V*%
X219562000Y-84311000D03*
%TD*%
D15*
%TO.P,R71,1*%
%TO.N,/Sensores/S4*%
X114278980Y-95424000D03*
%TO.P,R71,2*%
%TO.N,/Sensores/T4*%
X115928980Y-95424000D03*
%TD*%
D50*
%TO.P,C55,1*%
%TO.N,/Sensores/T3*%
X112576980Y-98726000D03*
%TO.P,C55,2*%
%TO.N,GND*%
X111026980Y-98726000D03*
%TD*%
D54*
%TO.P,C35,1*%
%TO.N,+24V*%
X128376000Y-74205000D03*
D55*
%TO.P,C35,2*%
%TO.N,GND*%
X128376000Y-79205000D03*
%TD*%
D50*
%TO.P,C57,1*%
%TO.N,/Sensores/T5*%
X119180980Y-98726000D03*
%TO.P,C57,2*%
%TO.N,GND*%
X117630980Y-98726000D03*
%TD*%
D69*
%TO.P,U8,1,-*%
%TO.N,GND*%
X166094000Y-72182000D03*
%TO.P,U8,2,Rg*%
%TO.N,Net-(R51-Pad1)*%
X164824000Y-72182000D03*
%TO.P,U8,3,Rg*%
%TO.N,Net-(R51-Pad2)*%
X163554000Y-72182000D03*
%TO.P,U8,4,+*%
%TO.N,/Medio-Puente-V/Shunt*%
X162284000Y-72182000D03*
%TO.P,U8,5,Vs-*%
%TO.N,GND*%
X162284000Y-77132000D03*
%TO.P,U8,6,Ref*%
X163554000Y-77132000D03*
%TO.P,U8,7*%
%TO.N,Net-(R52-Pad1)*%
X164824000Y-77132000D03*
%TO.P,U8,8,Vs+*%
%TO.N,+3V3*%
X166094000Y-77132000D03*
%TD*%
D10*
%TO.P,C50,1*%
%TO.N,Net-(D30-K)*%
X208385000Y-68264001D03*
%TO.P,C50,2*%
%TO.N,/Medio-Puente-W/Shunt*%
X208385000Y-66714001D03*
%TD*%
D52*
%TO.P,D6,1*%
%TO.N,/SWSCK*%
X123794000Y-117403000D03*
%TO.P,D6,2*%
%TO.N,/SWDIO*%
X123794000Y-118403000D03*
%TO.P,D6,3*%
%TO.N,GND*%
X125084000Y-117903000D03*
%TD*%
D37*
%TO.P,D30,1,K*%
%TO.N,Net-(D30-K)*%
X210417000Y-68377001D03*
%TO.P,D30,2,A*%
%TO.N,/Medio-Puente-W/PHASE_OUT*%
X210417000Y-65077001D03*
%TD*%
D39*
%TO.P,Q5,1,G*%
%TO.N,Net-(Q5-G)*%
X153521000Y-67220001D03*
D40*
%TO.P,Q5,2,D*%
%TO.N,/Medio-Puente-V/PHASE_OUT*%
X156061000Y-67220001D03*
%TO.P,Q5,3,S*%
%TO.N,/Medio-Puente-V/Shunt*%
X158601000Y-67220001D03*
%TD*%
D58*
%TO.P,D27,1,K*%
%TO.N,/Medio-Puente-W/VB*%
X190097000Y-73713000D03*
%TO.P,D27,2,A*%
%TO.N,+12V*%
X190097000Y-77013000D03*
%TD*%
D68*
%TO.P,D5,1*%
%TO.N,/USB_R_N*%
X143878000Y-110775600D03*
%TO.P,D5,2*%
%TO.N,/USB_R_P*%
X144878000Y-110775600D03*
%TO.P,D5,3*%
%TO.N,GND*%
X144378000Y-109485600D03*
%TD*%
D17*
%TO.P,R58,1*%
%TO.N,Net-(D30-K)*%
X212449000Y-68314001D03*
%TO.P,R58,2*%
%TO.N,/Medio-Puente-W/PHASE_OUT*%
X212449000Y-66664001D03*
%TD*%
D73*
%TO.P,D14,1,A1*%
%TO.N,GND*%
X83513000Y-98599000D03*
%TO.P,D14,2,A2*%
%TO.N,/24V fused*%
X79513000Y-98599000D03*
%TD*%
D68*
%TO.P,D3,1*%
%TO.N,/PB3*%
X168846200Y-111093600D03*
%TO.P,D3,2*%
%TO.N,/PB4*%
X169846200Y-111093600D03*
%TO.P,D3,3*%
%TO.N,GND*%
X169346200Y-109803600D03*
%TD*%
D59*
%TO.P,D19,1,A1*%
%TO.N,GND*%
X205973000Y-91496000D03*
%TO.P,D19,2,A2*%
%TO.N,Net-(D19-A2)*%
X205973000Y-95796000D03*
%TD*%
D16*
%TO.P,C42,1*%
%TO.N,GND*%
X162652000Y-80753000D03*
%TO.P,C42,2*%
%TO.N,/PA4*%
X164202000Y-80753000D03*
%TD*%
D45*
%TO.P,D31,1,A1*%
%TO.N,GND*%
X208913000Y-82475000D03*
%TO.P,D31,2,A2*%
%TO.N,/PA0*%
X211413000Y-82475000D03*
%TD*%
D58*
%TO.P,D17,1,K*%
%TO.N,/Medio-Puente-U/VB*%
X97641000Y-73769000D03*
%TO.P,D17,2,A*%
%TO.N,+12V*%
X97641000Y-77069000D03*
%TD*%
D10*
%TO.P,C40,1*%
%TO.N,Net-(D25-K)*%
X162157000Y-68320001D03*
%TO.P,C40,2*%
%TO.N,/Medio-Puente-V/Shunt*%
X162157000Y-66770001D03*
%TD*%
D15*
%TO.P,R75,1*%
%TO.N,/Sensores/S6*%
X120882980Y-95424000D03*
%TO.P,R75,2*%
%TO.N,/Sensores/T6*%
X122532980Y-95424000D03*
%TD*%
D74*
%TO.N,GND*%
X78465000Y-86534000D03*
X102595000Y-118792000D03*
X82529000Y-69262000D03*
X210545000Y-112950000D03*
X132821000Y-65198000D03*
X204576000Y-79681000D03*
X208513000Y-114982000D03*
X118851000Y-114728000D03*
X77957000Y-114728000D03*
X190225000Y-102790000D03*
X151109000Y-117776000D03*
X151170000Y-78656000D03*
X177017000Y-79930000D03*
X80497000Y-69262000D03*
X202417000Y-90598000D03*
X124693000Y-69262000D03*
X163809000Y-108378000D03*
X178033000Y-95424000D03*
X82021000Y-114728000D03*
X136377000Y-115744000D03*
X167873000Y-101520000D03*
X202417000Y-106854000D03*
X200385000Y-119046000D03*
X86085000Y-118792000D03*
X168889000Y-81962000D03*
X180065000Y-114982000D03*
X206481000Y-117014000D03*
X176001000Y-108378000D03*
X170921000Y-65198000D03*
X200385000Y-112950000D03*
X92181000Y-104568000D03*
X98277000Y-110664000D03*
X190225000Y-96694000D03*
X138917000Y-89074000D03*
X161777000Y-115236000D03*
X96245000Y-108632000D03*
X198353000Y-112950000D03*
X159364000Y-79737000D03*
X97641000Y-81515000D03*
X190225000Y-110918000D03*
X92181000Y-114728000D03*
X112119000Y-80753000D03*
X162031000Y-100504000D03*
X151109000Y-115744000D03*
X113135000Y-77705000D03*
X165841000Y-101520000D03*
X166475000Y-82023000D03*
X116057000Y-118792000D03*
X184129000Y-114982000D03*
X197398000Y-78600000D03*
X190097000Y-81459000D03*
X192257000Y-98726000D03*
X130154000Y-117903000D03*
X78465000Y-84502000D03*
X76433000Y-67230000D03*
X212577000Y-102536000D03*
X124185000Y-115744000D03*
X98277000Y-116760000D03*
X121137000Y-88566000D03*
X86085000Y-114728000D03*
X78465000Y-69262000D03*
X172953000Y-69262000D03*
X188193000Y-117014000D03*
X176001000Y-93392000D03*
X146283000Y-117014000D03*
X181081000Y-77898000D03*
X80497000Y-88566000D03*
X202417000Y-119046000D03*
X115167000Y-82531000D03*
X176001000Y-106092000D03*
X124693000Y-67230000D03*
X205592000Y-79681000D03*
X212577000Y-110664000D03*
X194289000Y-112950000D03*
X192257000Y-114982000D03*
X178033000Y-93392000D03*
X204449000Y-112950000D03*
X140949000Y-89074000D03*
X190225000Y-98726000D03*
X183113000Y-79930000D03*
X202417000Y-108886000D03*
X148888000Y-90025000D03*
X182097000Y-103806000D03*
X128757000Y-65198000D03*
X75925000Y-114728000D03*
X146283000Y-114982000D03*
X75925000Y-118792000D03*
X160380000Y-78721000D03*
X202417000Y-102790000D03*
X78465000Y-80438000D03*
X96245000Y-106600000D03*
X179049000Y-69262000D03*
X180065000Y-93392000D03*
X90149000Y-110664000D03*
X178033000Y-110664000D03*
X136885000Y-113966000D03*
X151109000Y-107616000D03*
X142981000Y-94154000D03*
X84561000Y-86534000D03*
X180065000Y-108378000D03*
X147045000Y-89074000D03*
X102849000Y-90598000D03*
X94213000Y-118792000D03*
X200385000Y-100758000D03*
X119105000Y-88566000D03*
X136885000Y-81962000D03*
X179049000Y-65198000D03*
X202417000Y-92630000D03*
X108231500Y-118967500D03*
X84561000Y-90598000D03*
X90657000Y-92630000D03*
X98277000Y-108632000D03*
X98785000Y-88566000D03*
X163490000Y-97772000D03*
X114151000Y-77705000D03*
X196321000Y-89074000D03*
X152314000Y-82340000D03*
X88117000Y-116760000D03*
X174985000Y-67230000D03*
X106086000Y-82340000D03*
X124693000Y-81962000D03*
X96245000Y-110664000D03*
X149394000Y-108378000D03*
X98277000Y-118792000D03*
X138409000Y-117776000D03*
X113135000Y-79737000D03*
X138917000Y-91106000D03*
X98277000Y-112696000D03*
X86593000Y-67230000D03*
X82021000Y-112696000D03*
X98277000Y-114728000D03*
X90657000Y-90598000D03*
X190225000Y-90598000D03*
X176001000Y-101520000D03*
X78465000Y-82470000D03*
X212703000Y-81967000D03*
X171937000Y-101520000D03*
X214990000Y-84184000D03*
X206608000Y-77649000D03*
X136885000Y-98218000D03*
X86085000Y-112696000D03*
X82529000Y-86534000D03*
X192257000Y-94662000D03*
X158348000Y-78721000D03*
X204449000Y-117014000D03*
X205973000Y-89074000D03*
X207623000Y-82475000D03*
X173969000Y-91360000D03*
X90657000Y-78406000D03*
X182097000Y-95424000D03*
X126725000Y-100758000D03*
X151109000Y-113712000D03*
X88625000Y-65198000D03*
X170921000Y-67230000D03*
X200385000Y-90598000D03*
X84561000Y-88566000D03*
X150509393Y-96909190D03*
X192257000Y-106854000D03*
X82529000Y-88566000D03*
X180065000Y-119046000D03*
X100817000Y-88566000D03*
X114151000Y-80753000D03*
X88625000Y-84502000D03*
X134853000Y-81962000D03*
X177017000Y-81962000D03*
X147045000Y-91106000D03*
X138917000Y-98218000D03*
X84561000Y-84502000D03*
X115041000Y-88566000D03*
X210545000Y-114982000D03*
X170921000Y-69262000D03*
X79989000Y-118792000D03*
X98785000Y-90598000D03*
X192257000Y-102790000D03*
X200385000Y-108886000D03*
X92181000Y-110664000D03*
X206608000Y-79681000D03*
X170921000Y-81962000D03*
X114025000Y-116760000D03*
X208513000Y-96440000D03*
X122661000Y-69262000D03*
X110977000Y-88566000D03*
X121137000Y-114728000D03*
X158348000Y-77705000D03*
X158348000Y-80753000D03*
X144251000Y-117014000D03*
X76433000Y-84502000D03*
X126725000Y-81962000D03*
X155173000Y-105838000D03*
X204576000Y-77649000D03*
X144251000Y-114982000D03*
X202417000Y-114982000D03*
X100817000Y-90598000D03*
X128249000Y-115744000D03*
X114025000Y-114728000D03*
X77957000Y-112696000D03*
X122661000Y-67230000D03*
X210545000Y-117014000D03*
X82021000Y-116760000D03*
X212577000Y-119046000D03*
X76433000Y-88566000D03*
X165841000Y-106092000D03*
X196321000Y-112950000D03*
X160634000Y-107235000D03*
X200385000Y-102790000D03*
X134853000Y-98218000D03*
X177017000Y-65198000D03*
X76433000Y-82470000D03*
X202417000Y-96694000D03*
X179049000Y-79930000D03*
X190225000Y-119046000D03*
X180065000Y-117014000D03*
X178033000Y-108378000D03*
X179049000Y-81962000D03*
X186161000Y-112950000D03*
X88117000Y-110664000D03*
X80497000Y-65198000D03*
X92689000Y-92630000D03*
X169905000Y-101520000D03*
X180065000Y-110664000D03*
X161395000Y-80753000D03*
X90055000Y-100303500D03*
X182097000Y-108378000D03*
X180065000Y-101520000D03*
X76433000Y-86534000D03*
X88625000Y-86534000D03*
X88625000Y-80438000D03*
X90149000Y-106600000D03*
X182097000Y-99488000D03*
X212577000Y-112950000D03*
X92689000Y-86534000D03*
X212577000Y-108632000D03*
X80497000Y-67230000D03*
X202417000Y-112950000D03*
X137393000Y-106600000D03*
X88625000Y-92630000D03*
X208513000Y-117014000D03*
X161777000Y-105838000D03*
X192257000Y-119046000D03*
X184129000Y-112950000D03*
X190225000Y-108886000D03*
X113009000Y-88566000D03*
X86593000Y-88566000D03*
X136885000Y-79930000D03*
X144378000Y-108555800D03*
X168889000Y-79930000D03*
X112119000Y-78721000D03*
X163809000Y-115236000D03*
X210545000Y-108632000D03*
X194289000Y-114982000D03*
X130789000Y-67230000D03*
X114025000Y-118792000D03*
X160761000Y-113839000D03*
X90149000Y-104568000D03*
X94213000Y-112696000D03*
X92181000Y-112696000D03*
X135615000Y-96948000D03*
X212577000Y-117014000D03*
X82529000Y-82470000D03*
X139362000Y-108441000D03*
X172953000Y-67230000D03*
X178033000Y-106092000D03*
X84561000Y-78406000D03*
X163809000Y-117522000D03*
X159413000Y-98661000D03*
X190225000Y-94662000D03*
X130408000Y-94154000D03*
X132313000Y-117776000D03*
X92181000Y-116760000D03*
X122661000Y-81962000D03*
X173969000Y-89328000D03*
X217149000Y-94557000D03*
X88117000Y-108632000D03*
X84561000Y-67230000D03*
X86085000Y-116760000D03*
X208513000Y-90344000D03*
X88117000Y-118792000D03*
X202417000Y-94662000D03*
X180065000Y-99488000D03*
X160380000Y-79737000D03*
X161395000Y-82531000D03*
X142473000Y-101520000D03*
X214863000Y-86810000D03*
X210545000Y-104568000D03*
X198353000Y-114982000D03*
X132821000Y-79930000D03*
X124693000Y-77898000D03*
X135939208Y-89184000D03*
X113135000Y-78721000D03*
X212577000Y-114982000D03*
X80497000Y-82470000D03*
X212577000Y-100504000D03*
X138409000Y-115744000D03*
X163809000Y-106092000D03*
X183113000Y-81962000D03*
X86593000Y-82470000D03*
X90657000Y-86534000D03*
X168279400Y-109800400D03*
X177017000Y-67230000D03*
X208513000Y-92376000D03*
X130281000Y-115744000D03*
X138966870Y-111567870D03*
X96753000Y-86534000D03*
X120247000Y-82023000D03*
X159101000Y-109775000D03*
X132821000Y-81962000D03*
X146791000Y-101520000D03*
X134853000Y-65198000D03*
X145013000Y-94154000D03*
X83513000Y-100885000D03*
X132821000Y-77898000D03*
X188193000Y-119046000D03*
X128757000Y-69262000D03*
X78465000Y-88566000D03*
X180065000Y-97456000D03*
X91546000Y-77517000D03*
X136123000Y-101520000D03*
X88625000Y-78406000D03*
X124693000Y-65198000D03*
X76433000Y-65198000D03*
X137775000Y-77478000D03*
X178033000Y-103806000D03*
X176001000Y-89328000D03*
X210545000Y-106600000D03*
X132059000Y-96186000D03*
X80497000Y-86534000D03*
X204576000Y-78665000D03*
X145013000Y-89074000D03*
X190225000Y-114982000D03*
X168889000Y-65198000D03*
X92181000Y-118792000D03*
X190225000Y-112950000D03*
X96245000Y-114728000D03*
X206608000Y-78665000D03*
X192257000Y-110918000D03*
X90149000Y-116760000D03*
X178033000Y-97456000D03*
X84053000Y-114728000D03*
X94213000Y-116760000D03*
X198353000Y-117014000D03*
X165841000Y-108378000D03*
X98785000Y-92630000D03*
X200385000Y-104822000D03*
X176001000Y-103806000D03*
X204576000Y-80697000D03*
X206481000Y-119046000D03*
X130027000Y-98218000D03*
X90149000Y-108632000D03*
X142981000Y-96186000D03*
X142219000Y-114982000D03*
X138917000Y-96186000D03*
X90657000Y-80438000D03*
X190225000Y-104822000D03*
X131932000Y-107489000D03*
X172953000Y-81962000D03*
X128757000Y-81962000D03*
X176001000Y-97456000D03*
X202417000Y-110918000D03*
X176001000Y-95424000D03*
X124693000Y-79930000D03*
X86593000Y-90598000D03*
X83545000Y-93519000D03*
X200385000Y-106854000D03*
X130789000Y-79930000D03*
X92689000Y-90598000D03*
X128757000Y-67230000D03*
X210545000Y-90344000D03*
X153903000Y-102536000D03*
X192257000Y-104822000D03*
X90657000Y-82470000D03*
X200385000Y-114982000D03*
X92689000Y-88566000D03*
X192257000Y-117014000D03*
X117073000Y-88566000D03*
X130789000Y-69262000D03*
X207623000Y-80697000D03*
X146791000Y-105584000D03*
X96753000Y-92630000D03*
X77957000Y-116760000D03*
X200385000Y-117014000D03*
X86593000Y-80438000D03*
X190225000Y-106854000D03*
X139425000Y-106600000D03*
X208513000Y-94408000D03*
X88117000Y-112696000D03*
X173969000Y-101520000D03*
X114151000Y-78721000D03*
X94721000Y-92630000D03*
X168889000Y-77898000D03*
X208513000Y-119046000D03*
X163809000Y-110664000D03*
X140949000Y-91106000D03*
X160380000Y-80753000D03*
X194289000Y-119046000D03*
X88117000Y-114728000D03*
X173969000Y-97456000D03*
X115803000Y-112442000D03*
X122661000Y-79930000D03*
X204449000Y-114982000D03*
X122661000Y-65198000D03*
X115167000Y-80753000D03*
X149705000Y-111546000D03*
X130027000Y-96186000D03*
X151109000Y-109648000D03*
X206481000Y-114982000D03*
X178033000Y-114982000D03*
X159364000Y-78721000D03*
X198542000Y-82284000D03*
X180065000Y-91360000D03*
X142981000Y-91106000D03*
X80497000Y-84502000D03*
X148823000Y-105584000D03*
X174985000Y-69262000D03*
X138917000Y-94154000D03*
X194289000Y-117014000D03*
X200385000Y-96694000D03*
X84561000Y-65198000D03*
X151109000Y-111680000D03*
X132821000Y-69262000D03*
X88625000Y-88566000D03*
X182097000Y-93392000D03*
X82529000Y-90598000D03*
X138409000Y-101520000D03*
X130789000Y-81962000D03*
X215244000Y-106495000D03*
X86593000Y-84502000D03*
X210545000Y-110664000D03*
X202417000Y-98726000D03*
X181081000Y-81962000D03*
X178033000Y-89328000D03*
X182097000Y-91360000D03*
X98277000Y-104568000D03*
X192257000Y-112950000D03*
X202417000Y-100758000D03*
X77957000Y-118792000D03*
X126084347Y-117897347D03*
X118089000Y-118792000D03*
X163809000Y-112950000D03*
X132048699Y-90989301D03*
X108691000Y-106600000D03*
X88625000Y-90598000D03*
X129541000Y-110642000D03*
X212577000Y-104568000D03*
X88117000Y-104568000D03*
X186161000Y-117014000D03*
X90149000Y-114728000D03*
X188193000Y-114982000D03*
X188193000Y-112950000D03*
X130789000Y-77898000D03*
X96245000Y-112696000D03*
X180065000Y-89328000D03*
X82529000Y-67230000D03*
X205592000Y-78665000D03*
X180065000Y-106092000D03*
X132313000Y-115744000D03*
X205592000Y-77649000D03*
X159364000Y-80753000D03*
X182097000Y-106092000D03*
X182097000Y-89328000D03*
X126725000Y-69262000D03*
X176001000Y-91360000D03*
X210545000Y-94408000D03*
X108945000Y-88566000D03*
X215244000Y-110686000D03*
X210545000Y-100504000D03*
X202417000Y-104822000D03*
X90657000Y-88566000D03*
X121137000Y-112442000D03*
X78465000Y-65198000D03*
X200385000Y-92630000D03*
X90657000Y-84502000D03*
X178033000Y-112950000D03*
X136377000Y-117776000D03*
X134853000Y-79930000D03*
X86593000Y-86534000D03*
X177017000Y-77898000D03*
X182097000Y-119046000D03*
X132821000Y-67230000D03*
X186161000Y-119046000D03*
X110723000Y-111426000D03*
X79989000Y-116760000D03*
X140949000Y-98218000D03*
X192257000Y-100758000D03*
X106913000Y-88566000D03*
X75925000Y-116760000D03*
X192257000Y-108886000D03*
X146791000Y-107616000D03*
X84053000Y-118792000D03*
X192257000Y-92630000D03*
X170921000Y-77898000D03*
X141457000Y-106600000D03*
X161777000Y-110664000D03*
X104942000Y-78656000D03*
X206481000Y-112950000D03*
X190225000Y-100758000D03*
X84561000Y-69262000D03*
X186923000Y-89074000D03*
X204449000Y-119046000D03*
X96245000Y-104568000D03*
X122661000Y-77898000D03*
X104119000Y-117544000D03*
X159364000Y-77705000D03*
X90149000Y-118792000D03*
X126725000Y-65198000D03*
X182097000Y-112950000D03*
X98277000Y-106600000D03*
X98785000Y-86534000D03*
X116057000Y-116760000D03*
X96753000Y-90598000D03*
X126725000Y-67230000D03*
X205592000Y-80697000D03*
X132059000Y-98218000D03*
X210545000Y-98472000D03*
X79989000Y-112696000D03*
X206608000Y-80697000D03*
X140949000Y-96186000D03*
X114151000Y-79737000D03*
X113135000Y-80753000D03*
X180065000Y-112950000D03*
X182097000Y-117014000D03*
X94213000Y-114728000D03*
X182097000Y-101520000D03*
X76433000Y-69262000D03*
X190225000Y-117014000D03*
X168635000Y-108378000D03*
X210545000Y-96440000D03*
X102595000Y-108378000D03*
X172953000Y-65198000D03*
X168889000Y-69262000D03*
X196321000Y-114982000D03*
X171429000Y-106092000D03*
X168635000Y-106092000D03*
X178033000Y-91360000D03*
X96753000Y-88566000D03*
X210545000Y-102536000D03*
X178033000Y-119046000D03*
X88625000Y-82470000D03*
X192257000Y-96694000D03*
X164013347Y-92162347D03*
X111993000Y-118792000D03*
X82529000Y-84502000D03*
X190225000Y-92630000D03*
X170921000Y-79930000D03*
X75925000Y-112696000D03*
X102595000Y-112696000D03*
X182097000Y-97456000D03*
X88117000Y-106600000D03*
X200385000Y-94662000D03*
X82021000Y-118792000D03*
X178033000Y-99488000D03*
X196321000Y-117014000D03*
X161777000Y-117522000D03*
X142219000Y-117014000D03*
X184003000Y-77478000D03*
X102595000Y-106600000D03*
X202417000Y-117014000D03*
X178033000Y-101520000D03*
X82529000Y-65198000D03*
X173969000Y-106092000D03*
X143869000Y-81515000D03*
X200385000Y-98726000D03*
X184129000Y-119046000D03*
X142981000Y-98218000D03*
X140949000Y-94154000D03*
X94721000Y-88566000D03*
X174985000Y-65198000D03*
X173969000Y-99488000D03*
X134345000Y-117776000D03*
X86593000Y-69262000D03*
X208513000Y-110664000D03*
X168889000Y-67230000D03*
X153141000Y-113839000D03*
X173969000Y-108378000D03*
X112119000Y-79737000D03*
X126217000Y-115744000D03*
X84561000Y-80438000D03*
X160380000Y-77705000D03*
X169143000Y-89963000D03*
X182097000Y-110664000D03*
X173066000Y-95613000D03*
X111993000Y-116760000D03*
X84053000Y-116760000D03*
X112119000Y-77705000D03*
X79989000Y-114728000D03*
X96245000Y-116760000D03*
X198353000Y-119046000D03*
X78465000Y-67230000D03*
X134345000Y-115744000D03*
X118851000Y-112442000D03*
X179049000Y-67230000D03*
X181081000Y-79930000D03*
X90149000Y-112696000D03*
X192257000Y-90598000D03*
X179049000Y-77898000D03*
X182097000Y-114982000D03*
X210545000Y-119046000D03*
X196321000Y-119046000D03*
X181081000Y-65198000D03*
X134853000Y-77898000D03*
X208513000Y-112950000D03*
X84561000Y-82470000D03*
X111739000Y-102790000D03*
X186161000Y-114982000D03*
X200385000Y-110918000D03*
X177017000Y-69262000D03*
X174350000Y-109775000D03*
X184129000Y-117014000D03*
X84053000Y-112696000D03*
X96245000Y-118792000D03*
X176001000Y-99488000D03*
X130789000Y-65198000D03*
X140441000Y-101520000D03*
X104881000Y-88566000D03*
X210545000Y-92376000D03*
X180065000Y-95424000D03*
X178033000Y-117014000D03*
X86593000Y-65198000D03*
X94721000Y-86534000D03*
X214990000Y-81073000D03*
X158348000Y-79737000D03*
X173969000Y-93392000D03*
X212577000Y-106600000D03*
X94721000Y-90598000D03*
X180065000Y-103806000D03*
X102849000Y-88566000D03*
X86593000Y-78406000D03*
X174985000Y-81962000D03*
%TO.N,+3V3*%
X110248980Y-94310000D03*
X126598000Y-85198000D03*
X113517000Y-94343980D03*
X124591400Y-98421200D03*
X106877980Y-94310000D03*
X162597847Y-91291847D03*
X137348500Y-91084000D03*
X153076000Y-97658000D03*
X159101000Y-116379000D03*
X212323000Y-85198000D03*
X160963000Y-97658000D03*
X103644980Y-94310000D03*
X153014000Y-107235000D03*
X120154980Y-94310000D03*
X153076000Y-90025000D03*
X148754000Y-99361000D03*
X167492000Y-85198000D03*
X116852980Y-94310000D03*
%TO.N,/BOOT0*%
X157777000Y-112632000D03*
X157777000Y-100427800D03*
%TO.N,/NRST*%
X159364000Y-105711000D03*
X164825000Y-91233000D03*
%TO.N,/Sensores/12V_SENS*%
X209021000Y-88058000D03*
X126336183Y-89574183D03*
%TO.N,/SWSCK*%
X149516400Y-97645000D03*
%TO.N,/SWDIO*%
X149516400Y-96129402D03*
%TO.N,/PB7*%
X93761500Y-93900000D03*
X156759000Y-98788000D03*
%TO.N,/I2C_SCL*%
X132821000Y-101012000D03*
X160442000Y-100439000D03*
%TO.N,/I2C_SDA*%
X160442000Y-98915000D03*
X134345000Y-101012000D03*
%TO.N,+12V*%
X140060000Y-83640000D03*
X186288000Y-83674000D03*
X93832000Y-83640000D03*
%TO.N,+24V*%
X220963000Y-81073000D03*
X83545000Y-95424000D03*
%TO.N,/Sensores/24V_SENS*%
X126344000Y-88566000D03*
X209021000Y-87057997D03*
%TO.N,/24V fused*%
X73512000Y-93392000D03*
X71226000Y-95678000D03*
X69067000Y-97837000D03*
X69067000Y-93392000D03*
X69067000Y-95678000D03*
X80116000Y-95678000D03*
X73512000Y-95678000D03*
X77830000Y-95678000D03*
X75798000Y-95678000D03*
X71226000Y-93392000D03*
%TO.N,/24V in*%
X82021000Y-109902000D03*
X77957000Y-109902000D03*
X79989000Y-109902000D03*
X69829000Y-109902000D03*
X75925000Y-105330000D03*
X79989000Y-107616000D03*
X79989000Y-105330000D03*
X75925000Y-109902000D03*
X71861000Y-109902000D03*
X69829000Y-107616000D03*
X82021000Y-105330000D03*
X73893000Y-105330000D03*
X69829000Y-105330000D03*
X82021000Y-107616000D03*
X77957000Y-105330000D03*
X77957000Y-107616000D03*
X73893000Y-109902000D03*
X71861000Y-105330000D03*
%TO.N,VDC*%
X141908000Y-111115000D03*
X147299000Y-111172000D03*
%TD*%
D75*
%TO.N,GND*%
X216260000Y-81086000D02*
X215003000Y-81086000D01*
D76*
X83513000Y-100885000D02*
X83513000Y-98599000D01*
D77*
X162652000Y-80753000D02*
X161395000Y-80753000D01*
D78*
X117326000Y-77132000D02*
X114340000Y-77132000D01*
D77*
X171803000Y-97454000D02*
X171703000Y-97454000D01*
X168282600Y-109803600D02*
X168279400Y-109800400D01*
D78*
X215244000Y-105295500D02*
X215244000Y-106495000D01*
D77*
X152568000Y-96121000D02*
X152047000Y-96121000D01*
X154509000Y-90270500D02*
X154509000Y-91458000D01*
X166475000Y-82023000D02*
X166475000Y-81274000D01*
D78*
X184003000Y-76335000D02*
X184726000Y-75612000D01*
D77*
X159101000Y-110850000D02*
X159101000Y-109775000D01*
D75*
X167759000Y-89963000D02*
X169143000Y-89963000D01*
D77*
X132048699Y-90989301D02*
X131734000Y-91304000D01*
X173066000Y-96191000D02*
X171803000Y-97454000D01*
X90055000Y-99109000D02*
X91786500Y-99109000D01*
X171603000Y-97454000D02*
X169953000Y-95804000D01*
X167935000Y-91867000D02*
X167745000Y-92057000D01*
X212703000Y-81218000D02*
X212195000Y-80710000D01*
X208880000Y-80697000D02*
X207623000Y-80697000D01*
X212322000Y-74220000D02*
X211010500Y-75531500D01*
X198542000Y-82284000D02*
X200003000Y-82284000D01*
X162652000Y-80753000D02*
X162652000Y-82498000D01*
X118554500Y-75587500D02*
X113135000Y-75587500D01*
X208880000Y-82442000D02*
X208913000Y-82475000D01*
X107864980Y-98866000D02*
X107724980Y-98726000D01*
X131734000Y-91304000D02*
X130410000Y-91304000D01*
D78*
X84766500Y-93519000D02*
X83545000Y-93519000D01*
X148277426Y-111546000D02*
X147703000Y-112120426D01*
D77*
X130410000Y-93254000D02*
X130410000Y-94152000D01*
D75*
X144378000Y-109485600D02*
X144378000Y-108555800D01*
D77*
X200053000Y-82234000D02*
X200003000Y-82284000D01*
D75*
X139362000Y-108441000D02*
X139362000Y-109648000D01*
D77*
X208913000Y-82475000D02*
X207623000Y-82475000D01*
X120247000Y-81274000D02*
X119739000Y-80766000D01*
X117770980Y-98866000D02*
X117630980Y-98726000D01*
D75*
X126084347Y-117897347D02*
X125089653Y-117897347D01*
D77*
X166094000Y-72182000D02*
X166094000Y-74276000D01*
D78*
X143869000Y-80258000D02*
X143869000Y-81515000D01*
D77*
X166475000Y-81274000D02*
X165967000Y-80766000D01*
X121072980Y-100250000D02*
X121072980Y-98866000D01*
X169603000Y-91867000D02*
X167935000Y-91867000D01*
D79*
X186923000Y-91496000D02*
X186923000Y-89074000D01*
D77*
X162652000Y-82498000D02*
X162685000Y-82531000D01*
X159009000Y-95958000D02*
X156759000Y-93708000D01*
X171459000Y-93517000D02*
X171703000Y-93517000D01*
X159377000Y-107235000D02*
X160634000Y-107235000D01*
X162685000Y-82531000D02*
X161395000Y-82531000D01*
X152731000Y-95958000D02*
X152568000Y-96121000D01*
X164013347Y-92162347D02*
X163217694Y-92958000D01*
D75*
X125089653Y-117897347D02*
X125084000Y-117903000D01*
D78*
X91546000Y-77517000D02*
X91546000Y-76374000D01*
D77*
X160196500Y-92958000D02*
X157509000Y-92958000D01*
X167745000Y-95867000D02*
X167745000Y-97391000D01*
X153321500Y-95958000D02*
X154509000Y-95958000D01*
D78*
X108231500Y-118967500D02*
X109834000Y-118967500D01*
D77*
X130410000Y-94152000D02*
X130408000Y-94154000D01*
D78*
X184003000Y-77478000D02*
X184003000Y-76335000D01*
D77*
X167808000Y-95804000D02*
X167745000Y-95867000D01*
X171703000Y-97454000D02*
X171603000Y-97454000D01*
D75*
X217861000Y-84197000D02*
X217911000Y-84247000D01*
D77*
X107597000Y-82290000D02*
X107547000Y-82340000D01*
D78*
X215244000Y-109324000D02*
X215244000Y-110686000D01*
X141003000Y-112120426D02*
X140428574Y-111546000D01*
D75*
X216260000Y-81086000D02*
X217861000Y-81086000D01*
D77*
X114468980Y-100250000D02*
X114468980Y-98866000D01*
X202035000Y-82234000D02*
X200053000Y-82234000D01*
X104562980Y-100250000D02*
X104562980Y-98866000D01*
X173066000Y-94880000D02*
X173066000Y-95613000D01*
X132300000Y-94154000D02*
X132313000Y-94167000D01*
X155807000Y-82290000D02*
X153825000Y-82290000D01*
D78*
X131932000Y-107489000D02*
X133407500Y-107489000D01*
D77*
X152047000Y-96121000D02*
X151806000Y-96362000D01*
D79*
X196321000Y-91496000D02*
X196321000Y-89074000D01*
D78*
X151170000Y-78656000D02*
X149838000Y-78656000D01*
D75*
X215003000Y-81086000D02*
X214990000Y-81073000D01*
X217861000Y-81086000D02*
X217911000Y-81136000D01*
D78*
X216047000Y-95659000D02*
X217149000Y-94557000D01*
X149705000Y-111546000D02*
X148277426Y-111546000D01*
D77*
X211010500Y-75531500D02*
X205591000Y-75531500D01*
D78*
X104942000Y-78656000D02*
X103610000Y-78656000D01*
D77*
X169953000Y-95804000D02*
X169603000Y-95804000D01*
X154525000Y-113839000D02*
X153141000Y-113839000D01*
X106086000Y-82340000D02*
X107547000Y-82340000D01*
X173388000Y-109775000D02*
X173359400Y-109803600D01*
X114468980Y-98866000D02*
X114328980Y-98726000D01*
D75*
X163490000Y-97772000D02*
X163503000Y-97759000D01*
D77*
X135615000Y-94684000D02*
X135615000Y-96948000D01*
D75*
X216260000Y-84197000D02*
X215003000Y-84197000D01*
D77*
X154509000Y-95958000D02*
X156759000Y-93708000D01*
X111166980Y-98866000D02*
X111026980Y-98726000D01*
X151806000Y-96362000D02*
X151056583Y-96362000D01*
D75*
X148888000Y-90025000D02*
X150142000Y-90025000D01*
D78*
X209782000Y-77076000D02*
X206796000Y-77076000D01*
D77*
X130410000Y-90654000D02*
X131713398Y-90654000D01*
D78*
X197398000Y-78600000D02*
X196066000Y-78600000D01*
X218123000Y-88249000D02*
X218419000Y-87953000D01*
D77*
X120247000Y-82023000D02*
X120247000Y-81274000D01*
D78*
X184726000Y-75612000D02*
X186288000Y-75612000D01*
D75*
X151666000Y-88501000D02*
X150142000Y-90025000D01*
D77*
X159413000Y-98661000D02*
X159413000Y-98040984D01*
D75*
X215003000Y-84197000D02*
X214990000Y-84184000D01*
D77*
X119866000Y-72182000D02*
X119866000Y-74276000D01*
D78*
X135595000Y-113966000D02*
X136885000Y-113966000D01*
D75*
X149394000Y-108378000D02*
X149394000Y-109648000D01*
D78*
X190097000Y-80202000D02*
X190097000Y-81459000D01*
D77*
X169603000Y-95804000D02*
X167808000Y-95804000D01*
X135448208Y-88693000D02*
X135939208Y-89184000D01*
D79*
X205973000Y-91496000D02*
X205973000Y-89074000D01*
D78*
X103145000Y-117544000D02*
X102595000Y-116994000D01*
D77*
X212703000Y-81967000D02*
X212703000Y-81218000D01*
X159413000Y-98040984D02*
X159009000Y-97636984D01*
D78*
X215244000Y-109324000D02*
X218305000Y-109324000D01*
D77*
X152314000Y-82340000D02*
X153775000Y-82340000D01*
X121072980Y-98866000D02*
X120932980Y-98726000D01*
X119866000Y-74276000D02*
X118554500Y-75587500D01*
D78*
X214863000Y-88249000D02*
X214863000Y-86810000D01*
X97641000Y-80258000D02*
X97641000Y-81515000D01*
D77*
X111166980Y-100250000D02*
X111166980Y-98866000D01*
X130408000Y-94154000D02*
X132300000Y-94154000D01*
X174350000Y-109775000D02*
X173388000Y-109775000D01*
D78*
X137775000Y-76335000D02*
X138498000Y-75612000D01*
D77*
X109579000Y-82290000D02*
X107597000Y-82290000D01*
D78*
X91546000Y-76374000D02*
X92269000Y-75651000D01*
X137775000Y-77478000D02*
X137775000Y-76335000D01*
D75*
X216260000Y-84197000D02*
X217861000Y-84197000D01*
D77*
X116424000Y-80753000D02*
X116424000Y-82498000D01*
D75*
X163503000Y-97759000D02*
X163503000Y-96629000D01*
D77*
X164782500Y-75587500D02*
X159363000Y-75587500D01*
D78*
X140428574Y-111546000D02*
X138988740Y-111546000D01*
D77*
X212322000Y-72126000D02*
X212322000Y-74220000D01*
D78*
X114340000Y-77132000D02*
X114151000Y-76943000D01*
D77*
X151056583Y-96362000D02*
X150509393Y-96909190D01*
X104562980Y-98866000D02*
X104422980Y-98726000D01*
X171703000Y-93517000D02*
X173066000Y-94880000D01*
D78*
X206797000Y-77838000D02*
X206608000Y-77649000D01*
D77*
X117770980Y-100250000D02*
X117770980Y-98866000D01*
D78*
X218305000Y-109324000D02*
X218546000Y-109565000D01*
D77*
X153825000Y-82290000D02*
X153775000Y-82340000D01*
X173066000Y-95613000D02*
X173066000Y-96191000D01*
X116424000Y-80753000D02*
X115167000Y-80753000D01*
X169603000Y-91867000D02*
X169809000Y-91867000D01*
D78*
X109466000Y-111426000D02*
X110723000Y-111426000D01*
D77*
X159101000Y-109775000D02*
X159101000Y-108700000D01*
X169809000Y-91867000D02*
X171459000Y-93517000D01*
D78*
X138498000Y-75612000D02*
X140060000Y-75612000D01*
D77*
X169346200Y-109803600D02*
X168282600Y-109803600D01*
X166094000Y-74276000D02*
X164782500Y-75587500D01*
X116457000Y-82531000D02*
X115167000Y-82531000D01*
D78*
X216006000Y-95659000D02*
X216047000Y-95659000D01*
D77*
X159009000Y-97145500D02*
X159009000Y-95958000D01*
D78*
X104119000Y-117544000D02*
X103145000Y-117544000D01*
X106151000Y-117544000D02*
X104119000Y-117544000D01*
D77*
X153321500Y-95958000D02*
X152731000Y-95958000D01*
X167745000Y-93581000D02*
X167745000Y-92057000D01*
D75*
X129021000Y-117903000D02*
X130154000Y-117903000D01*
D77*
X134612000Y-88693000D02*
X135448208Y-88693000D01*
X159009000Y-97636984D02*
X159009000Y-97145500D01*
D78*
X138988740Y-111546000D02*
X138966870Y-111567870D01*
D77*
X90055000Y-100303500D02*
X90055000Y-99109000D01*
X208880000Y-80697000D02*
X208880000Y-82442000D01*
D78*
X129541000Y-110642000D02*
X129541000Y-108886000D01*
D77*
X107864980Y-100250000D02*
X107864980Y-98866000D01*
D78*
X92269000Y-75651000D02*
X93831000Y-75651000D01*
D77*
X159427000Y-113839000D02*
X160761000Y-113839000D01*
D78*
X102595000Y-109839000D02*
X102595000Y-108378000D01*
D77*
X131713398Y-90654000D02*
X132048699Y-90989301D01*
X91786500Y-99109000D02*
X91911500Y-99234000D01*
D75*
X150077000Y-90090000D02*
X150142000Y-90025000D01*
D78*
X160569000Y-77894000D02*
X160380000Y-77705000D01*
D77*
X116424000Y-82498000D02*
X116457000Y-82531000D01*
D78*
X214863000Y-88249000D02*
X218123000Y-88249000D01*
D77*
X163217694Y-92958000D02*
X160196500Y-92958000D01*
D78*
X163554000Y-77132000D02*
X160568000Y-77132000D01*
D77*
X130410000Y-90654000D02*
X130410000Y-91304000D01*
D75*
X121153000Y-107340000D02*
X121153000Y-109880000D01*
D77*
X157509000Y-92958000D02*
X156759000Y-93708000D01*
X154509000Y-91458000D02*
X156759000Y-93708000D01*
D78*
%TO.N,+5V*%
X99801000Y-96821000D02*
X99801000Y-102917000D01*
X99801000Y-102917000D02*
X101833000Y-104949000D01*
X125741000Y-113204000D02*
X125741000Y-109086000D01*
X125941000Y-105584000D02*
X125941000Y-107067000D01*
X127424000Y-105584000D02*
X125941000Y-105584000D01*
X111231000Y-108378000D02*
X111231000Y-104949000D01*
X107651000Y-111161000D02*
X107916000Y-111426000D01*
X96774250Y-96059000D02*
X99039000Y-96059000D01*
X125306000Y-104949000D02*
X125941000Y-105584000D01*
X107651000Y-109566000D02*
X107651000Y-111161000D01*
X99039000Y-96059000D02*
X99801000Y-96821000D01*
X111231000Y-108378000D02*
X110043000Y-109566000D01*
X111231000Y-104949000D02*
X125306000Y-104949000D01*
X101833000Y-104949000D02*
X111231000Y-104949000D01*
X125941000Y-107067000D02*
X125941000Y-108886000D01*
X110043000Y-109566000D02*
X107651000Y-109566000D01*
D75*
%TO.N,+3V3*%
X162619500Y-91270194D02*
X162597847Y-91291847D01*
D78*
X119866000Y-79089000D02*
X119726000Y-79229000D01*
D77*
X116852980Y-94310000D02*
X116852980Y-96347000D01*
D78*
X212323000Y-83867000D02*
X212323000Y-85198000D01*
D77*
X160450500Y-97145500D02*
X160963000Y-97658000D01*
D78*
X212322000Y-77076000D02*
X212322000Y-79033000D01*
D77*
X120154980Y-94310000D02*
X120154980Y-96347000D01*
X153076000Y-97010000D02*
X153076000Y-97658000D01*
X175353000Y-113344000D02*
X175353000Y-113640000D01*
X110248980Y-96347000D02*
X110976980Y-97075000D01*
X106877980Y-94310000D02*
X106877980Y-96278000D01*
D75*
X124591400Y-98421200D02*
X126708300Y-98421200D01*
D78*
X121264000Y-83409800D02*
X121264000Y-80741000D01*
D77*
X154009000Y-90025000D02*
X154009000Y-90270500D01*
D75*
X126708300Y-98421200D02*
X126721500Y-98408000D01*
X148754000Y-99361000D02*
X148754000Y-100628000D01*
D77*
X176876800Y-110855000D02*
X176876800Y-111820200D01*
X116852980Y-96347000D02*
X117580980Y-97075000D01*
X175353000Y-113902800D02*
X175353000Y-113640000D01*
X159101000Y-116379000D02*
X159101000Y-117454000D01*
D75*
X161953000Y-96629000D02*
X161953000Y-96668000D01*
D77*
X133062000Y-88693000D02*
X133062000Y-89687532D01*
D78*
X213558000Y-82632000D02*
X212323000Y-83867000D01*
X106151000Y-113944000D02*
X111761000Y-113944000D01*
D77*
X120121000Y-94343980D02*
X120121000Y-96313020D01*
X153321500Y-96764500D02*
X153076000Y-97010000D01*
X110248980Y-94310000D02*
X110248980Y-96347000D01*
X171378200Y-110918000D02*
X172343400Y-111883200D01*
D78*
X121264000Y-80741000D02*
X119739000Y-79216000D01*
X213558000Y-80523000D02*
X213558000Y-82632000D01*
X212195000Y-79160000D02*
X213558000Y-80523000D01*
D77*
X176876800Y-111820200D02*
X175353000Y-113344000D01*
D78*
X103145000Y-113944000D02*
X102595000Y-114494000D01*
D77*
X153076000Y-90025000D02*
X154009000Y-90025000D01*
D78*
X113533000Y-112172000D02*
X113533000Y-109880000D01*
D77*
X103644980Y-94310000D02*
X103644980Y-96347000D01*
X172292600Y-115236000D02*
X174019800Y-115236000D01*
D78*
X166094000Y-77132000D02*
X166094000Y-79089000D01*
D77*
X133062000Y-89687532D02*
X134292000Y-90917532D01*
X174019800Y-115236000D02*
X175353000Y-113902800D01*
D78*
X167492000Y-80741000D02*
X167492000Y-85198000D01*
X212322000Y-79033000D02*
X212182000Y-79173000D01*
X123052200Y-85198000D02*
X121264000Y-83409800D01*
D77*
X174273800Y-112035600D02*
X174934200Y-112035600D01*
X133062000Y-88693000D02*
X130421000Y-88693000D01*
X113517000Y-96313020D02*
X114278980Y-97075000D01*
X174934200Y-112035600D02*
X175353000Y-112454400D01*
X173859400Y-111093600D02*
X173859400Y-111621200D01*
X175353000Y-112454400D02*
X175353000Y-113640000D01*
X106877980Y-96278000D02*
X107674980Y-97075000D01*
X134450000Y-91084000D02*
X135615000Y-91084000D01*
D75*
X153014000Y-107235000D02*
X154475000Y-107235000D01*
D78*
X106151000Y-113944000D02*
X103145000Y-113944000D01*
D77*
X173859400Y-111621200D02*
X174273800Y-112035600D01*
D78*
X111761000Y-113944000D02*
X113533000Y-112172000D01*
D77*
X165828800Y-110855000D02*
X165828800Y-115236000D01*
D78*
X166094000Y-79089000D02*
X165954000Y-79229000D01*
D77*
X159101000Y-115304000D02*
X159101000Y-116379000D01*
D75*
X128372500Y-98408000D02*
X126721500Y-98408000D01*
D80*
X106151000Y-109478500D02*
X106151000Y-113944000D01*
D77*
X172343400Y-115185200D02*
X172292600Y-115236000D01*
D75*
X124591400Y-98421200D02*
X124679800Y-98509600D01*
D77*
X172343400Y-111883200D02*
X172343400Y-115185200D01*
D78*
X126598000Y-85198000D02*
X123052200Y-85198000D01*
D75*
X161953000Y-96668000D02*
X160963000Y-97658000D01*
D78*
X165967000Y-79216000D02*
X167492000Y-80741000D01*
D77*
X151806000Y-97912000D02*
X152060000Y-97658000D01*
X134292000Y-90926000D02*
X134450000Y-91084000D01*
X165828800Y-115236000D02*
X172292600Y-115236000D01*
X130421000Y-88693000D02*
X130410000Y-88704000D01*
X159101000Y-116379000D02*
X164685800Y-116379000D01*
X120154980Y-96347000D02*
X120882980Y-97075000D01*
X159509000Y-97145500D02*
X160450500Y-97145500D01*
X164685800Y-116379000D02*
X165828800Y-115236000D01*
X103644980Y-96347000D02*
X104372980Y-97075000D01*
X152060000Y-97658000D02*
X153076000Y-97658000D01*
X153321500Y-96458000D02*
X153321500Y-96764500D01*
D75*
X162619500Y-89963000D02*
X162619500Y-91270194D01*
D77*
X137348500Y-91084000D02*
X135615000Y-91084000D01*
X113517000Y-96313020D02*
X113517000Y-94343980D01*
D78*
X119866000Y-77132000D02*
X119866000Y-79089000D01*
D77*
X134292000Y-90917532D02*
X134292000Y-90926000D01*
X153076000Y-90025000D02*
X151692000Y-90025000D01*
%TO.N,/BOOT0*%
X155740000Y-115304000D02*
X156075000Y-114969000D01*
X157777000Y-112632000D02*
X157777000Y-113839000D01*
X157777000Y-99502000D02*
X157509000Y-99234000D01*
X154801000Y-115304000D02*
X155740000Y-115304000D01*
X157509000Y-99234000D02*
X157509000Y-97145500D01*
X157777000Y-100427800D02*
X157777000Y-99502000D01*
X154801000Y-117454000D02*
X154801000Y-115304000D01*
X156075000Y-113839000D02*
X157777000Y-113839000D01*
X156075000Y-114969000D02*
X156075000Y-113839000D01*
D75*
%TO.N,VDDA*%
X166209000Y-89963000D02*
X164744500Y-89963000D01*
X162457000Y-92458000D02*
X160196500Y-92458000D01*
X164744500Y-90170500D02*
X162457000Y-92458000D01*
X164744500Y-89963000D02*
X164744500Y-90170500D01*
D77*
%TO.N,/NRST*%
X157827000Y-106232000D02*
X157827000Y-107235000D01*
X154801000Y-108700000D02*
X155867000Y-108700000D01*
X159364000Y-105711000D02*
X158348000Y-105711000D01*
X156125000Y-107235000D02*
X157827000Y-107235000D01*
X158348000Y-105711000D02*
X157827000Y-106232000D01*
X155867000Y-108700000D02*
X156125000Y-108442000D01*
X154801000Y-110850000D02*
X154801000Y-108700000D01*
X156125000Y-108442000D02*
X156125000Y-107235000D01*
D75*
X163743000Y-93458000D02*
X160196500Y-93458000D01*
X164825000Y-92376000D02*
X163743000Y-93458000D01*
X164825000Y-91233000D02*
X164825000Y-92376000D01*
D77*
%TO.N,/HSE_1*%
X165572000Y-94458000D02*
X166195000Y-93835000D01*
X168736000Y-94384000D02*
X166998000Y-94384000D01*
X166195000Y-93835000D02*
X166195000Y-93581000D01*
X160196500Y-94458000D02*
X165572000Y-94458000D01*
X166998000Y-94384000D02*
X166195000Y-93581000D01*
X169603000Y-93517000D02*
X168736000Y-94384000D01*
%TO.N,/HSE_2*%
X170825000Y-90989000D02*
X167263000Y-90989000D01*
X167263000Y-90989000D02*
X166195000Y-92057000D01*
X166195000Y-92057000D02*
X166195000Y-92311000D01*
X166195000Y-92057000D02*
X164294000Y-93958000D01*
X164294000Y-93958000D02*
X160196500Y-93958000D01*
X171703000Y-91867000D02*
X170825000Y-90989000D01*
%TO.N,/LSE_1*%
X164262000Y-95458000D02*
X160196500Y-95458000D01*
X169603000Y-97454000D02*
X168863000Y-98194000D01*
X166195000Y-97391000D02*
X164262000Y-95458000D01*
X166998000Y-98194000D02*
X166195000Y-97391000D01*
X166195000Y-97391000D02*
X166195000Y-97137000D01*
X168863000Y-98194000D02*
X166998000Y-98194000D01*
%TO.N,/LSE_2*%
X167136000Y-94926000D02*
X166195000Y-95867000D01*
X165540000Y-94958000D02*
X166195000Y-95613000D01*
X170825000Y-94926000D02*
X167136000Y-94926000D01*
X166195000Y-95613000D02*
X166195000Y-95867000D01*
X160196500Y-94958000D02*
X165540000Y-94958000D01*
X171703000Y-95804000D02*
X170825000Y-94926000D01*
D75*
%TO.N,/VCAP1*%
X154346000Y-88501000D02*
X155009000Y-89164000D01*
X153216000Y-88501000D02*
X154346000Y-88501000D01*
X155009000Y-89164000D02*
X155009000Y-90270500D01*
%TO.N,/Sensores/12V_SENS*%
X216260000Y-82647000D02*
X215001054Y-82647000D01*
X213536000Y-85649530D02*
X211127530Y-88058000D01*
X124685000Y-89354000D02*
X126116000Y-89354000D01*
X219562000Y-82597000D02*
X216310000Y-82597000D01*
X215001054Y-82647000D02*
X214589000Y-83059054D01*
X216310000Y-82597000D02*
X216260000Y-82647000D01*
X213536000Y-84502000D02*
X213536000Y-85649530D01*
X214589000Y-83059054D02*
X213536000Y-84112054D01*
X211127530Y-88058000D02*
X209021000Y-88058000D01*
X126116000Y-89354000D02*
X126336183Y-89574183D01*
X213536000Y-84112054D02*
X213536000Y-84502000D01*
%TO.N,/USB_CC1*%
X143103000Y-112486000D02*
X143103000Y-110532000D01*
X143103000Y-110532000D02*
X142219000Y-109648000D01*
X142219000Y-109648000D02*
X141012000Y-109648000D01*
%TO.N,/USB_CC2*%
X146103000Y-110336000D02*
X146791000Y-109648000D01*
X146791000Y-109648000D02*
X147744000Y-109648000D01*
X146103000Y-112486000D02*
X146103000Y-110336000D01*
D77*
%TO.N,/SWSCK*%
X122007000Y-105838000D02*
X120115000Y-105838000D01*
D75*
X122407000Y-116760000D02*
X122407000Y-106238000D01*
X123050000Y-117403000D02*
X122407000Y-116760000D01*
D77*
X149516400Y-97645000D02*
X150561400Y-98690000D01*
X153555000Y-98690000D02*
X154009000Y-98236000D01*
X120115000Y-105838000D02*
X118613000Y-107340000D01*
D75*
X122407000Y-106238000D02*
X122007000Y-105838000D01*
X123794000Y-117403000D02*
X123050000Y-117403000D01*
D77*
X150561400Y-98690000D02*
X153555000Y-98690000D01*
X154009000Y-98236000D02*
X154009000Y-97145500D01*
%TO.N,/SWDIO*%
X119867000Y-109468056D02*
X119030944Y-108632000D01*
X119030944Y-108632000D02*
X117365000Y-108632000D01*
X150187802Y-95458000D02*
X153321500Y-95458000D01*
X122526000Y-117895000D02*
X119867000Y-115236000D01*
X119867000Y-115236000D02*
X119867000Y-109468056D01*
X117365000Y-108632000D02*
X116073000Y-107340000D01*
X149516400Y-96129402D02*
X150187802Y-95458000D01*
D75*
X123794000Y-118403000D02*
X123034000Y-118403000D01*
X123034000Y-118403000D02*
X122526000Y-117895000D01*
D77*
%TO.N,Net-(Q1-G)*%
X91911500Y-97334000D02*
X91911500Y-95515000D01*
X90055000Y-97459000D02*
X91786500Y-97459000D01*
X91786500Y-97459000D02*
X91911500Y-97334000D01*
X91911500Y-95515000D02*
X91936500Y-95490000D01*
D78*
%TO.N,Net-(Q2-G)*%
X89259000Y-67220000D02*
X89259000Y-70315500D01*
X91156000Y-65323000D02*
X89259000Y-67220000D01*
X97895000Y-65323000D02*
X91156000Y-65323000D01*
%TO.N,Net-(Q3-G)*%
X107230000Y-69577000D02*
X107230000Y-67283000D01*
X107126500Y-69680500D02*
X105515000Y-69680500D01*
X107230000Y-67283000D02*
X107293000Y-67220000D01*
X107230000Y-69577000D02*
X107126500Y-69680500D01*
D81*
%TO.N,/USB_N*%
X152665249Y-94458000D02*
X152640249Y-94483000D01*
X144178400Y-97147600D02*
X144178400Y-104398499D01*
X153321500Y-94458000D02*
X152665249Y-94458000D01*
X146843000Y-94483000D02*
X144178400Y-97147600D01*
X152640249Y-94483000D02*
X146843000Y-94483000D01*
X143514400Y-105062499D02*
X143514400Y-105775000D01*
X144178400Y-104398499D02*
X143514400Y-105062499D01*
%TO.N,/USB_P*%
X144628400Y-104398499D02*
X145292400Y-105062499D01*
X144628400Y-97264700D02*
X144628400Y-104398499D01*
X153321500Y-94958000D02*
X152665249Y-94958000D01*
X145292400Y-105062499D02*
X145292400Y-105775000D01*
X152665249Y-94958000D02*
X152640249Y-94933000D01*
X146960100Y-94933000D02*
X144628400Y-97264700D01*
X152640249Y-94933000D02*
X146960100Y-94933000D01*
D77*
%TO.N,/PA0*%
X177017000Y-86265001D02*
X177017001Y-86265000D01*
X210052000Y-86265000D02*
X211413000Y-84904000D01*
X211413000Y-84904000D02*
X211413000Y-82475000D01*
X177017001Y-86265000D02*
X210052000Y-86265000D01*
X162592001Y-88131999D02*
X174411468Y-88131999D01*
X160196500Y-91958000D02*
X161052000Y-91958000D01*
X161777000Y-88947000D02*
X162592001Y-88131999D01*
X210354000Y-80697000D02*
X210430000Y-80697000D01*
X161777000Y-91233000D02*
X161777000Y-88947000D01*
X208830000Y-79173000D02*
X210354000Y-80697000D01*
X174411468Y-88131999D02*
X176278466Y-86265001D01*
X211413000Y-82475000D02*
X211413000Y-81680000D01*
X161052000Y-91958000D02*
X161777000Y-91233000D01*
X211413000Y-81680000D02*
X210430000Y-80697000D01*
X176278466Y-86265001D02*
X177017000Y-86265001D01*
%TO.N,/PB4*%
X171353000Y-112366000D02*
X171353000Y-113640000D01*
X155509000Y-100456362D02*
X158249038Y-103196400D01*
X169846200Y-111570400D02*
X170260600Y-111984800D01*
X171378200Y-113614800D02*
X171353000Y-113640000D01*
X169846200Y-111093600D02*
X169874200Y-111065600D01*
X169846200Y-111093600D02*
X169846200Y-111570400D01*
X169874200Y-111065600D02*
X169874200Y-109241600D01*
X169900600Y-109268000D02*
X169874200Y-109241600D01*
X171378200Y-109268000D02*
X169900600Y-109268000D01*
X170260600Y-111984800D02*
X170971800Y-111984800D01*
X170971800Y-111984800D02*
X171353000Y-112366000D01*
X158249038Y-103196400D02*
X168558800Y-103196400D01*
X169874200Y-104511800D02*
X169874200Y-109241600D01*
X155509000Y-97145500D02*
X155509000Y-100456362D01*
X168558800Y-103196400D02*
X169874200Y-104511800D01*
%TO.N,/PB0*%
X118957000Y-82531000D02*
X118957000Y-81736000D01*
X116374000Y-79229000D02*
X117898000Y-80753000D01*
X120174000Y-86206000D02*
X154726468Y-86206000D01*
X154726468Y-86206000D02*
X157009000Y-88488532D01*
X118957000Y-84989000D02*
X120174000Y-86206000D01*
X117898000Y-80753000D02*
X117974000Y-80753000D01*
X118957000Y-82531000D02*
X118957000Y-84989000D01*
X157009000Y-88488532D02*
X157009000Y-90270500D01*
X118957000Y-81736000D02*
X117974000Y-80753000D01*
%TO.N,/PB7*%
X156736000Y-98176000D02*
X157009000Y-97903000D01*
X156759000Y-98788000D02*
X156736000Y-98765000D01*
X157009000Y-97903000D02*
X157009000Y-97145500D01*
X93761500Y-93900000D02*
X93761500Y-95490000D01*
X156736000Y-98765000D02*
X156736000Y-98176000D01*
%TO.N,/PB3*%
X169353000Y-112296400D02*
X169353000Y-113640000D01*
X168846200Y-111789600D02*
X169353000Y-112296400D01*
X167717400Y-111093600D02*
X167478800Y-110855000D01*
D75*
X165942600Y-103653600D02*
X167478800Y-105189800D01*
D77*
X168846200Y-111093600D02*
X168846200Y-111789600D01*
D75*
X155009000Y-97145500D02*
X155009000Y-100597000D01*
D77*
X168846200Y-111093600D02*
X167717400Y-111093600D01*
D75*
X167478800Y-105189800D02*
X167478800Y-110855000D01*
X155009000Y-100597000D02*
X158065600Y-103653600D01*
X158065600Y-103653600D02*
X165942600Y-103653600D01*
%TO.N,/PA3*%
X159743500Y-87805500D02*
X159743500Y-87799862D01*
X192630000Y-84400000D02*
X193908000Y-83122000D01*
X193908000Y-80408500D02*
X193526000Y-80026500D01*
X193908000Y-83122000D02*
X193908000Y-80408500D01*
X173461000Y-86280000D02*
X175341001Y-84400000D01*
X159509000Y-90270500D02*
X159509000Y-88040000D01*
X161263362Y-86280000D02*
X173461000Y-86280000D01*
X159509000Y-88040000D02*
X159743500Y-87805500D01*
X175341001Y-84400000D02*
X192630000Y-84400000D01*
X159743500Y-87799862D02*
X161263362Y-86280000D01*
X193526000Y-80026500D02*
X193526000Y-78600000D01*
%TO.N,/PA8*%
X102340000Y-80058000D02*
X101960000Y-80438000D01*
X101960000Y-80438000D02*
X101960000Y-85642190D01*
X101960000Y-85642190D02*
X103670810Y-87353000D01*
X146867810Y-92958000D02*
X153321500Y-92958000D01*
X102340000Y-78656000D02*
X102340000Y-80058000D01*
X103670810Y-87353000D02*
X141262810Y-87353000D01*
X141262810Y-87353000D02*
X146867810Y-92958000D01*
%TO.N,/PA9*%
X141076000Y-87804000D02*
X146730000Y-93458000D01*
X101070000Y-78656000D02*
X101070000Y-80056000D01*
X101452000Y-80438000D02*
X101452000Y-85772000D01*
X146730000Y-93458000D02*
X153321500Y-93458000D01*
X101452000Y-85772000D02*
X103484000Y-87804000D01*
X103484000Y-87804000D02*
X141076000Y-87804000D01*
X101070000Y-80056000D02*
X101452000Y-80438000D01*
D77*
%TO.N,/PA1*%
X160196500Y-91458000D02*
X160908532Y-91458000D01*
X201844000Y-72061000D02*
X203051000Y-73268000D01*
X201743999Y-85810001D02*
X203051000Y-84503000D01*
X176089999Y-85810001D02*
X201743999Y-85810001D01*
X161322000Y-91044532D02*
X161322000Y-88640000D01*
X203051000Y-80684000D02*
X202035000Y-80684000D01*
X200053000Y-80684000D02*
X200003000Y-80634000D01*
X203051000Y-84503000D02*
X203051000Y-80684000D01*
X174222999Y-87677000D02*
X176089999Y-85810001D01*
X203051000Y-73268000D02*
X203051000Y-80684000D01*
X160908532Y-91458000D02*
X161322000Y-91044532D01*
X162285000Y-87677000D02*
X174222999Y-87677000D01*
X161322000Y-88640000D02*
X162285000Y-87677000D01*
X202035000Y-80684000D02*
X200053000Y-80684000D01*
%TO.N,/PA2*%
X194796000Y-78600000D02*
X194796000Y-80058000D01*
X192922000Y-84853000D02*
X175528639Y-84853000D01*
X173648639Y-86733000D02*
X161451000Y-86733000D01*
X161451000Y-86733000D02*
X160196500Y-87987500D01*
X160196500Y-87987500D02*
X160196500Y-90958000D01*
X194416000Y-83359000D02*
X192922000Y-84853000D01*
X194416000Y-80438000D02*
X194416000Y-83359000D01*
X175528639Y-84853000D02*
X173648639Y-86733000D01*
X194796000Y-80058000D02*
X194416000Y-80438000D01*
%TO.N,/PB1*%
X110595000Y-73324000D02*
X110595000Y-80740000D01*
X112247000Y-86661000D02*
X154538000Y-86661000D01*
X110595000Y-85009000D02*
X112247000Y-86661000D01*
X110595000Y-80740000D02*
X109579000Y-80740000D01*
X109388000Y-72117000D02*
X110595000Y-73324000D01*
X156509000Y-88632000D02*
X156509000Y-90270500D01*
X109579000Y-80740000D02*
X107597000Y-80740000D01*
X107597000Y-80740000D02*
X107547000Y-80690000D01*
X154538000Y-86661000D02*
X156509000Y-88632000D01*
X110595000Y-80740000D02*
X110595000Y-85009000D01*
D75*
%TO.N,/PA7*%
X147298000Y-78656000D02*
X147298000Y-83358000D01*
X157509000Y-87473000D02*
X157509000Y-90270500D01*
X147298000Y-83358000D02*
X149331000Y-85391000D01*
X155427000Y-85391000D02*
X157509000Y-87473000D01*
X149331000Y-85391000D02*
X155427000Y-85391000D01*
%TO.N,/PA6*%
X155613810Y-84940000D02*
X158009000Y-87335190D01*
X158009000Y-87335190D02*
X158009000Y-90270500D01*
X149517810Y-84940000D02*
X155613810Y-84940000D01*
X148568000Y-83990190D02*
X149517810Y-84940000D01*
X148568000Y-78656000D02*
X148568000Y-83990190D01*
D77*
%TO.N,/PA5*%
X155807000Y-80740000D02*
X153825000Y-80740000D01*
X155616000Y-72117000D02*
X156823000Y-73324000D01*
D75*
X158509000Y-90270500D02*
X158509000Y-85806000D01*
D77*
X153825000Y-80740000D02*
X153775000Y-80690000D01*
X156823000Y-80740000D02*
X155807000Y-80740000D01*
D75*
X158509000Y-85806000D02*
X156823000Y-84120000D01*
X156823000Y-84120000D02*
X156823000Y-80740000D01*
D77*
X156823000Y-73324000D02*
X156823000Y-80740000D01*
D75*
%TO.N,/PA15*%
X154509000Y-97145500D02*
X154509000Y-98755000D01*
X153867000Y-99397000D02*
X153867000Y-100628000D01*
X154509000Y-98755000D02*
X153867000Y-99397000D01*
D77*
%TO.N,/I2C_SCL*%
X132821000Y-101012000D02*
X133329000Y-100504000D01*
D75*
X158009000Y-99022000D02*
X158918000Y-99931000D01*
X158918000Y-99931000D02*
X159934000Y-99931000D01*
D77*
X132091532Y-90004000D02*
X130410000Y-90004000D01*
D75*
X120742000Y-119032000D02*
X117581000Y-115871000D01*
X158009000Y-97145500D02*
X158009000Y-99022000D01*
X128372500Y-90725000D02*
X129093500Y-90004000D01*
X127731000Y-117403000D02*
X126102000Y-119032000D01*
X128372500Y-96758000D02*
X128372500Y-90725000D01*
X126102000Y-119032000D02*
X120742000Y-119032000D01*
D77*
X133329000Y-91241468D02*
X132091532Y-90004000D01*
D75*
X117581000Y-110912000D02*
X118613000Y-109880000D01*
X129093500Y-90004000D02*
X130410000Y-90004000D01*
X117581000Y-115871000D02*
X117581000Y-110912000D01*
X159934000Y-99931000D02*
X160442000Y-100439000D01*
D77*
X133329000Y-100504000D02*
X133329000Y-91241468D01*
D75*
%TO.N,/I2C_SDA*%
X120555190Y-119483000D02*
X117130000Y-116057810D01*
X117073000Y-110880000D02*
X116073000Y-109880000D01*
D77*
X130410000Y-89354000D02*
X132085000Y-89354000D01*
D75*
X158509000Y-97145500D02*
X158509000Y-98783720D01*
D77*
X130410000Y-89354000D02*
X127584500Y-89354000D01*
X127584500Y-89354000D02*
X126721500Y-90217000D01*
D75*
X159112280Y-99387000D02*
X159970000Y-99387000D01*
X117073000Y-115998000D02*
X117073000Y-110880000D01*
D77*
X133837000Y-100504000D02*
X134345000Y-101012000D01*
D75*
X117130000Y-116057810D02*
X117130000Y-116055000D01*
D77*
X126721500Y-90217000D02*
X126721500Y-96758000D01*
D75*
X159970000Y-99387000D02*
X160442000Y-98915000D01*
X117130000Y-116055000D02*
X117073000Y-115998000D01*
D77*
X133837000Y-91106000D02*
X133837000Y-100504000D01*
D75*
X126651000Y-119483000D02*
X120555190Y-119483000D01*
D77*
X132085000Y-89354000D02*
X133837000Y-91106000D01*
D75*
X158509000Y-98783720D02*
X159112280Y-99387000D01*
X127731000Y-118403000D02*
X126651000Y-119483000D01*
%TO.N,/PB5*%
X174223000Y-110512600D02*
X172850400Y-110512600D01*
X174565400Y-110855000D02*
X174223000Y-110512600D01*
X172850400Y-110512600D02*
X172826000Y-110537000D01*
D77*
X172859400Y-111713400D02*
X173353000Y-112207000D01*
X158437506Y-102741400D02*
X171355000Y-102741400D01*
X171355000Y-102741400D02*
X172826000Y-104212400D01*
X172826000Y-104212400D02*
X172826000Y-110537000D01*
D75*
X175226800Y-110855000D02*
X174565400Y-110855000D01*
D77*
X172859400Y-111093600D02*
X172859400Y-111713400D01*
X172826000Y-111060200D02*
X172826000Y-110537000D01*
X156009000Y-100312894D02*
X158437506Y-102741400D01*
X156009000Y-97145500D02*
X156009000Y-100312894D01*
X173353000Y-112207000D02*
X173353000Y-113640000D01*
%TO.N,/PA4*%
X164126000Y-80753000D02*
X164202000Y-80753000D01*
D75*
X159009000Y-90270500D02*
X159009000Y-85746000D01*
D77*
X165185000Y-82531000D02*
X165185000Y-81736000D01*
X162602000Y-79229000D02*
X164126000Y-80753000D01*
D75*
X163468000Y-84248000D02*
X165185000Y-82531000D01*
X160507000Y-84248000D02*
X163468000Y-84248000D01*
X159009000Y-85746000D02*
X160507000Y-84248000D01*
D77*
X165185000Y-81736000D02*
X164202000Y-80753000D01*
D78*
%TO.N,+12V*%
X145976000Y-78708000D02*
X146028000Y-78656000D01*
X93831000Y-79251000D02*
X93831000Y-83639000D01*
X97641000Y-78708000D02*
X96130000Y-78708000D01*
X192204000Y-78652000D02*
X192256000Y-78600000D01*
X93831000Y-83639000D02*
X93832000Y-83640000D01*
X186287000Y-83546000D02*
X186288000Y-83547000D01*
D77*
X219860000Y-85943000D02*
X219860000Y-91553000D01*
D78*
X216006000Y-100231000D02*
X217007000Y-100231000D01*
D77*
X219562000Y-85645000D02*
X219860000Y-85943000D01*
D78*
X142358000Y-78708000D02*
X141815000Y-79251000D01*
X218419000Y-91553000D02*
X219860000Y-91553000D01*
X143869000Y-78708000D02*
X145976000Y-78708000D01*
X143869000Y-78708000D02*
X142358000Y-78708000D01*
X215669000Y-91553000D02*
X214865000Y-90749000D01*
X220451000Y-98240000D02*
X219943000Y-98748000D01*
X186287000Y-83546000D02*
X186288000Y-83545000D01*
X190097000Y-78652000D02*
X188586000Y-78652000D01*
X143869000Y-78708000D02*
X143869000Y-77069000D01*
X141815000Y-79251000D02*
X140059000Y-79251000D01*
X190097000Y-78652000D02*
X190097000Y-77013000D01*
X217007000Y-100231000D02*
X218490000Y-98748000D01*
X97641000Y-78708000D02*
X99748000Y-78708000D01*
X99748000Y-78708000D02*
X99800000Y-78656000D01*
X140059000Y-83639000D02*
X140060000Y-83640000D01*
X220451000Y-92144000D02*
X220451000Y-98240000D01*
X186288000Y-79196000D02*
X186287000Y-79195000D01*
X140059000Y-79251000D02*
X140059000Y-83639000D01*
D77*
X219562000Y-84247000D02*
X219562000Y-85645000D01*
D78*
X216069000Y-91553000D02*
X218419000Y-91553000D01*
X216069000Y-94198000D02*
X216069000Y-91553000D01*
X219943000Y-98748000D02*
X218490000Y-98748000D01*
X214482000Y-100231000D02*
X216006000Y-100231000D01*
X188043000Y-79195000D02*
X186287000Y-79195000D01*
X190097000Y-78652000D02*
X192204000Y-78652000D01*
X186288000Y-83545000D02*
X186288000Y-79196000D01*
X188586000Y-78652000D02*
X188043000Y-79195000D01*
X216069000Y-91553000D02*
X215669000Y-91553000D01*
X96130000Y-78708000D02*
X95587000Y-79251000D01*
X97641000Y-78708000D02*
X97641000Y-77069000D01*
X214865000Y-90749000D02*
X214863000Y-90749000D01*
X95587000Y-79251000D02*
X93831000Y-79251000D01*
X186288000Y-83547000D02*
X186288000Y-83674000D01*
X219860000Y-91553000D02*
X220451000Y-92144000D01*
D77*
%TO.N,+24V*%
X220900000Y-81136000D02*
X219562000Y-81136000D01*
D78*
X91799000Y-69578000D02*
X92943000Y-69578000D01*
X138027000Y-67220000D02*
X138027000Y-69578000D01*
X184255000Y-69522000D02*
X185399000Y-69522000D01*
X138027000Y-69578000D02*
X139171000Y-69578000D01*
X215244000Y-107774000D02*
X217053000Y-105965000D01*
X84879000Y-95424000D02*
X83545000Y-95424000D01*
X218546000Y-105965000D02*
X218546000Y-101344000D01*
D80*
X218546000Y-101344000D02*
X218490000Y-101288000D01*
D78*
X217053000Y-105965000D02*
X218546000Y-105965000D01*
X185399000Y-69522000D02*
X186224000Y-70347000D01*
X70076000Y-87486000D02*
X70012000Y-87550000D01*
X92943000Y-69578000D02*
X93768000Y-70403000D01*
X91799000Y-67220000D02*
X91799000Y-69578000D01*
X184255000Y-67164000D02*
X184255000Y-69522000D01*
D77*
X220963000Y-81073000D02*
X220900000Y-81136000D01*
D78*
X139171000Y-69578000D02*
X139996000Y-70403000D01*
D77*
X83545000Y-95424000D02*
X84752000Y-95424000D01*
D75*
%TO.N,/Sensores/24V_SENS*%
X216310000Y-79486000D02*
X216260000Y-79536000D01*
X126206000Y-88704000D02*
X126344000Y-88566000D01*
X211489723Y-87057997D02*
X209021000Y-87057997D01*
X216260000Y-79536000D02*
X215130000Y-79536000D01*
X215130000Y-79536000D02*
X214138000Y-80528000D01*
X213085000Y-83925244D02*
X213085000Y-85462720D01*
X214138000Y-82872244D02*
X213085000Y-83925244D01*
X219562000Y-79486000D02*
X216310000Y-79486000D01*
X213085000Y-85462720D02*
X211829720Y-86718000D01*
X124685000Y-88704000D02*
X126206000Y-88704000D01*
X214138000Y-80528000D02*
X214138000Y-82872244D01*
X211829720Y-86718000D02*
X211489723Y-87057997D01*
D78*
%TO.N,Net-(Q4-G)*%
X135487000Y-67220000D02*
X135487000Y-70315500D01*
X137384000Y-65323000D02*
X135487000Y-67220000D01*
X144123000Y-65323000D02*
X137384000Y-65323000D01*
%TO.N,Net-(Q5-G)*%
X153354500Y-69680500D02*
X151743000Y-69680500D01*
X153458000Y-67283000D02*
X153521000Y-67220000D01*
X153458000Y-69577000D02*
X153354500Y-69680500D01*
X153458000Y-69577000D02*
X153458000Y-67283000D01*
%TO.N,Net-(Q6-G)*%
X181715000Y-67164000D02*
X181715000Y-70259500D01*
X183612000Y-65267000D02*
X181715000Y-67164000D01*
X190351000Y-65267000D02*
X183612000Y-65267000D01*
D76*
%TO.N,/Medio-Puente-U/PHASE_OUT*%
X103739000Y-65257000D02*
X101705000Y-67291000D01*
D77*
X106531000Y-72117000D02*
X105261000Y-73387000D01*
D78*
X95355000Y-69450000D02*
X94339000Y-68434000D01*
X101705000Y-70974000D02*
X101705000Y-67291000D01*
X102708000Y-75406000D02*
X102340000Y-75038000D01*
D76*
X97895000Y-67220000D02*
X101761000Y-67220000D01*
D78*
X106283500Y-75406000D02*
X105261000Y-75406000D01*
X94339000Y-68434000D02*
X94339000Y-67220000D01*
X105261000Y-75406000D02*
X102708000Y-75406000D01*
X102340000Y-73706000D02*
X102340000Y-71609000D01*
D77*
X107738000Y-72117000D02*
X106531000Y-72117000D01*
D78*
X117961000Y-65133000D02*
X119365500Y-65133000D01*
D77*
X105261000Y-73387000D02*
X105261000Y-75406000D01*
D78*
X107054500Y-74635000D02*
X106283500Y-75406000D01*
D76*
X109208500Y-65257000D02*
X109833000Y-65881500D01*
X109208500Y-65257000D02*
X103739000Y-65257000D01*
D78*
X108563000Y-74635000D02*
X107054500Y-74635000D01*
X119365500Y-65133000D02*
X119993000Y-65760500D01*
X102340000Y-71609000D02*
X101705000Y-70974000D01*
X109208500Y-65257000D02*
X109332500Y-65133000D01*
D76*
X94339000Y-67220000D02*
X97895000Y-67220000D01*
X109833000Y-65881500D02*
X109833000Y-67220000D01*
D78*
X119993000Y-65760500D02*
X119993000Y-66720000D01*
X109332500Y-65133000D02*
X117961000Y-65133000D01*
X102340000Y-75038000D02*
X102340000Y-73706000D01*
X95355000Y-70453000D02*
X95355000Y-69450000D01*
%TO.N,/Medio-Puente-U/VB*%
X100448000Y-76956000D02*
X99800000Y-76308000D01*
X97704000Y-73706000D02*
X97641000Y-73769000D01*
X106540000Y-78235000D02*
X105261000Y-76956000D01*
X108563000Y-78235000D02*
X106540000Y-78235000D01*
X99800000Y-76308000D02*
X99800000Y-73706000D01*
X105261000Y-76956000D02*
X100448000Y-76956000D01*
X99800000Y-73706000D02*
X97704000Y-73706000D01*
D77*
%TO.N,/Medio-Puente-U/Shunt*%
X116056000Y-70212000D02*
X115506500Y-69662500D01*
X116056000Y-72182000D02*
X116056000Y-70212000D01*
D78*
X110016000Y-69577000D02*
X112373000Y-67220000D01*
X115929000Y-66770000D02*
X115916000Y-66783000D01*
X108880000Y-69577000D02*
X110016000Y-69577000D01*
X115916000Y-66783000D02*
X112810000Y-66783000D01*
D77*
X115506500Y-69662500D02*
X113135000Y-69662500D01*
D78*
X113982500Y-69662500D02*
X113135000Y-69662500D01*
X112810000Y-66783000D02*
X112373000Y-67220000D01*
D81*
%TO.N,/USB_R_N*%
X143652000Y-111610000D02*
X143603000Y-111659000D01*
X143878000Y-111610000D02*
X144554000Y-111610000D01*
X143677000Y-107587600D02*
X143514400Y-107425000D01*
X144554000Y-112294000D02*
X144603000Y-112343000D01*
X144603000Y-112343000D02*
X144603000Y-112486000D01*
X143677000Y-110574600D02*
X143677000Y-107587600D01*
X143603000Y-111659000D02*
X143603000Y-112486000D01*
X144603000Y-111659000D02*
X144554000Y-111610000D01*
X143878000Y-110775600D02*
X143878000Y-111610000D01*
X144554000Y-111610000D02*
X144554000Y-112294000D01*
X144603000Y-112486000D02*
X144603000Y-111659000D01*
X144554000Y-111610000D02*
X143652000Y-111610000D01*
X143677000Y-110574600D02*
X143878000Y-110775600D01*
%TO.N,/USB_R_P*%
X144878000Y-110775600D02*
X144878000Y-111366900D01*
X145079000Y-107638400D02*
X145292400Y-107425000D01*
X145079000Y-110574600D02*
X144878000Y-110775600D01*
X144878000Y-111366900D02*
X145103000Y-111591900D01*
X144152000Y-113362000D02*
X145013000Y-113362000D01*
X144103000Y-113313000D02*
X144152000Y-113362000D01*
X144103000Y-112486000D02*
X144103000Y-113313000D01*
X145103000Y-113272000D02*
X145103000Y-112486000D01*
X145079000Y-110574600D02*
X145079000Y-107638400D01*
X145013000Y-113362000D02*
X145103000Y-113272000D01*
X145103000Y-111591900D02*
X145103000Y-112486000D01*
D78*
%TO.N,Net-(R4-Pad2)*%
X214419000Y-97372000D02*
X214482000Y-97309000D01*
X214419000Y-98770000D02*
X214419000Y-97372000D01*
%TO.N,/V_DIV_3*%
X104564000Y-109653000D02*
X104651000Y-109566000D01*
X104501000Y-111489000D02*
X104564000Y-111426000D01*
X102595000Y-111489000D02*
X104501000Y-111489000D01*
X104564000Y-111426000D02*
X104564000Y-109653000D01*
%TO.N,/V_DIV_12*%
X216069000Y-98770000D02*
X216069000Y-97372000D01*
X216069000Y-97372000D02*
X216006000Y-97309000D01*
X216006000Y-97309000D02*
X217389000Y-97309000D01*
X217389000Y-97309000D02*
X218490000Y-96208000D01*
%TO.N,Net-(R3-Pad2)*%
X214482000Y-95659000D02*
X214482000Y-94261000D01*
X214482000Y-94261000D02*
X214419000Y-94198000D01*
%TO.N,/5V fused*%
X132207500Y-110664000D02*
X132207500Y-113078500D01*
X132207500Y-113078500D02*
X133095000Y-113966000D01*
X129866500Y-113078500D02*
X129741000Y-113204000D01*
X132207500Y-113078500D02*
X129866500Y-113078500D01*
%TO.N,VDC*%
X146791000Y-112403000D02*
X146708000Y-112486000D01*
X146791000Y-111680000D02*
X146791000Y-112403000D01*
X141457000Y-110664000D02*
X136482500Y-110664000D01*
X141908000Y-111115000D02*
X141457000Y-110664000D01*
X141908000Y-111115000D02*
X141908000Y-112486000D01*
X147299000Y-111172000D02*
X146791000Y-111680000D01*
%TO.N,Net-(D18-K)*%
X93818000Y-72003000D02*
X93768000Y-72053000D01*
X95355000Y-72003000D02*
X93818000Y-72003000D01*
X92624000Y-72053000D02*
X91799000Y-72878000D01*
X93768000Y-72053000D02*
X92624000Y-72053000D01*
%TO.N,/Medio-Puente-V/PHASE_OUT*%
X166221000Y-65760500D02*
X166221000Y-66720000D01*
D77*
X152759000Y-72117000D02*
X151489000Y-73387000D01*
D78*
X141583000Y-69450000D02*
X140567000Y-68434000D01*
D76*
X155436500Y-65257000D02*
X149967000Y-65257000D01*
D78*
X148568000Y-71609000D02*
X147933000Y-70974000D01*
D76*
X156061000Y-65881500D02*
X156061000Y-67220000D01*
D78*
X148568000Y-75038000D02*
X148568000Y-73706000D01*
X147933000Y-70974000D02*
X147933000Y-67291000D01*
D76*
X144123000Y-67220000D02*
X147989000Y-67220000D01*
D78*
X140567000Y-68434000D02*
X140567000Y-67220000D01*
X151489000Y-75406000D02*
X148936000Y-75406000D01*
D76*
X155436500Y-65257000D02*
X156061000Y-65881500D01*
D78*
X141583000Y-70453000D02*
X141583000Y-69450000D01*
X148936000Y-75406000D02*
X148568000Y-75038000D01*
X165593500Y-65133000D02*
X166221000Y-65760500D01*
X148568000Y-73706000D02*
X148568000Y-71609000D01*
X153282500Y-74635000D02*
X152511500Y-75406000D01*
D76*
X149967000Y-65257000D02*
X147933000Y-67291000D01*
D78*
X155436500Y-65257000D02*
X155560500Y-65133000D01*
X152511500Y-75406000D02*
X151489000Y-75406000D01*
D77*
X153966000Y-72117000D02*
X152759000Y-72117000D01*
X151489000Y-73387000D02*
X151489000Y-75406000D01*
D76*
X140567000Y-67220000D02*
X144123000Y-67220000D01*
D78*
X155560500Y-65133000D02*
X164189000Y-65133000D01*
X154791000Y-74635000D02*
X153282500Y-74635000D01*
X164189000Y-65133000D02*
X165593500Y-65133000D01*
%TO.N,/Medio-Puente-V/VB*%
X154791000Y-78235000D02*
X152768000Y-78235000D01*
X152768000Y-78235000D02*
X151489000Y-76956000D01*
X146676000Y-76956000D02*
X146028000Y-76308000D01*
X143932000Y-73706000D02*
X143869000Y-73769000D01*
X151489000Y-76956000D02*
X146676000Y-76956000D01*
X146028000Y-76308000D02*
X146028000Y-73706000D01*
X146028000Y-73706000D02*
X143932000Y-73706000D01*
%TO.N,/Medio-Puente-V/Shunt*%
X156244000Y-69577000D02*
X158601000Y-67220000D01*
X155108000Y-69577000D02*
X156244000Y-69577000D01*
D77*
X161734500Y-69662500D02*
X159363000Y-69662500D01*
D78*
X159038000Y-66783000D02*
X158601000Y-67220000D01*
D77*
X162284000Y-72182000D02*
X162284000Y-70212000D01*
D78*
X162144000Y-66783000D02*
X159038000Y-66783000D01*
D77*
X162284000Y-70212000D02*
X161734500Y-69662500D01*
D78*
X162157000Y-66770000D02*
X162144000Y-66783000D01*
X160210500Y-69662500D02*
X159363000Y-69662500D01*
%TO.N,/Medio-Puente-W/PHASE_OUT*%
X194161000Y-70918000D02*
X194161000Y-67235000D01*
X194796000Y-74982000D02*
X194796000Y-73650000D01*
X201019000Y-74579000D02*
X199510500Y-74579000D01*
X194796000Y-73650000D02*
X194796000Y-71553000D01*
X201664500Y-65201000D02*
X201788500Y-65077000D01*
D76*
X190351000Y-67164000D02*
X194217000Y-67164000D01*
X201664500Y-65201000D02*
X202289000Y-65825500D01*
D78*
X201788500Y-65077000D02*
X210417000Y-65077000D01*
D76*
X186795000Y-67164000D02*
X190351000Y-67164000D01*
D78*
X195164000Y-75350000D02*
X194796000Y-74982000D01*
D77*
X197717000Y-73331000D02*
X197717000Y-75350000D01*
D76*
X202289000Y-65825500D02*
X202289000Y-67164000D01*
D78*
X210417000Y-65077000D02*
X211821500Y-65077000D01*
D76*
X196195000Y-65201000D02*
X194161000Y-67235000D01*
D77*
X200194000Y-72061000D02*
X198987000Y-72061000D01*
D78*
X187811000Y-70397000D02*
X187811000Y-69394000D01*
X187811000Y-69394000D02*
X186795000Y-68378000D01*
D76*
X201664500Y-65201000D02*
X196195000Y-65201000D01*
D78*
X199510500Y-74579000D02*
X198739500Y-75350000D01*
X198739500Y-75350000D02*
X197717000Y-75350000D01*
D77*
X198987000Y-72061000D02*
X197717000Y-73331000D01*
D78*
X194796000Y-71553000D02*
X194161000Y-70918000D01*
X197717000Y-75350000D02*
X195164000Y-75350000D01*
X212449000Y-65704500D02*
X212449000Y-66664000D01*
X186795000Y-68378000D02*
X186795000Y-67164000D01*
X211821500Y-65077000D02*
X212449000Y-65704500D01*
%TO.N,Net-(Q7-G)*%
X199686000Y-69521000D02*
X199686000Y-67227000D01*
X199582500Y-69624500D02*
X197971000Y-69624500D01*
X199686000Y-69521000D02*
X199582500Y-69624500D01*
X199686000Y-67227000D02*
X199749000Y-67164000D01*
%TO.N,/Medio-Puente-W/VB*%
X201019000Y-78179000D02*
X198996000Y-78179000D01*
X190160000Y-73650000D02*
X190097000Y-73713000D01*
X192904000Y-76900000D02*
X192256000Y-76252000D01*
X197717000Y-76900000D02*
X192904000Y-76900000D01*
X192256000Y-76252000D02*
X192256000Y-73650000D01*
X192256000Y-73650000D02*
X190160000Y-73650000D01*
X198996000Y-78179000D02*
X197717000Y-76900000D01*
%TO.N,/Medio-Puente-W/Shunt*%
X202472000Y-69521000D02*
X204829000Y-67164000D01*
D77*
X208512000Y-72126000D02*
X208512000Y-70156000D01*
X208512000Y-70156000D02*
X207962500Y-69606500D01*
X207962500Y-69606500D02*
X205591000Y-69606500D01*
D78*
X206438500Y-69606500D02*
X205591000Y-69606500D01*
X208385000Y-66714000D02*
X208372000Y-66727000D01*
X201336000Y-69521000D02*
X202472000Y-69521000D01*
X205266000Y-66727000D02*
X204829000Y-67164000D01*
X208372000Y-66727000D02*
X205266000Y-66727000D01*
D77*
%TO.N,/Sensores/T1*%
X106022980Y-100060000D02*
X105832980Y-100250000D01*
X106022980Y-95424000D02*
X106022980Y-100060000D01*
%TO.N,/Sensores/T2*%
X109324980Y-100060000D02*
X109134980Y-100250000D01*
X109324980Y-95424000D02*
X109324980Y-100060000D01*
%TO.N,/Sensores/T3*%
X112626980Y-100060000D02*
X112436980Y-100250000D01*
X112626980Y-95424000D02*
X112626980Y-100060000D01*
%TO.N,/Sensores/T4*%
X115928980Y-100060000D02*
X115738980Y-100250000D01*
X115928980Y-95424000D02*
X115928980Y-100060000D01*
%TO.N,/Sensores/T5*%
X119230980Y-100060000D02*
X119040980Y-100250000D01*
X119230980Y-95424000D02*
X119230980Y-100060000D01*
%TO.N,/Sensores/T6*%
X122532980Y-100060000D02*
X122342980Y-100250000D01*
X122532980Y-95424000D02*
X122532980Y-100060000D01*
D75*
%TO.N,/Sensores/S1*%
X104373000Y-91296000D02*
X105665000Y-90004000D01*
X104373000Y-95424000D02*
X104373000Y-91296000D01*
X105665000Y-90004000D02*
X124685000Y-90004000D01*
%TO.N,/Sensores/S2*%
X107675000Y-95424000D02*
X107675000Y-91804000D01*
X108825000Y-90654000D02*
X124685000Y-90654000D01*
X107675000Y-91804000D02*
X108825000Y-90654000D01*
%TO.N,/Sensores/S3*%
X110977000Y-95424000D02*
X110977000Y-92312000D01*
X110977000Y-92312000D02*
X111985000Y-91304000D01*
X111985000Y-91304000D02*
X124685000Y-91304000D01*
%TO.N,/Sensores/S4*%
X114279000Y-92820000D02*
X115145000Y-91954000D01*
X114279000Y-95424000D02*
X114279000Y-92820000D01*
X115145000Y-91954000D02*
X124685000Y-91954000D01*
D77*
%TO.N,Net-(U4-REFin{slash}REFout)*%
X130423000Y-92617000D02*
X130410000Y-92604000D01*
X132313000Y-92617000D02*
X130423000Y-92617000D01*
D78*
%TO.N,Net-(D20-K)*%
X117961000Y-68433000D02*
X116042000Y-68433000D01*
X117961000Y-68433000D02*
X119930000Y-68433000D01*
X116042000Y-68433000D02*
X115929000Y-68320000D01*
X119930000Y-68433000D02*
X119993000Y-68370000D01*
%TO.N,Net-(D28-K)*%
X185080000Y-71997000D02*
X184255000Y-72822000D01*
X187811000Y-71947000D02*
X186274000Y-71947000D01*
X186274000Y-71947000D02*
X186224000Y-71997000D01*
X186224000Y-71997000D02*
X185080000Y-71997000D01*
%TO.N,Net-(D30-K)*%
X212386000Y-68377000D02*
X212449000Y-68314000D01*
X210417000Y-68377000D02*
X208498000Y-68377000D01*
X208498000Y-68377000D02*
X208385000Y-68264000D01*
X210417000Y-68377000D02*
X212386000Y-68377000D01*
%TO.N,Net-(D15-A)*%
X86529000Y-93631500D02*
X86641500Y-93519000D01*
X86529000Y-95424000D02*
X86529000Y-93631500D01*
%TO.N,Net-(D23-K)*%
X138852000Y-72053000D02*
X138027000Y-72878000D01*
X140046000Y-72003000D02*
X139996000Y-72053000D01*
X141583000Y-72003000D02*
X140046000Y-72003000D01*
X139996000Y-72053000D02*
X138852000Y-72053000D01*
%TO.N,Net-(D25-K)*%
X164189000Y-68433000D02*
X166158000Y-68433000D01*
X166158000Y-68433000D02*
X166221000Y-68370000D01*
X164189000Y-68433000D02*
X162270000Y-68433000D01*
X162270000Y-68433000D02*
X162157000Y-68320000D01*
%TO.N,Net-(D8-A)*%
X109834000Y-115553000D02*
X109834000Y-117092500D01*
D75*
%TO.N,Net-(D9-A)*%
X151992000Y-100628000D02*
X150404000Y-100628000D01*
D78*
%TO.N,Net-(Q1-D)*%
X93786500Y-98284000D02*
X94893500Y-98284000D01*
X95208500Y-98599000D02*
X96774250Y-98599000D01*
X94893500Y-98284000D02*
X95208500Y-98599000D01*
%TO.N,Net-(D16-A)*%
X135170000Y-105584000D02*
X135170000Y-107376500D01*
X135170000Y-107376500D02*
X135282500Y-107489000D01*
%TO.N,Net-(R29-Pad2)*%
X129074000Y-105584000D02*
X133393000Y-105584000D01*
X133393000Y-105584000D02*
X133520000Y-105457000D01*
D77*
%TO.N,Net-(U5-HO)*%
X97641000Y-71863000D02*
X95609000Y-73895000D01*
X95609000Y-73895000D02*
X89767000Y-73895000D01*
X100689000Y-71863000D02*
X97641000Y-71863000D01*
X101070000Y-73706000D02*
X101070000Y-72244000D01*
X89259000Y-73387000D02*
X89259000Y-72140500D01*
X101070000Y-72244000D02*
X100689000Y-71863000D01*
X89767000Y-73895000D02*
X89259000Y-73387000D01*
%TO.N,Net-(U5-LO)*%
X103610000Y-73706000D02*
X103610000Y-71990000D01*
X104094500Y-71505500D02*
X105515000Y-71505500D01*
X103610000Y-71990000D02*
X104094500Y-71505500D01*
D78*
%TO.N,Net-(R40-Pad1)*%
X118596000Y-72182000D02*
X118596000Y-70275000D01*
X118596000Y-70275000D02*
X118786000Y-70085000D01*
%TO.N,Net-(R40-Pad2)*%
X117326000Y-70275000D02*
X117136000Y-70085000D01*
X117326000Y-72182000D02*
X117326000Y-70275000D01*
%TO.N,Net-(R41-Pad1)*%
X118596000Y-77132000D02*
X118596000Y-78657000D01*
X118596000Y-78657000D02*
X118024000Y-79229000D01*
D77*
%TO.N,Net-(U7-HO)*%
X146917000Y-71863000D02*
X143869000Y-71863000D01*
X147298000Y-72244000D02*
X146917000Y-71863000D01*
X135487000Y-73387000D02*
X135487000Y-72140500D01*
X147298000Y-73706000D02*
X147298000Y-72244000D01*
X143869000Y-71863000D02*
X141837000Y-73895000D01*
X141837000Y-73895000D02*
X135995000Y-73895000D01*
X135995000Y-73895000D02*
X135487000Y-73387000D01*
%TO.N,Net-(U7-LO)*%
X150322500Y-71505500D02*
X151743000Y-71505500D01*
X149838000Y-71990000D02*
X150322500Y-71505500D01*
X149838000Y-73706000D02*
X149838000Y-71990000D01*
D78*
%TO.N,Net-(R51-Pad2)*%
X163554000Y-72182000D02*
X163554000Y-70275000D01*
X163554000Y-70275000D02*
X163364000Y-70085000D01*
%TO.N,Net-(R51-Pad1)*%
X164824000Y-72182000D02*
X164824000Y-70275000D01*
X164824000Y-70275000D02*
X165014000Y-70085000D01*
%TO.N,Net-(R52-Pad1)*%
X164824000Y-78657000D02*
X164252000Y-79229000D01*
X164824000Y-77132000D02*
X164824000Y-78657000D01*
D77*
%TO.N,Net-(U9-HO)*%
X188065000Y-73839000D02*
X182223000Y-73839000D01*
X190097000Y-71807000D02*
X188065000Y-73839000D01*
X193526000Y-73650000D02*
X193526000Y-72188000D01*
X193526000Y-72188000D02*
X193145000Y-71807000D01*
X193145000Y-71807000D02*
X190097000Y-71807000D01*
X181715000Y-73331000D02*
X181715000Y-72084500D01*
X182223000Y-73839000D02*
X181715000Y-73331000D01*
%TO.N,Net-(U9-LO)*%
X196066000Y-71934000D02*
X196550500Y-71449500D01*
X196550500Y-71449500D02*
X197971000Y-71449500D01*
X196066000Y-73650000D02*
X196066000Y-71934000D01*
D78*
%TO.N,Net-(R62-Pad2)*%
X209782000Y-72126000D02*
X209782000Y-70219000D01*
X209782000Y-70219000D02*
X209592000Y-70029000D01*
%TO.N,Net-(R62-Pad1)*%
X211052000Y-72126000D02*
X211052000Y-70219000D01*
X211052000Y-70219000D02*
X211242000Y-70029000D01*
%TO.N,Net-(D10-A)*%
X216006000Y-101881000D02*
X214482000Y-101881000D01*
X216006000Y-102812000D02*
X216006000Y-101881000D01*
X215397500Y-103420500D02*
X216006000Y-102812000D01*
X215244000Y-103420500D02*
X215397500Y-103420500D01*
%TO.N,Net-(R63-Pad1)*%
X211052000Y-78601000D02*
X210480000Y-79173000D01*
X211052000Y-77076000D02*
X211052000Y-78601000D01*
D82*
%TO.N,Net-(D19-A2)*%
X205853000Y-100624000D02*
X205973000Y-100504000D01*
D83*
X205853000Y-108180000D02*
X205853000Y-100624000D01*
D84*
X205973000Y-100504000D02*
X205973000Y-95796000D01*
%TO.N,Net-(D24-A2)*%
X196321000Y-100504000D02*
X196321000Y-95796000D01*
D83*
X196353200Y-108190000D02*
X196353200Y-100536200D01*
D82*
X196353200Y-100536200D02*
X196321000Y-100504000D01*
D84*
%TO.N,Net-(D29-A2)*%
X186923000Y-100504000D02*
X186923000Y-95796000D01*
D82*
X186853200Y-100573800D02*
X186923000Y-100504000D01*
D83*
X186853200Y-108190000D02*
X186853200Y-100573800D01*
D75*
%TO.N,/Sensores/S5*%
X118559000Y-92604000D02*
X124685000Y-92604000D01*
X117580980Y-93582000D02*
X117580980Y-95424000D01*
X117581000Y-93582000D02*
X118559000Y-92604000D01*
%TO.N,/Sensores/S6*%
X120883000Y-93836000D02*
X121465000Y-93254000D01*
X120882980Y-95424000D02*
X120882980Y-93836000D01*
X121465000Y-93254000D02*
X124685000Y-93254000D01*
%TD*%
%TA.AperFunction,Conductor*%
%TO.N,GND*%
G36*
X114876681Y-74820319D02*
G01*
X114913000Y-74908000D01*
X114913000Y-81264000D01*
X114876681Y-81351681D01*
X114789000Y-81388000D01*
X111481000Y-81388000D01*
X111393319Y-81351681D01*
X111357000Y-81264000D01*
X111357000Y-74908000D01*
X111393319Y-74820319D01*
X111481000Y-74784000D01*
X114789000Y-74784000D01*
X114876681Y-74820319D01*
G37*
%TD.AperFunction*%
%TD*%
%TA.AperFunction,Conductor*%
%TO.N,GND*%
G36*
X161105681Y-74820319D02*
G01*
X161142000Y-74908000D01*
X161142000Y-81391000D01*
X161105681Y-81478681D01*
X161018000Y-81515000D01*
X157710000Y-81515000D01*
X157622319Y-81478681D01*
X157586000Y-81391000D01*
X157586000Y-74908000D01*
X157622319Y-74820319D01*
X157710000Y-74784000D01*
X161018000Y-74784000D01*
X161105681Y-74820319D01*
G37*
%TD.AperFunction*%
%TD*%
%TA.AperFunction,Conductor*%
%TO.N,/Medio-Puente-V/Shunt*%
G36*
X161104681Y-66057319D02*
G01*
X161141000Y-66145000D01*
X161141000Y-70469000D01*
X161104681Y-70556681D01*
X161017000Y-70593000D01*
X157709000Y-70593000D01*
X157621319Y-70556681D01*
X157585000Y-70469000D01*
X157585000Y-66145000D01*
X157621319Y-66057319D01*
X157709000Y-66021000D01*
X161017000Y-66021000D01*
X161104681Y-66057319D01*
G37*
%TD.AperFunction*%
%TD*%
%TA.AperFunction,Conductor*%
%TO.N,GND*%
G36*
X207333681Y-74764319D02*
G01*
X207370000Y-74852000D01*
X207370000Y-81335000D01*
X207333681Y-81422681D01*
X207246000Y-81459000D01*
X203938000Y-81459000D01*
X203850319Y-81422681D01*
X203814000Y-81335000D01*
X203814000Y-74852000D01*
X203850319Y-74764319D01*
X203938000Y-74728000D01*
X207246000Y-74728000D01*
X207333681Y-74764319D01*
G37*
%TD.AperFunction*%
%TD*%
%TA.AperFunction,Conductor*%
%TO.N,/Medio-Puente-U/Shunt*%
G36*
X114876681Y-66057319D02*
G01*
X114913000Y-66145000D01*
X114913000Y-70469000D01*
X114876681Y-70556681D01*
X114789000Y-70593000D01*
X111481000Y-70593000D01*
X111393319Y-70556681D01*
X111357000Y-70469000D01*
X111357000Y-66145000D01*
X111393319Y-66057319D01*
X111481000Y-66021000D01*
X114789000Y-66021000D01*
X114876681Y-66057319D01*
G37*
%TD.AperFunction*%
%TD*%
%TA.AperFunction,Conductor*%
%TO.N,/Medio-Puente-W/Shunt*%
G36*
X207332681Y-66001319D02*
G01*
X207369000Y-66089000D01*
X207369000Y-70413000D01*
X207332681Y-70500681D01*
X207245000Y-70537000D01*
X203937000Y-70537000D01*
X203849319Y-70500681D01*
X203813000Y-70413000D01*
X203813000Y-66089000D01*
X203849319Y-66001319D01*
X203937000Y-65965000D01*
X207245000Y-65965000D01*
X207332681Y-66001319D01*
G37*
%TD.AperFunction*%
%TD*%
%TA.AperFunction,Conductor*%
%TO.N,/24V in*%
G36*
X86556681Y-104350319D02*
G01*
X86593000Y-104438000D01*
X86593000Y-111048000D01*
X86556681Y-111135681D01*
X86469000Y-111172000D01*
X68937000Y-111172000D01*
X68849319Y-111135681D01*
X68813000Y-111048000D01*
X68813000Y-104438000D01*
X68849319Y-104350319D01*
X68937000Y-104314000D01*
X86469000Y-104314000D01*
X86556681Y-104350319D01*
G37*
%TD.AperFunction*%
%TD*%
%TA.AperFunction,Conductor*%
%TO.N,/24V fused*%
G36*
X72840681Y-82760319D02*
G01*
X72877000Y-82848000D01*
X72877000Y-91614000D01*
X75163000Y-93900000D01*
X80445638Y-93900000D01*
X80533319Y-93936319D01*
X81476681Y-94879681D01*
X81513000Y-94967362D01*
X81513000Y-99182638D01*
X81476681Y-99270319D01*
X80533319Y-100213681D01*
X80445638Y-100250000D01*
X70388362Y-100250000D01*
X70300681Y-100213681D01*
X67325319Y-97238319D01*
X67289000Y-97150638D01*
X67289000Y-87406887D01*
X68511500Y-87406887D01*
X68511500Y-87693112D01*
X68567336Y-87973816D01*
X68567338Y-87973824D01*
X68676866Y-88238250D01*
X68676871Y-88238259D01*
X68835881Y-88476232D01*
X68835884Y-88476236D01*
X69038263Y-88678615D01*
X69038267Y-88678618D01*
X69276240Y-88837628D01*
X69276246Y-88837631D01*
X69276247Y-88837632D01*
X69540676Y-88947162D01*
X69821387Y-89002999D01*
X69821390Y-89003000D01*
X69821392Y-89003000D01*
X70202610Y-89003000D01*
X70202611Y-89002999D01*
X70483324Y-88947162D01*
X70747753Y-88837632D01*
X70985733Y-88678618D01*
X71188118Y-88476233D01*
X71347132Y-88238253D01*
X71456662Y-87973824D01*
X71512500Y-87693108D01*
X71512500Y-87406892D01*
X71512500Y-87406889D01*
X71512499Y-87406887D01*
X71456663Y-87126183D01*
X71456662Y-87126176D01*
X71347132Y-86861747D01*
X71347131Y-86861746D01*
X71347128Y-86861740D01*
X71188118Y-86623767D01*
X71188115Y-86623763D01*
X70985736Y-86421384D01*
X70985732Y-86421381D01*
X70747759Y-86262371D01*
X70747750Y-86262366D01*
X70483324Y-86152838D01*
X70483316Y-86152836D01*
X70202611Y-86097000D01*
X70202608Y-86097000D01*
X69821392Y-86097000D01*
X69821389Y-86097000D01*
X69540683Y-86152836D01*
X69540675Y-86152838D01*
X69276249Y-86262366D01*
X69276240Y-86262371D01*
X69038267Y-86421381D01*
X69038263Y-86421384D01*
X68835884Y-86623763D01*
X68835881Y-86623767D01*
X68676871Y-86861740D01*
X68676866Y-86861749D01*
X68567338Y-87126175D01*
X68567336Y-87126183D01*
X68511500Y-87406887D01*
X67289000Y-87406887D01*
X67289000Y-82848000D01*
X67325319Y-82760319D01*
X67413000Y-82724000D01*
X72753000Y-82724000D01*
X72840681Y-82760319D01*
G37*
%TD.AperFunction*%
%TD*%
M02*
