%TF.GenerationSoftware,KiCad,Pcbnew,9.0.2*%
%TF.CreationDate,2025-05-19T15:54:50+02:00*%
%TF.ProjectId,ESC-TFG-KiCad,4553432d-5446-4472-9d4b-694361642e6b,v1.0*%
%TF.SameCoordinates,Original*%
%TF.FileFunction,Copper,L4,Bot*%
%TF.FilePolarity,Positive*%
%FSLAX46Y46*%
G04 Gerber Fmt 4.6, Leading zero omitted, Abs format (unit mm)*
G04 Created by KiCad (PCBNEW 9.0.2) date 2025-05-19 15:54:50*
%MOMM*%
%LPD*%
G01*
G04 APERTURE LIST*
G04 Aperture macros list*
%AMRoundRect*
0 Rectangle with rounded corners*
0 $1 Rounding radius*
0 $2 $3 $4 $5 $6 $7 $8 $9 X,Y pos of 4 corners*
0 Add a 4 corners polygon primitive as box body*
4,1,4,$2,$3,$4,$5,$6,$7,$8,$9,$2,$3,0*
0 Add four circle primitives for the rounded corners*
1,1,$1+$1,$2,$3*
1,1,$1+$1,$4,$5*
1,1,$1+$1,$6,$7*
1,1,$1+$1,$8,$9*
0 Add four rect primitives between the rounded corners*
20,1,$1+$1,$2,$3,$4,$5,0*
20,1,$1+$1,$4,$5,$6,$7,0*
20,1,$1+$1,$6,$7,$8,$9,0*
20,1,$1+$1,$8,$9,$2,$3,0*%
G04 Aperture macros list end*
%TA.AperFunction,ComponentPad*%
%ADD10C,2.900000*%
%TD*%
%TA.AperFunction,ConnectorPad*%
%ADD11C,5.000000*%
%TD*%
%TA.AperFunction,ComponentPad*%
%ADD12R,1.000000X1.000000*%
%TD*%
%TA.AperFunction,ComponentPad*%
%ADD13C,1.000000*%
%TD*%
%TA.AperFunction,ComponentPad*%
%ADD14R,1.700000X1.700000*%
%TD*%
%TA.AperFunction,ComponentPad*%
%ADD15O,1.700000X1.700000*%
%TD*%
%TA.AperFunction,ComponentPad*%
%ADD16R,2.000000X1.905000*%
%TD*%
%TA.AperFunction,ComponentPad*%
%ADD17O,2.000000X1.905000*%
%TD*%
%TA.AperFunction,ComponentPad*%
%ADD18R,1.905000X2.000000*%
%TD*%
%TA.AperFunction,ComponentPad*%
%ADD19O,1.905000X2.000000*%
%TD*%
%TA.AperFunction,ComponentPad*%
%ADD20C,0.800000*%
%TD*%
%TA.AperFunction,ComponentPad*%
%ADD21C,6.400000*%
%TD*%
%TA.AperFunction,HeatsinkPad*%
%ADD22O,1.000000X2.100000*%
%TD*%
%TA.AperFunction,HeatsinkPad*%
%ADD23O,1.000000X1.600000*%
%TD*%
%TA.AperFunction,ComponentPad*%
%ADD24R,2.400000X2.400000*%
%TD*%
%TA.AperFunction,ComponentPad*%
%ADD25C,2.400000*%
%TD*%
%TA.AperFunction,ComponentPad*%
%ADD26RoundRect,0.250000X-0.350000X-0.625000X0.350000X-0.625000X0.350000X0.625000X-0.350000X0.625000X0*%
%TD*%
%TA.AperFunction,ComponentPad*%
%ADD27O,1.200000X1.750000*%
%TD*%
%TA.AperFunction,ComponentPad*%
%ADD28RoundRect,0.500000X-1.000000X-2.000000X1.000000X-2.000000X1.000000X2.000000X-1.000000X2.000000X0*%
%TD*%
%TA.AperFunction,ComponentPad*%
%ADD29O,3.000000X5.000000*%
%TD*%
%TA.AperFunction,ComponentPad*%
%ADD30C,3.000000*%
%TD*%
%TA.AperFunction,ViaPad*%
%ADD31C,0.800000*%
%TD*%
%TA.AperFunction,Conductor*%
%ADD32C,0.762000*%
%TD*%
%TA.AperFunction,Conductor*%
%ADD33C,0.254000*%
%TD*%
%TA.AperFunction,Conductor*%
%ADD34C,0.508000*%
%TD*%
%TA.AperFunction,Conductor*%
%ADD35C,0.250000*%
%TD*%
%TA.AperFunction,Conductor*%
%ADD36C,1.016000*%
%TD*%
G04 APERTURE END LIST*
D10*
%TO.P,J8,1,Pin_1*%
%TO.N,Net-(D19-A2)*%
X205973000Y-100504000D03*
D11*
X205973000Y-100504000D03*
%TD*%
D12*
%TO.P,TH5,1*%
%TO.N,/Sensores/T5*%
X119040980Y-100250000D03*
D13*
%TO.P,TH5,2*%
%TO.N,GND*%
X117770980Y-100250000D03*
%TD*%
D14*
%TO.P,L2,1,1*%
%TO.N,+5V*%
X96774250Y-96059000D03*
D15*
%TO.P,L2,2,2*%
%TO.N,Net-(Q1-D)*%
X96774250Y-98599000D03*
%TD*%
D16*
%TO.P,U2,1,ADJ*%
%TO.N,/V_DIV_12*%
X218490000Y-96208000D03*
D17*
%TO.P,U2,2,VO*%
%TO.N,+12V*%
X218490000Y-98748000D03*
%TO.P,U2,3,VI*%
%TO.N,+24V*%
X218490000Y-101288000D03*
%TD*%
D10*
%TO.P,J7,1,Pin_1*%
%TO.N,/Medio-Puente-W/PHASE_OUT*%
X194161000Y-67235001D03*
D11*
X194161000Y-67235001D03*
%TD*%
D12*
%TO.P,TH1,1*%
%TO.N,/Sensores/T1*%
X105832980Y-100250000D03*
D13*
%TO.P,TH1,2*%
%TO.N,GND*%
X104562980Y-100250000D03*
%TD*%
D18*
%TO.P,Q4,1,G*%
%TO.N,Net-(Q4-G)*%
X135487000Y-67220000D03*
D19*
%TO.P,Q4,2,D*%
%TO.N,+24V*%
X138027000Y-67220000D03*
%TO.P,Q4,3,S*%
%TO.N,/Medio-Puente-V/PHASE_OUT*%
X140567000Y-67220000D03*
%TD*%
D20*
%TO.P,H1,1,1*%
%TO.N,GND*%
X68953000Y-115490000D03*
X69655944Y-113792944D03*
X69655944Y-117187056D03*
X71353000Y-113090000D03*
D21*
X71353000Y-115490000D03*
D20*
X71353000Y-117890000D03*
X73050056Y-113792944D03*
X73050056Y-117187056D03*
X73753000Y-115490000D03*
%TD*%
D12*
%TO.P,TH4,1*%
%TO.N,/Sensores/T4*%
X115738980Y-100250000D03*
D13*
%TO.P,TH4,2*%
%TO.N,GND*%
X114468980Y-100250000D03*
%TD*%
D22*
%TO.P,J2,S1,SHIELD*%
%TO.N,unconnected-(J2-SHIELD-PadS1)_1*%
X140033000Y-113051000D03*
D23*
%TO.N,unconnected-(J2-SHIELD-PadS1)_2*%
X140033000Y-117231000D03*
D22*
%TO.N,unconnected-(J2-SHIELD-PadS1)_3*%
X148673000Y-113051000D03*
D23*
%TO.N,unconnected-(J2-SHIELD-PadS1)*%
X148673000Y-117231000D03*
%TD*%
D18*
%TO.P,Q3,1,G*%
%TO.N,Net-(Q3-G)*%
X107293000Y-67220000D03*
D19*
%TO.P,Q3,2,D*%
%TO.N,/Medio-Puente-U/PHASE_OUT*%
X109833000Y-67220000D03*
%TO.P,Q3,3,S*%
%TO.N,/Medio-Puente-U/Shunt*%
X112373000Y-67220000D03*
%TD*%
D10*
%TO.P,J5,1,Pin_1*%
%TO.N,/Medio-Puente-U/PHASE_OUT*%
X101705000Y-67291000D03*
D11*
X101705000Y-67291000D03*
%TD*%
D24*
%TO.P,C25,1*%
%TO.N,+24V*%
X82148000Y-74205000D03*
D25*
%TO.P,C25,2*%
%TO.N,GND*%
X82148000Y-79205000D03*
%TD*%
D18*
%TO.P,Q7,1,G*%
%TO.N,Net-(Q7-G)*%
X199749000Y-67164001D03*
D19*
%TO.P,Q7,2,D*%
%TO.N,/Medio-Puente-W/PHASE_OUT*%
X202289000Y-67164001D03*
%TO.P,Q7,3,S*%
%TO.N,/Medio-Puente-W/Shunt*%
X204829000Y-67164001D03*
%TD*%
D20*
%TO.P,H3,1,1*%
%TO.N,GND*%
X214953000Y-68490000D03*
X215655944Y-66792944D03*
X215655944Y-70187056D03*
X217353000Y-66090000D03*
D21*
X217353000Y-68490000D03*
D20*
X217353000Y-70890000D03*
X219050056Y-66792944D03*
X219050056Y-70187056D03*
X219753000Y-68490000D03*
%TD*%
D14*
%TO.P,J3,1,Pin_1*%
%TO.N,GND*%
X121153000Y-107340000D03*
D15*
%TO.P,J3,2,Pin_2*%
X121153000Y-109880000D03*
%TO.P,J3,3,Pin_3*%
%TO.N,/SWSCK*%
X118613000Y-107340000D03*
%TO.P,J3,4,Pin_4*%
%TO.N,/I2C_SCL*%
X118613000Y-109880000D03*
%TO.P,J3,5,Pin_5*%
%TO.N,/SWDIO*%
X116073000Y-107340000D03*
%TO.P,J3,6,Pin_6*%
%TO.N,/I2C_SDA*%
X116073000Y-109880000D03*
%TO.P,J3,7,Pin_7*%
%TO.N,+3V3*%
X113533000Y-107340000D03*
%TO.P,J3,8,Pin_8*%
X113533000Y-109880000D03*
%TD*%
D12*
%TO.P,TH3,1*%
%TO.N,/Sensores/T3*%
X112436980Y-100250000D03*
D13*
%TO.P,TH3,2*%
%TO.N,GND*%
X111166980Y-100250000D03*
%TD*%
D16*
%TO.P,D12,1,A*%
%TO.N,/24V fused*%
X70012000Y-90090000D03*
D17*
%TO.P,D12,2,K*%
%TO.N,+24V*%
X70012000Y-87550000D03*
%TO.P,D12,3,A*%
%TO.N,/24V fused*%
X70012000Y-85010000D03*
%TD*%
D20*
%TO.P,H2,1,1*%
%TO.N,GND*%
X68953000Y-68490000D03*
X69655944Y-66792944D03*
X69655944Y-70187056D03*
X71353000Y-66090000D03*
D21*
X71353000Y-68490000D03*
D20*
X71353000Y-70890000D03*
X73050056Y-66792944D03*
X73050056Y-70187056D03*
X73753000Y-68490000D03*
%TD*%
D26*
%TO.P,J1,1,Pin_1*%
%TO.N,GND*%
X167353000Y-113640000D03*
D27*
%TO.P,J1,2,Pin_2*%
%TO.N,/PB3*%
X169353000Y-113640000D03*
%TO.P,J1,3,Pin_3*%
%TO.N,/PB4*%
X171353000Y-113640000D03*
%TO.P,J1,4,Pin_4*%
%TO.N,/PB5*%
X173353000Y-113640000D03*
%TO.P,J1,5,Pin_5*%
%TO.N,+3V3*%
X175353000Y-113640000D03*
%TD*%
D10*
%TO.P,J6,1,Pin_1*%
%TO.N,/Medio-Puente-V/PHASE_OUT*%
X147933000Y-67291001D03*
D11*
X147933000Y-67291001D03*
%TD*%
D28*
%TO.P,J9,1,Pin_1*%
%TO.N,Net-(D29-A2)*%
X186853200Y-108190000D03*
D29*
%TO.P,J9,2,Pin_2*%
%TO.N,Net-(D24-A2)*%
X196353200Y-108190000D03*
%TO.P,J9,3,Pin_3*%
%TO.N,Net-(D19-A2)*%
X205853000Y-108180000D03*
%TD*%
D24*
%TO.P,C45,1*%
%TO.N,+24V*%
X174604000Y-74149000D03*
D25*
%TO.P,C45,2*%
%TO.N,GND*%
X174604000Y-79149000D03*
%TD*%
D10*
%TO.P,J10,1,Pin_1*%
%TO.N,Net-(D24-A2)*%
X196321000Y-100504000D03*
D11*
X196321000Y-100504000D03*
%TD*%
D18*
%TO.P,Q2,1,G*%
%TO.N,Net-(Q2-G)*%
X89259000Y-67220000D03*
D19*
%TO.P,Q2,2,D*%
%TO.N,+24V*%
X91799000Y-67220000D03*
%TO.P,Q2,3,S*%
%TO.N,/Medio-Puente-U/PHASE_OUT*%
X94339000Y-67220000D03*
%TD*%
D18*
%TO.P,Q6,1,G*%
%TO.N,Net-(Q6-G)*%
X181715000Y-67164000D03*
D19*
%TO.P,Q6,2,D*%
%TO.N,+24V*%
X184255000Y-67164000D03*
%TO.P,Q6,3,S*%
%TO.N,/Medio-Puente-W/PHASE_OUT*%
X186795000Y-67164000D03*
%TD*%
D30*
%TO.P,F2,1*%
%TO.N,/24V in*%
X72193000Y-107690000D03*
X75593000Y-107690000D03*
%TO.P,F2,2*%
%TO.N,/24V fused*%
X72193000Y-97890000D03*
X75593000Y-97890000D03*
%TD*%
D12*
%TO.P,TH6,1*%
%TO.N,/Sensores/T6*%
X122342980Y-100250000D03*
D13*
%TO.P,TH6,2*%
%TO.N,GND*%
X121072980Y-100250000D03*
%TD*%
D20*
%TO.P,H4,1,1*%
%TO.N,GND*%
X214953000Y-115490000D03*
X215655944Y-113792944D03*
X215655944Y-117187056D03*
X217353000Y-113090000D03*
D21*
X217353000Y-115490000D03*
D20*
X217353000Y-117890000D03*
X219050056Y-113792944D03*
X219050056Y-117187056D03*
X219753000Y-115490000D03*
%TD*%
D28*
%TO.P,J4,1,Pin_1*%
%TO.N,/24V in*%
X84603000Y-108134000D03*
D29*
%TO.P,J4,2,Pin_2*%
%TO.N,GND*%
X94103000Y-108134000D03*
%TD*%
D10*
%TO.P,J11,1,Pin_1*%
%TO.N,Net-(D29-A2)*%
X186923000Y-100504000D03*
D11*
X186923000Y-100504000D03*
%TD*%
D12*
%TO.P,TH2,1*%
%TO.N,/Sensores/T2*%
X109134980Y-100250000D03*
D13*
%TO.P,TH2,2*%
%TO.N,GND*%
X107864980Y-100250000D03*
%TD*%
D24*
%TO.P,C35,1*%
%TO.N,+24V*%
X128376000Y-74205000D03*
D25*
%TO.P,C35,2*%
%TO.N,GND*%
X128376000Y-79205000D03*
%TD*%
D18*
%TO.P,Q5,1,G*%
%TO.N,Net-(Q5-G)*%
X153521000Y-67220001D03*
D19*
%TO.P,Q5,2,D*%
%TO.N,/Medio-Puente-V/PHASE_OUT*%
X156061000Y-67220001D03*
%TO.P,Q5,3,S*%
%TO.N,/Medio-Puente-V/Shunt*%
X158601000Y-67220001D03*
%TD*%
D31*
%TO.N,GND*%
X78465000Y-86534000D03*
X102595000Y-118792000D03*
X82529000Y-69262000D03*
X210545000Y-112950000D03*
X132821000Y-65198000D03*
X204576000Y-79681000D03*
X208513000Y-114982000D03*
X118851000Y-114728000D03*
X77957000Y-114728000D03*
X190225000Y-102790000D03*
X151109000Y-117776000D03*
X151170000Y-78656000D03*
X177017000Y-79930000D03*
X80497000Y-69262000D03*
X202417000Y-90598000D03*
X124693000Y-69262000D03*
X163809000Y-108378000D03*
X178033000Y-95424000D03*
X82021000Y-114728000D03*
X136377000Y-115744000D03*
X167873000Y-101520000D03*
X202417000Y-106854000D03*
X200385000Y-119046000D03*
X86085000Y-118792000D03*
X168889000Y-81962000D03*
X180065000Y-114982000D03*
X206481000Y-117014000D03*
X176001000Y-108378000D03*
X170921000Y-65198000D03*
X200385000Y-112950000D03*
X92181000Y-104568000D03*
X98277000Y-110664000D03*
X190225000Y-96694000D03*
X138917000Y-89074000D03*
X161777000Y-115236000D03*
X96245000Y-108632000D03*
X198353000Y-112950000D03*
X159364000Y-79737000D03*
X97641000Y-81515000D03*
X190225000Y-110918000D03*
X92181000Y-114728000D03*
X112119000Y-80753000D03*
X162031000Y-100504000D03*
X151109000Y-115744000D03*
X113135000Y-77705000D03*
X165841000Y-101520000D03*
X166475000Y-82023000D03*
X116057000Y-118792000D03*
X184129000Y-114982000D03*
X197398000Y-78600000D03*
X190097000Y-81459000D03*
X192257000Y-98726000D03*
X130154000Y-117903000D03*
X78465000Y-84502000D03*
X76433000Y-67230000D03*
X212577000Y-102536000D03*
X124185000Y-115744000D03*
X98277000Y-116760000D03*
X121137000Y-88566000D03*
X86085000Y-114728000D03*
X78465000Y-69262000D03*
X172953000Y-69262000D03*
X188193000Y-117014000D03*
X176001000Y-93392000D03*
X146283000Y-117014000D03*
X181081000Y-77898000D03*
X80497000Y-88566000D03*
X202417000Y-119046000D03*
X115167000Y-82531000D03*
X176001000Y-106092000D03*
X124693000Y-67230000D03*
X205592000Y-79681000D03*
X212577000Y-110664000D03*
X194289000Y-112950000D03*
X192257000Y-114982000D03*
X178033000Y-93392000D03*
X204449000Y-112950000D03*
X140949000Y-89074000D03*
X190225000Y-98726000D03*
X183113000Y-79930000D03*
X202417000Y-108886000D03*
X148888000Y-90025000D03*
X182097000Y-103806000D03*
X128757000Y-65198000D03*
X75925000Y-114728000D03*
X146283000Y-114982000D03*
X75925000Y-118792000D03*
X160380000Y-78721000D03*
X202417000Y-102790000D03*
X78465000Y-80438000D03*
X96245000Y-106600000D03*
X179049000Y-69262000D03*
X180065000Y-93392000D03*
X90149000Y-110664000D03*
X178033000Y-110664000D03*
X136885000Y-113966000D03*
X151109000Y-107616000D03*
X142981000Y-94154000D03*
X84561000Y-86534000D03*
X180065000Y-108378000D03*
X147045000Y-89074000D03*
X102849000Y-90598000D03*
X94213000Y-118792000D03*
X200385000Y-100758000D03*
X119105000Y-88566000D03*
X136885000Y-81962000D03*
X179049000Y-65198000D03*
X202417000Y-92630000D03*
X108231500Y-118967500D03*
X84561000Y-90598000D03*
X90657000Y-92630000D03*
X98277000Y-108632000D03*
X98785000Y-88566000D03*
X163490000Y-97772000D03*
X114151000Y-77705000D03*
X196321000Y-89074000D03*
X152314000Y-82340000D03*
X88117000Y-116760000D03*
X174985000Y-67230000D03*
X106086000Y-82340000D03*
X124693000Y-81962000D03*
X96245000Y-110664000D03*
X149394000Y-108378000D03*
X98277000Y-118792000D03*
X138409000Y-117776000D03*
X113135000Y-79737000D03*
X138917000Y-91106000D03*
X98277000Y-112696000D03*
X86593000Y-67230000D03*
X82021000Y-112696000D03*
X98277000Y-114728000D03*
X90657000Y-90598000D03*
X190225000Y-90598000D03*
X176001000Y-101520000D03*
X78465000Y-82470000D03*
X212703000Y-81967000D03*
X171937000Y-101520000D03*
X214990000Y-84184000D03*
X206608000Y-77649000D03*
X136885000Y-98218000D03*
X86085000Y-112696000D03*
X82529000Y-86534000D03*
X192257000Y-94662000D03*
X158348000Y-78721000D03*
X204449000Y-117014000D03*
X205973000Y-89074000D03*
X207623000Y-82475000D03*
X173969000Y-91360000D03*
X90657000Y-78406000D03*
X182097000Y-95424000D03*
X126725000Y-100758000D03*
X151109000Y-113712000D03*
X88625000Y-65198000D03*
X170921000Y-67230000D03*
X200385000Y-90598000D03*
X84561000Y-88566000D03*
X150509393Y-96909190D03*
X192257000Y-106854000D03*
X82529000Y-88566000D03*
X180065000Y-119046000D03*
X100817000Y-88566000D03*
X114151000Y-80753000D03*
X88625000Y-84502000D03*
X134853000Y-81962000D03*
X177017000Y-81962000D03*
X147045000Y-91106000D03*
X138917000Y-98218000D03*
X84561000Y-84502000D03*
X115041000Y-88566000D03*
X210545000Y-114982000D03*
X170921000Y-69262000D03*
X79989000Y-118792000D03*
X98785000Y-90598000D03*
X192257000Y-102790000D03*
X200385000Y-108886000D03*
X92181000Y-110664000D03*
X206608000Y-79681000D03*
X170921000Y-81962000D03*
X114025000Y-116760000D03*
X208513000Y-96440000D03*
X122661000Y-69262000D03*
X110977000Y-88566000D03*
X121137000Y-114728000D03*
X158348000Y-77705000D03*
X158348000Y-80753000D03*
X144251000Y-117014000D03*
X76433000Y-84502000D03*
X126725000Y-81962000D03*
X155173000Y-105838000D03*
X204576000Y-77649000D03*
X144251000Y-114982000D03*
X202417000Y-114982000D03*
X100817000Y-90598000D03*
X128249000Y-115744000D03*
X114025000Y-114728000D03*
X77957000Y-112696000D03*
X122661000Y-67230000D03*
X210545000Y-117014000D03*
X82021000Y-116760000D03*
X212577000Y-119046000D03*
X76433000Y-88566000D03*
X165841000Y-106092000D03*
X196321000Y-112950000D03*
X160634000Y-107235000D03*
X200385000Y-102790000D03*
X134853000Y-98218000D03*
X177017000Y-65198000D03*
X76433000Y-82470000D03*
X202417000Y-96694000D03*
X179049000Y-79930000D03*
X190225000Y-119046000D03*
X180065000Y-117014000D03*
X178033000Y-108378000D03*
X179049000Y-81962000D03*
X186161000Y-112950000D03*
X88117000Y-110664000D03*
X80497000Y-65198000D03*
X92689000Y-92630000D03*
X169905000Y-101520000D03*
X180065000Y-110664000D03*
X161395000Y-80753000D03*
X90055000Y-100303500D03*
X182097000Y-108378000D03*
X180065000Y-101520000D03*
X76433000Y-86534000D03*
X88625000Y-86534000D03*
X88625000Y-80438000D03*
X90149000Y-106600000D03*
X182097000Y-99488000D03*
X212577000Y-112950000D03*
X92689000Y-86534000D03*
X212577000Y-108632000D03*
X80497000Y-67230000D03*
X202417000Y-112950000D03*
X137393000Y-106600000D03*
X88625000Y-92630000D03*
X208513000Y-117014000D03*
X161777000Y-105838000D03*
X192257000Y-119046000D03*
X184129000Y-112950000D03*
X190225000Y-108886000D03*
X113009000Y-88566000D03*
X86593000Y-88566000D03*
X136885000Y-79930000D03*
X144378000Y-108555800D03*
X168889000Y-79930000D03*
X112119000Y-78721000D03*
X163809000Y-115236000D03*
X210545000Y-108632000D03*
X194289000Y-114982000D03*
X130789000Y-67230000D03*
X114025000Y-118792000D03*
X160761000Y-113839000D03*
X90149000Y-104568000D03*
X94213000Y-112696000D03*
X92181000Y-112696000D03*
X135615000Y-96948000D03*
X212577000Y-117014000D03*
X82529000Y-82470000D03*
X139362000Y-108441000D03*
X172953000Y-67230000D03*
X178033000Y-106092000D03*
X84561000Y-78406000D03*
X163809000Y-117522000D03*
X159413000Y-98661000D03*
X190225000Y-94662000D03*
X130408000Y-94154000D03*
X132313000Y-117776000D03*
X92181000Y-116760000D03*
X122661000Y-81962000D03*
X173969000Y-89328000D03*
X217149000Y-94557000D03*
X88117000Y-108632000D03*
X84561000Y-67230000D03*
X86085000Y-116760000D03*
X208513000Y-90344000D03*
X88117000Y-118792000D03*
X202417000Y-94662000D03*
X180065000Y-99488000D03*
X160380000Y-79737000D03*
X161395000Y-82531000D03*
X142473000Y-101520000D03*
X214863000Y-86810000D03*
X210545000Y-104568000D03*
X198353000Y-114982000D03*
X132821000Y-79930000D03*
X124693000Y-77898000D03*
X135939208Y-89184000D03*
X113135000Y-78721000D03*
X212577000Y-114982000D03*
X80497000Y-82470000D03*
X212577000Y-100504000D03*
X138409000Y-115744000D03*
X163809000Y-106092000D03*
X183113000Y-81962000D03*
X86593000Y-82470000D03*
X90657000Y-86534000D03*
X168279400Y-109800400D03*
X177017000Y-67230000D03*
X208513000Y-92376000D03*
X130281000Y-115744000D03*
X138966870Y-111567870D03*
X96753000Y-86534000D03*
X120247000Y-82023000D03*
X159101000Y-109775000D03*
X132821000Y-81962000D03*
X146791000Y-101520000D03*
X134853000Y-65198000D03*
X145013000Y-94154000D03*
X83513000Y-100885000D03*
X132821000Y-77898000D03*
X188193000Y-119046000D03*
X128757000Y-69262000D03*
X78465000Y-88566000D03*
X180065000Y-97456000D03*
X91546000Y-77517000D03*
X136123000Y-101520000D03*
X88625000Y-78406000D03*
X124693000Y-65198000D03*
X76433000Y-65198000D03*
X137775000Y-77478000D03*
X178033000Y-103806000D03*
X176001000Y-89328000D03*
X210545000Y-106600000D03*
X132059000Y-96186000D03*
X80497000Y-86534000D03*
X204576000Y-78665000D03*
X145013000Y-89074000D03*
X190225000Y-114982000D03*
X168889000Y-65198000D03*
X92181000Y-118792000D03*
X190225000Y-112950000D03*
X96245000Y-114728000D03*
X206608000Y-78665000D03*
X192257000Y-110918000D03*
X90149000Y-116760000D03*
X178033000Y-97456000D03*
X84053000Y-114728000D03*
X94213000Y-116760000D03*
X198353000Y-117014000D03*
X165841000Y-108378000D03*
X98785000Y-92630000D03*
X200385000Y-104822000D03*
X176001000Y-103806000D03*
X204576000Y-80697000D03*
X206481000Y-119046000D03*
X130027000Y-98218000D03*
X90149000Y-108632000D03*
X142981000Y-96186000D03*
X142219000Y-114982000D03*
X138917000Y-96186000D03*
X90657000Y-80438000D03*
X190225000Y-104822000D03*
X131932000Y-107489000D03*
X172953000Y-81962000D03*
X128757000Y-81962000D03*
X176001000Y-97456000D03*
X202417000Y-110918000D03*
X176001000Y-95424000D03*
X124693000Y-79930000D03*
X86593000Y-90598000D03*
X83545000Y-93519000D03*
X200385000Y-106854000D03*
X130789000Y-79930000D03*
X92689000Y-90598000D03*
X128757000Y-67230000D03*
X210545000Y-90344000D03*
X153903000Y-102536000D03*
X192257000Y-104822000D03*
X90657000Y-82470000D03*
X200385000Y-114982000D03*
X92689000Y-88566000D03*
X192257000Y-117014000D03*
X117073000Y-88566000D03*
X130789000Y-69262000D03*
X207623000Y-80697000D03*
X146791000Y-105584000D03*
X96753000Y-92630000D03*
X77957000Y-116760000D03*
X200385000Y-117014000D03*
X86593000Y-80438000D03*
X190225000Y-106854000D03*
X139425000Y-106600000D03*
X208513000Y-94408000D03*
X88117000Y-112696000D03*
X173969000Y-101520000D03*
X114151000Y-78721000D03*
X94721000Y-92630000D03*
X168889000Y-77898000D03*
X208513000Y-119046000D03*
X163809000Y-110664000D03*
X140949000Y-91106000D03*
X160380000Y-80753000D03*
X194289000Y-119046000D03*
X88117000Y-114728000D03*
X173969000Y-97456000D03*
X115803000Y-112442000D03*
X122661000Y-79930000D03*
X204449000Y-114982000D03*
X122661000Y-65198000D03*
X115167000Y-80753000D03*
X149705000Y-111546000D03*
X130027000Y-96186000D03*
X151109000Y-109648000D03*
X206481000Y-114982000D03*
X178033000Y-114982000D03*
X159364000Y-78721000D03*
X198542000Y-82284000D03*
X180065000Y-91360000D03*
X142981000Y-91106000D03*
X80497000Y-84502000D03*
X148823000Y-105584000D03*
X174985000Y-69262000D03*
X138917000Y-94154000D03*
X194289000Y-117014000D03*
X200385000Y-96694000D03*
X84561000Y-65198000D03*
X151109000Y-111680000D03*
X132821000Y-69262000D03*
X88625000Y-88566000D03*
X182097000Y-93392000D03*
X82529000Y-90598000D03*
X138409000Y-101520000D03*
X130789000Y-81962000D03*
X215244000Y-106495000D03*
X86593000Y-84502000D03*
X210545000Y-110664000D03*
X202417000Y-98726000D03*
X181081000Y-81962000D03*
X178033000Y-89328000D03*
X182097000Y-91360000D03*
X98277000Y-104568000D03*
X192257000Y-112950000D03*
X202417000Y-100758000D03*
X77957000Y-118792000D03*
X126084347Y-117897347D03*
X118089000Y-118792000D03*
X163809000Y-112950000D03*
X132048699Y-90989301D03*
X108691000Y-106600000D03*
X88625000Y-90598000D03*
X129541000Y-110642000D03*
X212577000Y-104568000D03*
X88117000Y-104568000D03*
X186161000Y-117014000D03*
X90149000Y-114728000D03*
X188193000Y-114982000D03*
X188193000Y-112950000D03*
X130789000Y-77898000D03*
X96245000Y-112696000D03*
X180065000Y-89328000D03*
X82529000Y-67230000D03*
X205592000Y-78665000D03*
X180065000Y-106092000D03*
X132313000Y-115744000D03*
X205592000Y-77649000D03*
X159364000Y-80753000D03*
X182097000Y-106092000D03*
X182097000Y-89328000D03*
X126725000Y-69262000D03*
X176001000Y-91360000D03*
X210545000Y-94408000D03*
X108945000Y-88566000D03*
X215244000Y-110686000D03*
X210545000Y-100504000D03*
X202417000Y-104822000D03*
X90657000Y-88566000D03*
X121137000Y-112442000D03*
X78465000Y-65198000D03*
X200385000Y-92630000D03*
X90657000Y-84502000D03*
X178033000Y-112950000D03*
X136377000Y-117776000D03*
X134853000Y-79930000D03*
X86593000Y-86534000D03*
X177017000Y-77898000D03*
X182097000Y-119046000D03*
X132821000Y-67230000D03*
X186161000Y-119046000D03*
X110723000Y-111426000D03*
X79989000Y-116760000D03*
X140949000Y-98218000D03*
X192257000Y-100758000D03*
X106913000Y-88566000D03*
X75925000Y-116760000D03*
X192257000Y-108886000D03*
X146791000Y-107616000D03*
X84053000Y-118792000D03*
X192257000Y-92630000D03*
X170921000Y-77898000D03*
X141457000Y-106600000D03*
X161777000Y-110664000D03*
X104942000Y-78656000D03*
X206481000Y-112950000D03*
X190225000Y-100758000D03*
X84561000Y-69262000D03*
X186923000Y-89074000D03*
X204449000Y-119046000D03*
X96245000Y-104568000D03*
X122661000Y-77898000D03*
X104119000Y-117544000D03*
X159364000Y-77705000D03*
X90149000Y-118792000D03*
X126725000Y-65198000D03*
X182097000Y-112950000D03*
X98277000Y-106600000D03*
X98785000Y-86534000D03*
X116057000Y-116760000D03*
X96753000Y-90598000D03*
X126725000Y-67230000D03*
X205592000Y-80697000D03*
X132059000Y-98218000D03*
X210545000Y-98472000D03*
X79989000Y-112696000D03*
X206608000Y-80697000D03*
X140949000Y-96186000D03*
X114151000Y-79737000D03*
X113135000Y-80753000D03*
X180065000Y-112950000D03*
X182097000Y-117014000D03*
X94213000Y-114728000D03*
X182097000Y-101520000D03*
X76433000Y-69262000D03*
X190225000Y-117014000D03*
X168635000Y-108378000D03*
X210545000Y-96440000D03*
X102595000Y-108378000D03*
X172953000Y-65198000D03*
X168889000Y-69262000D03*
X196321000Y-114982000D03*
X171429000Y-106092000D03*
X168635000Y-106092000D03*
X178033000Y-91360000D03*
X96753000Y-88566000D03*
X210545000Y-102536000D03*
X178033000Y-119046000D03*
X88625000Y-82470000D03*
X192257000Y-96694000D03*
X164013347Y-92162347D03*
X111993000Y-118792000D03*
X82529000Y-84502000D03*
X190225000Y-92630000D03*
X170921000Y-79930000D03*
X75925000Y-112696000D03*
X102595000Y-112696000D03*
X182097000Y-97456000D03*
X88117000Y-106600000D03*
X200385000Y-94662000D03*
X82021000Y-118792000D03*
X178033000Y-99488000D03*
X196321000Y-117014000D03*
X161777000Y-117522000D03*
X142219000Y-117014000D03*
X184003000Y-77478000D03*
X102595000Y-106600000D03*
X202417000Y-117014000D03*
X178033000Y-101520000D03*
X82529000Y-65198000D03*
X173969000Y-106092000D03*
X143869000Y-81515000D03*
X200385000Y-98726000D03*
X184129000Y-119046000D03*
X142981000Y-98218000D03*
X140949000Y-94154000D03*
X94721000Y-88566000D03*
X174985000Y-65198000D03*
X173969000Y-99488000D03*
X134345000Y-117776000D03*
X86593000Y-69262000D03*
X208513000Y-110664000D03*
X168889000Y-67230000D03*
X153141000Y-113839000D03*
X173969000Y-108378000D03*
X112119000Y-79737000D03*
X126217000Y-115744000D03*
X84561000Y-80438000D03*
X160380000Y-77705000D03*
X169143000Y-89963000D03*
X182097000Y-110664000D03*
X173066000Y-95613000D03*
X111993000Y-116760000D03*
X84053000Y-116760000D03*
X112119000Y-77705000D03*
X79989000Y-114728000D03*
X96245000Y-116760000D03*
X198353000Y-119046000D03*
X78465000Y-67230000D03*
X134345000Y-115744000D03*
X118851000Y-112442000D03*
X179049000Y-67230000D03*
X181081000Y-79930000D03*
X90149000Y-112696000D03*
X192257000Y-90598000D03*
X179049000Y-77898000D03*
X182097000Y-114982000D03*
X210545000Y-119046000D03*
X196321000Y-119046000D03*
X181081000Y-65198000D03*
X134853000Y-77898000D03*
X208513000Y-112950000D03*
X84561000Y-82470000D03*
X111739000Y-102790000D03*
X186161000Y-114982000D03*
X200385000Y-110918000D03*
X177017000Y-69262000D03*
X174350000Y-109775000D03*
X184129000Y-117014000D03*
X84053000Y-112696000D03*
X96245000Y-118792000D03*
X176001000Y-99488000D03*
X130789000Y-65198000D03*
X140441000Y-101520000D03*
X104881000Y-88566000D03*
X210545000Y-92376000D03*
X180065000Y-95424000D03*
X178033000Y-117014000D03*
X86593000Y-65198000D03*
X94721000Y-86534000D03*
X214990000Y-81073000D03*
X158348000Y-79737000D03*
X173969000Y-93392000D03*
X212577000Y-106600000D03*
X94721000Y-90598000D03*
X180065000Y-103806000D03*
X102849000Y-88566000D03*
X86593000Y-78406000D03*
X174985000Y-81962000D03*
%TO.N,+3V3*%
X110248980Y-94310000D03*
X126598000Y-85198000D03*
X113517000Y-94343980D03*
X124591400Y-98421200D03*
X106877980Y-94310000D03*
X162597847Y-91291847D03*
X137348500Y-91084000D03*
X153076000Y-97658000D03*
X159101000Y-116379000D03*
X212323000Y-85198000D03*
X160963000Y-97658000D03*
X103644980Y-94310000D03*
X153014000Y-107235000D03*
X120154980Y-94310000D03*
X153076000Y-90025000D03*
X148754000Y-99361000D03*
X167492000Y-85198000D03*
X116852980Y-94310000D03*
%TO.N,/BOOT0*%
X157777000Y-112632000D03*
X157777000Y-100427800D03*
%TO.N,/NRST*%
X159364000Y-105711000D03*
X164825000Y-91233000D03*
%TO.N,/Sensores/12V_SENS*%
X209021000Y-88058000D03*
X126336183Y-89574183D03*
%TO.N,/SWSCK*%
X149516400Y-97645000D03*
%TO.N,/SWDIO*%
X149516400Y-96129402D03*
%TO.N,/PB7*%
X93761500Y-93900000D03*
X156759000Y-98788000D03*
%TO.N,/I2C_SCL*%
X132821000Y-101012000D03*
X160442000Y-100439000D03*
%TO.N,/I2C_SDA*%
X160442000Y-98915000D03*
X134345000Y-101012000D03*
%TO.N,+12V*%
X140060000Y-83640000D03*
X186288000Y-83674000D03*
X93832000Y-83640000D03*
%TO.N,+24V*%
X220963000Y-81073000D03*
X83545000Y-95424000D03*
%TO.N,/Sensores/24V_SENS*%
X126344000Y-88566000D03*
X209021000Y-87057997D03*
%TO.N,/24V fused*%
X73512000Y-93392000D03*
X71226000Y-95678000D03*
X69067000Y-97837000D03*
X69067000Y-93392000D03*
X69067000Y-95678000D03*
X80116000Y-95678000D03*
X73512000Y-95678000D03*
X77830000Y-95678000D03*
X75798000Y-95678000D03*
X71226000Y-93392000D03*
%TO.N,/24V in*%
X82021000Y-109902000D03*
X77957000Y-109902000D03*
X79989000Y-109902000D03*
X69829000Y-109902000D03*
X75925000Y-105330000D03*
X79989000Y-107616000D03*
X79989000Y-105330000D03*
X75925000Y-109902000D03*
X71861000Y-109902000D03*
X69829000Y-107616000D03*
X82021000Y-105330000D03*
X73893000Y-105330000D03*
X69829000Y-105330000D03*
X82021000Y-107616000D03*
X77957000Y-105330000D03*
X77957000Y-107616000D03*
X73893000Y-109902000D03*
X71861000Y-105330000D03*
%TO.N,VDC*%
X141908000Y-111115000D03*
X147299000Y-111172000D03*
%TD*%
D32*
%TO.N,+3V3*%
X113533000Y-109880000D02*
X113533000Y-107340000D01*
D33*
X137348500Y-91084000D02*
X137348500Y-92674500D01*
D34*
X153076000Y-90025000D02*
X153076000Y-97658000D01*
D33*
X153190000Y-97658000D02*
X153076000Y-97658000D01*
D35*
X148754000Y-99361000D02*
X151373000Y-99361000D01*
D32*
X124591400Y-92782400D02*
X124591400Y-87204600D01*
D34*
X137799400Y-92757000D02*
X124616800Y-92757000D01*
D32*
X124591400Y-87204600D02*
X126598000Y-85198000D01*
D34*
X151373000Y-105594000D02*
X153014000Y-107235000D01*
D35*
X160963000Y-92926694D02*
X160963000Y-97658000D01*
D34*
X151373000Y-99361000D02*
X151373000Y-105594000D01*
D33*
X120154980Y-94310000D02*
X124591400Y-94310000D01*
D34*
X124616800Y-92757000D02*
X124591400Y-92782400D01*
X137799400Y-92757000D02*
X153076000Y-92757000D01*
D32*
X167492000Y-85198000D02*
X212323000Y-85198000D01*
X122838800Y-103120200D02*
X114812400Y-103120200D01*
D33*
X160963000Y-97658000D02*
X153190000Y-97658000D01*
D34*
X137266000Y-92757000D02*
X137799400Y-92757000D01*
X151373000Y-99361000D02*
X153076000Y-97658000D01*
D33*
X116852980Y-94310000D02*
X120154980Y-94310000D01*
D32*
X113533000Y-104399600D02*
X113533000Y-107340000D01*
D34*
X153014000Y-107235000D02*
X153014000Y-110292000D01*
D33*
X124591400Y-94310000D02*
X124591400Y-98421200D01*
X103644980Y-94310000D02*
X116852980Y-94310000D01*
X137348500Y-92674500D02*
X137266000Y-92757000D01*
D32*
X124591400Y-98421200D02*
X124591400Y-94357200D01*
X124591400Y-101367600D02*
X122838800Y-103120200D01*
X124591400Y-98421200D02*
X124591400Y-101367600D01*
X114812400Y-103120200D02*
X113533000Y-104399600D01*
X124591400Y-94357200D02*
X124591400Y-92782400D01*
D35*
X162597847Y-91291847D02*
X160963000Y-92926694D01*
D34*
X153014000Y-110292000D02*
X159101000Y-116379000D01*
D32*
X126598000Y-85198000D02*
X167492000Y-85198000D01*
X113533000Y-107340000D02*
X113517000Y-107324000D01*
D33*
X124591400Y-98421200D02*
X124679800Y-98509600D01*
%TO.N,/BOOT0*%
X157777000Y-100427800D02*
X157777000Y-112632000D01*
%TO.N,/NRST*%
X159364000Y-105711000D02*
X164825000Y-100250000D01*
X164825000Y-100250000D02*
X164825000Y-91233000D01*
D35*
%TO.N,/Sensores/12V_SENS*%
X208132000Y-88058000D02*
X207878000Y-87804000D01*
X209021000Y-88058000D02*
X208132000Y-88058000D01*
X128132720Y-87804000D02*
X126362537Y-89574183D01*
X126362537Y-89574183D02*
X126336183Y-89574183D01*
X207878000Y-87804000D02*
X128132720Y-87804000D01*
D33*
%TO.N,/SWSCK*%
X125709000Y-104745800D02*
X130331800Y-100123000D01*
X143624468Y-100123000D02*
X146545468Y-97202000D01*
X118613000Y-107340000D02*
X121207200Y-104745800D01*
X146545468Y-97202000D02*
X149073400Y-97202000D01*
X121207200Y-104745800D02*
X125709000Y-104745800D01*
X149073400Y-97202000D02*
X149516400Y-97645000D01*
X130331800Y-100123000D02*
X143624468Y-100123000D01*
%TO.N,/SWDIO*%
X143436000Y-99668000D02*
X146537000Y-96567000D01*
X125520532Y-104290800D02*
X130143333Y-99668000D01*
X121018733Y-104290800D02*
X125520532Y-104290800D01*
X149078802Y-96567000D02*
X149516400Y-96129402D01*
X116073000Y-107340000D02*
X117768500Y-105644500D01*
X117768500Y-105644500D02*
X119665032Y-105644500D01*
X146537000Y-96567000D02*
X149078802Y-96567000D01*
X130143333Y-99668000D02*
X143436000Y-99668000D01*
X119665032Y-105644500D02*
X121018733Y-104290800D01*
%TO.N,/PB7*%
X111916800Y-110791000D02*
X111916800Y-105736400D01*
X158485800Y-119340000D02*
X120465800Y-119340000D01*
X156759000Y-98788000D02*
X156759000Y-113007452D01*
X156759000Y-113007452D02*
X159829000Y-116077452D01*
X159829000Y-116077452D02*
X159829000Y-117996800D01*
X99318400Y-93900000D02*
X93761500Y-93900000D01*
X102214000Y-102180400D02*
X100893200Y-100859600D01*
X100893200Y-100859600D02*
X100893200Y-95474800D01*
X120465800Y-119340000D02*
X111916800Y-110791000D01*
X111916800Y-105736400D02*
X108360800Y-102180400D01*
X108360800Y-102180400D02*
X102214000Y-102180400D01*
X159829000Y-117996800D02*
X158485800Y-119340000D01*
X100893200Y-95474800D02*
X99318400Y-93900000D01*
%TO.N,/I2C_SCL*%
X132821000Y-101012000D02*
X133329000Y-101520000D01*
X119861000Y-108632000D02*
X118613000Y-109880000D01*
X128240532Y-108632000D02*
X119861000Y-108632000D01*
X133329000Y-103543532D02*
X133329000Y-101520000D01*
X133329000Y-103543532D02*
X128240532Y-108632000D01*
%TO.N,/I2C_SDA*%
X133837000Y-103679000D02*
X126344000Y-111172000D01*
X126344000Y-111172000D02*
X117365000Y-111172000D01*
X133837000Y-103679000D02*
X133837000Y-101520000D01*
X134345000Y-101012000D02*
X133837000Y-101520000D01*
X117365000Y-111172000D02*
X116073000Y-109880000D01*
D36*
%TO.N,+12V*%
X140060000Y-83640000D02*
X211815000Y-83640000D01*
X213593000Y-96821000D02*
X215520000Y-98748000D01*
X211815000Y-83640000D02*
X212333363Y-83640000D01*
X140060000Y-83640000D02*
X93832000Y-83640000D01*
X215520000Y-98748000D02*
X218490000Y-98748000D01*
X213593000Y-84899637D02*
X213593000Y-96821000D01*
X212333363Y-83640000D02*
X213593000Y-84899637D01*
%TO.N,+24V*%
X218490000Y-101288000D02*
X220963000Y-98815000D01*
X220963000Y-79614000D02*
X215498000Y-74149000D01*
X220963000Y-81073000D02*
X220963000Y-79614000D01*
X215498000Y-74149000D02*
X174604000Y-74149000D01*
D34*
X72369000Y-87550000D02*
X75036000Y-90217000D01*
X78338000Y-90217000D02*
X83545000Y-95424000D01*
X70012000Y-87550000D02*
X72369000Y-87550000D01*
X75036000Y-90217000D02*
X78338000Y-90217000D01*
D36*
X220963000Y-98815000D02*
X220963000Y-81073000D01*
D35*
%TO.N,/Sensores/24V_SENS*%
X127614000Y-87296000D02*
X126344000Y-88566000D01*
X207878000Y-87296000D02*
X127614000Y-87296000D01*
X208132000Y-87042000D02*
X207878000Y-87296000D01*
X209005003Y-87042000D02*
X208132000Y-87042000D01*
X209021000Y-87057997D02*
X209005003Y-87042000D01*
D34*
%TO.N,VDC*%
X147299000Y-111172000D02*
X141965000Y-111172000D01*
X141965000Y-111172000D02*
X141908000Y-111115000D01*
%TD*%
%TA.AperFunction,Conductor*%
%TO.N,/24V in*%
G36*
X86556681Y-104350319D02*
G01*
X86593000Y-104438000D01*
X86593000Y-111048000D01*
X86556681Y-111135681D01*
X86469000Y-111172000D01*
X68937000Y-111172000D01*
X68849319Y-111135681D01*
X68813000Y-111048000D01*
X68813000Y-104438000D01*
X68849319Y-104350319D01*
X68937000Y-104314000D01*
X86469000Y-104314000D01*
X86556681Y-104350319D01*
G37*
%TD.AperFunction*%
%TD*%
%TA.AperFunction,Conductor*%
%TO.N,+24V*%
G36*
X184799319Y-66128319D02*
G01*
X185234681Y-66563681D01*
X185271000Y-66651362D01*
X185271000Y-68124076D01*
X185273998Y-70576500D01*
X185273990Y-70578047D01*
X185273397Y-70630742D01*
X185272000Y-70630714D01*
X181070466Y-70546534D01*
X183239000Y-68378000D01*
X183239000Y-66651362D01*
X183275319Y-66563681D01*
X183710681Y-66128319D01*
X183798362Y-66092000D01*
X184711638Y-66092000D01*
X184799319Y-66128319D01*
G37*
%TD.AperFunction*%
%TD*%
%TA.AperFunction,Conductor*%
%TO.N,+24V*%
G36*
X68567338Y-84586175D02*
G01*
X68567336Y-84586183D01*
X68511500Y-84866887D01*
X68511500Y-85153112D01*
X68567336Y-85433816D01*
X68567338Y-85433824D01*
X68676866Y-85698250D01*
X68676871Y-85698259D01*
X68835881Y-85936232D01*
X68835884Y-85936236D01*
X69038263Y-86138615D01*
X69038267Y-86138618D01*
X69276240Y-86297628D01*
X69276246Y-86297631D01*
X69276247Y-86297632D01*
X69540676Y-86407162D01*
X69821387Y-86462999D01*
X69821390Y-86463000D01*
X69821392Y-86463000D01*
X70202610Y-86463000D01*
X70202611Y-86462999D01*
X70483324Y-86407162D01*
X70747753Y-86297632D01*
X70985733Y-86138618D01*
X71188118Y-85936233D01*
X71347132Y-85698253D01*
X71456662Y-85433824D01*
X71512500Y-85153108D01*
X71512500Y-84866892D01*
X71512500Y-84866889D01*
X71512499Y-84866887D01*
X71456663Y-84586183D01*
X71456662Y-84586176D01*
X71394457Y-84436000D01*
X73385000Y-84436000D01*
X73385000Y-88376000D01*
X73348681Y-88463681D01*
X73261000Y-88500000D01*
X67413000Y-88500000D01*
X67325319Y-88463681D01*
X67289000Y-88376000D01*
X67289000Y-84436000D01*
X68629543Y-84436000D01*
X68567338Y-84586175D01*
G37*
%TD.AperFunction*%
%TD*%
%TA.AperFunction,Conductor*%
%TO.N,+24V*%
G36*
X88624000Y-70593000D02*
G01*
X94974000Y-70593000D01*
X94847000Y-70466000D01*
X134979000Y-70466000D01*
X134852000Y-70593000D01*
X141202000Y-70593000D01*
X141075000Y-70466000D01*
X181151000Y-70466000D01*
X181070466Y-70546534D01*
X185272000Y-70630714D01*
X185272000Y-74986638D01*
X185235681Y-75074319D01*
X183784319Y-76525681D01*
X183696638Y-76562000D01*
X78972999Y-76562000D01*
X73385000Y-81961998D01*
X73385000Y-88376000D01*
X73348681Y-88463681D01*
X73261000Y-88500000D01*
X67413000Y-88500000D01*
X67325319Y-88463681D01*
X67289000Y-88376000D01*
X67289000Y-84866887D01*
X68511500Y-84866887D01*
X68511500Y-85153112D01*
X68567336Y-85433816D01*
X68567338Y-85433824D01*
X68676866Y-85698250D01*
X68676871Y-85698259D01*
X68835881Y-85936232D01*
X68835884Y-85936236D01*
X69038263Y-86138615D01*
X69038267Y-86138618D01*
X69276240Y-86297628D01*
X69276246Y-86297631D01*
X69276247Y-86297632D01*
X69540676Y-86407162D01*
X69821387Y-86462999D01*
X69821390Y-86463000D01*
X69821392Y-86463000D01*
X70202610Y-86463000D01*
X70202611Y-86462999D01*
X70483324Y-86407162D01*
X70747753Y-86297632D01*
X70985733Y-86138618D01*
X71188118Y-85936233D01*
X71347132Y-85698253D01*
X71456662Y-85433824D01*
X71512500Y-85153108D01*
X71512500Y-84866892D01*
X71512500Y-84866889D01*
X71512499Y-84866887D01*
X71509056Y-84849580D01*
X71456662Y-84586176D01*
X71347132Y-84321747D01*
X71347131Y-84321746D01*
X71347128Y-84321740D01*
X71188118Y-84083767D01*
X71188115Y-84083763D01*
X70985736Y-83881384D01*
X70985732Y-83881381D01*
X70747759Y-83722371D01*
X70747750Y-83722366D01*
X70483324Y-83612838D01*
X70483316Y-83612836D01*
X70202611Y-83557000D01*
X70202608Y-83557000D01*
X69821392Y-83557000D01*
X69821389Y-83557000D01*
X69540683Y-83612836D01*
X69540675Y-83612838D01*
X69276249Y-83722366D01*
X69276240Y-83722371D01*
X69038267Y-83881381D01*
X69038263Y-83881384D01*
X68835884Y-84083763D01*
X68835881Y-84083767D01*
X68676871Y-84321740D01*
X68676866Y-84321749D01*
X68567338Y-84586175D01*
X68567336Y-84586183D01*
X68511500Y-84866887D01*
X67289000Y-84866887D01*
X67289000Y-78899362D01*
X67325319Y-78811681D01*
X75634681Y-70502319D01*
X75722362Y-70466000D01*
X88751000Y-70466000D01*
X88624000Y-70593000D01*
G37*
%TD.AperFunction*%
%TD*%
%TA.AperFunction,Conductor*%
%TO.N,+24V*%
G36*
X138571319Y-66184319D02*
G01*
X139006681Y-66619681D01*
X139043000Y-66707362D01*
X139043000Y-68434000D01*
X141202000Y-70593000D01*
X134852000Y-70593000D01*
X137011000Y-68434000D01*
X137011000Y-66707362D01*
X137047319Y-66619681D01*
X137482681Y-66184319D01*
X137570362Y-66148000D01*
X138483638Y-66148000D01*
X138571319Y-66184319D01*
G37*
%TD.AperFunction*%
%TD*%
%TA.AperFunction,Conductor*%
%TO.N,+24V*%
G36*
X92343319Y-66184319D02*
G01*
X92778681Y-66619681D01*
X92815000Y-66707362D01*
X92815000Y-68434000D01*
X94974000Y-70593000D01*
X88624000Y-70593000D01*
X90783000Y-68434000D01*
X90783000Y-66707362D01*
X90819319Y-66619681D01*
X91254681Y-66184319D01*
X91342362Y-66148000D01*
X92255638Y-66148000D01*
X92343319Y-66184319D01*
G37*
%TD.AperFunction*%
%TD*%
%TA.AperFunction,Conductor*%
%TO.N,GND*%
G36*
X215116585Y-75193819D02*
G01*
X219918181Y-79995415D01*
X219954500Y-80083096D01*
X219954500Y-94731936D01*
X219918181Y-94819617D01*
X219830500Y-94855936D01*
X219761610Y-94835038D01*
X219685287Y-94784041D01*
X219685280Y-94784038D01*
X219539296Y-94755000D01*
X217440710Y-94755000D01*
X217294712Y-94784040D01*
X217129160Y-94894660D01*
X217018540Y-95060215D01*
X217018538Y-95060219D01*
X216989500Y-95206202D01*
X216989500Y-97209789D01*
X217018540Y-97355787D01*
X217129160Y-97521340D01*
X217135639Y-97527819D01*
X217171958Y-97615500D01*
X217135639Y-97703181D01*
X217047958Y-97739500D01*
X215989096Y-97739500D01*
X215901415Y-97703181D01*
X214637819Y-96439585D01*
X214601500Y-96351904D01*
X214601500Y-84766867D01*
X214601500Y-84766865D01*
X214532772Y-84510371D01*
X214400001Y-84280404D01*
X214212233Y-84092636D01*
X212952596Y-82832999D01*
X212884274Y-82793553D01*
X212722633Y-82700229D01*
X212722634Y-82700229D01*
X212701601Y-82694593D01*
X212466135Y-82631500D01*
X211947772Y-82631500D01*
X140192772Y-82631500D01*
X93699228Y-82631500D01*
X93545331Y-82672736D01*
X93442732Y-82700228D01*
X93442731Y-82700229D01*
X93212770Y-82832996D01*
X93212765Y-82833000D01*
X93025000Y-83020765D01*
X93024996Y-83020770D01*
X92892229Y-83250731D01*
X92892228Y-83250732D01*
X92857864Y-83378981D01*
X92823500Y-83507228D01*
X92823500Y-83772772D01*
X92875046Y-83965142D01*
X92892228Y-84029267D01*
X92892229Y-84029268D01*
X93024996Y-84259229D01*
X93024998Y-84259232D01*
X93024999Y-84259233D01*
X93212767Y-84447001D01*
X93442734Y-84579772D01*
X93699228Y-84648500D01*
X125601508Y-84648500D01*
X125689189Y-84684819D01*
X125725508Y-84772500D01*
X125689189Y-84860181D01*
X123886025Y-86663345D01*
X123886019Y-86663353D01*
X123809726Y-86795499D01*
X123809726Y-86795500D01*
X123769973Y-86864354D01*
X123709900Y-87088548D01*
X123709900Y-87088550D01*
X123709900Y-93558500D01*
X123673581Y-93646181D01*
X123585900Y-93682500D01*
X120852341Y-93682500D01*
X120764660Y-93646181D01*
X120707901Y-93589422D01*
X120707900Y-93589421D01*
X120502562Y-93470869D01*
X120502561Y-93470868D01*
X120445303Y-93455526D01*
X120273533Y-93409500D01*
X120036427Y-93409500D01*
X119909613Y-93443480D01*
X119807398Y-93470868D01*
X119807397Y-93470869D01*
X119602058Y-93589422D01*
X119545300Y-93646181D01*
X119457619Y-93682500D01*
X117550341Y-93682500D01*
X117462660Y-93646181D01*
X117405901Y-93589422D01*
X117405900Y-93589421D01*
X117200562Y-93470869D01*
X117200561Y-93470868D01*
X117143303Y-93455526D01*
X116971533Y-93409500D01*
X116734427Y-93409500D01*
X116607613Y-93443480D01*
X116505398Y-93470868D01*
X116505397Y-93470869D01*
X116300058Y-93589422D01*
X116243300Y-93646181D01*
X116155619Y-93682500D01*
X114180381Y-93682500D01*
X114092700Y-93646181D01*
X114069921Y-93623402D01*
X114069920Y-93623401D01*
X113876102Y-93511500D01*
X113864582Y-93504849D01*
X113864581Y-93504848D01*
X113807323Y-93489506D01*
X113635553Y-93443480D01*
X113398447Y-93443480D01*
X113296231Y-93470869D01*
X113169418Y-93504848D01*
X113169417Y-93504849D01*
X112964078Y-93623402D01*
X112941300Y-93646181D01*
X112853619Y-93682500D01*
X110946341Y-93682500D01*
X110858660Y-93646181D01*
X110801901Y-93589422D01*
X110801900Y-93589421D01*
X110596562Y-93470869D01*
X110596561Y-93470868D01*
X110539303Y-93455526D01*
X110367533Y-93409500D01*
X110130427Y-93409500D01*
X110003613Y-93443480D01*
X109901398Y-93470868D01*
X109901397Y-93470869D01*
X109696058Y-93589422D01*
X109639300Y-93646181D01*
X109551619Y-93682500D01*
X107575341Y-93682500D01*
X107487660Y-93646181D01*
X107430901Y-93589422D01*
X107430900Y-93589421D01*
X107225562Y-93470869D01*
X107225561Y-93470868D01*
X107168303Y-93455526D01*
X106996533Y-93409500D01*
X106759427Y-93409500D01*
X106632613Y-93443480D01*
X106530398Y-93470868D01*
X106530397Y-93470869D01*
X106325058Y-93589422D01*
X106268300Y-93646181D01*
X106180619Y-93682500D01*
X104342341Y-93682500D01*
X104254660Y-93646181D01*
X104197901Y-93589422D01*
X104197900Y-93589421D01*
X103992562Y-93470869D01*
X103992561Y-93470868D01*
X103935303Y-93455526D01*
X103763533Y-93409500D01*
X103526427Y-93409500D01*
X103399613Y-93443480D01*
X103297398Y-93470868D01*
X103297397Y-93470869D01*
X103092058Y-93589422D01*
X102924402Y-93757078D01*
X102805849Y-93962417D01*
X102805848Y-93962418D01*
X102790808Y-94018550D01*
X102744480Y-94191447D01*
X102744480Y-94428553D01*
X102786365Y-94584868D01*
X102805848Y-94657581D01*
X102805849Y-94657582D01*
X102924401Y-94862920D01*
X103092060Y-95030579D01*
X103297400Y-95149132D01*
X103526427Y-95210500D01*
X103526430Y-95210500D01*
X103763530Y-95210500D01*
X103763533Y-95210500D01*
X103992560Y-95149132D01*
X104197900Y-95030579D01*
X104254660Y-94973819D01*
X104342341Y-94937500D01*
X106180619Y-94937500D01*
X106268300Y-94973819D01*
X106325060Y-95030579D01*
X106530400Y-95149132D01*
X106759427Y-95210500D01*
X106759430Y-95210500D01*
X106996530Y-95210500D01*
X106996533Y-95210500D01*
X107225560Y-95149132D01*
X107430900Y-95030579D01*
X107487660Y-94973819D01*
X107575341Y-94937500D01*
X109551619Y-94937500D01*
X109639300Y-94973819D01*
X109696060Y-95030579D01*
X109901400Y-95149132D01*
X110130427Y-95210500D01*
X110130430Y-95210500D01*
X110367530Y-95210500D01*
X110367533Y-95210500D01*
X110596560Y-95149132D01*
X110801900Y-95030579D01*
X110858660Y-94973819D01*
X110946341Y-94937500D01*
X112785659Y-94937500D01*
X112873340Y-94973819D01*
X112964080Y-95064559D01*
X113169420Y-95183112D01*
X113398447Y-95244480D01*
X113398450Y-95244480D01*
X113635550Y-95244480D01*
X113635553Y-95244480D01*
X113864580Y-95183112D01*
X114069920Y-95064559D01*
X114160660Y-94973819D01*
X114248341Y-94937500D01*
X116155619Y-94937500D01*
X116243300Y-94973819D01*
X116300060Y-95030579D01*
X116505400Y-95149132D01*
X116734427Y-95210500D01*
X116734430Y-95210500D01*
X116971530Y-95210500D01*
X116971533Y-95210500D01*
X117200560Y-95149132D01*
X117405900Y-95030579D01*
X117462660Y-94973819D01*
X117550341Y-94937500D01*
X119457619Y-94937500D01*
X119545300Y-94973819D01*
X119602060Y-95030579D01*
X119807400Y-95149132D01*
X120036427Y-95210500D01*
X120036430Y-95210500D01*
X120273530Y-95210500D01*
X120273533Y-95210500D01*
X120502560Y-95149132D01*
X120707900Y-95030579D01*
X120764660Y-94973819D01*
X120852341Y-94937500D01*
X123585900Y-94937500D01*
X123673581Y-94973819D01*
X123709900Y-95061500D01*
X123709900Y-98215412D01*
X123705675Y-98247504D01*
X123690900Y-98302645D01*
X123690900Y-98302647D01*
X123690900Y-98539753D01*
X123705675Y-98594893D01*
X123709900Y-98626986D01*
X123709900Y-100951109D01*
X123673581Y-101038790D01*
X122509990Y-102202381D01*
X122422309Y-102238700D01*
X114696348Y-102238700D01*
X114480640Y-102296498D01*
X114480641Y-102296499D01*
X114472153Y-102298773D01*
X114472151Y-102298774D01*
X114271150Y-102414821D01*
X114271145Y-102414825D01*
X112827625Y-103858345D01*
X112827621Y-103858350D01*
X112719481Y-104045657D01*
X112719480Y-104045659D01*
X112711574Y-104059351D01*
X112711573Y-104059353D01*
X112711573Y-104059354D01*
X112651500Y-104283548D01*
X112651500Y-104283550D01*
X112651500Y-105291163D01*
X112615181Y-105378844D01*
X112527500Y-105415163D01*
X112439819Y-105378844D01*
X112420115Y-105353167D01*
X112419998Y-105352965D01*
X112418925Y-105351106D01*
X112302094Y-105234275D01*
X108746094Y-101678275D01*
X108603006Y-101595663D01*
X108443412Y-101552900D01*
X108443411Y-101552900D01*
X102525281Y-101552900D01*
X102437600Y-101516581D01*
X101557019Y-100636000D01*
X101520700Y-100548319D01*
X101520700Y-99700702D01*
X104832480Y-99700702D01*
X104832480Y-100799289D01*
X104861520Y-100945287D01*
X104923998Y-101038790D01*
X104972140Y-101110840D01*
X105137695Y-101221460D01*
X105137698Y-101221460D01*
X105137699Y-101221461D01*
X105210691Y-101235980D01*
X105283687Y-101250500D01*
X106382272Y-101250499D01*
X106528265Y-101221460D01*
X106528266Y-101221459D01*
X106528267Y-101221459D01*
X106556046Y-101202897D01*
X106693820Y-101110840D01*
X106804440Y-100945285D01*
X106833480Y-100799293D01*
X106833479Y-99700708D01*
X106833478Y-99700702D01*
X108134480Y-99700702D01*
X108134480Y-100799289D01*
X108163520Y-100945287D01*
X108225998Y-101038790D01*
X108274140Y-101110840D01*
X108439695Y-101221460D01*
X108439698Y-101221460D01*
X108439699Y-101221461D01*
X108512691Y-101235980D01*
X108585687Y-101250500D01*
X109684272Y-101250499D01*
X109830265Y-101221460D01*
X109830266Y-101221459D01*
X109830267Y-101221459D01*
X109858046Y-101202897D01*
X109995820Y-101110840D01*
X110106440Y-100945285D01*
X110135480Y-100799293D01*
X110135479Y-99700708D01*
X110135478Y-99700702D01*
X111436480Y-99700702D01*
X111436480Y-100799289D01*
X111465520Y-100945287D01*
X111527998Y-101038790D01*
X111576140Y-101110840D01*
X111741695Y-101221460D01*
X111741698Y-101221460D01*
X111741699Y-101221461D01*
X111814691Y-101235980D01*
X111887687Y-101250500D01*
X112986272Y-101250499D01*
X113132265Y-101221460D01*
X113132266Y-101221459D01*
X113132267Y-101221459D01*
X113160046Y-101202897D01*
X113297820Y-101110840D01*
X113408440Y-100945285D01*
X113437480Y-100799293D01*
X113437479Y-99700708D01*
X113437478Y-99700702D01*
X114738480Y-99700702D01*
X114738480Y-100799289D01*
X114767520Y-100945287D01*
X114829998Y-101038790D01*
X114878140Y-101110840D01*
X115043695Y-101221460D01*
X115043698Y-101221460D01*
X115043699Y-101221461D01*
X115116691Y-101235980D01*
X115189687Y-101250500D01*
X116288272Y-101250499D01*
X116434265Y-101221460D01*
X116434266Y-101221459D01*
X116434267Y-101221459D01*
X116462046Y-101202897D01*
X116599820Y-101110840D01*
X116710440Y-100945285D01*
X116739480Y-100799293D01*
X116739479Y-99700708D01*
X116739478Y-99700702D01*
X118040480Y-99700702D01*
X118040480Y-100799289D01*
X118069520Y-100945287D01*
X118131998Y-101038790D01*
X118180140Y-101110840D01*
X118345695Y-101221460D01*
X118345698Y-101221460D01*
X118345699Y-101221461D01*
X118418691Y-101235980D01*
X118491687Y-101250500D01*
X119590272Y-101250499D01*
X119736265Y-101221460D01*
X119736266Y-101221459D01*
X119736267Y-101221459D01*
X119764046Y-101202897D01*
X119901820Y-101110840D01*
X120012440Y-100945285D01*
X120041480Y-100799293D01*
X120041479Y-99700708D01*
X120041478Y-99700702D01*
X121342480Y-99700702D01*
X121342480Y-100799289D01*
X121371520Y-100945287D01*
X121433998Y-101038790D01*
X121482140Y-101110840D01*
X121647695Y-101221460D01*
X121647698Y-101221460D01*
X121647699Y-101221461D01*
X121720691Y-101235980D01*
X121793687Y-101250500D01*
X122892272Y-101250499D01*
X123038265Y-101221460D01*
X123038266Y-101221459D01*
X123038267Y-101221459D01*
X123066046Y-101202897D01*
X123203820Y-101110840D01*
X123314440Y-100945285D01*
X123343480Y-100799293D01*
X123343479Y-99700708D01*
X123314440Y-99554715D01*
X123314439Y-99554714D01*
X123314439Y-99554712D01*
X123233780Y-99433999D01*
X123203820Y-99389160D01*
X123038265Y-99278540D01*
X123038263Y-99278539D01*
X123038260Y-99278538D01*
X122892276Y-99249500D01*
X121793690Y-99249500D01*
X121647692Y-99278540D01*
X121482140Y-99389160D01*
X121371520Y-99554715D01*
X121371518Y-99554719D01*
X121342480Y-99700702D01*
X120041478Y-99700702D01*
X120012440Y-99554715D01*
X120012439Y-99554714D01*
X120012439Y-99554712D01*
X119931780Y-99433999D01*
X119901820Y-99389160D01*
X119736265Y-99278540D01*
X119736263Y-99278539D01*
X119736260Y-99278538D01*
X119590276Y-99249500D01*
X118491690Y-99249500D01*
X118345692Y-99278540D01*
X118180140Y-99389160D01*
X118069520Y-99554715D01*
X118069518Y-99554719D01*
X118040480Y-99700702D01*
X116739478Y-99700702D01*
X116710440Y-99554715D01*
X116710439Y-99554714D01*
X116710439Y-99554712D01*
X116629780Y-99433999D01*
X116599820Y-99389160D01*
X116434265Y-99278540D01*
X116434263Y-99278539D01*
X116434260Y-99278538D01*
X116288276Y-99249500D01*
X115189690Y-99249500D01*
X115043692Y-99278540D01*
X114878140Y-99389160D01*
X114767520Y-99554715D01*
X114767518Y-99554719D01*
X114738480Y-99700702D01*
X113437478Y-99700702D01*
X113408440Y-99554715D01*
X113408439Y-99554714D01*
X113408439Y-99554712D01*
X113327780Y-99433999D01*
X113297820Y-99389160D01*
X113132265Y-99278540D01*
X113132263Y-99278539D01*
X113132260Y-99278538D01*
X112986276Y-99249500D01*
X111887690Y-99249500D01*
X111741692Y-99278540D01*
X111576140Y-99389160D01*
X111465520Y-99554715D01*
X111465518Y-99554719D01*
X111436480Y-99700702D01*
X110135478Y-99700702D01*
X110106440Y-99554715D01*
X110106439Y-99554714D01*
X110106439Y-99554712D01*
X110025780Y-99433999D01*
X109995820Y-99389160D01*
X109830265Y-99278540D01*
X109830263Y-99278539D01*
X109830260Y-99278538D01*
X109684276Y-99249500D01*
X108585690Y-99249500D01*
X108439692Y-99278540D01*
X108274140Y-99389160D01*
X108163520Y-99554715D01*
X108163518Y-99554719D01*
X108134480Y-99700702D01*
X106833478Y-99700702D01*
X106804440Y-99554715D01*
X106804439Y-99554714D01*
X106804439Y-99554712D01*
X106723780Y-99433999D01*
X106693820Y-99389160D01*
X106528265Y-99278540D01*
X106528263Y-99278539D01*
X106528260Y-99278538D01*
X106382276Y-99249500D01*
X105283690Y-99249500D01*
X105137692Y-99278540D01*
X104972140Y-99389160D01*
X104861520Y-99554715D01*
X104861518Y-99554719D01*
X104832480Y-99700702D01*
X101520700Y-99700702D01*
X101520700Y-95392190D01*
X101520700Y-95392188D01*
X101477937Y-95232594D01*
X101475805Y-95228902D01*
X101453392Y-95190082D01*
X101395325Y-95089506D01*
X101278494Y-94972675D01*
X99703694Y-93397875D01*
X99560606Y-93315263D01*
X99401012Y-93272500D01*
X99401011Y-93272500D01*
X94458861Y-93272500D01*
X94371180Y-93236181D01*
X94314421Y-93179422D01*
X94314420Y-93179421D01*
X94109082Y-93060869D01*
X94109081Y-93060868D01*
X94047684Y-93044417D01*
X93880053Y-92999500D01*
X93642947Y-92999500D01*
X93505530Y-93036320D01*
X93413918Y-93060868D01*
X93413917Y-93060869D01*
X93208578Y-93179422D01*
X93040922Y-93347078D01*
X92922369Y-93552417D01*
X92922368Y-93552418D01*
X92897245Y-93646181D01*
X92861000Y-93781447D01*
X92861000Y-94018553D01*
X92907026Y-94190323D01*
X92922368Y-94247581D01*
X92922369Y-94247582D01*
X93040921Y-94452920D01*
X93208580Y-94620579D01*
X93413920Y-94739132D01*
X93642947Y-94800500D01*
X93642950Y-94800500D01*
X93880050Y-94800500D01*
X93880053Y-94800500D01*
X94109080Y-94739132D01*
X94314420Y-94620579D01*
X94371180Y-94563819D01*
X94458861Y-94527500D01*
X95634538Y-94527500D01*
X95722219Y-94563819D01*
X95758538Y-94651500D01*
X95722219Y-94739181D01*
X95703429Y-94754602D01*
X95563410Y-94848160D01*
X95452790Y-95013715D01*
X95452788Y-95013719D01*
X95423750Y-95159702D01*
X95423750Y-96958289D01*
X95452790Y-97104287D01*
X95511803Y-97192605D01*
X95563410Y-97269840D01*
X95728965Y-97380460D01*
X95728967Y-97380460D01*
X95728968Y-97380461D01*
X95796644Y-97393923D01*
X95875554Y-97446650D01*
X95894069Y-97539732D01*
X95860134Y-97603221D01*
X95725248Y-97738107D01*
X95577456Y-97959292D01*
X95577451Y-97959302D01*
X95475649Y-98205073D01*
X95475647Y-98205081D01*
X95423750Y-98465982D01*
X95423750Y-98732017D01*
X95475647Y-98992918D01*
X95475649Y-98992926D01*
X95577451Y-99238697D01*
X95577456Y-99238707D01*
X95725248Y-99459892D01*
X95725251Y-99459896D01*
X95913353Y-99647998D01*
X95913357Y-99648001D01*
X96134542Y-99795793D01*
X96134546Y-99795795D01*
X96134549Y-99795797D01*
X96380324Y-99897601D01*
X96615673Y-99944415D01*
X96641232Y-99949499D01*
X96641235Y-99949500D01*
X96641237Y-99949500D01*
X96907265Y-99949500D01*
X96907266Y-99949499D01*
X97168176Y-99897601D01*
X97413951Y-99795797D01*
X97635143Y-99648001D01*
X97823251Y-99459893D01*
X97971047Y-99238701D01*
X98072851Y-98992926D01*
X98124750Y-98732013D01*
X98124750Y-98465987D01*
X98124750Y-98465984D01*
X98124749Y-98465982D01*
X98107363Y-98378577D01*
X98072851Y-98205074D01*
X97971047Y-97959299D01*
X97971045Y-97959296D01*
X97971043Y-97959292D01*
X97823251Y-97738107D01*
X97823248Y-97738103D01*
X97688365Y-97603220D01*
X97652046Y-97515539D01*
X97688365Y-97427858D01*
X97751853Y-97393922D01*
X97819535Y-97380460D01*
X97819536Y-97380459D01*
X97819537Y-97380459D01*
X97856464Y-97355785D01*
X97985090Y-97269840D01*
X98095710Y-97104285D01*
X98124750Y-96958293D01*
X98124749Y-95159708D01*
X98095710Y-95013715D01*
X98095709Y-95013714D01*
X98095709Y-95013712D01*
X98016160Y-94894660D01*
X97985090Y-94848160D01*
X97845069Y-94754601D01*
X97792344Y-94675691D01*
X97810859Y-94582609D01*
X97889770Y-94529883D01*
X97913961Y-94527500D01*
X99007119Y-94527500D01*
X99094800Y-94563819D01*
X100229381Y-95698400D01*
X100265700Y-95786081D01*
X100265700Y-100776988D01*
X100265700Y-100942212D01*
X100281846Y-101002471D01*
X100308464Y-101101808D01*
X100308464Y-101101809D01*
X100341817Y-101159577D01*
X100391075Y-101244894D01*
X101711875Y-102565694D01*
X101828706Y-102682525D01*
X101971794Y-102765137D01*
X102131388Y-102807900D01*
X108049519Y-102807900D01*
X108137200Y-102844219D01*
X111252981Y-105960000D01*
X111289300Y-106047681D01*
X111289300Y-110708388D01*
X111289300Y-110873612D01*
X111322213Y-110996447D01*
X111332064Y-111033208D01*
X111332064Y-111033209D01*
X111357432Y-111077147D01*
X111414675Y-111176294D01*
X111414677Y-111176296D01*
X119635200Y-119396819D01*
X119671519Y-119484500D01*
X119635200Y-119572181D01*
X119547519Y-119608500D01*
X71357067Y-119608500D01*
X71348957Y-119608235D01*
X70823531Y-119573797D01*
X70807450Y-119571679D01*
X70295027Y-119469751D01*
X70279360Y-119465553D01*
X69784614Y-119297610D01*
X69769628Y-119291403D01*
X69301039Y-119060320D01*
X69286992Y-119052210D01*
X68852573Y-118761941D01*
X68839705Y-118752067D01*
X68446891Y-118407577D01*
X68435422Y-118396108D01*
X68090932Y-118003294D01*
X68081058Y-117990426D01*
X68032115Y-117917178D01*
X67790789Y-117556007D01*
X67782679Y-117541960D01*
X67714398Y-117403500D01*
X67551593Y-117073364D01*
X67545389Y-117058385D01*
X67377446Y-116563639D01*
X67373248Y-116547972D01*
X67290188Y-116130402D01*
X67271318Y-116035538D01*
X67269203Y-116019480D01*
X67234765Y-115494043D01*
X67234500Y-115485933D01*
X67234500Y-111048004D01*
X68302339Y-111048004D01*
X68341210Y-111243417D01*
X68341212Y-111243423D01*
X68377529Y-111331101D01*
X68488226Y-111496770D01*
X68488229Y-111496773D01*
X68564041Y-111547429D01*
X68653896Y-111607469D01*
X68653897Y-111607469D01*
X68653898Y-111607470D01*
X68741574Y-111643787D01*
X68741575Y-111643787D01*
X68741577Y-111643788D01*
X68741579Y-111643788D01*
X68753554Y-111646170D01*
X68753556Y-111646170D01*
X68797913Y-111654993D01*
X68936997Y-111682660D01*
X68937000Y-111682660D01*
X86469004Y-111682660D01*
X86600475Y-111656508D01*
X86664423Y-111643788D01*
X86752104Y-111607469D01*
X86917771Y-111496773D01*
X87028469Y-111331104D01*
X87064788Y-111243423D01*
X87064788Y-111243421D01*
X87097862Y-111077148D01*
X87103660Y-111048002D01*
X87103660Y-104437995D01*
X87064789Y-104242582D01*
X87064788Y-104242579D01*
X87064788Y-104242577D01*
X87028469Y-104154896D01*
X86917773Y-103989229D01*
X86917770Y-103989226D01*
X86752101Y-103878529D01*
X86664425Y-103842212D01*
X86652446Y-103839830D01*
X86652446Y-103839829D01*
X86652441Y-103839829D01*
X86593084Y-103828022D01*
X86469002Y-103803340D01*
X86469000Y-103803340D01*
X68936998Y-103803340D01*
X68936996Y-103803340D01*
X68741582Y-103842210D01*
X68741576Y-103842212D01*
X68653898Y-103878529D01*
X68488229Y-103989226D01*
X68488226Y-103989229D01*
X68377529Y-104154898D01*
X68341212Y-104242574D01*
X68338909Y-104254154D01*
X68338890Y-104254248D01*
X68302340Y-104438000D01*
X68302340Y-111048002D01*
X68302340Y-111048004D01*
X68302339Y-111048004D01*
X67234500Y-111048004D01*
X67234500Y-97718447D01*
X68166500Y-97718447D01*
X68166500Y-97955553D01*
X68201731Y-98087036D01*
X68227868Y-98184581D01*
X68227869Y-98184582D01*
X68346421Y-98389920D01*
X68514080Y-98557579D01*
X68719420Y-98676132D01*
X68948447Y-98737500D01*
X68948450Y-98737500D01*
X69185550Y-98737500D01*
X69185553Y-98737500D01*
X69414580Y-98676132D01*
X69619920Y-98557579D01*
X69787579Y-98389920D01*
X69906132Y-98184580D01*
X69948726Y-98025617D01*
X70006500Y-97950326D01*
X70100594Y-97937938D01*
X70175887Y-97995713D01*
X70192500Y-98057713D01*
X70192500Y-98087036D01*
X70269376Y-98473516D01*
X70269378Y-98473524D01*
X70420178Y-98837589D01*
X70420183Y-98837598D01*
X70639109Y-99165245D01*
X70917754Y-99443890D01*
X71245401Y-99662816D01*
X71245410Y-99662821D01*
X71305645Y-99687771D01*
X71609476Y-99813622D01*
X71973737Y-99886078D01*
X71995963Y-99890499D01*
X71995966Y-99890500D01*
X71995968Y-99890500D01*
X72390034Y-99890500D01*
X72390035Y-99890499D01*
X72776524Y-99813622D01*
X73140592Y-99662820D01*
X73468245Y-99443890D01*
X73746890Y-99165245D01*
X73766711Y-99135581D01*
X73789898Y-99100880D01*
X73868808Y-99048153D01*
X73961890Y-99066668D01*
X73996102Y-99100880D01*
X74039106Y-99165240D01*
X74039112Y-99165248D01*
X74317754Y-99443890D01*
X74645401Y-99662816D01*
X74645410Y-99662821D01*
X74705645Y-99687771D01*
X75009476Y-99813622D01*
X75373737Y-99886078D01*
X75395963Y-99890499D01*
X75395966Y-99890500D01*
X75395968Y-99890500D01*
X75790034Y-99890500D01*
X75790035Y-99890499D01*
X76176524Y-99813622D01*
X76540592Y-99662820D01*
X76868245Y-99443890D01*
X77146890Y-99165245D01*
X77365820Y-98837592D01*
X77516622Y-98473524D01*
X77593500Y-98087032D01*
X77593500Y-97692968D01*
X77593500Y-97692965D01*
X77593499Y-97692963D01*
X77575648Y-97603220D01*
X77516622Y-97306476D01*
X77372543Y-96958639D01*
X77365821Y-96942410D01*
X77365816Y-96942401D01*
X77146890Y-96614754D01*
X77123574Y-96591438D01*
X77087255Y-96503757D01*
X77123574Y-96416076D01*
X77211255Y-96379757D01*
X77273255Y-96396370D01*
X77277078Y-96398577D01*
X77277080Y-96398579D01*
X77482420Y-96517132D01*
X77711447Y-96578500D01*
X77711450Y-96578500D01*
X77948550Y-96578500D01*
X77948553Y-96578500D01*
X78177580Y-96517132D01*
X78382920Y-96398579D01*
X78550579Y-96230920D01*
X78669132Y-96025580D01*
X78730500Y-95796553D01*
X78730500Y-95559447D01*
X79215500Y-95559447D01*
X79215500Y-95796553D01*
X79253803Y-95939500D01*
X79276868Y-96025581D01*
X79276869Y-96025582D01*
X79395421Y-96230920D01*
X79563080Y-96398579D01*
X79768420Y-96517132D01*
X79997447Y-96578500D01*
X79997450Y-96578500D01*
X80234550Y-96578500D01*
X80234553Y-96578500D01*
X80463580Y-96517132D01*
X80668920Y-96398579D01*
X80836579Y-96230920D01*
X80955132Y-96025580D01*
X81016500Y-95796553D01*
X81016500Y-95559447D01*
X80955132Y-95330420D01*
X80836579Y-95125080D01*
X80668920Y-94957421D01*
X80463582Y-94838869D01*
X80463581Y-94838868D01*
X80391735Y-94819617D01*
X80234553Y-94777500D01*
X79997447Y-94777500D01*
X79860030Y-94814320D01*
X79768418Y-94838868D01*
X79768417Y-94838869D01*
X79563078Y-94957422D01*
X79395422Y-95125078D01*
X79276869Y-95330417D01*
X79276868Y-95330418D01*
X79246184Y-95444933D01*
X79215500Y-95559447D01*
X78730500Y-95559447D01*
X78669132Y-95330420D01*
X78550579Y-95125080D01*
X78382920Y-94957421D01*
X78177582Y-94838869D01*
X78177581Y-94838868D01*
X78105735Y-94819617D01*
X77948553Y-94777500D01*
X77711447Y-94777500D01*
X77574030Y-94814320D01*
X77482418Y-94838868D01*
X77482417Y-94838869D01*
X77277078Y-94957422D01*
X77109422Y-95125078D01*
X76990869Y-95330417D01*
X76990868Y-95330418D01*
X76964993Y-95426983D01*
X76933774Y-95543496D01*
X76876000Y-95618788D01*
X76781906Y-95631176D01*
X76706613Y-95573401D01*
X76694226Y-95543499D01*
X76637132Y-95330420D01*
X76518579Y-95125080D01*
X76350920Y-94957421D01*
X76145582Y-94838869D01*
X76145581Y-94838868D01*
X76073735Y-94819617D01*
X75916553Y-94777500D01*
X75679447Y-94777500D01*
X75542030Y-94814320D01*
X75450418Y-94838868D01*
X75450417Y-94838869D01*
X75245078Y-94957422D01*
X75077422Y-95125078D01*
X74958869Y-95330417D01*
X74958868Y-95330418D01*
X74928184Y-95444933D01*
X74897500Y-95559447D01*
X74897500Y-95559449D01*
X74897500Y-95796554D01*
X74921499Y-95886122D01*
X74909111Y-95980215D01*
X74849177Y-96032775D01*
X74645411Y-96117178D01*
X74645403Y-96117182D01*
X74522388Y-96199378D01*
X74429306Y-96217892D01*
X74350395Y-96165165D01*
X74331881Y-96072083D01*
X74346112Y-96034274D01*
X74351132Y-96025580D01*
X74412500Y-95796553D01*
X74412500Y-95559447D01*
X74351132Y-95330420D01*
X74232579Y-95125080D01*
X74064920Y-94957421D01*
X73859582Y-94838869D01*
X73859581Y-94838868D01*
X73787735Y-94819617D01*
X73630553Y-94777500D01*
X73393447Y-94777500D01*
X73256030Y-94814320D01*
X73164418Y-94838868D01*
X73164417Y-94838869D01*
X72959078Y-94957422D01*
X72791422Y-95125078D01*
X72672869Y-95330417D01*
X72672868Y-95330418D01*
X72642184Y-95444933D01*
X72611500Y-95559447D01*
X72611500Y-95559449D01*
X72611500Y-95782458D01*
X72609691Y-95786823D01*
X72611184Y-95791308D01*
X72591772Y-95830083D01*
X72575181Y-95870139D01*
X72570815Y-95871947D01*
X72568700Y-95876173D01*
X72546291Y-95882105D01*
X72487500Y-95906458D01*
X72478650Y-95906142D01*
X72470915Y-95905588D01*
X72390032Y-95889500D01*
X72246066Y-95889500D01*
X72241650Y-95889184D01*
X72202874Y-95869772D01*
X72162819Y-95853181D01*
X72161010Y-95848815D01*
X72156785Y-95846700D01*
X72143093Y-95805558D01*
X72126500Y-95765500D01*
X72126500Y-95559449D01*
X72126500Y-95559447D01*
X72065132Y-95330420D01*
X71946579Y-95125080D01*
X71778920Y-94957421D01*
X71573582Y-94838869D01*
X71573581Y-94838868D01*
X71501735Y-94819617D01*
X71344553Y-94777500D01*
X71107447Y-94777500D01*
X70970030Y-94814320D01*
X70878418Y-94838868D01*
X70878417Y-94838869D01*
X70673078Y-94957422D01*
X70505422Y-95125078D01*
X70386869Y-95330417D01*
X70386868Y-95330418D01*
X70356184Y-95444933D01*
X70325500Y-95559447D01*
X70325500Y-95796553D01*
X70363803Y-95939500D01*
X70386868Y-96025581D01*
X70386869Y-96025582D01*
X70497899Y-96217892D01*
X70505422Y-96230921D01*
X70676501Y-96402000D01*
X70712820Y-96489681D01*
X70676503Y-96577360D01*
X70639112Y-96614752D01*
X70639107Y-96614758D01*
X70420183Y-96942401D01*
X70420178Y-96942410D01*
X70269378Y-97306475D01*
X70269376Y-97306481D01*
X70197476Y-97667945D01*
X70144749Y-97746855D01*
X70051667Y-97765370D01*
X69972757Y-97712643D01*
X69956086Y-97675851D01*
X69906132Y-97489420D01*
X69787579Y-97284080D01*
X69619920Y-97116421D01*
X69414582Y-96997869D01*
X69414581Y-96997868D01*
X69357323Y-96982526D01*
X69185553Y-96936500D01*
X68948447Y-96936500D01*
X68811030Y-96973320D01*
X68719418Y-96997868D01*
X68719417Y-96997869D01*
X68514078Y-97116422D01*
X68346422Y-97284078D01*
X68227869Y-97489417D01*
X68227868Y-97489418D01*
X68214387Y-97539732D01*
X68166500Y-97718447D01*
X67234500Y-97718447D01*
X67234500Y-95559447D01*
X68166500Y-95559447D01*
X68166500Y-95796553D01*
X68204803Y-95939500D01*
X68227868Y-96025581D01*
X68227869Y-96025582D01*
X68346421Y-96230920D01*
X68514080Y-96398579D01*
X68719420Y-96517132D01*
X68948447Y-96578500D01*
X68948450Y-96578500D01*
X69185550Y-96578500D01*
X69185553Y-96578500D01*
X69414580Y-96517132D01*
X69619920Y-96398579D01*
X69787579Y-96230920D01*
X69906132Y-96025580D01*
X69967500Y-95796553D01*
X69967500Y-95559447D01*
X69906132Y-95330420D01*
X69787579Y-95125080D01*
X69619920Y-94957421D01*
X69414582Y-94838869D01*
X69414581Y-94838868D01*
X69342735Y-94819617D01*
X69185553Y-94777500D01*
X68948447Y-94777500D01*
X68811030Y-94814320D01*
X68719418Y-94838868D01*
X68719417Y-94838869D01*
X68514078Y-94957422D01*
X68346422Y-95125078D01*
X68227869Y-95330417D01*
X68227868Y-95330418D01*
X68197184Y-95444933D01*
X68166500Y-95559447D01*
X67234500Y-95559447D01*
X67234500Y-93273447D01*
X68166500Y-93273447D01*
X68166500Y-93510553D01*
X68187633Y-93589421D01*
X68227868Y-93739581D01*
X68227869Y-93739582D01*
X68346421Y-93944920D01*
X68514080Y-94112579D01*
X68719420Y-94231132D01*
X68948447Y-94292500D01*
X68948450Y-94292500D01*
X69185550Y-94292500D01*
X69185553Y-94292500D01*
X69414580Y-94231132D01*
X69619920Y-94112579D01*
X69787579Y-93944920D01*
X69906132Y-93739580D01*
X69967500Y-93510553D01*
X69967500Y-93273447D01*
X70325500Y-93273447D01*
X70325500Y-93510553D01*
X70346633Y-93589421D01*
X70386868Y-93739581D01*
X70386869Y-93739582D01*
X70505421Y-93944920D01*
X70673080Y-94112579D01*
X70878420Y-94231132D01*
X71107447Y-94292500D01*
X71107450Y-94292500D01*
X71344550Y-94292500D01*
X71344553Y-94292500D01*
X71573580Y-94231132D01*
X71778920Y-94112579D01*
X71946579Y-93944920D01*
X72065132Y-93739580D01*
X72126500Y-93510553D01*
X72126500Y-93273447D01*
X72611500Y-93273447D01*
X72611500Y-93510553D01*
X72632633Y-93589421D01*
X72672868Y-93739581D01*
X72672869Y-93739582D01*
X72791421Y-93944920D01*
X72959080Y-94112579D01*
X73164420Y-94231132D01*
X73393447Y-94292500D01*
X73393450Y-94292500D01*
X73630550Y-94292500D01*
X73630553Y-94292500D01*
X73859580Y-94231132D01*
X74064920Y-94112579D01*
X74232579Y-93944920D01*
X74351132Y-93739580D01*
X74412500Y-93510553D01*
X74412500Y-93273447D01*
X74351132Y-93044420D01*
X74232579Y-92839080D01*
X74064920Y-92671421D01*
X73859582Y-92552869D01*
X73859581Y-92552868D01*
X73802323Y-92537526D01*
X73630553Y-92491500D01*
X73393447Y-92491500D01*
X73256030Y-92528320D01*
X73164418Y-92552868D01*
X73164417Y-92552869D01*
X72959078Y-92671422D01*
X72791422Y-92839078D01*
X72672869Y-93044417D01*
X72672868Y-93044418D01*
X72668460Y-93060869D01*
X72611500Y-93273447D01*
X72126500Y-93273447D01*
X72065132Y-93044420D01*
X71946579Y-92839080D01*
X71778920Y-92671421D01*
X71573582Y-92552869D01*
X71573581Y-92552868D01*
X71516323Y-92537526D01*
X71344553Y-92491500D01*
X71107447Y-92491500D01*
X70970030Y-92528320D01*
X70878418Y-92552868D01*
X70878417Y-92552869D01*
X70673078Y-92671422D01*
X70505422Y-92839078D01*
X70386869Y-93044417D01*
X70386868Y-93044418D01*
X70382460Y-93060869D01*
X70325500Y-93273447D01*
X69967500Y-93273447D01*
X69906132Y-93044420D01*
X69787579Y-92839080D01*
X69619920Y-92671421D01*
X69414582Y-92552869D01*
X69414581Y-92552868D01*
X69357323Y-92537526D01*
X69185553Y-92491500D01*
X68948447Y-92491500D01*
X68811030Y-92528320D01*
X68719418Y-92552868D01*
X68719417Y-92552869D01*
X68514078Y-92671422D01*
X68346422Y-92839078D01*
X68227869Y-93044417D01*
X68227868Y-93044418D01*
X68223460Y-93060869D01*
X68166500Y-93273447D01*
X67234500Y-93273447D01*
X67234500Y-89126248D01*
X67270819Y-89038567D01*
X67358500Y-89002248D01*
X67382688Y-89004630D01*
X67413000Y-89010660D01*
X68387500Y-89010660D01*
X68475181Y-89046979D01*
X68511500Y-89134660D01*
X68511500Y-91091789D01*
X68540540Y-91237787D01*
X68614286Y-91348155D01*
X68651160Y-91403340D01*
X68816715Y-91513960D01*
X68816718Y-91513960D01*
X68816719Y-91513961D01*
X68889711Y-91528480D01*
X68962707Y-91543000D01*
X71061292Y-91542999D01*
X71207285Y-91513960D01*
X71207286Y-91513959D01*
X71207287Y-91513959D01*
X71235066Y-91495397D01*
X71372840Y-91403340D01*
X71483460Y-91237785D01*
X71512500Y-91091793D01*
X71512499Y-89134659D01*
X71548818Y-89046979D01*
X71636499Y-89010660D01*
X72711274Y-89010660D01*
X72798955Y-89046979D01*
X74427908Y-90675932D01*
X74427918Y-90675943D01*
X74432248Y-90680273D01*
X74432249Y-90680274D01*
X74572726Y-90820751D01*
X74647865Y-90864132D01*
X74744774Y-90920082D01*
X74936668Y-90971501D01*
X74936670Y-90971501D01*
X75142929Y-90971501D01*
X75142945Y-90971500D01*
X77974114Y-90971500D01*
X78061795Y-91007819D01*
X82638563Y-95584587D01*
X82670656Y-95640173D01*
X82705867Y-95771579D01*
X82705869Y-95771583D01*
X82771999Y-95886122D01*
X82824421Y-95976920D01*
X82992080Y-96144579D01*
X83197420Y-96263132D01*
X83426447Y-96324500D01*
X83426450Y-96324500D01*
X83663550Y-96324500D01*
X83663553Y-96324500D01*
X83892580Y-96263132D01*
X84097920Y-96144579D01*
X84265579Y-95976920D01*
X84384132Y-95771580D01*
X84445500Y-95542553D01*
X84445500Y-95305447D01*
X84384132Y-95076420D01*
X84265579Y-94871080D01*
X84097920Y-94703421D01*
X84007990Y-94651500D01*
X83892583Y-94584869D01*
X83892579Y-94584867D01*
X83761173Y-94549656D01*
X83705587Y-94517563D01*
X78948821Y-89760797D01*
X78948819Y-89760794D01*
X78801275Y-89613250D01*
X78801267Y-89613244D01*
X78629232Y-89513921D01*
X78629227Y-89513918D01*
X78565261Y-89496778D01*
X78437332Y-89462499D01*
X78238668Y-89462499D01*
X78231072Y-89462499D01*
X78231056Y-89462500D01*
X75399886Y-89462500D01*
X75312205Y-89426181D01*
X73931979Y-88045955D01*
X73895660Y-87958274D01*
X73895660Y-82231264D01*
X73931979Y-82143583D01*
X73933442Y-82142144D01*
X79143377Y-77107491D01*
X79229545Y-77072660D01*
X183696642Y-77072660D01*
X183828113Y-77046508D01*
X183892061Y-77033788D01*
X183979742Y-76997469D01*
X184145410Y-76886772D01*
X185596772Y-75435410D01*
X185707469Y-75269742D01*
X185722255Y-75234046D01*
X185789364Y-75166938D01*
X185836816Y-75157500D01*
X215028904Y-75157500D01*
X215116585Y-75193819D01*
G37*
%TD.AperFunction*%
%TA.AperFunction,Conductor*%
G36*
X212149304Y-86083725D02*
G01*
X212178310Y-86091496D01*
X212204447Y-86098500D01*
X212204449Y-86098500D01*
X212441553Y-86098500D01*
X212444309Y-86098137D01*
X212445664Y-86098500D01*
X212449680Y-86098500D01*
X212449680Y-86099575D01*
X212535982Y-86122696D01*
X212583438Y-86204884D01*
X212584500Y-86221075D01*
X212584500Y-96688228D01*
X212584500Y-96953772D01*
X212653100Y-97209789D01*
X212653229Y-97210270D01*
X212711050Y-97310418D01*
X212785999Y-97440233D01*
X214712999Y-99367233D01*
X214900767Y-99555001D01*
X215130734Y-99687772D01*
X215387228Y-99756500D01*
X217344787Y-99756500D01*
X217425642Y-99786486D01*
X217429164Y-99789515D01*
X217516267Y-99876618D01*
X217579816Y-99919080D01*
X217585520Y-99923986D01*
X217603783Y-99960137D01*
X217626282Y-99993809D01*
X217624731Y-100001602D01*
X217628315Y-100008695D01*
X217615667Y-100047171D01*
X217607767Y-100086891D01*
X217600087Y-100094570D01*
X217598679Y-100098855D01*
X217592866Y-100101791D01*
X217573556Y-100121102D01*
X217516267Y-100159381D01*
X217516263Y-100159384D01*
X217313884Y-100361763D01*
X217313881Y-100361767D01*
X217154871Y-100599740D01*
X217154866Y-100599749D01*
X217045338Y-100864175D01*
X217045336Y-100864183D01*
X216989500Y-101144887D01*
X216989500Y-101431112D01*
X217045336Y-101711816D01*
X217045338Y-101711824D01*
X217154866Y-101976250D01*
X217154871Y-101976259D01*
X217313881Y-102214232D01*
X217313884Y-102214236D01*
X217516263Y-102416615D01*
X217516267Y-102416618D01*
X217754240Y-102575628D01*
X217754246Y-102575631D01*
X217754247Y-102575632D01*
X218018676Y-102685162D01*
X218299387Y-102740999D01*
X218299390Y-102741000D01*
X218299392Y-102741000D01*
X218680610Y-102741000D01*
X218680611Y-102740999D01*
X218961324Y-102685162D01*
X219225753Y-102575632D01*
X219463733Y-102416618D01*
X219666118Y-102214233D01*
X219825132Y-101976253D01*
X219934662Y-101711824D01*
X219990500Y-101431108D01*
X219990500Y-101265096D01*
X220026819Y-101177415D01*
X221259819Y-99944415D01*
X221347500Y-99908096D01*
X221435181Y-99944415D01*
X221471500Y-100032096D01*
X221471500Y-115485933D01*
X221471235Y-115494043D01*
X221436797Y-116019468D01*
X221434679Y-116035549D01*
X221332751Y-116547972D01*
X221328553Y-116563639D01*
X221160610Y-117058385D01*
X221154403Y-117073371D01*
X220923320Y-117541960D01*
X220915210Y-117556007D01*
X220624941Y-117990426D01*
X220615067Y-118003294D01*
X220270577Y-118396108D01*
X220259108Y-118407577D01*
X219866294Y-118752067D01*
X219853426Y-118761941D01*
X219419007Y-119052210D01*
X219404960Y-119060320D01*
X218936371Y-119291403D01*
X218921385Y-119297610D01*
X218426639Y-119465553D01*
X218410972Y-119469751D01*
X217898549Y-119571679D01*
X217882468Y-119573797D01*
X217357043Y-119608235D01*
X217348933Y-119608500D01*
X159404081Y-119608500D01*
X159316400Y-119572181D01*
X159280081Y-119484500D01*
X159316400Y-119396819D01*
X159765168Y-118948051D01*
X160331125Y-118382094D01*
X160413737Y-118239006D01*
X160456500Y-118079412D01*
X160456500Y-117914188D01*
X160456500Y-115994840D01*
X160413737Y-115835246D01*
X160331125Y-115692158D01*
X160214294Y-115575327D01*
X158229667Y-113590700D01*
X158193348Y-113503019D01*
X158229667Y-113415338D01*
X158255346Y-113395634D01*
X158329920Y-113352579D01*
X158462383Y-113220116D01*
X168252500Y-113220116D01*
X168252500Y-114059884D01*
X168294149Y-114215322D01*
X168327498Y-114339779D01*
X168327498Y-114339780D01*
X168363190Y-114401599D01*
X168472381Y-114590723D01*
X168677277Y-114795619D01*
X168928223Y-114940503D01*
X169208116Y-115015500D01*
X169208118Y-115015500D01*
X169497882Y-115015500D01*
X169497884Y-115015500D01*
X169777777Y-114940503D01*
X170028723Y-114795619D01*
X170233619Y-114590723D01*
X170245613Y-114569947D01*
X170320905Y-114512174D01*
X170414999Y-114524560D01*
X170460385Y-114569946D01*
X170472381Y-114590723D01*
X170677277Y-114795619D01*
X170928223Y-114940503D01*
X171208116Y-115015500D01*
X171208118Y-115015500D01*
X171497882Y-115015500D01*
X171497884Y-115015500D01*
X171777777Y-114940503D01*
X172028723Y-114795619D01*
X172233619Y-114590723D01*
X172245613Y-114569947D01*
X172320905Y-114512174D01*
X172414999Y-114524560D01*
X172460385Y-114569946D01*
X172472381Y-114590723D01*
X172677277Y-114795619D01*
X172928223Y-114940503D01*
X173208116Y-115015500D01*
X173208118Y-115015500D01*
X173497882Y-115015500D01*
X173497884Y-115015500D01*
X173777777Y-114940503D01*
X174028723Y-114795619D01*
X174233619Y-114590723D01*
X174245613Y-114569947D01*
X174320905Y-114512174D01*
X174414999Y-114524560D01*
X174460385Y-114569946D01*
X174472381Y-114590723D01*
X174677277Y-114795619D01*
X174928223Y-114940503D01*
X175208116Y-115015500D01*
X175208118Y-115015500D01*
X175497882Y-115015500D01*
X175497884Y-115015500D01*
X175777777Y-114940503D01*
X176028723Y-114795619D01*
X176233619Y-114590723D01*
X176378503Y-114339777D01*
X176453500Y-114059884D01*
X176453500Y-113220116D01*
X176378503Y-112940223D01*
X176233619Y-112689277D01*
X176028723Y-112484381D01*
X175777777Y-112339497D01*
X175497884Y-112264500D01*
X175208116Y-112264500D01*
X174928223Y-112339497D01*
X174928222Y-112339497D01*
X174928220Y-112339498D01*
X174928219Y-112339498D01*
X174677280Y-112484379D01*
X174677274Y-112484383D01*
X174472383Y-112689274D01*
X174472378Y-112689280D01*
X174460387Y-112710051D01*
X174385093Y-112767826D01*
X174291000Y-112755438D01*
X174245613Y-112710051D01*
X174233621Y-112689280D01*
X174233616Y-112689274D01*
X174028725Y-112484383D01*
X174028723Y-112484381D01*
X173777777Y-112339497D01*
X173497884Y-112264500D01*
X173208116Y-112264500D01*
X172928223Y-112339497D01*
X172928222Y-112339497D01*
X172928220Y-112339498D01*
X172928219Y-112339498D01*
X172677280Y-112484379D01*
X172677274Y-112484383D01*
X172472383Y-112689274D01*
X172472378Y-112689280D01*
X172460387Y-112710051D01*
X172385093Y-112767826D01*
X172291000Y-112755438D01*
X172245613Y-112710051D01*
X172233621Y-112689280D01*
X172233616Y-112689274D01*
X172028725Y-112484383D01*
X172028723Y-112484381D01*
X171777777Y-112339497D01*
X171497884Y-112264500D01*
X171208116Y-112264500D01*
X170928223Y-112339497D01*
X170928222Y-112339497D01*
X170928220Y-112339498D01*
X170928219Y-112339498D01*
X170677280Y-112484379D01*
X170677274Y-112484383D01*
X170472383Y-112689274D01*
X170472378Y-112689280D01*
X170460387Y-112710051D01*
X170385093Y-112767826D01*
X170291000Y-112755438D01*
X170245613Y-112710051D01*
X170233621Y-112689280D01*
X170233616Y-112689274D01*
X170028725Y-112484383D01*
X170028723Y-112484381D01*
X169777777Y-112339497D01*
X169497884Y-112264500D01*
X169208116Y-112264500D01*
X168928223Y-112339497D01*
X168928222Y-112339497D01*
X168928220Y-112339498D01*
X168928219Y-112339498D01*
X168677280Y-112484379D01*
X168677274Y-112484383D01*
X168472383Y-112689274D01*
X168472379Y-112689280D01*
X168327498Y-112940219D01*
X168327498Y-112940220D01*
X168327497Y-112940222D01*
X168327497Y-112940223D01*
X168252500Y-113220116D01*
X158462383Y-113220116D01*
X158497579Y-113184920D01*
X158616132Y-112979580D01*
X158677500Y-112750553D01*
X158677500Y-112513447D01*
X158616132Y-112284420D01*
X158497579Y-112079080D01*
X158440819Y-112022320D01*
X158404500Y-111934639D01*
X158404500Y-106312869D01*
X158440819Y-106225188D01*
X158528500Y-106188869D01*
X158616181Y-106225188D01*
X158635884Y-106250866D01*
X158643421Y-106263920D01*
X158811080Y-106431579D01*
X159016420Y-106550132D01*
X159245447Y-106611500D01*
X159245450Y-106611500D01*
X159482550Y-106611500D01*
X159482553Y-106611500D01*
X159711580Y-106550132D01*
X159916920Y-106431579D01*
X160084579Y-106263920D01*
X160182504Y-106094309D01*
X184852700Y-106094309D01*
X184852700Y-106094316D01*
X184852700Y-106094317D01*
X184852700Y-110285688D01*
X184852701Y-110285690D01*
X184865512Y-110404858D01*
X184865512Y-110404860D01*
X184865513Y-110404862D01*
X184966051Y-110674416D01*
X184966053Y-110674419D01*
X185138465Y-110904735D01*
X185368781Y-111077147D01*
X185638342Y-111177688D01*
X185757509Y-111190500D01*
X187948890Y-111190499D01*
X188068058Y-111177688D01*
X188337619Y-111077147D01*
X188567935Y-110904735D01*
X188740347Y-110674419D01*
X188840888Y-110404858D01*
X188853700Y-110285691D01*
X188853699Y-106992963D01*
X194352700Y-106992963D01*
X194352700Y-109387036D01*
X194429576Y-109773516D01*
X194429578Y-109773524D01*
X194580378Y-110137589D01*
X194580383Y-110137598D01*
X194799309Y-110465245D01*
X195077954Y-110743890D01*
X195405601Y-110962816D01*
X195405607Y-110962819D01*
X195405608Y-110962820D01*
X195769676Y-111113622D01*
X196084750Y-111176294D01*
X196156163Y-111190499D01*
X196156166Y-111190500D01*
X196156168Y-111190500D01*
X196550234Y-111190500D01*
X196550235Y-111190499D01*
X196936724Y-111113622D01*
X197300792Y-110962820D01*
X197628445Y-110743890D01*
X197907090Y-110465245D01*
X198126020Y-110137592D01*
X198276822Y-109773524D01*
X198353700Y-109387032D01*
X198353700Y-106992968D01*
X198351710Y-106982963D01*
X203852500Y-106982963D01*
X203852500Y-109377036D01*
X203929376Y-109763516D01*
X203929378Y-109763524D01*
X204080178Y-110127589D01*
X204080183Y-110127598D01*
X204299109Y-110455245D01*
X204577754Y-110733890D01*
X204905401Y-110952816D01*
X204905410Y-110952821D01*
X204987885Y-110986983D01*
X205269476Y-111103622D01*
X205621008Y-111173546D01*
X205655963Y-111180499D01*
X205655966Y-111180500D01*
X205655968Y-111180500D01*
X206050034Y-111180500D01*
X206050035Y-111180499D01*
X206436524Y-111103622D01*
X206800592Y-110952820D01*
X207128245Y-110733890D01*
X207406890Y-110455245D01*
X207625820Y-110127592D01*
X207776622Y-109763524D01*
X207853500Y-109377032D01*
X207853500Y-106982968D01*
X207853500Y-106982965D01*
X207853499Y-106982963D01*
X207834494Y-106887417D01*
X207776622Y-106596476D01*
X207625820Y-106232408D01*
X207625819Y-106232407D01*
X207625816Y-106232401D01*
X207406890Y-105904754D01*
X207128245Y-105626109D01*
X206800598Y-105407183D01*
X206800589Y-105407178D01*
X206436524Y-105256378D01*
X206436516Y-105256376D01*
X206050035Y-105179500D01*
X206050032Y-105179500D01*
X205655968Y-105179500D01*
X205655965Y-105179500D01*
X205269483Y-105256376D01*
X205269475Y-105256378D01*
X204905410Y-105407178D01*
X204905401Y-105407183D01*
X204577754Y-105626109D01*
X204299109Y-105904754D01*
X204080183Y-106232401D01*
X204080178Y-106232410D01*
X203929378Y-106596475D01*
X203929376Y-106596483D01*
X203852500Y-106982963D01*
X198351710Y-106982963D01*
X198276822Y-106606476D01*
X198133408Y-106260243D01*
X198126021Y-106242410D01*
X198126016Y-106242401D01*
X197907090Y-105914754D01*
X197628445Y-105636109D01*
X197300798Y-105417183D01*
X197300789Y-105417178D01*
X196936724Y-105266378D01*
X196936716Y-105266376D01*
X196550235Y-105189500D01*
X196550232Y-105189500D01*
X196156168Y-105189500D01*
X196156165Y-105189500D01*
X195769683Y-105266376D01*
X195769675Y-105266378D01*
X195405610Y-105417178D01*
X195405601Y-105417183D01*
X195077954Y-105636109D01*
X194799309Y-105914754D01*
X194580383Y-106242401D01*
X194580378Y-106242410D01*
X194429578Y-106606475D01*
X194429576Y-106606483D01*
X194352700Y-106992963D01*
X188853699Y-106992963D01*
X188853699Y-106094310D01*
X188840888Y-105975142D01*
X188740347Y-105705581D01*
X188567935Y-105475265D01*
X188337619Y-105302853D01*
X188337618Y-105302852D01*
X188068061Y-105202313D01*
X188068060Y-105202312D01*
X188068058Y-105202312D01*
X187948891Y-105189500D01*
X187948881Y-105189500D01*
X185757511Y-105189500D01*
X185757510Y-105189501D01*
X185638342Y-105202312D01*
X185638340Y-105202312D01*
X185638337Y-105202313D01*
X185368783Y-105302851D01*
X185368780Y-105302853D01*
X185138465Y-105475265D01*
X184966053Y-105705580D01*
X184966052Y-105705581D01*
X184865513Y-105975138D01*
X184865512Y-105975142D01*
X184852700Y-106094309D01*
X160182504Y-106094309D01*
X160203132Y-106058580D01*
X160264500Y-105829553D01*
X160264500Y-105749281D01*
X160300819Y-105661600D01*
X162730168Y-103232251D01*
X165327125Y-100635294D01*
X165409737Y-100492206D01*
X165452500Y-100332612D01*
X165452500Y-100267850D01*
X183922500Y-100267850D01*
X183922500Y-100740149D01*
X183996381Y-101206615D01*
X183996382Y-101206619D01*
X184142328Y-101655792D01*
X184356742Y-102076605D01*
X184634347Y-102458694D01*
X184968306Y-102792653D01*
X185350395Y-103070258D01*
X185771208Y-103284672D01*
X186220381Y-103430618D01*
X186395309Y-103458323D01*
X186686851Y-103504500D01*
X186686856Y-103504500D01*
X187159149Y-103504500D01*
X187418296Y-103463454D01*
X187625619Y-103430618D01*
X188074792Y-103284672D01*
X188495605Y-103070258D01*
X188877694Y-102792653D01*
X189211653Y-102458694D01*
X189489258Y-102076605D01*
X189703672Y-101655792D01*
X189849618Y-101206619D01*
X189891496Y-100942211D01*
X189923500Y-100740149D01*
X189923500Y-100267850D01*
X193320500Y-100267850D01*
X193320500Y-100740149D01*
X193394381Y-101206615D01*
X193394382Y-101206619D01*
X193540328Y-101655792D01*
X193754742Y-102076605D01*
X194032347Y-102458694D01*
X194366306Y-102792653D01*
X194748395Y-103070258D01*
X195169208Y-103284672D01*
X195618381Y-103430618D01*
X195793309Y-103458323D01*
X196084851Y-103504500D01*
X196084856Y-103504500D01*
X196557149Y-103504500D01*
X196816296Y-103463454D01*
X197023619Y-103430618D01*
X197472792Y-103284672D01*
X197893605Y-103070258D01*
X198275694Y-102792653D01*
X198609653Y-102458694D01*
X198887258Y-102076605D01*
X199101672Y-101655792D01*
X199247618Y-101206619D01*
X199289496Y-100942211D01*
X199321500Y-100740149D01*
X199321500Y-100267850D01*
X202972500Y-100267850D01*
X202972500Y-100740149D01*
X203046381Y-101206615D01*
X203046382Y-101206619D01*
X203192328Y-101655792D01*
X203406742Y-102076605D01*
X203684347Y-102458694D01*
X204018306Y-102792653D01*
X204400395Y-103070258D01*
X204821208Y-103284672D01*
X205270381Y-103430618D01*
X205445309Y-103458323D01*
X205736851Y-103504500D01*
X205736856Y-103504500D01*
X206209149Y-103504500D01*
X206468296Y-103463454D01*
X206675619Y-103430618D01*
X207124792Y-103284672D01*
X207545605Y-103070258D01*
X207927694Y-102792653D01*
X208261653Y-102458694D01*
X208539258Y-102076605D01*
X208753672Y-101655792D01*
X208899618Y-101206619D01*
X208941496Y-100942211D01*
X208973500Y-100740149D01*
X208973500Y-100267850D01*
X208914858Y-99897602D01*
X208899618Y-99801381D01*
X208753672Y-99352208D01*
X208539258Y-98931395D01*
X208261653Y-98549306D01*
X207927694Y-98215347D01*
X207545605Y-97937742D01*
X207170967Y-97746855D01*
X207124794Y-97723329D01*
X207124793Y-97723328D01*
X207124792Y-97723328D01*
X206675619Y-97577382D01*
X206675617Y-97577381D01*
X206675615Y-97577381D01*
X206209149Y-97503500D01*
X206209144Y-97503500D01*
X205736856Y-97503500D01*
X205736851Y-97503500D01*
X205270384Y-97577381D01*
X204821205Y-97723329D01*
X204400394Y-97937742D01*
X204232470Y-98059747D01*
X204018306Y-98215347D01*
X204018304Y-98215349D01*
X204018303Y-98215349D01*
X203684349Y-98549303D01*
X203684349Y-98549304D01*
X203684347Y-98549306D01*
X203627909Y-98626986D01*
X203406742Y-98931394D01*
X203192329Y-99352205D01*
X203192328Y-99352207D01*
X203192328Y-99352208D01*
X203177553Y-99397680D01*
X203046381Y-99801384D01*
X202972500Y-100267850D01*
X199321500Y-100267850D01*
X199262858Y-99897602D01*
X199247618Y-99801381D01*
X199101672Y-99352208D01*
X198887258Y-98931395D01*
X198609653Y-98549306D01*
X198275694Y-98215347D01*
X197893605Y-97937742D01*
X197518967Y-97746855D01*
X197472794Y-97723329D01*
X197472793Y-97723328D01*
X197472792Y-97723328D01*
X197023619Y-97577382D01*
X197023617Y-97577381D01*
X197023615Y-97577381D01*
X196557149Y-97503500D01*
X196557144Y-97503500D01*
X196084856Y-97503500D01*
X196084851Y-97503500D01*
X195618384Y-97577381D01*
X195169205Y-97723329D01*
X194748394Y-97937742D01*
X194580470Y-98059747D01*
X194366306Y-98215347D01*
X194366304Y-98215349D01*
X194366303Y-98215349D01*
X194032349Y-98549303D01*
X194032349Y-98549304D01*
X194032347Y-98549306D01*
X193975909Y-98626986D01*
X193754742Y-98931394D01*
X193540329Y-99352205D01*
X193540328Y-99352207D01*
X193540328Y-99352208D01*
X193525553Y-99397680D01*
X193394381Y-99801384D01*
X193320500Y-100267850D01*
X189923500Y-100267850D01*
X189864858Y-99897602D01*
X189849618Y-99801381D01*
X189703672Y-99352208D01*
X189489258Y-98931395D01*
X189211653Y-98549306D01*
X188877694Y-98215347D01*
X188495605Y-97937742D01*
X188120967Y-97746855D01*
X188074794Y-97723329D01*
X188074793Y-97723328D01*
X188074792Y-97723328D01*
X187625619Y-97577382D01*
X187625617Y-97577381D01*
X187625615Y-97577381D01*
X187159149Y-97503500D01*
X187159144Y-97503500D01*
X186686856Y-97503500D01*
X186686851Y-97503500D01*
X186220384Y-97577381D01*
X185771205Y-97723329D01*
X185350394Y-97937742D01*
X185182470Y-98059747D01*
X184968306Y-98215347D01*
X184968304Y-98215349D01*
X184968303Y-98215349D01*
X184634349Y-98549303D01*
X184634349Y-98549304D01*
X184634347Y-98549306D01*
X184577909Y-98626986D01*
X184356742Y-98931394D01*
X184142329Y-99352205D01*
X184142328Y-99352207D01*
X184142328Y-99352208D01*
X184127553Y-99397680D01*
X183996381Y-99801384D01*
X183922500Y-100267850D01*
X165452500Y-100267850D01*
X165452500Y-100167388D01*
X165452500Y-91930361D01*
X165488819Y-91842680D01*
X165545579Y-91785920D01*
X165664132Y-91580580D01*
X165725500Y-91351553D01*
X165725500Y-91114447D01*
X165664132Y-90885420D01*
X165545579Y-90680080D01*
X165377920Y-90512421D01*
X165206263Y-90413315D01*
X165172582Y-90393869D01*
X165172581Y-90393868D01*
X165093136Y-90372581D01*
X164943553Y-90332500D01*
X164706447Y-90332500D01*
X164569030Y-90369320D01*
X164477418Y-90393868D01*
X164477417Y-90393869D01*
X164272078Y-90512422D01*
X164104422Y-90680078D01*
X163985869Y-90885417D01*
X163985868Y-90885418D01*
X163955184Y-90999933D01*
X163924500Y-91114447D01*
X163924500Y-91351553D01*
X163945944Y-91431581D01*
X163985868Y-91580581D01*
X163985869Y-91580582D01*
X164104422Y-91785921D01*
X164161181Y-91842680D01*
X164197500Y-91930361D01*
X164197500Y-99938719D01*
X164161181Y-100026400D01*
X159413400Y-104774181D01*
X159325719Y-104810500D01*
X159245447Y-104810500D01*
X159108030Y-104847320D01*
X159016418Y-104871868D01*
X159016417Y-104871869D01*
X158811078Y-104990422D01*
X158643423Y-105158077D01*
X158643421Y-105158079D01*
X158643421Y-105158080D01*
X158635885Y-105171132D01*
X158560593Y-105228905D01*
X158466499Y-105216517D01*
X158408725Y-105141223D01*
X158404500Y-105109130D01*
X158404500Y-101125161D01*
X158440819Y-101037480D01*
X158497579Y-100980720D01*
X158616132Y-100775380D01*
X158677500Y-100546353D01*
X158677500Y-100309247D01*
X158616132Y-100080220D01*
X158497579Y-99874880D01*
X158329920Y-99707221D01*
X158124582Y-99588669D01*
X158124581Y-99588668D01*
X158067323Y-99573326D01*
X157895553Y-99527300D01*
X157658447Y-99527300D01*
X157606098Y-99541327D01*
X157512005Y-99528939D01*
X157454230Y-99453645D01*
X157466618Y-99359552D01*
X157475632Y-99346062D01*
X157479573Y-99340925D01*
X157479579Y-99340920D01*
X157598132Y-99135580D01*
X157659500Y-98906553D01*
X157659500Y-98669447D01*
X157598446Y-98441592D01*
X157610834Y-98347500D01*
X157686127Y-98289725D01*
X157718221Y-98285500D01*
X159550861Y-98285500D01*
X159638542Y-98321819D01*
X159674861Y-98409500D01*
X159658248Y-98471498D01*
X159643449Y-98497132D01*
X159602869Y-98567417D01*
X159602868Y-98567418D01*
X159572184Y-98681933D01*
X159541500Y-98796447D01*
X159541500Y-99033553D01*
X159587526Y-99205323D01*
X159602868Y-99262581D01*
X159602869Y-99262582D01*
X159634635Y-99317602D01*
X159716788Y-99459896D01*
X159721422Y-99467921D01*
X159842820Y-99589319D01*
X159879139Y-99677000D01*
X159842820Y-99764681D01*
X159721422Y-99886078D01*
X159602869Y-100091417D01*
X159602868Y-100091418D01*
X159572184Y-100205933D01*
X159541500Y-100320447D01*
X159541500Y-100557553D01*
X159581742Y-100707737D01*
X159602868Y-100786581D01*
X159602869Y-100786582D01*
X159610207Y-100799292D01*
X159721421Y-100991920D01*
X159889080Y-101159579D01*
X160094420Y-101278132D01*
X160323447Y-101339500D01*
X160323450Y-101339500D01*
X160560550Y-101339500D01*
X160560553Y-101339500D01*
X160789580Y-101278132D01*
X160994920Y-101159579D01*
X161162579Y-100991920D01*
X161281132Y-100786580D01*
X161342500Y-100557553D01*
X161342500Y-100320447D01*
X161281132Y-100091420D01*
X161162579Y-99886080D01*
X161041180Y-99764681D01*
X161004861Y-99677000D01*
X161041180Y-99589319D01*
X161101560Y-99528939D01*
X161162579Y-99467920D01*
X161281132Y-99262580D01*
X161342500Y-99033553D01*
X161342500Y-98796447D01*
X161293392Y-98613176D01*
X161305780Y-98519085D01*
X161351164Y-98473700D01*
X161515920Y-98378579D01*
X161683579Y-98210920D01*
X161802132Y-98005580D01*
X161863500Y-97776553D01*
X161863500Y-97539447D01*
X161802132Y-97310420D01*
X161683579Y-97105080D01*
X161624819Y-97046320D01*
X161588500Y-96958639D01*
X161588500Y-93237147D01*
X161624819Y-93149466D01*
X162545619Y-92228666D01*
X162633300Y-92192347D01*
X162716397Y-92192347D01*
X162716400Y-92192347D01*
X162945427Y-92130979D01*
X163150767Y-92012426D01*
X163318426Y-91844767D01*
X163436979Y-91639427D01*
X163498347Y-91410400D01*
X163498347Y-91173294D01*
X163436979Y-90944267D01*
X163318426Y-90738927D01*
X163150767Y-90571268D01*
X162945429Y-90452716D01*
X162945428Y-90452715D01*
X162888170Y-90437373D01*
X162716400Y-90391347D01*
X162479294Y-90391347D01*
X162341877Y-90428167D01*
X162250265Y-90452715D01*
X162250264Y-90452716D01*
X162044925Y-90571269D01*
X161877269Y-90738925D01*
X161758716Y-90944264D01*
X161758715Y-90944265D01*
X161741686Y-91007819D01*
X161697347Y-91173294D01*
X161697347Y-91173296D01*
X161697347Y-91256394D01*
X161661028Y-91344075D01*
X160462476Y-92542626D01*
X160462470Y-92542634D01*
X160396057Y-92657667D01*
X160380129Y-92685253D01*
X160380127Y-92685258D01*
X160358813Y-92764802D01*
X160337500Y-92844345D01*
X160337500Y-92844347D01*
X160337500Y-96906500D01*
X160301181Y-96994181D01*
X160213500Y-97030500D01*
X153954500Y-97030500D01*
X153866819Y-96994181D01*
X153830500Y-96906500D01*
X153830500Y-90552392D01*
X153847113Y-90490392D01*
X153868866Y-90452715D01*
X153915132Y-90372580D01*
X153976500Y-90143553D01*
X153976500Y-89906447D01*
X153915132Y-89677420D01*
X153796579Y-89472080D01*
X153628920Y-89304421D01*
X153423582Y-89185869D01*
X153423581Y-89185868D01*
X153366323Y-89170526D01*
X153194553Y-89124500D01*
X152957447Y-89124500D01*
X152820030Y-89161320D01*
X152728418Y-89185868D01*
X152728417Y-89185869D01*
X152523078Y-89304422D01*
X152355422Y-89472078D01*
X152236869Y-89677417D01*
X152236868Y-89677418D01*
X152232764Y-89692736D01*
X152175500Y-89906447D01*
X152175500Y-90143553D01*
X152202648Y-90244869D01*
X152236868Y-90372581D01*
X152236869Y-90372582D01*
X152304887Y-90490392D01*
X152321500Y-90552392D01*
X152321500Y-91878500D01*
X152285181Y-91966181D01*
X152197500Y-92002500D01*
X138100000Y-92002500D01*
X138012319Y-91966181D01*
X137976000Y-91878500D01*
X137976000Y-91781361D01*
X138012319Y-91693680D01*
X138069079Y-91636920D01*
X138187632Y-91431580D01*
X138249000Y-91202553D01*
X138249000Y-90965447D01*
X138187632Y-90736420D01*
X138069079Y-90531080D01*
X137901420Y-90363421D01*
X137696082Y-90244869D01*
X137696081Y-90244868D01*
X137638823Y-90229526D01*
X137467053Y-90183500D01*
X137229947Y-90183500D01*
X137092530Y-90220320D01*
X137000918Y-90244868D01*
X137000917Y-90244869D01*
X136795578Y-90363422D01*
X136627922Y-90531078D01*
X136509369Y-90736417D01*
X136509368Y-90736418D01*
X136508696Y-90738927D01*
X136448000Y-90965447D01*
X136448000Y-91202553D01*
X136485921Y-91344075D01*
X136509368Y-91431581D01*
X136509369Y-91431582D01*
X136595394Y-91580582D01*
X136627922Y-91636921D01*
X136684681Y-91693680D01*
X136721000Y-91781361D01*
X136721000Y-91878500D01*
X136684681Y-91966181D01*
X136597000Y-92002500D01*
X125596900Y-92002500D01*
X125509219Y-91966181D01*
X125472900Y-91878500D01*
X125472900Y-90283761D01*
X125509219Y-90196080D01*
X125596900Y-90159761D01*
X125684581Y-90196080D01*
X125783263Y-90294762D01*
X125988603Y-90413315D01*
X126217630Y-90474683D01*
X126217633Y-90474683D01*
X126454733Y-90474683D01*
X126454736Y-90474683D01*
X126683763Y-90413315D01*
X126889103Y-90294762D01*
X127056762Y-90127103D01*
X127175315Y-89921763D01*
X127236683Y-89692736D01*
X127236683Y-89635990D01*
X127273002Y-89548309D01*
X128355492Y-88465819D01*
X128443173Y-88429500D01*
X207567547Y-88429500D01*
X207655228Y-88465819D01*
X207747934Y-88558525D01*
X207747936Y-88558526D01*
X207747940Y-88558529D01*
X207890559Y-88640870D01*
X207890564Y-88640872D01*
X207890566Y-88640873D01*
X208049651Y-88683500D01*
X208321639Y-88683500D01*
X208409320Y-88719819D01*
X208468080Y-88778579D01*
X208673420Y-88897132D01*
X208902447Y-88958500D01*
X208902450Y-88958500D01*
X209139550Y-88958500D01*
X209139553Y-88958500D01*
X209368580Y-88897132D01*
X209573920Y-88778579D01*
X209741579Y-88610920D01*
X209860132Y-88405580D01*
X209921500Y-88176553D01*
X209921500Y-87939447D01*
X209860132Y-87710420D01*
X209834197Y-87665500D01*
X209807927Y-87619998D01*
X209795539Y-87525905D01*
X209807925Y-87496000D01*
X209860132Y-87405577D01*
X209921500Y-87176550D01*
X209921500Y-86939444D01*
X209860132Y-86710417D01*
X209741579Y-86505077D01*
X209573920Y-86337418D01*
X209527965Y-86310886D01*
X209470191Y-86235593D01*
X209482579Y-86141500D01*
X209557873Y-86083725D01*
X209589966Y-86079500D01*
X212117212Y-86079500D01*
X212149304Y-86083725D01*
G37*
%TD.AperFunction*%
%TA.AperFunction,Conductor*%
G36*
X148626104Y-97865819D02*
G01*
X148658196Y-97921404D01*
X148677268Y-97992579D01*
X148677269Y-97992582D01*
X148684774Y-98005581D01*
X148788120Y-98184582D01*
X148795822Y-98197921D01*
X148846720Y-98248819D01*
X148883039Y-98336500D01*
X148846720Y-98424181D01*
X148759039Y-98460500D01*
X148635447Y-98460500D01*
X148498743Y-98497130D01*
X148406418Y-98521868D01*
X148406417Y-98521869D01*
X148201078Y-98640422D01*
X148033422Y-98808078D01*
X147914869Y-99013417D01*
X147914868Y-99013418D01*
X147896153Y-99083264D01*
X147853500Y-99242447D01*
X147853500Y-99479553D01*
X147882738Y-99588669D01*
X147914868Y-99708581D01*
X147914869Y-99708582D01*
X148033421Y-99913920D01*
X148201080Y-100081579D01*
X148406420Y-100200132D01*
X148635447Y-100261500D01*
X148635450Y-100261500D01*
X148872550Y-100261500D01*
X148872553Y-100261500D01*
X149101580Y-100200132D01*
X149306920Y-100081579D01*
X149365680Y-100022819D01*
X149453361Y-99986500D01*
X150494500Y-99986500D01*
X150582181Y-100022819D01*
X150618500Y-100110500D01*
X150618500Y-105487055D01*
X150618499Y-105487073D01*
X150618499Y-105494668D01*
X150618499Y-105693332D01*
X150645370Y-105793612D01*
X150669918Y-105885227D01*
X150669921Y-105885232D01*
X150769244Y-106057267D01*
X150769250Y-106057275D01*
X150916791Y-106204816D01*
X150916797Y-106204821D01*
X152107563Y-107395587D01*
X152139656Y-107451173D01*
X152174867Y-107582579D01*
X152174869Y-107582582D01*
X152242887Y-107700392D01*
X152259500Y-107762392D01*
X152259500Y-110185055D01*
X152259499Y-110185073D01*
X152259499Y-110192668D01*
X152259499Y-110391332D01*
X152290627Y-110507500D01*
X152290626Y-110507500D01*
X152310916Y-110583221D01*
X152310921Y-110583232D01*
X152410244Y-110755267D01*
X152410250Y-110755275D01*
X152557791Y-110902816D01*
X152557797Y-110902821D01*
X158194563Y-116539587D01*
X158226656Y-116595173D01*
X158261867Y-116726579D01*
X158261869Y-116726583D01*
X158337028Y-116856761D01*
X158380421Y-116931920D01*
X158548080Y-117099579D01*
X158753420Y-117218132D01*
X158982447Y-117279500D01*
X159077500Y-117279500D01*
X159165181Y-117315819D01*
X159201500Y-117403500D01*
X159201500Y-117685519D01*
X159165181Y-117773200D01*
X158262200Y-118676181D01*
X158174519Y-118712500D01*
X149071087Y-118712500D01*
X148983406Y-118676181D01*
X148947087Y-118588500D01*
X148983406Y-118500819D01*
X149038991Y-118468726D01*
X149059178Y-118463317D01*
X149287321Y-118331599D01*
X149473599Y-118145321D01*
X149605317Y-117917178D01*
X149673500Y-117662718D01*
X149673500Y-116799282D01*
X149605317Y-116544822D01*
X149473599Y-116316679D01*
X149287321Y-116130401D01*
X149287320Y-116130400D01*
X149287317Y-116130398D01*
X149059180Y-115998684D01*
X149059179Y-115998683D01*
X148995563Y-115981637D01*
X148804718Y-115930500D01*
X148541282Y-115930500D01*
X148388606Y-115971409D01*
X148286820Y-115998683D01*
X148286819Y-115998684D01*
X148058682Y-116130398D01*
X148058677Y-116130402D01*
X147872402Y-116316677D01*
X147872398Y-116316682D01*
X147740684Y-116544819D01*
X147740683Y-116544820D01*
X147727191Y-116595173D01*
X147672500Y-116799282D01*
X147672500Y-117662718D01*
X147702104Y-117773200D01*
X147740683Y-117917179D01*
X147740684Y-117917180D01*
X147872398Y-118145317D01*
X147872400Y-118145320D01*
X147872401Y-118145321D01*
X148058679Y-118331599D01*
X148286822Y-118463317D01*
X148307008Y-118468725D01*
X148382300Y-118526500D01*
X148394688Y-118620594D01*
X148336913Y-118695887D01*
X148274913Y-118712500D01*
X140431087Y-118712500D01*
X140343406Y-118676181D01*
X140307087Y-118588500D01*
X140343406Y-118500819D01*
X140398991Y-118468726D01*
X140419178Y-118463317D01*
X140647321Y-118331599D01*
X140833599Y-118145321D01*
X140965317Y-117917178D01*
X141033500Y-117662718D01*
X141033500Y-116799282D01*
X140965317Y-116544822D01*
X140833599Y-116316679D01*
X140647321Y-116130401D01*
X140647320Y-116130400D01*
X140647317Y-116130398D01*
X140419180Y-115998684D01*
X140419179Y-115998683D01*
X140355563Y-115981637D01*
X140164718Y-115930500D01*
X139901282Y-115930500D01*
X139748606Y-115971409D01*
X139646820Y-115998683D01*
X139646819Y-115998684D01*
X139418682Y-116130398D01*
X139418677Y-116130402D01*
X139232402Y-116316677D01*
X139232398Y-116316682D01*
X139100684Y-116544819D01*
X139100683Y-116544820D01*
X139087191Y-116595173D01*
X139032500Y-116799282D01*
X139032500Y-117662718D01*
X139062104Y-117773200D01*
X139100683Y-117917179D01*
X139100684Y-117917180D01*
X139232398Y-118145317D01*
X139232400Y-118145320D01*
X139232401Y-118145321D01*
X139418679Y-118331599D01*
X139646822Y-118463317D01*
X139667008Y-118468725D01*
X139742300Y-118526500D01*
X139754688Y-118620594D01*
X139696913Y-118695887D01*
X139634913Y-118712500D01*
X120777081Y-118712500D01*
X120689400Y-118676181D01*
X114382501Y-112369282D01*
X139032500Y-112369282D01*
X139032500Y-113732718D01*
X139063570Y-113848672D01*
X139100683Y-113987179D01*
X139100684Y-113987180D01*
X139232398Y-114215317D01*
X139232400Y-114215320D01*
X139232401Y-114215321D01*
X139418679Y-114401599D01*
X139646822Y-114533317D01*
X139901282Y-114601500D01*
X139901285Y-114601500D01*
X140164715Y-114601500D01*
X140164718Y-114601500D01*
X140419178Y-114533317D01*
X140647321Y-114401599D01*
X140833599Y-114215321D01*
X140954315Y-114006233D01*
X141029608Y-113948458D01*
X141123701Y-113960846D01*
X141149383Y-113980552D01*
X141165328Y-113996497D01*
X141301898Y-114053066D01*
X141358469Y-114076499D01*
X141358470Y-114076499D01*
X141358472Y-114076500D01*
X141358473Y-114076500D01*
X141567527Y-114076500D01*
X141567528Y-114076500D01*
X141760672Y-113996497D01*
X141908497Y-113848672D01*
X141988500Y-113655528D01*
X141988500Y-113446472D01*
X141908497Y-113253328D01*
X141760672Y-113105503D01*
X141743833Y-113098528D01*
X141567530Y-113025500D01*
X141567528Y-113025500D01*
X141358472Y-113025500D01*
X141358469Y-113025500D01*
X141204953Y-113089089D01*
X141110047Y-113089089D01*
X141042939Y-113021981D01*
X141033500Y-112974528D01*
X141033500Y-112369284D01*
X141033500Y-112369282D01*
X140965317Y-112114822D01*
X140856590Y-111926500D01*
X140833601Y-111886682D01*
X140833597Y-111886677D01*
X140647322Y-111700402D01*
X140647317Y-111700398D01*
X140419180Y-111568684D01*
X140419179Y-111568683D01*
X140355563Y-111551637D01*
X140164718Y-111500500D01*
X139901282Y-111500500D01*
X139748606Y-111541409D01*
X139646820Y-111568683D01*
X139646819Y-111568684D01*
X139418682Y-111700398D01*
X139418677Y-111700402D01*
X139232402Y-111886677D01*
X139232398Y-111886682D01*
X139100684Y-112114819D01*
X139100683Y-112114820D01*
X139099506Y-112119214D01*
X139032500Y-112369282D01*
X114382501Y-112369282D01*
X113455400Y-111442181D01*
X113419081Y-111354500D01*
X113455400Y-111266819D01*
X113543081Y-111230500D01*
X113666015Y-111230500D01*
X113666016Y-111230499D01*
X113926926Y-111178601D01*
X114172701Y-111076797D01*
X114393893Y-110929001D01*
X114582001Y-110740893D01*
X114699898Y-110564448D01*
X114778809Y-110511722D01*
X114871891Y-110530237D01*
X114906102Y-110564448D01*
X115023998Y-110740892D01*
X115024001Y-110740896D01*
X115212103Y-110928998D01*
X115212107Y-110929001D01*
X115433292Y-111076793D01*
X115433296Y-111076795D01*
X115433299Y-111076797D01*
X115679074Y-111178601D01*
X115939982Y-111230499D01*
X115939985Y-111230500D01*
X115939987Y-111230500D01*
X116206015Y-111230500D01*
X116276745Y-111216430D01*
X116416313Y-111188668D01*
X116509394Y-111207182D01*
X116528185Y-111222604D01*
X116979706Y-111674125D01*
X117122794Y-111756737D01*
X117282388Y-111799500D01*
X117282390Y-111799500D01*
X126426610Y-111799500D01*
X126426612Y-111799500D01*
X126586206Y-111756737D01*
X126729294Y-111674125D01*
X127406972Y-110996447D01*
X141007500Y-110996447D01*
X141007500Y-111233553D01*
X141033638Y-111331101D01*
X141068868Y-111462581D01*
X141068869Y-111462582D01*
X141187421Y-111667920D01*
X141355080Y-111835579D01*
X141560420Y-111954132D01*
X141789447Y-112015500D01*
X141789450Y-112015500D01*
X142026550Y-112015500D01*
X142026553Y-112015500D01*
X142255580Y-111954132D01*
X142274665Y-111943112D01*
X142336666Y-111926500D01*
X146771608Y-111926500D01*
X146833607Y-111943112D01*
X146951420Y-112011132D01*
X147180447Y-112072500D01*
X147180450Y-112072500D01*
X147417550Y-112072500D01*
X147417553Y-112072500D01*
X147570441Y-112031533D01*
X147664531Y-112043921D01*
X147722307Y-112119214D01*
X147722307Y-112183401D01*
X147672500Y-112369282D01*
X147672500Y-112369284D01*
X147672500Y-112974528D01*
X147636181Y-113062209D01*
X147548500Y-113098528D01*
X147501047Y-113089089D01*
X147347530Y-113025500D01*
X147347528Y-113025500D01*
X147138472Y-113025500D01*
X147138469Y-113025500D01*
X146945327Y-113105503D01*
X146797503Y-113253327D01*
X146717500Y-113446469D01*
X146717500Y-113655530D01*
X146797503Y-113848672D01*
X146945328Y-113996497D01*
X147081898Y-114053066D01*
X147138469Y-114076499D01*
X147138470Y-114076499D01*
X147138472Y-114076500D01*
X147138473Y-114076500D01*
X147347527Y-114076500D01*
X147347528Y-114076500D01*
X147540672Y-113996497D01*
X147556615Y-113980553D01*
X147644294Y-113944233D01*
X147731976Y-113980550D01*
X147751684Y-114006233D01*
X147872398Y-114215317D01*
X147872400Y-114215320D01*
X147872401Y-114215321D01*
X148058679Y-114401599D01*
X148286822Y-114533317D01*
X148541282Y-114601500D01*
X148541285Y-114601500D01*
X148804715Y-114601500D01*
X148804718Y-114601500D01*
X149059178Y-114533317D01*
X149287321Y-114401599D01*
X149473599Y-114215321D01*
X149605317Y-113987178D01*
X149673500Y-113732718D01*
X149673500Y-112369282D01*
X149605317Y-112114822D01*
X149496590Y-111926500D01*
X149473601Y-111886682D01*
X149473597Y-111886677D01*
X149287322Y-111700402D01*
X149287317Y-111700398D01*
X149059180Y-111568684D01*
X149059179Y-111568683D01*
X148995563Y-111551637D01*
X148804718Y-111500500D01*
X148541282Y-111500500D01*
X148319910Y-111559816D01*
X148225818Y-111547429D01*
X148168043Y-111472136D01*
X148168043Y-111407951D01*
X148199500Y-111290553D01*
X148199500Y-111053447D01*
X148138132Y-110824420D01*
X148019579Y-110619080D01*
X147851920Y-110451421D01*
X147646582Y-110332869D01*
X147646581Y-110332868D01*
X147589323Y-110317526D01*
X147417553Y-110271500D01*
X147180447Y-110271500D01*
X147043030Y-110308320D01*
X146951418Y-110332868D01*
X146951417Y-110332869D01*
X146881828Y-110373047D01*
X146842253Y-110395896D01*
X146833608Y-110400887D01*
X146771608Y-110417500D01*
X142533088Y-110417500D01*
X142469452Y-110395896D01*
X142467958Y-110398485D01*
X142460921Y-110394422D01*
X142460920Y-110394421D01*
X142272592Y-110285690D01*
X142255582Y-110275869D01*
X142255581Y-110275868D01*
X142198323Y-110260526D01*
X142026553Y-110214500D01*
X141789447Y-110214500D01*
X141652030Y-110251320D01*
X141560418Y-110275868D01*
X141560417Y-110275869D01*
X141355078Y-110394422D01*
X141187422Y-110562078D01*
X141068869Y-110767417D01*
X141068868Y-110767418D01*
X141053595Y-110824418D01*
X141007500Y-110996447D01*
X127406972Y-110996447D01*
X134339125Y-104064294D01*
X134421737Y-103921206D01*
X134464500Y-103761612D01*
X134464500Y-103596388D01*
X134464500Y-102007394D01*
X134500819Y-101919713D01*
X134556405Y-101887619D01*
X134692580Y-101851132D01*
X134897920Y-101732579D01*
X135065579Y-101564920D01*
X135184132Y-101359580D01*
X135245500Y-101130553D01*
X135245500Y-100893447D01*
X135245137Y-100890691D01*
X135245500Y-100889336D01*
X135245500Y-100885320D01*
X135246576Y-100885320D01*
X135269696Y-100799018D01*
X135351884Y-100751562D01*
X135368075Y-100750500D01*
X143707078Y-100750500D01*
X143707080Y-100750500D01*
X143866674Y-100707737D01*
X144009762Y-100625125D01*
X146769068Y-97865819D01*
X146856749Y-97829500D01*
X148538423Y-97829500D01*
X148626104Y-97865819D01*
G37*
%TD.AperFunction*%
%TA.AperFunction,Conductor*%
G36*
X155815259Y-98291912D02*
G01*
X155831873Y-98289725D01*
X155857555Y-98309431D01*
X155887460Y-98321819D01*
X155893872Y-98337299D01*
X155907166Y-98347500D01*
X155911391Y-98379593D01*
X155923779Y-98409500D01*
X155919554Y-98441589D01*
X155858500Y-98669447D01*
X155858500Y-98906553D01*
X155887135Y-99013418D01*
X155919868Y-99135581D01*
X155919869Y-99135582D01*
X156038419Y-99340917D01*
X156038422Y-99340921D01*
X156095181Y-99397680D01*
X156131500Y-99485361D01*
X156131500Y-112043114D01*
X156095181Y-112130795D01*
X156007500Y-112167114D01*
X155919819Y-112130795D01*
X153804819Y-110015795D01*
X153768500Y-109928114D01*
X153768500Y-107762392D01*
X153785113Y-107700392D01*
X153785114Y-107700391D01*
X153853132Y-107582580D01*
X153914500Y-107353553D01*
X153914500Y-107116447D01*
X153853132Y-106887420D01*
X153734579Y-106682080D01*
X153566920Y-106514421D01*
X153491761Y-106471028D01*
X153361583Y-106395869D01*
X153361579Y-106395867D01*
X153230173Y-106360656D01*
X153174587Y-106328563D01*
X152163819Y-105317795D01*
X152127500Y-105230114D01*
X152127500Y-99724885D01*
X152163818Y-99637205D01*
X153236590Y-98564432D01*
X153292173Y-98532341D01*
X153423580Y-98497132D01*
X153628920Y-98378579D01*
X153685680Y-98321819D01*
X153773361Y-98285500D01*
X155799779Y-98285500D01*
X155815259Y-98291912D01*
G37*
%TD.AperFunction*%
%TA.AperFunction,Conductor*%
G36*
X127157400Y-109295819D02*
G01*
X127193719Y-109383500D01*
X127157400Y-109471181D01*
X126120400Y-110508181D01*
X126032719Y-110544500D01*
X119985104Y-110544500D01*
X119897423Y-110508181D01*
X119861104Y-110420500D01*
X119870543Y-110373047D01*
X119883000Y-110342974D01*
X119911601Y-110273926D01*
X119963500Y-110013013D01*
X119963500Y-109746987D01*
X119963500Y-109746984D01*
X119963499Y-109746982D01*
X119921669Y-109536685D01*
X119924146Y-109524228D01*
X119919286Y-109512494D01*
X119933127Y-109479076D01*
X119940184Y-109443603D01*
X119955599Y-109424818D01*
X120084601Y-109295817D01*
X120172281Y-109259500D01*
X127069719Y-109259500D01*
X127157400Y-109295819D01*
G37*
%TD.AperFunction*%
%TA.AperFunction,Conductor*%
G36*
X131885606Y-100786819D02*
G01*
X131921925Y-100874500D01*
X131920863Y-100890691D01*
X131920500Y-100893447D01*
X131920500Y-101130553D01*
X131960044Y-101278131D01*
X131981868Y-101359581D01*
X131981869Y-101359582D01*
X132100421Y-101564920D01*
X132268080Y-101732579D01*
X132473420Y-101851132D01*
X132609594Y-101887619D01*
X132684887Y-101945394D01*
X132701500Y-102007394D01*
X132701500Y-103232251D01*
X132665181Y-103319932D01*
X128016932Y-107968181D01*
X127929251Y-108004500D01*
X119985104Y-108004500D01*
X119897423Y-107968181D01*
X119861104Y-107880500D01*
X119870543Y-107833047D01*
X119883000Y-107802974D01*
X119911601Y-107733926D01*
X119963500Y-107473013D01*
X119963500Y-107206987D01*
X119963500Y-107206984D01*
X119963499Y-107206982D01*
X119921669Y-106996684D01*
X119940184Y-106903602D01*
X119955600Y-106884817D01*
X121430800Y-105409619D01*
X121518481Y-105373300D01*
X125791610Y-105373300D01*
X125791612Y-105373300D01*
X125951206Y-105330537D01*
X126094294Y-105247925D01*
X130555400Y-100786819D01*
X130643081Y-100750500D01*
X131797925Y-100750500D01*
X131885606Y-100786819D01*
G37*
%TD.AperFunction*%
%TA.AperFunction,Conductor*%
G36*
X152285181Y-93547819D02*
G01*
X152321500Y-93635500D01*
X152321500Y-97130606D01*
X152304887Y-97192605D01*
X152236871Y-97310413D01*
X152236869Y-97310417D01*
X152201658Y-97441824D01*
X152169564Y-97497410D01*
X150967795Y-98699181D01*
X150880114Y-98735500D01*
X149867734Y-98735500D01*
X149780053Y-98699181D01*
X149743734Y-98611500D01*
X149780053Y-98523819D01*
X149835639Y-98491725D01*
X149863980Y-98484132D01*
X150069320Y-98365579D01*
X150236979Y-98197920D01*
X150355532Y-97992580D01*
X150416900Y-97763553D01*
X150416900Y-97526447D01*
X150355532Y-97297420D01*
X150236979Y-97092080D01*
X150119781Y-96974882D01*
X150083462Y-96887201D01*
X150119781Y-96799520D01*
X150236979Y-96682322D01*
X150355532Y-96476982D01*
X150416900Y-96247955D01*
X150416900Y-96010849D01*
X150355532Y-95781822D01*
X150236979Y-95576482D01*
X150069320Y-95408823D01*
X149863982Y-95290271D01*
X149863981Y-95290270D01*
X149806723Y-95274928D01*
X149634953Y-95228902D01*
X149397847Y-95228902D01*
X149260430Y-95265722D01*
X149168818Y-95290270D01*
X149168817Y-95290271D01*
X148963478Y-95408824D01*
X148795822Y-95576480D01*
X148677269Y-95781819D01*
X148677268Y-95781820D01*
X148670908Y-95805558D01*
X148659643Y-95847595D01*
X148601870Y-95922887D01*
X148539870Y-95939500D01*
X146619612Y-95939500D01*
X146454388Y-95939500D01*
X146294794Y-95982263D01*
X146294793Y-95982263D01*
X146294791Y-95982264D01*
X146294790Y-95982264D01*
X146151709Y-96064873D01*
X146151703Y-96064877D01*
X143212400Y-99004181D01*
X143124719Y-99040500D01*
X130225945Y-99040500D01*
X130060721Y-99040500D01*
X129901127Y-99083263D01*
X129901126Y-99083263D01*
X129901124Y-99083264D01*
X129901123Y-99083264D01*
X129758042Y-99165873D01*
X129758036Y-99165877D01*
X125296932Y-103626981D01*
X125209251Y-103663300D01*
X123841691Y-103663300D01*
X123754010Y-103626981D01*
X123717691Y-103539300D01*
X123754010Y-103451619D01*
X124523107Y-102682522D01*
X125296776Y-101908853D01*
X125412827Y-101707846D01*
X125416677Y-101693478D01*
X125420752Y-101678273D01*
X125442886Y-101595664D01*
X125472900Y-101483652D01*
X125472900Y-98626986D01*
X125477125Y-98594893D01*
X125491900Y-98539753D01*
X125491900Y-98302647D01*
X125477477Y-98248819D01*
X125477125Y-98247504D01*
X125472900Y-98215412D01*
X125472900Y-93635500D01*
X125509219Y-93547819D01*
X125596900Y-93511500D01*
X137166668Y-93511500D01*
X137700068Y-93511500D01*
X152197500Y-93511500D01*
X152285181Y-93547819D01*
G37*
%TD.AperFunction*%
%TA.AperFunction,Conductor*%
G36*
X192742951Y-64407819D02*
G01*
X192779270Y-64495500D01*
X192742951Y-64583181D01*
X192711565Y-64605985D01*
X192588394Y-64668743D01*
X192370399Y-64827126D01*
X192206306Y-64946348D01*
X192206304Y-64946350D01*
X192206303Y-64946350D01*
X191872349Y-65280304D01*
X191872349Y-65280305D01*
X191872347Y-65280307D01*
X191753125Y-65444400D01*
X191594742Y-65662395D01*
X191380329Y-66083206D01*
X191234381Y-66532385D01*
X191160500Y-66998851D01*
X191160500Y-67471150D01*
X191232564Y-67926142D01*
X191234382Y-67937620D01*
X191378586Y-68381433D01*
X191380329Y-68386795D01*
X191383150Y-68392332D01*
X191594742Y-68807606D01*
X191872347Y-69189695D01*
X192206306Y-69523654D01*
X192588395Y-69801259D01*
X193009208Y-70015673D01*
X193458381Y-70161619D01*
X193633309Y-70189324D01*
X193924851Y-70235501D01*
X193924856Y-70235501D01*
X194397149Y-70235501D01*
X194656296Y-70194455D01*
X194863619Y-70161619D01*
X195312792Y-70015673D01*
X195733605Y-69801259D01*
X196115694Y-69523654D01*
X196449653Y-69189695D01*
X196727258Y-68807606D01*
X196941672Y-68386793D01*
X197087618Y-67937620D01*
X197152630Y-67527150D01*
X197161500Y-67471150D01*
X197161500Y-66998851D01*
X197096488Y-66588385D01*
X197087618Y-66532382D01*
X196951905Y-66114703D01*
X198296000Y-66114703D01*
X198296000Y-68213290D01*
X198325040Y-68359288D01*
X198398786Y-68469656D01*
X198435660Y-68524841D01*
X198601215Y-68635461D01*
X198601218Y-68635461D01*
X198601219Y-68635462D01*
X198674211Y-68649981D01*
X198747207Y-68664501D01*
X200750792Y-68664500D01*
X200896785Y-68635461D01*
X200896786Y-68635460D01*
X200896787Y-68635460D01*
X201017003Y-68555134D01*
X201062340Y-68524841D01*
X201172720Y-68359644D01*
X201251629Y-68306919D01*
X201344711Y-68325433D01*
X201357992Y-68336333D01*
X201358057Y-68336254D01*
X201362767Y-68340119D01*
X201600740Y-68499129D01*
X201600746Y-68499132D01*
X201600747Y-68499133D01*
X201865176Y-68608663D01*
X202145882Y-68664499D01*
X202145887Y-68664500D01*
X202145890Y-68664501D01*
X202145892Y-68664501D01*
X202432110Y-68664501D01*
X202432111Y-68664500D01*
X202712824Y-68608663D01*
X202977253Y-68499133D01*
X203215233Y-68340119D01*
X203417618Y-68137734D01*
X203453711Y-68083718D01*
X203455898Y-68080445D01*
X203534808Y-68027718D01*
X203627890Y-68046233D01*
X203662102Y-68080445D01*
X203700378Y-68137729D01*
X203700384Y-68137737D01*
X203902763Y-68340116D01*
X203902767Y-68340119D01*
X204140740Y-68499129D01*
X204140746Y-68499132D01*
X204140747Y-68499133D01*
X204405176Y-68608663D01*
X204685882Y-68664499D01*
X204685887Y-68664500D01*
X204685890Y-68664501D01*
X204685892Y-68664501D01*
X204972110Y-68664501D01*
X204972111Y-68664500D01*
X205252824Y-68608663D01*
X205517253Y-68499133D01*
X205755233Y-68340119D01*
X205957618Y-68137734D01*
X206116632Y-67899754D01*
X206226162Y-67635325D01*
X206282000Y-67354609D01*
X206282000Y-66973393D01*
X206282000Y-66973392D01*
X206282000Y-66973390D01*
X206281999Y-66973388D01*
X206270170Y-66913918D01*
X206226162Y-66692677D01*
X206120688Y-66438039D01*
X206116633Y-66428250D01*
X206116628Y-66428241D01*
X205957618Y-66190268D01*
X205957615Y-66190264D01*
X205755236Y-65987885D01*
X205755232Y-65987882D01*
X205517259Y-65828872D01*
X205517250Y-65828867D01*
X205252824Y-65719339D01*
X205252816Y-65719337D01*
X204972111Y-65663501D01*
X204972108Y-65663501D01*
X204685892Y-65663501D01*
X204685889Y-65663501D01*
X204405183Y-65719337D01*
X204405175Y-65719339D01*
X204140749Y-65828867D01*
X204140740Y-65828872D01*
X203902767Y-65987882D01*
X203902763Y-65987885D01*
X203700384Y-66190264D01*
X203700381Y-66190268D01*
X203662102Y-66247557D01*
X203583191Y-66300283D01*
X203490109Y-66281768D01*
X203455898Y-66247557D01*
X203417618Y-66190268D01*
X203417615Y-66190264D01*
X203215236Y-65987885D01*
X203215232Y-65987882D01*
X202977259Y-65828872D01*
X202977250Y-65828867D01*
X202712824Y-65719339D01*
X202712816Y-65719337D01*
X202432111Y-65663501D01*
X202432108Y-65663501D01*
X202145892Y-65663501D01*
X202145889Y-65663501D01*
X201865183Y-65719337D01*
X201865175Y-65719339D01*
X201600749Y-65828867D01*
X201600740Y-65828872D01*
X201362767Y-65987882D01*
X201358057Y-65991748D01*
X201356623Y-65990001D01*
X201275805Y-66023464D01*
X201188128Y-65987133D01*
X201172720Y-65968355D01*
X201112244Y-65877848D01*
X201062340Y-65803161D01*
X200896785Y-65692541D01*
X200896783Y-65692540D01*
X200896780Y-65692539D01*
X200750796Y-65663501D01*
X198747210Y-65663501D01*
X198601212Y-65692541D01*
X198435660Y-65803161D01*
X198325040Y-65968716D01*
X198325038Y-65968720D01*
X198296000Y-66114703D01*
X196951905Y-66114703D01*
X196941672Y-66083209D01*
X196727258Y-65662396D01*
X196449653Y-65280307D01*
X196115694Y-64946348D01*
X195733605Y-64668743D01*
X195610435Y-64605985D01*
X195548799Y-64533818D01*
X195556245Y-64439205D01*
X195628412Y-64377569D01*
X195666730Y-64371500D01*
X217277115Y-64371500D01*
X217348933Y-64371500D01*
X217357043Y-64371765D01*
X217882480Y-64406203D01*
X217898538Y-64408318D01*
X218335172Y-64495170D01*
X218410972Y-64510248D01*
X218426639Y-64514446D01*
X218785482Y-64636256D01*
X218921387Y-64682390D01*
X218936364Y-64688593D01*
X219381043Y-64907884D01*
X219404960Y-64919679D01*
X219419008Y-64927789D01*
X219853430Y-65218061D01*
X219866290Y-65227929D01*
X220106264Y-65438381D01*
X220259108Y-65572422D01*
X220270577Y-65583891D01*
X220389504Y-65719501D01*
X220511981Y-65859159D01*
X220615067Y-65976705D01*
X220624940Y-65989571D01*
X220648422Y-66024715D01*
X220915210Y-66423992D01*
X220923320Y-66438039D01*
X221154403Y-66906628D01*
X221160610Y-66921614D01*
X221328553Y-67416360D01*
X221332751Y-67432027D01*
X221434679Y-67944450D01*
X221436797Y-67960531D01*
X221471235Y-68485956D01*
X221471500Y-68494066D01*
X221471500Y-78396904D01*
X221435181Y-78484585D01*
X221347500Y-78520904D01*
X221259819Y-78484585D01*
X216117235Y-73342001D01*
X216117233Y-73341999D01*
X216048911Y-73302553D01*
X215887270Y-73209229D01*
X215887271Y-73209229D01*
X215866238Y-73203593D01*
X215630772Y-73140500D01*
X215630769Y-73140500D01*
X185906660Y-73140500D01*
X185818979Y-73104181D01*
X185782660Y-73016500D01*
X185782660Y-70655703D01*
X185783402Y-70642156D01*
X185784023Y-70636494D01*
X185784025Y-70636488D01*
X185784618Y-70583793D01*
X185784643Y-70580688D01*
X185784651Y-70579141D01*
X185784658Y-70575876D01*
X185782137Y-68514373D01*
X185818349Y-68426648D01*
X185905985Y-68390222D01*
X185975028Y-68411120D01*
X186106740Y-68499128D01*
X186106749Y-68499133D01*
X186143544Y-68514374D01*
X186371176Y-68608662D01*
X186651887Y-68664499D01*
X186651890Y-68664500D01*
X186651892Y-68664500D01*
X186938110Y-68664500D01*
X186938111Y-68664499D01*
X187218824Y-68608662D01*
X187483253Y-68499132D01*
X187721233Y-68340118D01*
X187923618Y-68137733D01*
X188082632Y-67899753D01*
X188192162Y-67635324D01*
X188248000Y-67354608D01*
X188248000Y-66973392D01*
X188248000Y-66973390D01*
X188248000Y-66973389D01*
X188247999Y-66973387D01*
X188234720Y-66906628D01*
X188192162Y-66692676D01*
X188082632Y-66428247D01*
X188082631Y-66428246D01*
X188082628Y-66428240D01*
X187923618Y-66190267D01*
X187923615Y-66190263D01*
X187721236Y-65987884D01*
X187721232Y-65987881D01*
X187483259Y-65828871D01*
X187483250Y-65828866D01*
X187218824Y-65719338D01*
X187218816Y-65719336D01*
X186938111Y-65663500D01*
X186938108Y-65663500D01*
X186651892Y-65663500D01*
X186651889Y-65663500D01*
X186371183Y-65719336D01*
X186371175Y-65719338D01*
X186106749Y-65828866D01*
X186106740Y-65828871D01*
X185868767Y-65987881D01*
X185712596Y-66144052D01*
X185624915Y-66180370D01*
X185537234Y-66144051D01*
X185160413Y-65767230D01*
X185160409Y-65767227D01*
X184994739Y-65656529D01*
X184907063Y-65620212D01*
X184895084Y-65617830D01*
X184895084Y-65617829D01*
X184895079Y-65617829D01*
X184835722Y-65606022D01*
X184711640Y-65581340D01*
X184711638Y-65581340D01*
X183798360Y-65581340D01*
X183798358Y-65581340D01*
X183602944Y-65620210D01*
X183602938Y-65620212D01*
X183515260Y-65656529D01*
X183349590Y-65767227D01*
X183249461Y-65867356D01*
X183161779Y-65903674D01*
X183074098Y-65867355D01*
X183058681Y-65848569D01*
X183028340Y-65803160D01*
X182862785Y-65692540D01*
X182862783Y-65692539D01*
X182862780Y-65692538D01*
X182716796Y-65663500D01*
X180713210Y-65663500D01*
X180567212Y-65692540D01*
X180401660Y-65803160D01*
X180291040Y-65968715D01*
X180291038Y-65968719D01*
X180262000Y-66114702D01*
X180262000Y-68213289D01*
X180291040Y-68359287D01*
X180346839Y-68442795D01*
X180401660Y-68524840D01*
X180567215Y-68635460D01*
X180567218Y-68635460D01*
X180567219Y-68635461D01*
X180640211Y-68649980D01*
X180713207Y-68664500D01*
X181930955Y-68664499D01*
X182018636Y-68700818D01*
X182054955Y-68788499D01*
X182018636Y-68876180D01*
X180975797Y-69919021D01*
X180888116Y-69955340D01*
X149752240Y-69955340D01*
X149664559Y-69919021D01*
X149628240Y-69831340D01*
X149664559Y-69743659D01*
X149679350Y-69731025D01*
X149887694Y-69579654D01*
X150221653Y-69245695D01*
X150499258Y-68863606D01*
X150713672Y-68442793D01*
X150859618Y-67993620D01*
X150907498Y-67691316D01*
X150933500Y-67527150D01*
X150933500Y-67054851D01*
X150876138Y-66692684D01*
X150859618Y-66588382D01*
X150723905Y-66170703D01*
X152068000Y-66170703D01*
X152068000Y-68269290D01*
X152097040Y-68415288D01*
X152153065Y-68499134D01*
X152207660Y-68580841D01*
X152373215Y-68691461D01*
X152373218Y-68691461D01*
X152373219Y-68691462D01*
X152420255Y-68700818D01*
X152519207Y-68720501D01*
X154522792Y-68720500D01*
X154668785Y-68691461D01*
X154668786Y-68691460D01*
X154668787Y-68691460D01*
X154724219Y-68654420D01*
X154834340Y-68580841D01*
X154944720Y-68415644D01*
X155023629Y-68362919D01*
X155116711Y-68381433D01*
X155129992Y-68392333D01*
X155130057Y-68392254D01*
X155134767Y-68396119D01*
X155372740Y-68555129D01*
X155372749Y-68555134D01*
X155432652Y-68579946D01*
X155637176Y-68664663D01*
X155842196Y-68705444D01*
X155917887Y-68720500D01*
X155917890Y-68720501D01*
X155917892Y-68720501D01*
X156204110Y-68720501D01*
X156204111Y-68720500D01*
X156484824Y-68664663D01*
X156749253Y-68555133D01*
X156987233Y-68396119D01*
X157189618Y-68193734D01*
X157204918Y-68170835D01*
X157227898Y-68136445D01*
X157306808Y-68083718D01*
X157399890Y-68102233D01*
X157434102Y-68136445D01*
X157472378Y-68193729D01*
X157472384Y-68193737D01*
X157674763Y-68396116D01*
X157674767Y-68396119D01*
X157912740Y-68555129D01*
X157912749Y-68555134D01*
X157972652Y-68579946D01*
X158177176Y-68664663D01*
X158382196Y-68705444D01*
X158457887Y-68720500D01*
X158457890Y-68720501D01*
X158457892Y-68720501D01*
X158744110Y-68720501D01*
X158744111Y-68720500D01*
X159024824Y-68664663D01*
X159289253Y-68555133D01*
X159527233Y-68396119D01*
X159729618Y-68193734D01*
X159888632Y-67955754D01*
X159998162Y-67691325D01*
X160054000Y-67410609D01*
X160054000Y-67029393D01*
X160054000Y-67029392D01*
X160054000Y-67029390D01*
X160053999Y-67029388D01*
X160032561Y-66921614D01*
X159998162Y-66748677D01*
X159888632Y-66484248D01*
X159888631Y-66484247D01*
X159888628Y-66484241D01*
X159729618Y-66246268D01*
X159729615Y-66246264D01*
X159527236Y-66043885D01*
X159527232Y-66043882D01*
X159289259Y-65884872D01*
X159289250Y-65884867D01*
X159024824Y-65775339D01*
X159024816Y-65775337D01*
X158744111Y-65719501D01*
X158744108Y-65719501D01*
X158457892Y-65719501D01*
X158457889Y-65719501D01*
X158177183Y-65775337D01*
X158177175Y-65775339D01*
X157912749Y-65884867D01*
X157912740Y-65884872D01*
X157674767Y-66043882D01*
X157674763Y-66043885D01*
X157472384Y-66246264D01*
X157472381Y-66246268D01*
X157434102Y-66303557D01*
X157355191Y-66356283D01*
X157262109Y-66337768D01*
X157227898Y-66303557D01*
X157189618Y-66246268D01*
X157189615Y-66246264D01*
X156987236Y-66043885D01*
X156987232Y-66043882D01*
X156749259Y-65884872D01*
X156749250Y-65884867D01*
X156484824Y-65775339D01*
X156484816Y-65775337D01*
X156204111Y-65719501D01*
X156204108Y-65719501D01*
X155917892Y-65719501D01*
X155917889Y-65719501D01*
X155637183Y-65775337D01*
X155637175Y-65775339D01*
X155372749Y-65884867D01*
X155372740Y-65884872D01*
X155134767Y-66043882D01*
X155130057Y-66047748D01*
X155128623Y-66046001D01*
X155047805Y-66079464D01*
X154960128Y-66043133D01*
X154944720Y-66024355D01*
X154884244Y-65933848D01*
X154834340Y-65859161D01*
X154668785Y-65748541D01*
X154668783Y-65748540D01*
X154668780Y-65748539D01*
X154522796Y-65719501D01*
X152519210Y-65719501D01*
X152373212Y-65748541D01*
X152207660Y-65859161D01*
X152097040Y-66024716D01*
X152097038Y-66024720D01*
X152068000Y-66170703D01*
X150723905Y-66170703D01*
X150713672Y-66139209D01*
X150499258Y-65718396D01*
X150221653Y-65336307D01*
X149887694Y-65002348D01*
X149505605Y-64724743D01*
X149272527Y-64605984D01*
X149210892Y-64533818D01*
X149218338Y-64439205D01*
X149290505Y-64377569D01*
X149328823Y-64371500D01*
X192655270Y-64371500D01*
X192742951Y-64407819D01*
G37*
%TD.AperFunction*%
%TA.AperFunction,Conductor*%
G36*
X100396856Y-64407819D02*
G01*
X100433175Y-64495500D01*
X100396856Y-64583181D01*
X100365470Y-64605985D01*
X100132394Y-64724742D01*
X99914399Y-64883125D01*
X99750306Y-65002347D01*
X99750304Y-65002349D01*
X99750303Y-65002349D01*
X99416349Y-65336303D01*
X99416349Y-65336304D01*
X99416347Y-65336306D01*
X99316318Y-65473984D01*
X99138742Y-65718394D01*
X98924329Y-66139205D01*
X98924329Y-66139206D01*
X98924328Y-66139208D01*
X98859812Y-66337767D01*
X98778381Y-66588384D01*
X98704500Y-67054850D01*
X98704500Y-67527149D01*
X98778381Y-67993615D01*
X98778381Y-67993617D01*
X98778382Y-67993619D01*
X98919082Y-68426648D01*
X98924329Y-68442794D01*
X98953033Y-68499129D01*
X99138742Y-68863605D01*
X99416347Y-69245694D01*
X99750306Y-69579653D01*
X99958647Y-69731022D01*
X100008234Y-69811943D01*
X99986079Y-69904226D01*
X99905158Y-69953813D01*
X99885761Y-69955340D01*
X95109884Y-69955340D01*
X95022203Y-69919021D01*
X94020307Y-68917125D01*
X93983988Y-68829444D01*
X94020307Y-68741763D01*
X94107988Y-68705444D01*
X94132180Y-68707827D01*
X94195889Y-68720500D01*
X94195892Y-68720500D01*
X94482110Y-68720500D01*
X94482111Y-68720499D01*
X94762824Y-68664662D01*
X95027253Y-68555132D01*
X95265233Y-68396118D01*
X95467618Y-68193733D01*
X95626632Y-67955753D01*
X95736162Y-67691324D01*
X95792000Y-67410608D01*
X95792000Y-67029392D01*
X95792000Y-67029390D01*
X95792000Y-67029389D01*
X95791999Y-67029387D01*
X95780860Y-66973387D01*
X95736162Y-66748676D01*
X95626632Y-66484247D01*
X95626631Y-66484246D01*
X95626628Y-66484240D01*
X95467618Y-66246267D01*
X95467615Y-66246263D01*
X95265236Y-66043884D01*
X95265232Y-66043881D01*
X95027259Y-65884871D01*
X95027250Y-65884866D01*
X94762824Y-65775338D01*
X94762816Y-65775336D01*
X94482111Y-65719500D01*
X94482108Y-65719500D01*
X94195892Y-65719500D01*
X94195889Y-65719500D01*
X93915183Y-65775336D01*
X93915175Y-65775338D01*
X93650749Y-65884866D01*
X93650740Y-65884871D01*
X93412767Y-66043881D01*
X93256596Y-66200052D01*
X93168915Y-66236370D01*
X93081234Y-66200051D01*
X92704413Y-65823230D01*
X92704409Y-65823227D01*
X92538739Y-65712529D01*
X92451063Y-65676212D01*
X92439084Y-65673830D01*
X92439084Y-65673829D01*
X92439079Y-65673829D01*
X92352107Y-65656529D01*
X92255640Y-65637340D01*
X92255638Y-65637340D01*
X91342360Y-65637340D01*
X91342358Y-65637340D01*
X91146944Y-65676210D01*
X91146938Y-65676212D01*
X91059260Y-65712529D01*
X90893590Y-65823227D01*
X90793461Y-65923356D01*
X90705779Y-65959674D01*
X90618098Y-65923355D01*
X90602681Y-65904569D01*
X90572340Y-65859160D01*
X90406785Y-65748540D01*
X90406783Y-65748539D01*
X90406780Y-65748538D01*
X90260796Y-65719500D01*
X88257210Y-65719500D01*
X88111212Y-65748540D01*
X87945660Y-65859160D01*
X87835040Y-66024715D01*
X87835038Y-66024719D01*
X87806000Y-66170702D01*
X87806000Y-68269289D01*
X87835040Y-68415287D01*
X87891065Y-68499133D01*
X87945660Y-68580840D01*
X88111215Y-68691460D01*
X88111218Y-68691460D01*
X88111219Y-68691461D01*
X88158260Y-68700818D01*
X88257207Y-68720500D01*
X89474955Y-68720499D01*
X89562636Y-68756818D01*
X89598955Y-68844499D01*
X89562636Y-68932180D01*
X88575797Y-69919021D01*
X88488116Y-69955340D01*
X75722358Y-69955340D01*
X75526944Y-69994210D01*
X75526938Y-69994212D01*
X75439260Y-70030529D01*
X75273590Y-70141227D01*
X75273586Y-70141230D01*
X67446181Y-77968636D01*
X67358500Y-78004955D01*
X67270819Y-77968636D01*
X67234500Y-77880955D01*
X67234500Y-68494066D01*
X67234765Y-68485956D01*
X67240901Y-68392332D01*
X67269203Y-67960517D01*
X67271318Y-67944463D01*
X67373248Y-67432025D01*
X67377446Y-67416360D01*
X67427462Y-67269015D01*
X67545392Y-66921606D01*
X67551590Y-66906641D01*
X67782682Y-66438033D01*
X67790785Y-66423998D01*
X68081066Y-65989561D01*
X68090923Y-65976716D01*
X68435427Y-65583885D01*
X68446885Y-65572427D01*
X68839716Y-65227923D01*
X68852561Y-65218066D01*
X69286998Y-64927785D01*
X69301033Y-64919682D01*
X69769641Y-64688590D01*
X69784606Y-64682392D01*
X70132015Y-64564462D01*
X70279360Y-64514446D01*
X70295027Y-64510248D01*
X70807463Y-64408318D01*
X70823517Y-64406203D01*
X71348957Y-64371765D01*
X71357067Y-64371500D01*
X71428885Y-64371500D01*
X100309175Y-64371500D01*
X100396856Y-64407819D01*
G37*
%TD.AperFunction*%
%TA.AperFunction,Conductor*%
G36*
X146624858Y-64407819D02*
G01*
X146661177Y-64495500D01*
X146624858Y-64583181D01*
X146593472Y-64605985D01*
X146360394Y-64724743D01*
X146142399Y-64883126D01*
X145978306Y-65002348D01*
X145978304Y-65002350D01*
X145978303Y-65002350D01*
X145644349Y-65336304D01*
X145644349Y-65336305D01*
X145644347Y-65336307D01*
X145544318Y-65473984D01*
X145366742Y-65718395D01*
X145152329Y-66139206D01*
X145006381Y-66588385D01*
X144932500Y-67054851D01*
X144932500Y-67527150D01*
X145001141Y-67960531D01*
X145006382Y-67993620D01*
X145143507Y-68415646D01*
X145152329Y-68442795D01*
X145181034Y-68499132D01*
X145366742Y-68863606D01*
X145644347Y-69245695D01*
X145978306Y-69579654D01*
X146186646Y-69731022D01*
X146236233Y-69811942D01*
X146214078Y-69904226D01*
X146133158Y-69953813D01*
X146113760Y-69955340D01*
X141337884Y-69955340D01*
X141250203Y-69919021D01*
X140248307Y-68917125D01*
X140211988Y-68829444D01*
X140248307Y-68741763D01*
X140335988Y-68705444D01*
X140360180Y-68707827D01*
X140423889Y-68720500D01*
X140423892Y-68720500D01*
X140710110Y-68720500D01*
X140710111Y-68720499D01*
X140990824Y-68664662D01*
X141255253Y-68555132D01*
X141493233Y-68396118D01*
X141695618Y-68193733D01*
X141854632Y-67955753D01*
X141964162Y-67691324D01*
X142020000Y-67410608D01*
X142020000Y-67029392D01*
X142020000Y-67029390D01*
X142020000Y-67029389D01*
X142019999Y-67029387D01*
X142008860Y-66973387D01*
X141964162Y-66748676D01*
X141854632Y-66484247D01*
X141854631Y-66484246D01*
X141854628Y-66484240D01*
X141695618Y-66246267D01*
X141695615Y-66246263D01*
X141493236Y-66043884D01*
X141493232Y-66043881D01*
X141255259Y-65884871D01*
X141255250Y-65884866D01*
X140990824Y-65775338D01*
X140990816Y-65775336D01*
X140710111Y-65719500D01*
X140710108Y-65719500D01*
X140423892Y-65719500D01*
X140423889Y-65719500D01*
X140143183Y-65775336D01*
X140143175Y-65775338D01*
X139878749Y-65884866D01*
X139878740Y-65884871D01*
X139640767Y-66043881D01*
X139484596Y-66200052D01*
X139396915Y-66236370D01*
X139309234Y-66200051D01*
X138932413Y-65823230D01*
X138932409Y-65823227D01*
X138766739Y-65712529D01*
X138679063Y-65676212D01*
X138667084Y-65673830D01*
X138667084Y-65673829D01*
X138667079Y-65673829D01*
X138580107Y-65656529D01*
X138483640Y-65637340D01*
X138483638Y-65637340D01*
X137570360Y-65637340D01*
X137570358Y-65637340D01*
X137374944Y-65676210D01*
X137374938Y-65676212D01*
X137287260Y-65712529D01*
X137121590Y-65823227D01*
X137021461Y-65923356D01*
X136933779Y-65959674D01*
X136846098Y-65923355D01*
X136830681Y-65904569D01*
X136800340Y-65859160D01*
X136634785Y-65748540D01*
X136634783Y-65748539D01*
X136634780Y-65748538D01*
X136488796Y-65719500D01*
X134485210Y-65719500D01*
X134339212Y-65748540D01*
X134173660Y-65859160D01*
X134063040Y-66024715D01*
X134063038Y-66024719D01*
X134034000Y-66170702D01*
X134034000Y-68269289D01*
X134063040Y-68415287D01*
X134119065Y-68499133D01*
X134173660Y-68580840D01*
X134339215Y-68691460D01*
X134339218Y-68691460D01*
X134339219Y-68691461D01*
X134386260Y-68700818D01*
X134485207Y-68720500D01*
X135702955Y-68720499D01*
X135790636Y-68756818D01*
X135826955Y-68844499D01*
X135790636Y-68932180D01*
X134803797Y-69919021D01*
X134716116Y-69955340D01*
X103524239Y-69955340D01*
X103436558Y-69919021D01*
X103400239Y-69831340D01*
X103436558Y-69743659D01*
X103451353Y-69731022D01*
X103659694Y-69579653D01*
X103993653Y-69245694D01*
X104271258Y-68863605D01*
X104485672Y-68442792D01*
X104631618Y-67993619D01*
X104664454Y-67786296D01*
X104705500Y-67527149D01*
X104705500Y-67054850D01*
X104648137Y-66692677D01*
X104631618Y-66588381D01*
X104495905Y-66170702D01*
X105840000Y-66170702D01*
X105840000Y-68269289D01*
X105869040Y-68415287D01*
X105925065Y-68499133D01*
X105979660Y-68580840D01*
X106145215Y-68691460D01*
X106145218Y-68691460D01*
X106145219Y-68691461D01*
X106192260Y-68700818D01*
X106291207Y-68720500D01*
X108294792Y-68720499D01*
X108440785Y-68691460D01*
X108440786Y-68691459D01*
X108440787Y-68691459D01*
X108524592Y-68635462D01*
X108606340Y-68580840D01*
X108716720Y-68415643D01*
X108795629Y-68362918D01*
X108888711Y-68381432D01*
X108901992Y-68392332D01*
X108902057Y-68392253D01*
X108906767Y-68396118D01*
X109144740Y-68555128D01*
X109144749Y-68555133D01*
X109157663Y-68560482D01*
X109409176Y-68664662D01*
X109614201Y-68705444D01*
X109689887Y-68720499D01*
X109689890Y-68720500D01*
X109689892Y-68720500D01*
X109976110Y-68720500D01*
X109976111Y-68720499D01*
X110256824Y-68664662D01*
X110521253Y-68555132D01*
X110759233Y-68396118D01*
X110961618Y-68193733D01*
X110999034Y-68137737D01*
X110999898Y-68136444D01*
X111078808Y-68083717D01*
X111171890Y-68102232D01*
X111206102Y-68136444D01*
X111244378Y-68193728D01*
X111244384Y-68193736D01*
X111446763Y-68396115D01*
X111446767Y-68396118D01*
X111684740Y-68555128D01*
X111684749Y-68555133D01*
X111697663Y-68560482D01*
X111949176Y-68664662D01*
X112154201Y-68705444D01*
X112229887Y-68720499D01*
X112229890Y-68720500D01*
X112229892Y-68720500D01*
X112516110Y-68720500D01*
X112516111Y-68720499D01*
X112796824Y-68664662D01*
X113061253Y-68555132D01*
X113299233Y-68396118D01*
X113501618Y-68193733D01*
X113660632Y-67955753D01*
X113770162Y-67691324D01*
X113826000Y-67410608D01*
X113826000Y-67029392D01*
X113826000Y-67029390D01*
X113826000Y-67029389D01*
X113825999Y-67029387D01*
X113814860Y-66973387D01*
X113770162Y-66748676D01*
X113660632Y-66484247D01*
X113660631Y-66484246D01*
X113660628Y-66484240D01*
X113501618Y-66246267D01*
X113501615Y-66246263D01*
X113299236Y-66043884D01*
X113299232Y-66043881D01*
X113061259Y-65884871D01*
X113061250Y-65884866D01*
X112796824Y-65775338D01*
X112796816Y-65775336D01*
X112516111Y-65719500D01*
X112516108Y-65719500D01*
X112229892Y-65719500D01*
X112229889Y-65719500D01*
X111949183Y-65775336D01*
X111949175Y-65775338D01*
X111684749Y-65884866D01*
X111684740Y-65884871D01*
X111446767Y-66043881D01*
X111446763Y-66043884D01*
X111244384Y-66246263D01*
X111244381Y-66246267D01*
X111206102Y-66303556D01*
X111127191Y-66356282D01*
X111034109Y-66337767D01*
X110999898Y-66303556D01*
X110961618Y-66246267D01*
X110961615Y-66246263D01*
X110759236Y-66043884D01*
X110759232Y-66043881D01*
X110521259Y-65884871D01*
X110521250Y-65884866D01*
X110256824Y-65775338D01*
X110256816Y-65775336D01*
X109976111Y-65719500D01*
X109976108Y-65719500D01*
X109689892Y-65719500D01*
X109689889Y-65719500D01*
X109409183Y-65775336D01*
X109409175Y-65775338D01*
X109144749Y-65884866D01*
X109144740Y-65884871D01*
X108906767Y-66043881D01*
X108902057Y-66047747D01*
X108900623Y-66046000D01*
X108819805Y-66079463D01*
X108732128Y-66043132D01*
X108716720Y-66024354D01*
X108649234Y-65923356D01*
X108606340Y-65859160D01*
X108440785Y-65748540D01*
X108440783Y-65748539D01*
X108440780Y-65748538D01*
X108294796Y-65719500D01*
X106291210Y-65719500D01*
X106145212Y-65748540D01*
X105979660Y-65859160D01*
X105869040Y-66024715D01*
X105869038Y-66024719D01*
X105840000Y-66170702D01*
X104495905Y-66170702D01*
X104485672Y-66139208D01*
X104271258Y-65718395D01*
X103993653Y-65336306D01*
X103659694Y-65002347D01*
X103277605Y-64724742D01*
X103044529Y-64605984D01*
X102982894Y-64533818D01*
X102990340Y-64439205D01*
X103062507Y-64377569D01*
X103100825Y-64371500D01*
X146537177Y-64371500D01*
X146624858Y-64407819D01*
G37*
%TD.AperFunction*%
%TD*%
M02*
