%TF.GenerationSoftware,KiCad,Pcbnew,9.0.2*%
%TF.CreationDate,2025-05-19T15:54:50+02:00*%
%TF.ProjectId,ESC-TFG-KiCad,4553432d-5446-4472-9d4b-694361642e6b,v1.0*%
%TF.SameCoordinates,Original*%
%TF.FileFunction,Legend,Bot*%
%TF.FilePolarity,Positive*%
%FSLAX46Y46*%
G04 Gerber Fmt 4.6, Leading zero omitted, Abs format (unit mm)*
G04 Created by KiCad (PCBNEW 9.0.2) date 2025-05-19 15:54:50*
%MOMM*%
%LPD*%
G01*
G04 APERTURE LIST*
%ADD10C,0.300000*%
%ADD11C,0.000000*%
%ADD12C,0.010000*%
G04 APERTURE END LIST*
D10*
G36*
X219114857Y-73794207D02*
G01*
X219193466Y-73812097D01*
X219265346Y-73842252D01*
X219325174Y-73882805D01*
X219374286Y-73934558D01*
X219411728Y-73997569D01*
X219434856Y-74068926D01*
X219442960Y-74152724D01*
X219436170Y-74229595D01*
X219417864Y-74287455D01*
X219389100Y-74337829D01*
X219354758Y-74379137D01*
X219395791Y-74429329D01*
X219430138Y-74482635D01*
X219454226Y-74540429D01*
X219463385Y-74605550D01*
X219456887Y-74655115D01*
X219437282Y-74701813D01*
X219405649Y-74742299D01*
X219360986Y-74775543D01*
X219426566Y-74828575D01*
X219472727Y-74883071D01*
X219500388Y-74941598D01*
X219509547Y-75007910D01*
X219502559Y-75064846D01*
X219481887Y-75116354D01*
X219447644Y-75161381D01*
X219396341Y-75201442D01*
X219333271Y-75232062D01*
X219247780Y-75257038D01*
X219152559Y-75271535D01*
X219030984Y-75276913D01*
X218905186Y-75269555D01*
X218802464Y-75249252D01*
X218709791Y-75215594D01*
X218638058Y-75174148D01*
X218579537Y-75121643D01*
X218539140Y-75062315D01*
X218514555Y-74995921D01*
X218508737Y-74945903D01*
X218764545Y-74945903D01*
X218767862Y-74975509D01*
X218777918Y-75004338D01*
X218795074Y-75030224D01*
X218821973Y-75053706D01*
X218855601Y-75072167D01*
X218901382Y-75087961D01*
X218952866Y-75097483D01*
X219020726Y-75101058D01*
X219124669Y-75093038D01*
X219192459Y-75072848D01*
X219227252Y-75049650D01*
X219246732Y-75021030D01*
X219253367Y-74985195D01*
X219249795Y-74946819D01*
X219235507Y-74911007D01*
X219205740Y-74875286D01*
X219157013Y-74837001D01*
X218936737Y-74841123D01*
X218867585Y-74849641D01*
X218813272Y-74868783D01*
X218777368Y-74900016D01*
X218767901Y-74920300D01*
X218764545Y-74945903D01*
X218508737Y-74945903D01*
X218506350Y-74925386D01*
X218513100Y-74864603D01*
X218532545Y-74812455D01*
X218563901Y-74766915D01*
X218606826Y-74728191D01*
X218658515Y-74697913D01*
X218722047Y-74674519D01*
X218791479Y-74660008D01*
X218872165Y-74653453D01*
X219119094Y-74644202D01*
X219168828Y-74635043D01*
X219206747Y-74614252D01*
X219230835Y-74585217D01*
X219238987Y-74552702D01*
X219235848Y-74527383D01*
X219226714Y-74505441D01*
X219197038Y-74467248D01*
X219170316Y-74479833D01*
X219127429Y-74492435D01*
X219080093Y-74500380D01*
X219026954Y-74503152D01*
X218937154Y-74497194D01*
X218858335Y-74480162D01*
X218786400Y-74451090D01*
X218727176Y-74412019D01*
X218678622Y-74361702D01*
X218642088Y-74300277D01*
X218619754Y-74230242D01*
X218611949Y-74147504D01*
X218844504Y-74147504D01*
X218855770Y-74217937D01*
X218869934Y-74249679D01*
X218889567Y-74277105D01*
X218914701Y-74299773D01*
X218946445Y-74317863D01*
X218982693Y-74329136D01*
X219026862Y-74333159D01*
X219082988Y-74327257D01*
X219127389Y-74310856D01*
X219162692Y-74284707D01*
X219189141Y-74249652D01*
X219205505Y-74206715D01*
X219211327Y-74153640D01*
X219200061Y-74081192D01*
X219185858Y-74048437D01*
X219166264Y-74020467D01*
X219141087Y-73997359D01*
X219109386Y-73979159D01*
X219073138Y-73967886D01*
X219028969Y-73963863D01*
X218972845Y-73969768D01*
X218928478Y-73986170D01*
X218893231Y-74012315D01*
X218866916Y-74047464D01*
X218850433Y-74091653D01*
X218844504Y-74147504D01*
X218611949Y-74147504D01*
X218611863Y-74146588D01*
X218614816Y-74105057D01*
X218623678Y-74064339D01*
X218639459Y-74025359D01*
X218664162Y-73987311D01*
X218500214Y-73987311D01*
X218500214Y-73805594D01*
X218860899Y-73805594D01*
X218938294Y-73791947D01*
X219026954Y-73788009D01*
X219114857Y-73794207D01*
G37*
G36*
X217678916Y-73518914D02*
G01*
X217682043Y-73551979D01*
X217691281Y-73582661D01*
X217706070Y-73610696D01*
X217725628Y-73634685D01*
X217749428Y-73654382D01*
X217777377Y-73669673D01*
X217808044Y-73679232D01*
X217841857Y-73682496D01*
X217875747Y-73679244D01*
X217906887Y-73669673D01*
X217935237Y-73654359D01*
X217959185Y-73634685D01*
X217978690Y-73610706D01*
X217993532Y-73582661D01*
X218002700Y-73551983D01*
X218005805Y-73518914D01*
X218002698Y-73485765D01*
X217993532Y-73455075D01*
X217978712Y-73426948D01*
X217959185Y-73402593D01*
X217935194Y-73382502D01*
X217906887Y-73367148D01*
X217875743Y-73357507D01*
X217841857Y-73354233D01*
X217808048Y-73357519D01*
X217777377Y-73367148D01*
X217749471Y-73382479D01*
X217725628Y-73402593D01*
X217706048Y-73426958D01*
X217691281Y-73455075D01*
X217682045Y-73485770D01*
X217678916Y-73518914D01*
G37*
G36*
X217955521Y-73999034D02*
G01*
X218249620Y-73999034D01*
X218249620Y-73805594D01*
X217699433Y-73805594D01*
X217699433Y-74655559D01*
X217399197Y-74655559D01*
X217399197Y-74849000D01*
X218285524Y-74849000D01*
X218285524Y-74655559D01*
X217955521Y-74655559D01*
X217955521Y-73999034D01*
G37*
G36*
X216279680Y-74837276D02*
G01*
X216415967Y-74862830D01*
X216546118Y-74872447D01*
X216644810Y-74866636D01*
X216722889Y-74850831D01*
X216792019Y-74822893D01*
X216845896Y-74784977D01*
X216887725Y-74735346D01*
X216917611Y-74672320D01*
X216934442Y-74600215D01*
X216940601Y-74509288D01*
X216940601Y-73999034D01*
X217220320Y-73999034D01*
X217220320Y-73805594D01*
X216940601Y-73805594D01*
X216940601Y-73538331D01*
X216684421Y-73471470D01*
X216684421Y-73805594D01*
X216279680Y-73805594D01*
X216279680Y-73999034D01*
X216684421Y-73999034D01*
X216684421Y-74491703D01*
X216679199Y-74550165D01*
X216665097Y-74594244D01*
X216643479Y-74627258D01*
X216612850Y-74651228D01*
X216568664Y-74667118D01*
X216506093Y-74673145D01*
X216386292Y-74662520D01*
X216279680Y-74637974D01*
X216279680Y-74837276D01*
G37*
G36*
X215364044Y-74849000D02*
G01*
X215364044Y-74174981D01*
X215370542Y-74106746D01*
X215387396Y-74060401D01*
X215412391Y-74029858D01*
X215445963Y-74011495D01*
X215491081Y-74004896D01*
X215531667Y-74010240D01*
X215571795Y-74026678D01*
X215612530Y-74055821D01*
X215669303Y-74112771D01*
X215734988Y-74194307D01*
X215734988Y-74849000D01*
X215985031Y-74849000D01*
X215985031Y-73401128D01*
X215734988Y-73401128D01*
X215734988Y-73759157D01*
X215747261Y-73948476D01*
X215682781Y-73880516D01*
X215612072Y-73829957D01*
X215530098Y-73798725D01*
X215484734Y-73790799D01*
X215432737Y-73788009D01*
X215356086Y-73794885D01*
X215293427Y-73814112D01*
X215238594Y-73845703D01*
X215194051Y-73887660D01*
X215159474Y-73939224D01*
X215134059Y-74002148D01*
X215119300Y-74071457D01*
X215114092Y-74151900D01*
X215114092Y-74849000D01*
X215364044Y-74849000D01*
G37*
G36*
X214583779Y-73805594D02*
G01*
X214583779Y-74483551D01*
X214574845Y-74562018D01*
X214551997Y-74612053D01*
X214527844Y-74635765D01*
X214496531Y-74650325D01*
X214455735Y-74655559D01*
X214415852Y-74650181D01*
X214376069Y-74633556D01*
X214335293Y-74603902D01*
X214278495Y-74546199D01*
X214212836Y-74464042D01*
X214212836Y-73805594D01*
X213962792Y-73805594D01*
X213962792Y-74849000D01*
X214179039Y-74849000D01*
X214185175Y-74694943D01*
X214251762Y-74767850D01*
X214325035Y-74823720D01*
X214366006Y-74844116D01*
X214411130Y-74859624D01*
X214459188Y-74869117D01*
X214514079Y-74872447D01*
X214590729Y-74865565D01*
X214653938Y-74846252D01*
X214709125Y-74814348D01*
X214753864Y-74771788D01*
X214788389Y-74719581D01*
X214813765Y-74656292D01*
X214828522Y-74586700D01*
X214833731Y-74505899D01*
X214833731Y-73805594D01*
X214583779Y-73805594D01*
G37*
G36*
X213678402Y-74804120D02*
G01*
X213587780Y-74829670D01*
X213491464Y-74849641D01*
X213391433Y-74862200D01*
X213279797Y-74866585D01*
X213166942Y-74858072D01*
X213065658Y-74833429D01*
X212973422Y-74791025D01*
X212895115Y-74731305D01*
X212831575Y-74654738D01*
X212782366Y-74558198D01*
X212760615Y-74487575D01*
X212746780Y-74405760D01*
X212742423Y-74321435D01*
X213004200Y-74321435D01*
X213009037Y-74399019D01*
X213022701Y-74465508D01*
X213045667Y-74525961D01*
X213075458Y-74574226D01*
X213113489Y-74613810D01*
X213158439Y-74643011D01*
X213209182Y-74661081D01*
X213266517Y-74667283D01*
X213355177Y-74660230D01*
X213428358Y-74642004D01*
X213428358Y-74193024D01*
X213362681Y-74112021D01*
X213305901Y-74055454D01*
X213265191Y-74026529D01*
X213225090Y-74010205D01*
X213184543Y-74004896D01*
X213143311Y-74009464D01*
X213108247Y-74022573D01*
X213078088Y-74044840D01*
X213051827Y-74078719D01*
X213032159Y-74120525D01*
X213016473Y-74176813D01*
X213007545Y-74239604D01*
X213004200Y-74321435D01*
X212742423Y-74321435D01*
X212741883Y-74310994D01*
X212748607Y-74193846D01*
X212767529Y-74093923D01*
X212799711Y-74002714D01*
X212841809Y-73929517D01*
X212896483Y-73869130D01*
X212962160Y-73824828D01*
X213037636Y-73797524D01*
X213126108Y-73788009D01*
X213195287Y-73793246D01*
X213255056Y-73808164D01*
X213307000Y-73832064D01*
X213377117Y-73882927D01*
X213438616Y-73948934D01*
X213428358Y-73743678D01*
X213428358Y-73401128D01*
X213678402Y-73401128D01*
X213678402Y-74804120D01*
G37*
G36*
X212096807Y-74467981D02*
G01*
X212054978Y-74472056D01*
X212016940Y-74484009D01*
X211982314Y-74502920D01*
X211952918Y-74527332D01*
X211928781Y-74556929D01*
X211910328Y-74591812D01*
X211898836Y-74629959D01*
X211894940Y-74671221D01*
X211898824Y-74711544D01*
X211910328Y-74749165D01*
X211928744Y-74783601D01*
X211952918Y-74813187D01*
X211982308Y-74837527D01*
X212016940Y-74856418D01*
X212054978Y-74868371D01*
X212096807Y-74872447D01*
X212136678Y-74868400D01*
X212173652Y-74856418D01*
X212207354Y-74837566D01*
X212236209Y-74813187D01*
X212259873Y-74783647D01*
X212278158Y-74749165D01*
X212289662Y-74711544D01*
X212293545Y-74671221D01*
X212289649Y-74629959D01*
X212278158Y-74591812D01*
X212259836Y-74556883D01*
X212236209Y-74527332D01*
X212207347Y-74502880D01*
X212173652Y-74484009D01*
X212136678Y-74472027D01*
X212096807Y-74467981D01*
G37*
G36*
X210529501Y-74807967D02*
G01*
X210604457Y-74833932D01*
X210682183Y-74852205D01*
X210762129Y-74862927D01*
X210847139Y-74866585D01*
X210967207Y-74857780D01*
X211069522Y-74832879D01*
X211161338Y-74790479D01*
X211236584Y-74732770D01*
X211296535Y-74659367D01*
X211341547Y-74568273D01*
X211368334Y-74465508D01*
X211377909Y-74341493D01*
X211367721Y-74220784D01*
X211338525Y-74115721D01*
X211290509Y-74021211D01*
X211227333Y-73943072D01*
X211148941Y-73880146D01*
X211054684Y-73832705D01*
X210949887Y-73803911D01*
X210829736Y-73793870D01*
X210732252Y-73797065D01*
X210659102Y-73805502D01*
X210534630Y-73834903D01*
X210534630Y-74075238D01*
X210600238Y-74048164D01*
X210672475Y-74027611D01*
X210746026Y-74014829D01*
X210813342Y-74010758D01*
X210880600Y-74016838D01*
X210938363Y-74034205D01*
X210989690Y-74062412D01*
X211031603Y-74099327D01*
X211064647Y-74144792D01*
X211089489Y-74200535D01*
X211104308Y-74261966D01*
X211109456Y-74331235D01*
X211103847Y-74403106D01*
X211087932Y-74464592D01*
X211061581Y-74519727D01*
X211027024Y-74564792D01*
X210983833Y-74600944D01*
X210932227Y-74627807D01*
X210874727Y-74644053D01*
X210809220Y-74649697D01*
X210740069Y-74644935D01*
X210667345Y-74631196D01*
X210595630Y-74610588D01*
X210529501Y-74585217D01*
X210529501Y-74807967D01*
G37*
G36*
X209889457Y-73798226D02*
G01*
X209988930Y-73827393D01*
X210077449Y-73875144D01*
X210150314Y-73938310D01*
X210208080Y-74016241D01*
X210251705Y-74111050D01*
X210277902Y-74215795D01*
X210287059Y-74335815D01*
X210278100Y-74464913D01*
X210253262Y-74570471D01*
X210211176Y-74664155D01*
X210155901Y-74738083D01*
X210085938Y-74796356D01*
X210001204Y-74838741D01*
X209906105Y-74863647D01*
X209794208Y-74872447D01*
X209676712Y-74862069D01*
X209577045Y-74832605D01*
X209488599Y-74784209D01*
X209416120Y-74720222D01*
X209358811Y-74641331D01*
X209315736Y-74545925D01*
X209289849Y-74440767D01*
X209281304Y-74327663D01*
X209541142Y-74327663D01*
X209544839Y-74395533D01*
X209555521Y-74456990D01*
X209573848Y-74514150D01*
X209598569Y-74561404D01*
X209631630Y-74600851D01*
X209673399Y-74630646D01*
X209722371Y-74649053D01*
X209781935Y-74655559D01*
X209853833Y-74646051D01*
X209912551Y-74618889D01*
X209961270Y-74573585D01*
X209995572Y-74515207D01*
X210018337Y-74435981D01*
X210026849Y-74329678D01*
X210023304Y-74263767D01*
X210013019Y-74203466D01*
X209994876Y-74147268D01*
X209969513Y-74100151D01*
X209935604Y-74060477D01*
X209893676Y-74030359D01*
X209844201Y-74011619D01*
X209781935Y-74004896D01*
X209706698Y-74014563D01*
X209648112Y-74041611D01*
X209602141Y-74085863D01*
X209570388Y-74143224D01*
X209549129Y-74221721D01*
X209541142Y-74327663D01*
X209281304Y-74327663D01*
X209280840Y-74321527D01*
X209289649Y-74195295D01*
X209314179Y-74091083D01*
X209355759Y-73998197D01*
X209410991Y-73924021D01*
X209480925Y-73865144D01*
X209565688Y-73822264D01*
X209660936Y-73796967D01*
X209773691Y-73788009D01*
X209889457Y-73798226D01*
G37*
G36*
X208330399Y-74849000D02*
G01*
X208330399Y-74142466D01*
X208332506Y-74074597D01*
X208340658Y-74026145D01*
X208358609Y-73997019D01*
X208371908Y-73989930D01*
X208390849Y-73987311D01*
X208420195Y-73996583D01*
X208453406Y-74030175D01*
X208482974Y-74081404D01*
X208523107Y-74176172D01*
X208523107Y-74849000D01*
X208737247Y-74849000D01*
X208737247Y-74142466D01*
X208739353Y-74074597D01*
X208747505Y-74026145D01*
X208765915Y-73997019D01*
X208779677Y-73989911D01*
X208798704Y-73987311D01*
X208824010Y-73996040D01*
X208858147Y-74030175D01*
X208889393Y-74081519D01*
X208930870Y-74176172D01*
X208930870Y-74849000D01*
X209147117Y-74849000D01*
X209147117Y-73805594D01*
X208961645Y-73805594D01*
X208957523Y-73957544D01*
X208912461Y-73879874D01*
X208864284Y-73826843D01*
X208837510Y-73808912D01*
X208809512Y-73797076D01*
X208743383Y-73788009D01*
X208687027Y-73793619D01*
X208643796Y-73808966D01*
X208610668Y-73832980D01*
X208585372Y-73865516D01*
X208567958Y-73906341D01*
X208558919Y-73957544D01*
X208510284Y-73879874D01*
X208460092Y-73826843D01*
X208432696Y-73808950D01*
X208403672Y-73797076D01*
X208336628Y-73788009D01*
X208264951Y-73797537D01*
X208210338Y-73824046D01*
X208168558Y-73867418D01*
X208140393Y-73923143D01*
X208121399Y-73999482D01*
X208114244Y-74102441D01*
X208114244Y-74849000D01*
X208330399Y-74849000D01*
G37*
G36*
X207737622Y-75071749D02*
G01*
X207980430Y-75071749D01*
X207265287Y-73401128D01*
X207021380Y-73401128D01*
X207737622Y-75071749D01*
G37*
G36*
X206896816Y-74849000D02*
G01*
X206646772Y-74849000D01*
X206571027Y-74585217D01*
X206103729Y-74585217D01*
X206029998Y-74849000D01*
X205751286Y-74849000D01*
X205890408Y-74380053D01*
X206160057Y-74380053D01*
X206510576Y-74380053D01*
X206334264Y-73753570D01*
X206160057Y-74380053D01*
X205890408Y-74380053D01*
X206147784Y-73512503D01*
X206500318Y-73512503D01*
X206896816Y-74849000D01*
G37*
G36*
X204984211Y-73806418D02*
G01*
X205054462Y-73793138D01*
X205132772Y-73788009D01*
X205245700Y-73796569D01*
X205347003Y-73821348D01*
X205439135Y-73863920D01*
X205517088Y-73923930D01*
X205580140Y-74000845D01*
X205629287Y-74098411D01*
X205651049Y-74169633D01*
X205664879Y-74251977D01*
X205669770Y-74347172D01*
X205663095Y-74463957D01*
X205644216Y-74564701D01*
X205611957Y-74656771D01*
X205569936Y-74730389D01*
X205515187Y-74790988D01*
X205449494Y-74835536D01*
X205373934Y-74862912D01*
X205285454Y-74872447D01*
X205231587Y-74869113D01*
X205184613Y-74859624D01*
X205140285Y-74844249D01*
X205099066Y-74823812D01*
X205024237Y-74768033D01*
X204956551Y-74695310D01*
X204950414Y-74849000D01*
X204734259Y-74849000D01*
X204734259Y-74012773D01*
X204984211Y-74012773D01*
X204984211Y-74465050D01*
X205049870Y-74547546D01*
X205106211Y-74604635D01*
X205146598Y-74633758D01*
X205186542Y-74650204D01*
X205227111Y-74655559D01*
X205268416Y-74650984D01*
X205303956Y-74637790D01*
X205334482Y-74615295D01*
X205360834Y-74581187D01*
X205380378Y-74539022D01*
X205395730Y-74481903D01*
X205404265Y-74418173D01*
X205407454Y-74335723D01*
X205402637Y-74257512D01*
X205389044Y-74190551D01*
X205366018Y-74129648D01*
X205336287Y-74081100D01*
X205298256Y-74041136D01*
X205253764Y-74011766D01*
X205203272Y-73993595D01*
X205145137Y-73987311D01*
X205057484Y-73994455D01*
X204984211Y-74012773D01*
X204734259Y-74012773D01*
X204734259Y-73401128D01*
X204984211Y-73401128D01*
X204984211Y-73806418D01*
G37*
G36*
X203781712Y-74210060D02*
G01*
X203782256Y-74155640D01*
X203787391Y-74113981D01*
X203797759Y-74076667D01*
X203811937Y-74048585D01*
X203831113Y-74026028D01*
X203853520Y-74010941D01*
X203879328Y-74002123D01*
X203909756Y-73999034D01*
X203963883Y-74009466D01*
X204024062Y-74044097D01*
X204081440Y-74098660D01*
X204153663Y-74192475D01*
X204153663Y-74849000D01*
X204409844Y-74849000D01*
X204409844Y-73805594D01*
X204183431Y-73805594D01*
X204174180Y-73963863D01*
X204116294Y-73891506D01*
X204044578Y-73836094D01*
X204003366Y-73815733D01*
X203956926Y-73800465D01*
X203907399Y-73791235D01*
X203851413Y-73788009D01*
X203775481Y-73795007D01*
X203711553Y-73814845D01*
X203655469Y-73848109D01*
X203609063Y-73894346D01*
X203573740Y-73951972D01*
X203547605Y-74026420D01*
X203533658Y-74109150D01*
X203530661Y-74210060D01*
X203781712Y-74210060D01*
G37*
G36*
X202685825Y-73518914D02*
G01*
X202688952Y-73551979D01*
X202698190Y-73582661D01*
X202712979Y-73610696D01*
X202732536Y-73634685D01*
X202756337Y-73654382D01*
X202784285Y-73669673D01*
X202814953Y-73679232D01*
X202848766Y-73682496D01*
X202882656Y-73679244D01*
X202913795Y-73669673D01*
X202942146Y-73654359D01*
X202966094Y-73634685D01*
X202985599Y-73610706D01*
X203000440Y-73582661D01*
X203009609Y-73551983D01*
X203012714Y-73518914D01*
X203009607Y-73485765D01*
X203000440Y-73455075D01*
X202985621Y-73426948D01*
X202966094Y-73402593D01*
X202942103Y-73382502D01*
X202913795Y-73367148D01*
X202882652Y-73357507D01*
X202848766Y-73354233D01*
X202814957Y-73357519D01*
X202784285Y-73367148D01*
X202756380Y-73382479D01*
X202732536Y-73402593D01*
X202712957Y-73426958D01*
X202698190Y-73455075D01*
X202688954Y-73485770D01*
X202685825Y-73518914D01*
G37*
G36*
X202962430Y-73999034D02*
G01*
X203256529Y-73999034D01*
X203256529Y-73805594D01*
X202706341Y-73805594D01*
X202706341Y-74655559D01*
X202406106Y-74655559D01*
X202406106Y-74849000D01*
X203292433Y-74849000D01*
X203292433Y-74655559D01*
X202962430Y-74655559D01*
X202962430Y-73999034D01*
G37*
G36*
X201581695Y-73723528D02*
G01*
X201581695Y-74849000D01*
X201839890Y-74849000D01*
X201839890Y-73723528D01*
X202206712Y-73723528D01*
X202206712Y-73512503D01*
X201214872Y-73512503D01*
X201214872Y-73723528D01*
X201581695Y-73723528D01*
G37*
G36*
X200647981Y-73798404D02*
G01*
X200742446Y-73828400D01*
X200826500Y-73877334D01*
X200896685Y-73942889D01*
X200952314Y-74023145D01*
X200995054Y-74120759D01*
X201020834Y-74228091D01*
X201029859Y-74351202D01*
X201020676Y-74474365D01*
X200995054Y-74576058D01*
X200951844Y-74666399D01*
X200894578Y-74739090D01*
X200822561Y-74796475D01*
X200734752Y-74838741D01*
X200636646Y-74863652D01*
X200521620Y-74872447D01*
X200424258Y-74868692D01*
X200324882Y-74857609D01*
X200228528Y-74840848D01*
X200141425Y-74819690D01*
X200141425Y-74620388D01*
X200234237Y-74644773D01*
X200321310Y-74660780D01*
X200406694Y-74670167D01*
X200483701Y-74673145D01*
X200547385Y-74668354D01*
X200603044Y-74654643D01*
X200653461Y-74631649D01*
X200695276Y-74600788D01*
X200729042Y-74561524D01*
X200754719Y-74512952D01*
X200770184Y-74457976D01*
X200775693Y-74391777D01*
X200091233Y-74391777D01*
X200086654Y-74315298D01*
X200085097Y-74248986D01*
X200088133Y-74210060D01*
X200339170Y-74210060D01*
X200771663Y-74210060D01*
X200757752Y-74138011D01*
X200733562Y-74081321D01*
X200699947Y-74036953D01*
X200656349Y-74003128D01*
X200605476Y-73982702D01*
X200545159Y-73975587D01*
X200503160Y-73979155D01*
X200464742Y-73989601D01*
X200429655Y-74007252D01*
X200399162Y-74032465D01*
X200374347Y-74064555D01*
X200354558Y-74105830D01*
X200342751Y-74152474D01*
X200339170Y-74210060D01*
X200088133Y-74210060D01*
X200092756Y-74150782D01*
X200114864Y-74063423D01*
X200151836Y-73983985D01*
X200201967Y-73917518D01*
X200265460Y-73863614D01*
X200344391Y-73822172D01*
X200433476Y-73796960D01*
X200540029Y-73788009D01*
X200647981Y-73798404D01*
G37*
G36*
X199225881Y-73518914D02*
G01*
X199229008Y-73551979D01*
X199238246Y-73582661D01*
X199253035Y-73610696D01*
X199272592Y-73634685D01*
X199296393Y-73654382D01*
X199324341Y-73669673D01*
X199355008Y-73679232D01*
X199388821Y-73682496D01*
X199422712Y-73679244D01*
X199453851Y-73669673D01*
X199482202Y-73654359D01*
X199506150Y-73634685D01*
X199525655Y-73610706D01*
X199540496Y-73582661D01*
X199549665Y-73551983D01*
X199552769Y-73518914D01*
X199549663Y-73485765D01*
X199540496Y-73455075D01*
X199525677Y-73426948D01*
X199506150Y-73402593D01*
X199482159Y-73382502D01*
X199453851Y-73367148D01*
X199422708Y-73357507D01*
X199388821Y-73354233D01*
X199355013Y-73357519D01*
X199324341Y-73367148D01*
X199296435Y-73382479D01*
X199272592Y-73402593D01*
X199253013Y-73426958D01*
X199238246Y-73455075D01*
X199229010Y-73485770D01*
X199225881Y-73518914D01*
G37*
G36*
X199502486Y-73999034D02*
G01*
X199796585Y-73999034D01*
X199796585Y-73805594D01*
X199246397Y-73805594D01*
X199246397Y-74655559D01*
X198946162Y-74655559D01*
X198946162Y-74849000D01*
X199832488Y-74849000D01*
X199832488Y-74655559D01*
X199502486Y-74655559D01*
X199502486Y-73999034D01*
G37*
G36*
X198015139Y-74849000D02*
G01*
X198252909Y-74494817D01*
X198491595Y-74849000D01*
X198793937Y-74849000D01*
X198403485Y-74323175D01*
X198773421Y-73805594D01*
X198469064Y-73805594D01*
X198235507Y-74150068D01*
X198004880Y-73805594D01*
X197724154Y-73805594D01*
X198082824Y-74321160D01*
X197704645Y-74849000D01*
X198015139Y-74849000D01*
G37*
G36*
X197188037Y-73798404D02*
G01*
X197282502Y-73828400D01*
X197366555Y-73877334D01*
X197436741Y-73942889D01*
X197492370Y-74023145D01*
X197535110Y-74120759D01*
X197560890Y-74228091D01*
X197569914Y-74351202D01*
X197560731Y-74474365D01*
X197535110Y-74576058D01*
X197491900Y-74666399D01*
X197434634Y-74739090D01*
X197362617Y-74796475D01*
X197274808Y-74838741D01*
X197176702Y-74863652D01*
X197061675Y-74872447D01*
X196964314Y-74868692D01*
X196864938Y-74857609D01*
X196768584Y-74840848D01*
X196681481Y-74819690D01*
X196681481Y-74620388D01*
X196774293Y-74644773D01*
X196861366Y-74660780D01*
X196946750Y-74670167D01*
X197023757Y-74673145D01*
X197087441Y-74668354D01*
X197143100Y-74654643D01*
X197193517Y-74631649D01*
X197235332Y-74600788D01*
X197269097Y-74561524D01*
X197294775Y-74512952D01*
X197310240Y-74457976D01*
X197315749Y-74391777D01*
X196631289Y-74391777D01*
X196626710Y-74315298D01*
X196625152Y-74248986D01*
X196628188Y-74210060D01*
X196879226Y-74210060D01*
X197311719Y-74210060D01*
X197297808Y-74138011D01*
X197273618Y-74081321D01*
X197240003Y-74036953D01*
X197196405Y-74003128D01*
X197145532Y-73982702D01*
X197085214Y-73975587D01*
X197043216Y-73979155D01*
X197004797Y-73989601D01*
X196969711Y-74007252D01*
X196939218Y-74032465D01*
X196914403Y-74064555D01*
X196894613Y-74105830D01*
X196882807Y-74152474D01*
X196879226Y-74210060D01*
X196628188Y-74210060D01*
X196632812Y-74150782D01*
X196654920Y-74063423D01*
X196691892Y-73983985D01*
X196742023Y-73917518D01*
X196805516Y-73863614D01*
X196884447Y-73822172D01*
X196973532Y-73796960D01*
X197080085Y-73788009D01*
X197188037Y-73798404D01*
G37*
G36*
X195716752Y-74849000D02*
G01*
X195716752Y-74268678D01*
X196171685Y-74268678D01*
X196171685Y-74849000D01*
X196423744Y-74849000D01*
X196423744Y-73512503D01*
X196171685Y-73512503D01*
X196171685Y-74051791D01*
X195716752Y-74051791D01*
X195716752Y-73512503D01*
X195464694Y-73512503D01*
X195464694Y-74849000D01*
X195716752Y-74849000D01*
G37*
G36*
X194903383Y-73793066D02*
G01*
X195002525Y-73807975D01*
X195097004Y-73831258D01*
X195175174Y-73858351D01*
X195175174Y-74057653D01*
X195089726Y-74023063D01*
X195001518Y-73997203D01*
X194911208Y-73980991D01*
X194819618Y-73975587D01*
X194763651Y-73979006D01*
X194721249Y-73988135D01*
X194684093Y-74003673D01*
X194656128Y-74023489D01*
X194634539Y-74048716D01*
X194619766Y-74079085D01*
X194611429Y-74113100D01*
X194608500Y-74152449D01*
X194608500Y-74215922D01*
X194744788Y-74215922D01*
X194869494Y-74222738D01*
X194969736Y-74241384D01*
X195060047Y-74272659D01*
X195129654Y-74311452D01*
X195186170Y-74361253D01*
X195224908Y-74418155D01*
X195248232Y-74482520D01*
X195256141Y-74553344D01*
X195250730Y-74622496D01*
X195235166Y-74683494D01*
X195208873Y-74738502D01*
X195173159Y-74784061D01*
X195127912Y-74820745D01*
X195071676Y-74849091D01*
X195008229Y-74866294D01*
X194931359Y-74872447D01*
X194872213Y-74869401D01*
X194820167Y-74860723D01*
X194770888Y-74846432D01*
X194726378Y-74827659D01*
X194647518Y-74777192D01*
X194578825Y-74713536D01*
X194572688Y-74849000D01*
X194358457Y-74849000D01*
X194358457Y-74528889D01*
X194608500Y-74528889D01*
X194676245Y-74592965D01*
X194732515Y-74635867D01*
X194789615Y-74664426D01*
X194841142Y-74673145D01*
X194906578Y-74664302D01*
X194952883Y-74640355D01*
X194975204Y-74615856D01*
X194988918Y-74584792D01*
X194993824Y-74545100D01*
X194990597Y-74514595D01*
X194981001Y-74486116D01*
X194964795Y-74460408D01*
X194940518Y-74437206D01*
X194910002Y-74418830D01*
X194868802Y-74403867D01*
X194822213Y-74395069D01*
X194761183Y-74391777D01*
X194608500Y-74391777D01*
X194608500Y-74528889D01*
X194358457Y-74528889D01*
X194358457Y-74139627D01*
X194365230Y-74055084D01*
X194384102Y-73985845D01*
X194416815Y-73925279D01*
X194463512Y-73875936D01*
X194522764Y-73838360D01*
X194600349Y-73809990D01*
X194687615Y-73793947D01*
X194799101Y-73788009D01*
X194903383Y-73793066D01*
G37*
G36*
X193401880Y-74849000D02*
G01*
X193639650Y-74494817D01*
X193878336Y-74849000D01*
X194180678Y-74849000D01*
X193790226Y-74323175D01*
X194160162Y-73805594D01*
X193855805Y-73805594D01*
X193622248Y-74150068D01*
X193391621Y-73805594D01*
X193110895Y-73805594D01*
X193469565Y-74321160D01*
X193091386Y-74849000D01*
X193401880Y-74849000D01*
G37*
D11*
%TO.C,G\u002A\u002A\u002A*%
G36*
X148253468Y-87755819D02*
G01*
X148695596Y-87999302D01*
X149062289Y-88342919D01*
X149330089Y-88762800D01*
X149475537Y-89235073D01*
X149475174Y-89735866D01*
X149438007Y-89921771D01*
X149233351Y-90450815D01*
X148907408Y-90872322D01*
X148472940Y-91172938D01*
X147942708Y-91339312D01*
X147872605Y-91349398D01*
X147330911Y-91341942D01*
X146791425Y-91202332D01*
X146321542Y-90946882D01*
X146118753Y-90755456D01*
X145874704Y-90361089D01*
X145732308Y-89893444D01*
X145697501Y-89394826D01*
X145776224Y-88907538D01*
X145974413Y-88473882D01*
X146042089Y-88379611D01*
X146416330Y-88021951D01*
X146888675Y-87765573D01*
X147412921Y-87637345D01*
X147759365Y-87636342D01*
X148253468Y-87755819D01*
G37*
G36*
X168564339Y-100300347D02*
G01*
X168773109Y-101475302D01*
X168221575Y-101527412D01*
X168070091Y-101539456D01*
X167678759Y-101560148D01*
X167224146Y-101574560D01*
X166776663Y-101580124D01*
X165883285Y-101580726D01*
X166409462Y-104141893D01*
X166542809Y-104786495D01*
X166707339Y-105568500D01*
X166877442Y-106361057D01*
X167058796Y-107189845D01*
X167257079Y-108080543D01*
X167477972Y-109058831D01*
X167727152Y-110150388D01*
X168010299Y-111380893D01*
X168054268Y-111571393D01*
X166576693Y-111571393D01*
X166297688Y-111571109D01*
X165834432Y-111567875D01*
X165505290Y-111559157D01*
X165286525Y-111542645D01*
X165154402Y-111516026D01*
X165085186Y-111476990D01*
X165055139Y-111423226D01*
X165050544Y-111407064D01*
X165003648Y-111215606D01*
X164928311Y-110882440D01*
X164828902Y-110428476D01*
X164709790Y-109874628D01*
X164575343Y-109241806D01*
X164429930Y-108550921D01*
X164277921Y-107822886D01*
X164123684Y-107078612D01*
X163971588Y-106339011D01*
X163826002Y-105624993D01*
X163691295Y-104957471D01*
X163571836Y-104357356D01*
X163471993Y-103845559D01*
X163036506Y-101580726D01*
X161829024Y-101580726D01*
X161557210Y-101581359D01*
X161049899Y-101582245D01*
X160676673Y-101569960D01*
X160413208Y-101529256D01*
X160235182Y-101444882D01*
X160118271Y-101301589D01*
X160038151Y-101084130D01*
X159970499Y-100777253D01*
X159890991Y-100365712D01*
X159871391Y-100267202D01*
X159792067Y-99863052D01*
X159727780Y-99526827D01*
X159684695Y-99291213D01*
X159668979Y-99188893D01*
X159677665Y-99184870D01*
X159810837Y-99172820D01*
X160092421Y-99161625D01*
X160506591Y-99151518D01*
X161037521Y-99142730D01*
X161669383Y-99135492D01*
X162386353Y-99130035D01*
X163172602Y-99126592D01*
X164012305Y-99125393D01*
X168355568Y-99125393D01*
X168564339Y-100300347D01*
G37*
G36*
X132316109Y-102533226D02*
G01*
X132344954Y-102677508D01*
X132420761Y-103048287D01*
X132524521Y-103549113D01*
X132651487Y-104157330D01*
X132796911Y-104850287D01*
X132956045Y-105605330D01*
X133124143Y-106399805D01*
X133296456Y-107211059D01*
X133416726Y-107776725D01*
X133576567Y-108530325D01*
X133724334Y-109229067D01*
X133856147Y-109854493D01*
X133968128Y-110388145D01*
X134056395Y-110811568D01*
X134117070Y-111106302D01*
X134146272Y-111253893D01*
X134203220Y-111571393D01*
X130553131Y-111571393D01*
X130064791Y-111571117D01*
X129329542Y-111569608D01*
X128660044Y-111566912D01*
X128073559Y-111563174D01*
X127587353Y-111558539D01*
X127218689Y-111553152D01*
X126984831Y-111547158D01*
X126903041Y-111540702D01*
X126902875Y-111538661D01*
X126883919Y-111434098D01*
X126838049Y-111199511D01*
X126771717Y-110867514D01*
X126691375Y-110470726D01*
X126682946Y-110429317D01*
X126603708Y-110037508D01*
X126539121Y-109713733D01*
X126495637Y-109490608D01*
X126479708Y-109400749D01*
X126479826Y-109400436D01*
X126566766Y-109392374D01*
X126800408Y-109385122D01*
X127158938Y-109378971D01*
X127620541Y-109374215D01*
X128163403Y-109371147D01*
X128765708Y-109370059D01*
X128789468Y-109370056D01*
X129389762Y-109367638D01*
X129929658Y-109361147D01*
X130387370Y-109351188D01*
X130741111Y-109338366D01*
X130969094Y-109323288D01*
X131049534Y-109306559D01*
X131034459Y-109203310D01*
X130988650Y-108979234D01*
X130923078Y-108688770D01*
X130848872Y-108378292D01*
X130777161Y-108094177D01*
X130719074Y-107882799D01*
X130685738Y-107790534D01*
X130619241Y-107780378D01*
X130403035Y-107768318D01*
X130059886Y-107756983D01*
X129612930Y-107746980D01*
X129085303Y-107738913D01*
X128500142Y-107733387D01*
X126357364Y-107719059D01*
X126210771Y-106914726D01*
X126176548Y-106727186D01*
X126109775Y-106362597D01*
X126054478Y-106062343D01*
X126020060Y-105877559D01*
X125975941Y-105644726D01*
X128139552Y-105644726D01*
X130303163Y-105644726D01*
X130246507Y-105369559D01*
X130203615Y-105166459D01*
X130135788Y-104852389D01*
X130061195Y-104512056D01*
X129932539Y-103929720D01*
X127712868Y-103991201D01*
X125493197Y-104052681D01*
X125223953Y-102964870D01*
X125206336Y-102893375D01*
X125108024Y-102481749D01*
X125028196Y-102126537D01*
X124974657Y-101863623D01*
X124955208Y-101728893D01*
X124957407Y-101708775D01*
X124978819Y-101676131D01*
X125035375Y-101649538D01*
X125141983Y-101628381D01*
X125313555Y-101612042D01*
X125565000Y-101599907D01*
X125911228Y-101591359D01*
X126367149Y-101585783D01*
X126947673Y-101582563D01*
X127667709Y-101581082D01*
X128542168Y-101580726D01*
X132128629Y-101580726D01*
X132316109Y-102533226D01*
G37*
G36*
X125264532Y-109681054D02*
G01*
X125387206Y-110290158D01*
X125487937Y-110792082D01*
X125563769Y-111172138D01*
X125611743Y-111415637D01*
X125628902Y-111507893D01*
X125622409Y-111512600D01*
X125497865Y-111528232D01*
X125230865Y-111542104D01*
X124842321Y-111553694D01*
X124353145Y-111562482D01*
X123784248Y-111567944D01*
X123156541Y-111569560D01*
X122693952Y-111568185D01*
X121869701Y-111558035D01*
X121180991Y-111535572D01*
X120605304Y-111497846D01*
X120120121Y-111441906D01*
X119702925Y-111364803D01*
X119331197Y-111263585D01*
X118982418Y-111135303D01*
X118634072Y-110977005D01*
X118407893Y-110856511D01*
X117750669Y-110380753D01*
X117170143Y-109757456D01*
X116669036Y-108990559D01*
X116250069Y-108084003D01*
X115915962Y-107041726D01*
X115759335Y-106385900D01*
X115613546Y-105516853D01*
X115602158Y-105304838D01*
X118351708Y-105304838D01*
X118351716Y-105316948D01*
X118371662Y-105854914D01*
X118437124Y-106363620D01*
X118558743Y-106903018D01*
X118747157Y-107533057D01*
X118884064Y-107906894D01*
X119161815Y-108438053D01*
X119501741Y-108834079D01*
X119917614Y-109113570D01*
X119954001Y-109131387D01*
X120151833Y-109215961D01*
X120358517Y-109274351D01*
X120614173Y-109312997D01*
X120958920Y-109338340D01*
X121432880Y-109356822D01*
X121716403Y-109365087D01*
X122076267Y-109371363D01*
X122306847Y-109365774D01*
X122433203Y-109345814D01*
X122480393Y-109308978D01*
X122473479Y-109252759D01*
X122473122Y-109251793D01*
X122445027Y-109137915D01*
X122389482Y-108883862D01*
X122311594Y-108514863D01*
X122216469Y-108056149D01*
X122109212Y-107532948D01*
X121994931Y-106970491D01*
X121878731Y-106394007D01*
X121765719Y-105828727D01*
X121661000Y-105299878D01*
X121569681Y-104832692D01*
X121496868Y-104452398D01*
X121447667Y-104184226D01*
X121392035Y-103866726D01*
X120502030Y-103866726D01*
X120447107Y-103866810D01*
X119862330Y-103882819D01*
X119414253Y-103931500D01*
X119074417Y-104020036D01*
X118814365Y-104155611D01*
X118605638Y-104345407D01*
X118540882Y-104421096D01*
X118437506Y-104569878D01*
X118380680Y-104732149D01*
X118356661Y-104959829D01*
X118351708Y-105304838D01*
X115602158Y-105304838D01*
X115572735Y-104757065D01*
X115638911Y-104090891D01*
X115814084Y-103502688D01*
X116100261Y-102976811D01*
X116499452Y-102497617D01*
X116638255Y-102368954D01*
X116941248Y-102154326D01*
X117306241Y-101978794D01*
X117748389Y-101839709D01*
X118282846Y-101734426D01*
X118924767Y-101660295D01*
X119689306Y-101614671D01*
X120591616Y-101594904D01*
X121646852Y-101598348D01*
X123629663Y-101623059D01*
X124627213Y-106533726D01*
X124794436Y-107357530D01*
X124965189Y-108200052D01*
X125122874Y-108979456D01*
X125189407Y-109308978D01*
X125264532Y-109681054D01*
G37*
G36*
X151356534Y-106982523D02*
G01*
X151509997Y-107746501D01*
X151658253Y-108490041D01*
X151797650Y-109194973D01*
X151924539Y-109843126D01*
X152035269Y-110416332D01*
X152126190Y-110896418D01*
X152193651Y-111265215D01*
X152234001Y-111504553D01*
X152243591Y-111596261D01*
X152231823Y-111603942D01*
X152094716Y-111626084D01*
X151835778Y-111641755D01*
X151491683Y-111650926D01*
X151099106Y-111653567D01*
X150694720Y-111649649D01*
X150315199Y-111639143D01*
X149997217Y-111622018D01*
X149777448Y-111598245D01*
X149755270Y-111594174D01*
X149561758Y-111532474D01*
X149466272Y-111454868D01*
X149451967Y-111395086D01*
X149407471Y-111187515D01*
X149340556Y-110864223D01*
X149257405Y-110455193D01*
X149164204Y-109990408D01*
X148891386Y-108621090D01*
X147316381Y-108635741D01*
X146899383Y-108638894D01*
X146432691Y-108638279D01*
X146080615Y-108629293D01*
X145811135Y-108609240D01*
X145592235Y-108575425D01*
X145391897Y-108525153D01*
X145178103Y-108455728D01*
X144944281Y-108368169D01*
X144291495Y-108032211D01*
X143745297Y-107590750D01*
X143294433Y-107030727D01*
X142927653Y-106339082D01*
X142633703Y-105502757D01*
X142616859Y-105442846D01*
X142515052Y-104994356D01*
X142488677Y-104762613D01*
X145222074Y-104762613D01*
X145307913Y-105241414D01*
X145467455Y-105651315D01*
X145765666Y-106084544D01*
X146153627Y-106383294D01*
X146274959Y-106432730D01*
X146541327Y-106491151D01*
X146928305Y-106532466D01*
X147460088Y-106559948D01*
X148501469Y-106596782D01*
X148447910Y-106383386D01*
X148441056Y-106354631D01*
X148398234Y-106156187D01*
X148333128Y-105838952D01*
X148253309Y-105440197D01*
X148166346Y-104997192D01*
X147938340Y-103824393D01*
X146867039Y-103824393D01*
X146681442Y-103824703D01*
X146280381Y-103830127D01*
X146001679Y-103845908D01*
X145811053Y-103876692D01*
X145674218Y-103927121D01*
X145556890Y-104001839D01*
X145461581Y-104083134D01*
X145272833Y-104378830D01*
X145222074Y-104762613D01*
X142488677Y-104762613D01*
X142463081Y-104537712D01*
X142451380Y-103993726D01*
X142453094Y-103880895D01*
X142495809Y-103295947D01*
X142601721Y-102834855D01*
X142781218Y-102465438D01*
X143044685Y-102155515D01*
X143109077Y-102096571D01*
X143258119Y-101978315D01*
X143422841Y-101882985D01*
X143622449Y-101807676D01*
X143876151Y-101749485D01*
X144203152Y-101705507D01*
X144622660Y-101672838D01*
X145153881Y-101648574D01*
X145816022Y-101629810D01*
X146628289Y-101613643D01*
X146817215Y-101610502D01*
X147483816Y-101602668D01*
X148112327Y-101600060D01*
X148676510Y-101602473D01*
X149150127Y-101609701D01*
X149506939Y-101621540D01*
X149720708Y-101637786D01*
X150228708Y-101707726D01*
X150377458Y-102307497D01*
X150379407Y-102315381D01*
X150443115Y-102588729D01*
X150530819Y-102987002D01*
X150638869Y-103492030D01*
X150763613Y-104085641D01*
X150901403Y-104749667D01*
X151048586Y-105465936D01*
X151201513Y-106216278D01*
X151278494Y-106596782D01*
X151356534Y-106982523D01*
G37*
G36*
X141331075Y-104014893D02*
G01*
X141378247Y-104250864D01*
X141522060Y-104965746D01*
X141675410Y-105722216D01*
X141834375Y-106501408D01*
X141995035Y-107284451D01*
X142153467Y-108052478D01*
X142305751Y-108786620D01*
X142447964Y-109468007D01*
X142576186Y-110077772D01*
X142686495Y-110597044D01*
X142774969Y-111006957D01*
X142837687Y-111288640D01*
X142870728Y-111423226D01*
X142874795Y-111452490D01*
X142856421Y-111482924D01*
X142798690Y-111507687D01*
X142687163Y-111527362D01*
X142507397Y-111542529D01*
X142244949Y-111553769D01*
X141885378Y-111561662D01*
X141414243Y-111566791D01*
X140817100Y-111569734D01*
X140079509Y-111571075D01*
X139187027Y-111571393D01*
X135457601Y-111571393D01*
X135415015Y-111380893D01*
X135393567Y-111280134D01*
X135344307Y-111037374D01*
X135281171Y-110719030D01*
X135211978Y-110365379D01*
X135144548Y-110016698D01*
X135086702Y-109713263D01*
X135046260Y-109495353D01*
X135031041Y-109403243D01*
X135031772Y-109402410D01*
X135127491Y-109393808D01*
X135368917Y-109386080D01*
X135734434Y-109379533D01*
X136202426Y-109374475D01*
X136751278Y-109371215D01*
X137359375Y-109370059D01*
X137417876Y-109370048D01*
X138021372Y-109368570D01*
X138563612Y-109364844D01*
X139022981Y-109359202D01*
X139377864Y-109351979D01*
X139606645Y-109343507D01*
X139687708Y-109334121D01*
X139682562Y-109303177D01*
X139647930Y-109138717D01*
X139587853Y-108868101D01*
X139510790Y-108529787D01*
X139333871Y-107761393D01*
X137626956Y-107760791D01*
X137613826Y-107760784D01*
X137049785Y-107757792D01*
X136504889Y-107750066D01*
X136016683Y-107738490D01*
X135622714Y-107723951D01*
X135360529Y-107707333D01*
X134801016Y-107654478D01*
X134661924Y-106670769D01*
X134610479Y-106299329D01*
X134565013Y-105955051D01*
X134534234Y-105703148D01*
X134522937Y-105581226D01*
X134531057Y-105564178D01*
X134607050Y-105533913D01*
X134775573Y-105510839D01*
X135051981Y-105494202D01*
X135451625Y-105483251D01*
X135989861Y-105477232D01*
X136682041Y-105475393D01*
X136741694Y-105475389D01*
X137390134Y-105474533D01*
X137889921Y-105471259D01*
X138260182Y-105464253D01*
X138520046Y-105452199D01*
X138688639Y-105433784D01*
X138785088Y-105407693D01*
X138828522Y-105372612D01*
X138838067Y-105327226D01*
X138825069Y-105198337D01*
X138783287Y-104953312D01*
X138724026Y-104664711D01*
X138658943Y-104385129D01*
X138599696Y-104167162D01*
X138557943Y-104063405D01*
X138473093Y-104049877D01*
X138239909Y-104034131D01*
X137881620Y-104017806D01*
X137420970Y-104001795D01*
X136880704Y-103986988D01*
X136283568Y-103974276D01*
X135719336Y-103962158D01*
X135174459Y-103946818D01*
X134707613Y-103929863D01*
X134341620Y-103912248D01*
X134099302Y-103894929D01*
X134003481Y-103878861D01*
X134001796Y-103876796D01*
X133961490Y-103766003D01*
X133892736Y-103519448D01*
X133802393Y-103164796D01*
X133697320Y-102729710D01*
X133584376Y-102241854D01*
X133470420Y-101728893D01*
X133468767Y-101701437D01*
X133488582Y-101670578D01*
X133546833Y-101645459D01*
X133658062Y-101625494D01*
X133836815Y-101610095D01*
X134097635Y-101598675D01*
X134455067Y-101590648D01*
X134923655Y-101585427D01*
X135517944Y-101582424D01*
X136252476Y-101581052D01*
X137141797Y-101580726D01*
X140845366Y-101580726D01*
X141331075Y-104014893D01*
G37*
G36*
X155376575Y-99114635D02*
G01*
X155962971Y-99161409D01*
X156451708Y-99239041D01*
X156485645Y-99246602D01*
X157220531Y-99474078D01*
X157894401Y-99801495D01*
X158480692Y-100210471D01*
X158952844Y-100682620D01*
X159284295Y-101199560D01*
X159524038Y-101826522D01*
X159711478Y-102666175D01*
X159784856Y-103570393D01*
X159786132Y-103727127D01*
X159771577Y-104166545D01*
X159717212Y-104536546D01*
X159607985Y-104852657D01*
X159428845Y-105130407D01*
X159164741Y-105385323D01*
X158800623Y-105632934D01*
X158321440Y-105888767D01*
X157712140Y-106168352D01*
X156957672Y-106487215D01*
X156705012Y-106593986D01*
X156203333Y-106829018D01*
X155842336Y-107042059D01*
X155605249Y-107246264D01*
X155475298Y-107454786D01*
X155435708Y-107680781D01*
X155436407Y-107720695D01*
X155530153Y-108148600D01*
X155761313Y-108532701D01*
X156100682Y-108836772D01*
X156519058Y-109024589D01*
X156659740Y-109057895D01*
X157285247Y-109144127D01*
X158004975Y-109164642D01*
X158770756Y-109121645D01*
X159534419Y-109017340D01*
X160247794Y-108853932D01*
X160253469Y-108852311D01*
X160533001Y-108776906D01*
X160738587Y-108729710D01*
X160826085Y-108720881D01*
X160833163Y-108734819D01*
X160875146Y-108872428D01*
X160941774Y-109126350D01*
X161024846Y-109461508D01*
X161116157Y-109842826D01*
X161207505Y-110235227D01*
X161290685Y-110603635D01*
X161357495Y-110912974D01*
X161399730Y-111128166D01*
X161409188Y-111214135D01*
X161354706Y-111243009D01*
X161156964Y-111304930D01*
X160861486Y-111377275D01*
X160511353Y-111450605D01*
X160149646Y-111515481D01*
X159819447Y-111562464D01*
X159542844Y-111589965D01*
X158955672Y-111626466D01*
X158317320Y-111643551D01*
X157671715Y-111641652D01*
X157062782Y-111621197D01*
X156534448Y-111582617D01*
X156130639Y-111526342D01*
X155836583Y-111457591D01*
X155213476Y-111249360D01*
X154624213Y-110974241D01*
X154113956Y-110655013D01*
X153727864Y-110314454D01*
X153703214Y-110286771D01*
X153226125Y-109624369D01*
X152858220Y-108853849D01*
X152610622Y-108004167D01*
X152494457Y-107104277D01*
X152492256Y-107059432D01*
X152485153Y-106561947D01*
X152524409Y-106141591D01*
X152624493Y-105782604D01*
X152799873Y-105469231D01*
X153065018Y-105185712D01*
X153434396Y-104916290D01*
X153922477Y-104645207D01*
X154543729Y-104356705D01*
X155312621Y-104035026D01*
X155577035Y-103925365D01*
X155994066Y-103741790D01*
X156345194Y-103574105D01*
X156599702Y-103437271D01*
X156726875Y-103346247D01*
X156832538Y-103128060D01*
X156875041Y-102748213D01*
X156874905Y-102712099D01*
X156853161Y-102442270D01*
X156771194Y-102248186D01*
X156595902Y-102046653D01*
X156531477Y-101987382D01*
X156257657Y-101797021D01*
X155982069Y-101674592D01*
X155877971Y-101653807D01*
X155577726Y-101623201D01*
X155169161Y-101602479D01*
X154691576Y-101591882D01*
X154184269Y-101591651D01*
X153686541Y-101602026D01*
X153237691Y-101623248D01*
X152877020Y-101655559D01*
X152392664Y-101716103D01*
X152297426Y-101246248D01*
X152296301Y-101240707D01*
X152227488Y-100913455D01*
X152139252Y-100509345D01*
X152050401Y-100114536D01*
X151898616Y-99452679D01*
X152092632Y-99378915D01*
X152360209Y-99299341D01*
X152843257Y-99210808D01*
X153425861Y-99146805D01*
X154068577Y-99108599D01*
X154731963Y-99097453D01*
X155376575Y-99114635D01*
G37*
G36*
X179121203Y-105444218D02*
G01*
X179287171Y-106288628D01*
X179451636Y-107123830D01*
X179611157Y-107932383D01*
X179762292Y-108696843D01*
X179901597Y-109399768D01*
X180025632Y-110023716D01*
X180130953Y-110551245D01*
X180214119Y-110964912D01*
X180271686Y-111247276D01*
X180300214Y-111380893D01*
X180346065Y-111571393D01*
X178897553Y-111571393D01*
X178511383Y-111570437D01*
X178087715Y-111566866D01*
X177751166Y-111561119D01*
X177529140Y-111553693D01*
X177449041Y-111545085D01*
X177446111Y-111527353D01*
X177417284Y-111379572D01*
X177362331Y-111105841D01*
X177287015Y-110734273D01*
X177197099Y-110292982D01*
X177098347Y-109810081D01*
X176996522Y-109313684D01*
X176897386Y-108831904D01*
X176806705Y-108392855D01*
X176730239Y-108024650D01*
X176673754Y-107755402D01*
X176643012Y-107613226D01*
X176639149Y-107597131D01*
X176597792Y-107502524D01*
X176507226Y-107450056D01*
X176327438Y-107427525D01*
X176018418Y-107422726D01*
X175437687Y-107422726D01*
X175263716Y-107909559D01*
X175212209Y-108063369D01*
X175108307Y-108399612D01*
X174980609Y-108833306D01*
X174840626Y-109325120D01*
X174699872Y-109835726D01*
X174592981Y-110227089D01*
X174469587Y-110670548D01*
X174363844Y-111041493D01*
X174284433Y-111309562D01*
X174240033Y-111444393D01*
X174231399Y-111464165D01*
X174195178Y-111517333D01*
X174128522Y-111555358D01*
X174008288Y-111580139D01*
X173811334Y-111593576D01*
X173514517Y-111597567D01*
X173094693Y-111594010D01*
X172528721Y-111584806D01*
X172472080Y-111583793D01*
X171969070Y-111573489D01*
X171530273Y-111562224D01*
X171181964Y-111550844D01*
X170950420Y-111540196D01*
X170861917Y-111531125D01*
X170860111Y-111475567D01*
X170909740Y-111274924D01*
X171015292Y-110945819D01*
X171171012Y-110504408D01*
X171371147Y-109966845D01*
X171609943Y-109349284D01*
X171881648Y-108667881D01*
X171956880Y-108481217D01*
X172146726Y-108004392D01*
X172307500Y-107592218D01*
X172430428Y-107267707D01*
X172506733Y-107053874D01*
X172527642Y-106973729D01*
X172525258Y-106972423D01*
X172426074Y-106923434D01*
X172219193Y-106823358D01*
X171945708Y-106692082D01*
X171581450Y-106501210D01*
X171000083Y-106101371D01*
X170524958Y-105624309D01*
X170146146Y-105053550D01*
X169853720Y-104372619D01*
X169637752Y-103565044D01*
X169502068Y-102701846D01*
X172453708Y-102701846D01*
X172494496Y-103270785D01*
X172653294Y-103862441D01*
X172929512Y-104337615D01*
X173320577Y-104692136D01*
X173823912Y-104921830D01*
X174115095Y-104984052D01*
X174608723Y-105034618D01*
X175218625Y-105052059D01*
X176174808Y-105052059D01*
X176130152Y-104819226D01*
X176107853Y-104701614D01*
X176057096Y-104432036D01*
X175986213Y-104054541D01*
X175901256Y-103601361D01*
X175808274Y-103104726D01*
X175531052Y-101623059D01*
X174606214Y-101597152D01*
X174234176Y-101589426D01*
X173732900Y-101594165D01*
X173355811Y-101624949D01*
X173075336Y-101686433D01*
X172863905Y-101783275D01*
X172693943Y-101920132D01*
X172586955Y-102037152D01*
X172500716Y-102189108D01*
X172462407Y-102390803D01*
X172453708Y-102701846D01*
X169502068Y-102701846D01*
X169488315Y-102614350D01*
X169446088Y-102035530D01*
X169485432Y-101337604D01*
X169642760Y-100750221D01*
X169922905Y-100262644D01*
X170330703Y-99864137D01*
X170870988Y-99543965D01*
X170891364Y-99534492D01*
X171139093Y-99430493D01*
X171401128Y-99345484D01*
X171696842Y-99277629D01*
X172045606Y-99225094D01*
X172466790Y-99186044D01*
X172979768Y-99158645D01*
X173603909Y-99141062D01*
X174358586Y-99131461D01*
X175263169Y-99128007D01*
X175887213Y-99127775D01*
X176493307Y-99129242D01*
X176962722Y-99133537D01*
X177313247Y-99141639D01*
X177562672Y-99154528D01*
X177728785Y-99173185D01*
X177829377Y-99198589D01*
X177882236Y-99231720D01*
X177905151Y-99273559D01*
X177909470Y-99290197D01*
X177944246Y-99449951D01*
X178005351Y-99747814D01*
X178088363Y-100161621D01*
X178188860Y-100669208D01*
X178302419Y-101248409D01*
X178424617Y-101877059D01*
X178511159Y-102323347D01*
X178648712Y-103030164D01*
X178798532Y-103797544D01*
X178957176Y-104608042D01*
X179044276Y-105052059D01*
X179121203Y-105444218D01*
G37*
G36*
X154767562Y-91821898D02*
G01*
X154349652Y-92872266D01*
X153795514Y-93832628D01*
X153112965Y-94694009D01*
X152309826Y-95447433D01*
X151393913Y-96083923D01*
X150373045Y-96594505D01*
X149255041Y-96970201D01*
X149118841Y-97005373D01*
X148786673Y-97082335D01*
X148490794Y-97130102D01*
X148179886Y-97153256D01*
X147802630Y-97156377D01*
X147307708Y-97144047D01*
X147227837Y-97141191D01*
X146150682Y-97043546D01*
X145182605Y-96835283D01*
X144300344Y-96509817D01*
X143480637Y-96060560D01*
X142600336Y-95406845D01*
X141795088Y-94609171D01*
X141117499Y-93700703D01*
X140566894Y-92680526D01*
X140142595Y-91547726D01*
X140075910Y-91320918D01*
X140002724Y-91029755D01*
X139954305Y-90748438D01*
X139947405Y-90672879D01*
X140947362Y-90672879D01*
X141001875Y-90940969D01*
X141004930Y-90955330D01*
X141071272Y-91177123D01*
X141177641Y-91454988D01*
X141304338Y-91745926D01*
X141431667Y-92006938D01*
X141539929Y-92195027D01*
X141609427Y-92267192D01*
X141655449Y-92255136D01*
X141833810Y-92189234D01*
X142107500Y-92078813D01*
X142439375Y-91938580D01*
X142541402Y-91895270D01*
X143003851Y-91710240D01*
X143493048Y-91528492D01*
X143918745Y-91383866D01*
X144636115Y-91157565D01*
X144802358Y-91394979D01*
X144891588Y-91509804D01*
X145097081Y-91741415D01*
X145329524Y-91977277D01*
X145690446Y-92322161D01*
X144890729Y-93839944D01*
X144091012Y-95357726D01*
X144662193Y-95620588D01*
X144727920Y-95650853D01*
X145096448Y-95818401D01*
X145343410Y-95916338D01*
X145497673Y-95944115D01*
X145588101Y-95901183D01*
X145643559Y-95786994D01*
X145692911Y-95600998D01*
X145761435Y-95349037D01*
X145883214Y-94937390D01*
X146031348Y-94460407D01*
X146189361Y-93969983D01*
X146340775Y-93518013D01*
X146469112Y-93156393D01*
X146626625Y-92733059D01*
X147452962Y-92751113D01*
X148279299Y-92769166D01*
X148816559Y-94380946D01*
X148962179Y-94815777D01*
X149119028Y-95269484D01*
X149243002Y-95594364D01*
X149345338Y-95808811D01*
X149437273Y-95931217D01*
X149530043Y-95979974D01*
X149634887Y-95973475D01*
X149763041Y-95930113D01*
X149891122Y-95876478D01*
X150126950Y-95773746D01*
X150413029Y-95646777D01*
X150936016Y-95412686D01*
X150133337Y-93922706D01*
X149330659Y-92432725D01*
X149934527Y-91847722D01*
X150538396Y-91262718D01*
X151526552Y-91642204D01*
X151904112Y-91787235D01*
X152347697Y-91957706D01*
X152743475Y-92109881D01*
X153036306Y-92222565D01*
X153557905Y-92423440D01*
X153726444Y-92027916D01*
X153810012Y-91818805D01*
X153914742Y-91522162D01*
X153999350Y-91246683D01*
X154050127Y-91037937D01*
X154053360Y-90941489D01*
X153957916Y-90879278D01*
X153709843Y-90768807D01*
X153353320Y-90637155D01*
X152920401Y-90495268D01*
X152443138Y-90354089D01*
X151953585Y-90224561D01*
X150800283Y-89939088D01*
X150747666Y-89346407D01*
X150715626Y-89028828D01*
X150678622Y-88733177D01*
X150646287Y-88540661D01*
X150636691Y-88481997D01*
X150651195Y-88392464D01*
X150723319Y-88297050D01*
X150875326Y-88176069D01*
X151129477Y-88009834D01*
X151508037Y-87778661D01*
X151637017Y-87699814D01*
X152066752Y-87424281D01*
X152502890Y-87128233D01*
X152907523Y-86838570D01*
X153242745Y-86582191D01*
X153470649Y-86385994D01*
X153472051Y-86384179D01*
X153446195Y-86290159D01*
X153345618Y-86100593D01*
X153194063Y-85854213D01*
X153015277Y-85589748D01*
X152833005Y-85345931D01*
X152808469Y-85315410D01*
X152633177Y-85120652D01*
X152507966Y-85044807D01*
X152397838Y-85065304D01*
X152223302Y-85172944D01*
X151901015Y-85406726D01*
X151505741Y-85721220D01*
X151064889Y-86094417D01*
X150605865Y-86504309D01*
X149854206Y-87193618D01*
X149526760Y-86986911D01*
X149466806Y-86950608D01*
X149146020Y-86785280D01*
X148825011Y-86653870D01*
X148450708Y-86527538D01*
X148395831Y-84866664D01*
X148393995Y-84811845D01*
X148374280Y-84296039D01*
X148352504Y-83836297D01*
X148330319Y-83460922D01*
X148309378Y-83198215D01*
X148291333Y-83076479D01*
X148244836Y-83018261D01*
X148124452Y-82979116D01*
X147901060Y-82965149D01*
X147541877Y-82971780D01*
X146842041Y-82996393D01*
X146786915Y-83462059D01*
X146778181Y-83551405D01*
X146758863Y-83861578D01*
X146742273Y-84278939D01*
X146729945Y-84759988D01*
X146723415Y-85261226D01*
X146722078Y-85454492D01*
X146716662Y-85904455D01*
X146706557Y-86217949D01*
X146688763Y-86419350D01*
X146660278Y-86533030D01*
X146618101Y-86583364D01*
X146559231Y-86594726D01*
X146416187Y-86628068D01*
X146172334Y-86721189D01*
X145886322Y-86853123D01*
X145369222Y-87111521D01*
X144581632Y-86498973D01*
X144337985Y-86308854D01*
X143928145Y-85986961D01*
X143533383Y-85674745D01*
X143213162Y-85419127D01*
X142632283Y-84951829D01*
X142393179Y-85244111D01*
X142276708Y-85396014D01*
X142071815Y-85689154D01*
X141877415Y-85992126D01*
X141600755Y-86447860D01*
X141850732Y-86652474D01*
X141934127Y-86714239D01*
X142167046Y-86870201D01*
X142495638Y-87079606D01*
X142888852Y-87322794D01*
X143315639Y-87580101D01*
X143643332Y-87775787D01*
X143998950Y-87992794D01*
X144241814Y-88151784D01*
X144391610Y-88268800D01*
X144468026Y-88359883D01*
X144490750Y-88441076D01*
X144479469Y-88528420D01*
X144446799Y-88722036D01*
X144408955Y-89021933D01*
X144374709Y-89360173D01*
X144321051Y-89966620D01*
X143761213Y-90067981D01*
X143420633Y-90134413D01*
X142977729Y-90229020D01*
X142566375Y-90324194D01*
X142195682Y-90411671D01*
X141781995Y-90504234D01*
X141439369Y-90575963D01*
X140947362Y-90672879D01*
X139947405Y-90672879D01*
X139925425Y-90432184D01*
X139910856Y-90036208D01*
X139905369Y-89515726D01*
X139911097Y-88900578D01*
X139942752Y-88367860D01*
X140010776Y-87906922D01*
X140125412Y-87468052D01*
X140296904Y-87001537D01*
X140535494Y-86457665D01*
X140835227Y-85866431D01*
X141464805Y-84903476D01*
X142212720Y-84060875D01*
X143074971Y-83342260D01*
X144047559Y-82751258D01*
X145126485Y-82291500D01*
X145416149Y-82193065D01*
X145727878Y-82099062D01*
X146010619Y-82036502D01*
X146313951Y-81997304D01*
X146687454Y-81973386D01*
X147180708Y-81956666D01*
X147561098Y-81948530D01*
X148026537Y-81950798D01*
X148411643Y-81973833D01*
X148769481Y-82021419D01*
X149153118Y-82097342D01*
X149600863Y-82206344D01*
X150642009Y-82555122D01*
X151576777Y-83019981D01*
X152427430Y-83613250D01*
X153216233Y-84347256D01*
X153258887Y-84392775D01*
X153895856Y-85200234D01*
X154411432Y-86107893D01*
X154797851Y-87091457D01*
X155047347Y-88126631D01*
X155152153Y-89189120D01*
X155104505Y-90254630D01*
X155041426Y-90690500D01*
X154980672Y-90941489D01*
X154767562Y-91821898D01*
G37*
G36*
X157797559Y-90404396D02*
G01*
X157762881Y-90751682D01*
X157710988Y-91310306D01*
X158922848Y-91368615D01*
X158930889Y-91369003D01*
X159332668Y-91391043D01*
X159882469Y-91425026D01*
X160560026Y-91469492D01*
X161345071Y-91522978D01*
X162217339Y-91584023D01*
X163156564Y-91651163D01*
X164142479Y-91722938D01*
X165154818Y-91797885D01*
X166173315Y-91874542D01*
X167177703Y-91951446D01*
X168147717Y-92027137D01*
X169063089Y-92100152D01*
X169465312Y-92132265D01*
X170026806Y-92175793D01*
X170526096Y-92212989D01*
X170936544Y-92241934D01*
X171231513Y-92260708D01*
X171384367Y-92267393D01*
X171394172Y-92267434D01*
X171548057Y-92284128D01*
X171580726Y-92321930D01*
X171530886Y-92340390D01*
X171403968Y-92363059D01*
X171191313Y-92390100D01*
X170883675Y-92422301D01*
X170471810Y-92460452D01*
X169946471Y-92505342D01*
X169298415Y-92557761D01*
X168518395Y-92618496D01*
X167597166Y-92688338D01*
X166525484Y-92768075D01*
X165294103Y-92858496D01*
X165287109Y-92859007D01*
X164418996Y-92922706D01*
X163511020Y-92989813D01*
X162597973Y-93057723D01*
X161714649Y-93123833D01*
X160895839Y-93185539D01*
X160176337Y-93240237D01*
X159590934Y-93285323D01*
X159094943Y-93323682D01*
X158548301Y-93365421D01*
X158075114Y-93400964D01*
X157699223Y-93428541D01*
X157444465Y-93446385D01*
X157334681Y-93452726D01*
X157331549Y-93452948D01*
X157240898Y-93530198D01*
X157107315Y-93719518D01*
X156958532Y-93981893D01*
X156513681Y-94767242D01*
X155746980Y-95855392D01*
X154866166Y-96840161D01*
X153885089Y-97711035D01*
X152817599Y-98457497D01*
X151677547Y-99069035D01*
X150478783Y-99535132D01*
X149235157Y-99845275D01*
X148804541Y-99903411D01*
X148189520Y-99946181D01*
X147510530Y-99961259D01*
X146823296Y-99948710D01*
X146183545Y-99908602D01*
X145647003Y-99840999D01*
X144633749Y-99614587D01*
X143634636Y-99274150D01*
X142661678Y-98811378D01*
X141671398Y-98208418D01*
X141642667Y-98189095D01*
X140636340Y-97408488D01*
X139743371Y-96502463D01*
X138965146Y-95472620D01*
X138303052Y-94320559D01*
X138300995Y-94316428D01*
X138108048Y-93937631D01*
X137966156Y-93687255D01*
X137856396Y-93539834D01*
X137759843Y-93469905D01*
X137657573Y-93452002D01*
X137540595Y-93447525D01*
X137271978Y-93430464D01*
X136914296Y-93403671D01*
X136512708Y-93370365D01*
X136426136Y-93363031D01*
X136081579Y-93335462D01*
X135600573Y-93298511D01*
X135006954Y-93253945D01*
X134324557Y-93203528D01*
X133577216Y-93149026D01*
X132788766Y-93092205D01*
X131983041Y-93034830D01*
X131238976Y-92982094D01*
X129853671Y-92883350D01*
X128626259Y-92794993D01*
X127549329Y-92716434D01*
X126615473Y-92647084D01*
X125817281Y-92586356D01*
X125147344Y-92533659D01*
X124598253Y-92488405D01*
X124162597Y-92450005D01*
X123832968Y-92417871D01*
X123601957Y-92391413D01*
X123462153Y-92370042D01*
X123406148Y-92353170D01*
X123398084Y-92345030D01*
X123394624Y-92330475D01*
X123416796Y-92316267D01*
X123476537Y-92301361D01*
X123585787Y-92284714D01*
X123756484Y-92265279D01*
X124000566Y-92242014D01*
X124329973Y-92213872D01*
X124756642Y-92179811D01*
X125292513Y-92138784D01*
X125949524Y-92089747D01*
X126739613Y-92031657D01*
X127674719Y-91963467D01*
X128766781Y-91884134D01*
X129966830Y-91797070D01*
X131129745Y-91712834D01*
X132144948Y-91639505D01*
X133023504Y-91576334D01*
X133776481Y-91522569D01*
X134414946Y-91477461D01*
X134949965Y-91440260D01*
X135392605Y-91410216D01*
X135753933Y-91386578D01*
X136045015Y-91368596D01*
X136276919Y-91355519D01*
X136460711Y-91346599D01*
X136607459Y-91341084D01*
X136728227Y-91338225D01*
X136834085Y-91337270D01*
X137324794Y-91336059D01*
X137267199Y-90468226D01*
X137248604Y-90204752D01*
X137222580Y-89885870D01*
X137210803Y-89769726D01*
X138808685Y-89769726D01*
X138808755Y-89812406D01*
X138812555Y-90402047D01*
X138823281Y-90858336D01*
X138843643Y-91215065D01*
X138876351Y-91506023D01*
X138924117Y-91765001D01*
X138989650Y-92025789D01*
X139276659Y-92910703D01*
X139782190Y-94033952D01*
X140412204Y-95048798D01*
X141160789Y-95949298D01*
X142022030Y-96729511D01*
X142990013Y-97383494D01*
X144058825Y-97905305D01*
X145222553Y-98289001D01*
X145671177Y-98377310D01*
X146250939Y-98446877D01*
X146890354Y-98490936D01*
X147534067Y-98506945D01*
X148126725Y-98492364D01*
X148612972Y-98444650D01*
X148749191Y-98422309D01*
X149973038Y-98133169D01*
X151123552Y-97700600D01*
X152189869Y-97132276D01*
X153161124Y-96435868D01*
X154026452Y-95619049D01*
X154774988Y-94689490D01*
X155395869Y-93654864D01*
X155851979Y-92608983D01*
X156176449Y-91474821D01*
X156334079Y-90318483D01*
X156325018Y-89137470D01*
X156149413Y-87929280D01*
X155807413Y-86691414D01*
X155696284Y-86385271D01*
X155209398Y-85349569D01*
X154580202Y-84371942D01*
X153826776Y-83469994D01*
X152967201Y-82661330D01*
X152019555Y-81963552D01*
X151001920Y-81394266D01*
X149932375Y-80971075D01*
X149613522Y-80877541D01*
X148500562Y-80657216D01*
X147371781Y-80589938D01*
X146251901Y-80674335D01*
X145165645Y-80909034D01*
X144137734Y-81292664D01*
X143392272Y-81680889D01*
X142381978Y-82362026D01*
X141466975Y-83168917D01*
X140660825Y-84085523D01*
X139977086Y-85095806D01*
X139429318Y-86183726D01*
X139031080Y-87333244D01*
X138968773Y-87569269D01*
X138905320Y-87844046D01*
X138860975Y-88107418D01*
X138832437Y-88395528D01*
X138816410Y-88744520D01*
X138809592Y-89190538D01*
X138808685Y-89769726D01*
X137210803Y-89769726D01*
X137199890Y-89662108D01*
X137183960Y-89570420D01*
X137104436Y-89559211D01*
X136871820Y-89536977D01*
X136502827Y-89505319D01*
X136014103Y-89465565D01*
X135422296Y-89419044D01*
X134744053Y-89367083D01*
X133996020Y-89311012D01*
X133194846Y-89252156D01*
X132921945Y-89232307D01*
X131960091Y-89162356D01*
X130946868Y-89088680D01*
X129918985Y-89013948D01*
X128913152Y-88940830D01*
X127966077Y-88871993D01*
X127114470Y-88810106D01*
X126395041Y-88757837D01*
X125897266Y-88721587D01*
X124673435Y-88631587D01*
X123573681Y-88549386D01*
X122603611Y-88475435D01*
X121768836Y-88410184D01*
X121074964Y-88354084D01*
X120527604Y-88307584D01*
X120132366Y-88271134D01*
X119894859Y-88245185D01*
X119820691Y-88230187D01*
X119842854Y-88225150D01*
X120007785Y-88206490D01*
X120321819Y-88177848D01*
X120771445Y-88140202D01*
X121343157Y-88094529D01*
X122023447Y-88041808D01*
X122798806Y-87983017D01*
X123655726Y-87919133D01*
X124580699Y-87851135D01*
X125560217Y-87780001D01*
X126580772Y-87706708D01*
X127628856Y-87632235D01*
X128690961Y-87557560D01*
X129753579Y-87483661D01*
X130803201Y-87411515D01*
X131826320Y-87342101D01*
X132809428Y-87276397D01*
X133739016Y-87215380D01*
X134601576Y-87160030D01*
X137516444Y-86975525D01*
X137790817Y-86272979D01*
X137843274Y-86141080D01*
X137976894Y-85824987D01*
X138092221Y-85578250D01*
X138168848Y-85445533D01*
X138220603Y-85369110D01*
X138235688Y-85283817D01*
X138153023Y-85270913D01*
X137913696Y-85246673D01*
X137530929Y-85212451D01*
X137017751Y-85169250D01*
X136387195Y-85118072D01*
X135652292Y-85059919D01*
X134826074Y-84995795D01*
X133921573Y-84926703D01*
X132951819Y-84853644D01*
X131929845Y-84777622D01*
X130868682Y-84699639D01*
X129781361Y-84620699D01*
X128680915Y-84541803D01*
X127580375Y-84463954D01*
X127514410Y-84459313D01*
X126748949Y-84403846D01*
X126143281Y-84356407D01*
X125688774Y-84316059D01*
X125376796Y-84281867D01*
X125198713Y-84252894D01*
X125145895Y-84228204D01*
X125209708Y-84206860D01*
X125326825Y-84192283D01*
X125625073Y-84163429D01*
X126086758Y-84123388D01*
X126708793Y-84072397D01*
X127488087Y-84010691D01*
X128421550Y-83938508D01*
X129506094Y-83856084D01*
X130738628Y-83763654D01*
X132116064Y-83661455D01*
X133635312Y-83549723D01*
X135293282Y-83428694D01*
X137086884Y-83298606D01*
X139269727Y-83140747D01*
X139930075Y-82509854D01*
X140613759Y-81895456D01*
X141712129Y-81064735D01*
X142852981Y-80389390D01*
X144048041Y-79861881D01*
X144499822Y-79703709D01*
X145777955Y-79365574D01*
X147038891Y-79195799D01*
X148283770Y-79194433D01*
X149513735Y-79361525D01*
X150729926Y-79697124D01*
X151933483Y-80201279D01*
X152105192Y-80287299D01*
X153116789Y-80874254D01*
X154030849Y-81559032D01*
X154896050Y-82377388D01*
X155584058Y-83097563D01*
X157012716Y-83197784D01*
X157336287Y-83220635D01*
X158059609Y-83272575D01*
X158863990Y-83331297D01*
X159733808Y-83395595D01*
X160653444Y-83464259D01*
X161607276Y-83536083D01*
X162579685Y-83609858D01*
X163555049Y-83684376D01*
X164517750Y-83758430D01*
X165452166Y-83830812D01*
X166342676Y-83900314D01*
X167173661Y-83965728D01*
X167929501Y-84025846D01*
X168594574Y-84079461D01*
X169153260Y-84125364D01*
X169589940Y-84162347D01*
X169888992Y-84189204D01*
X170034796Y-84204725D01*
X170049119Y-84207287D01*
X170050797Y-84224936D01*
X169924790Y-84249810D01*
X169666512Y-84282315D01*
X169271372Y-84322855D01*
X168734782Y-84371836D01*
X168052152Y-84429662D01*
X167218894Y-84496738D01*
X166230420Y-84573470D01*
X165082139Y-84660261D01*
X163769463Y-84757517D01*
X163422903Y-84782975D01*
X162389867Y-84858719D01*
X161409989Y-84930360D01*
X160496126Y-84996970D01*
X159661135Y-85057618D01*
X158917875Y-85111378D01*
X158279201Y-85157321D01*
X157757973Y-85194518D01*
X157367046Y-85222041D01*
X157119279Y-85238961D01*
X157027528Y-85244350D01*
X157017112Y-85253197D01*
X157032992Y-85362565D01*
X157104006Y-85557559D01*
X157185714Y-85760832D01*
X157307466Y-86085960D01*
X157427449Y-86425393D01*
X157615235Y-86975726D01*
X158070638Y-86998196D01*
X158415862Y-87016312D01*
X159067771Y-87054071D01*
X159862011Y-87103309D01*
X160782647Y-87162895D01*
X161813743Y-87231699D01*
X162939366Y-87308588D01*
X164143579Y-87392433D01*
X165410447Y-87482103D01*
X166724037Y-87576467D01*
X168068413Y-87674394D01*
X169427639Y-87774753D01*
X170785782Y-87876413D01*
X172126906Y-87978244D01*
X173435075Y-88079115D01*
X174694356Y-88177895D01*
X174759109Y-88183218D01*
X175074653Y-88218589D01*
X175222707Y-88256393D01*
X175202356Y-88296416D01*
X175092598Y-88318649D01*
X174821262Y-88352048D01*
X174409866Y-88392534D01*
X173873967Y-88438884D01*
X173229120Y-88489875D01*
X172490881Y-88544282D01*
X171674807Y-88600881D01*
X170796453Y-88658450D01*
X169871375Y-88715765D01*
X169529915Y-88737133D01*
X169034181Y-88769551D01*
X168424296Y-88810410D01*
X167719132Y-88858377D01*
X166937561Y-88912118D01*
X166098456Y-88970297D01*
X165220690Y-89031583D01*
X164323135Y-89094640D01*
X163424664Y-89158134D01*
X162544150Y-89220732D01*
X161700464Y-89281099D01*
X160912481Y-89337902D01*
X160199072Y-89389806D01*
X159579111Y-89435478D01*
X159071469Y-89473584D01*
X158695019Y-89502788D01*
X158468635Y-89521759D01*
X157903229Y-89574021D01*
X157859001Y-89883540D01*
X157834303Y-90076322D01*
X157807181Y-90318483D01*
X157797559Y-90404396D01*
G37*
D12*
%TO.C,REF\u002A\u002A*%
X209143606Y-81239749D02*
X209169327Y-81255447D01*
X209195978Y-81277027D01*
X209195978Y-81924484D01*
X209169327Y-81946064D01*
X209137967Y-81963539D01*
X209102166Y-81964375D01*
X209070728Y-81943882D01*
X209066852Y-81939216D01*
X209061386Y-81929749D01*
X209057179Y-81916067D01*
X209054067Y-81895548D01*
X209051887Y-81865568D01*
X209050476Y-81823504D01*
X209049671Y-81766732D01*
X209049307Y-81692630D01*
X209049222Y-81598573D01*
X209049222Y-81277027D01*
X209075873Y-81255447D01*
X209099586Y-81240677D01*
X209122600Y-81233867D01*
X209143606Y-81239749D01*
G36*
X209143606Y-81239749D02*
G01*
X209169327Y-81255447D01*
X209195978Y-81277027D01*
X209195978Y-81924484D01*
X209169327Y-81946064D01*
X209137967Y-81963539D01*
X209102166Y-81964375D01*
X209070728Y-81943882D01*
X209066852Y-81939216D01*
X209061386Y-81929749D01*
X209057179Y-81916067D01*
X209054067Y-81895548D01*
X209051887Y-81865568D01*
X209050476Y-81823504D01*
X209049671Y-81766732D01*
X209049307Y-81692630D01*
X209049222Y-81598573D01*
X209049222Y-81277027D01*
X209075873Y-81255447D01*
X209099586Y-81240677D01*
X209122600Y-81233867D01*
X209143606Y-81239749D01*
G37*
X216274337Y-81238263D02*
X216308491Y-81261576D01*
X216336200Y-81289285D01*
X216336200Y-81602337D01*
X216336159Y-81686367D01*
X216335901Y-81760589D01*
X216335230Y-81817341D01*
X216333952Y-81859312D01*
X216331873Y-81889189D01*
X216328799Y-81909661D01*
X216324534Y-81923414D01*
X216318884Y-81933137D01*
X216311655Y-81941517D01*
X216280191Y-81962981D01*
X216245026Y-81964747D01*
X216212022Y-81945067D01*
X216206716Y-81939198D01*
X216201266Y-81930114D01*
X216197100Y-81916773D01*
X216194046Y-81896557D01*
X216191932Y-81866849D01*
X216190586Y-81825032D01*
X216189838Y-81768489D01*
X216189514Y-81694602D01*
X216189445Y-81600756D01*
X216189484Y-81525094D01*
X216189739Y-81447185D01*
X216190383Y-81387175D01*
X216191587Y-81342448D01*
X216193524Y-81310385D01*
X216196364Y-81288371D01*
X216200279Y-81273787D01*
X216205442Y-81264018D01*
X216212022Y-81256445D01*
X216241206Y-81237423D01*
X216274337Y-81238263D01*
G36*
X216274337Y-81238263D02*
G01*
X216308491Y-81261576D01*
X216336200Y-81289285D01*
X216336200Y-81602337D01*
X216336159Y-81686367D01*
X216335901Y-81760589D01*
X216335230Y-81817341D01*
X216333952Y-81859312D01*
X216331873Y-81889189D01*
X216328799Y-81909661D01*
X216324534Y-81923414D01*
X216318884Y-81933137D01*
X216311655Y-81941517D01*
X216280191Y-81962981D01*
X216245026Y-81964747D01*
X216212022Y-81945067D01*
X216206716Y-81939198D01*
X216201266Y-81930114D01*
X216197100Y-81916773D01*
X216194046Y-81896557D01*
X216191932Y-81866849D01*
X216190586Y-81825032D01*
X216189838Y-81768489D01*
X216189514Y-81694602D01*
X216189445Y-81600756D01*
X216189484Y-81525094D01*
X216189739Y-81447185D01*
X216190383Y-81387175D01*
X216191587Y-81342448D01*
X216193524Y-81310385D01*
X216196364Y-81288371D01*
X216200279Y-81273787D01*
X216205442Y-81264018D01*
X216212022Y-81256445D01*
X216241206Y-81237423D01*
X216274337Y-81238263D01*
G37*
X215742762Y-75997650D02*
X215825513Y-76024853D01*
X215900606Y-76070284D01*
X215972498Y-76136102D01*
X216011046Y-76180367D01*
X216050456Y-76238761D01*
X216075646Y-76299386D01*
X216089061Y-76368665D01*
X216093148Y-76453022D01*
X216092869Y-76499107D01*
X216090660Y-76540250D01*
X216085094Y-76572382D01*
X216074786Y-76602922D01*
X216058348Y-76639289D01*
X216044400Y-76666528D01*
X215985865Y-76752229D01*
X215913819Y-76821417D01*
X215830147Y-76872541D01*
X215736731Y-76904050D01*
X215703634Y-76911025D01*
X215663160Y-76917894D01*
X215630199Y-76919719D01*
X215595898Y-76916747D01*
X215551400Y-76909226D01*
X215500134Y-76896802D01*
X215409634Y-76858912D01*
X215330545Y-76804636D01*
X215264728Y-76736570D01*
X215214040Y-76657311D01*
X215180340Y-76569454D01*
X215165486Y-76475595D01*
X215171336Y-76378330D01*
X215197599Y-76282020D01*
X215242618Y-76193294D01*
X215303573Y-76118219D01*
X215378384Y-76058441D01*
X215464968Y-76015609D01*
X215561243Y-75991371D01*
X215665128Y-75987376D01*
X215742762Y-75997650D01*
G36*
X215742762Y-75997650D02*
G01*
X215825513Y-76024853D01*
X215900606Y-76070284D01*
X215972498Y-76136102D01*
X216011046Y-76180367D01*
X216050456Y-76238761D01*
X216075646Y-76299386D01*
X216089061Y-76368665D01*
X216093148Y-76453022D01*
X216092869Y-76499107D01*
X216090660Y-76540250D01*
X216085094Y-76572382D01*
X216074786Y-76602922D01*
X216058348Y-76639289D01*
X216044400Y-76666528D01*
X215985865Y-76752229D01*
X215913819Y-76821417D01*
X215830147Y-76872541D01*
X215736731Y-76904050D01*
X215703634Y-76911025D01*
X215663160Y-76917894D01*
X215630199Y-76919719D01*
X215595898Y-76916747D01*
X215551400Y-76909226D01*
X215500134Y-76896802D01*
X215409634Y-76858912D01*
X215330545Y-76804636D01*
X215264728Y-76736570D01*
X215214040Y-76657311D01*
X215180340Y-76569454D01*
X215165486Y-76475595D01*
X215171336Y-76378330D01*
X215197599Y-76282020D01*
X215242618Y-76193294D01*
X215303573Y-76118219D01*
X215378384Y-76058441D01*
X215464968Y-76015609D01*
X215561243Y-75991371D01*
X215665128Y-75987376D01*
X215742762Y-75997650D01*
G37*
X208443967Y-81233868D02*
X208538090Y-81233958D01*
X208612605Y-81234298D01*
X208670011Y-81235039D01*
X208712811Y-81236335D01*
X208743504Y-81238337D01*
X208764591Y-81241196D01*
X208778573Y-81245066D01*
X208787950Y-81250098D01*
X208795222Y-81256445D01*
X208814028Y-81289162D01*
X208815475Y-81326739D01*
X208799117Y-81359978D01*
X208797757Y-81361431D01*
X208786554Y-81369792D01*
X208769452Y-81375347D01*
X208742282Y-81378640D01*
X208700878Y-81380218D01*
X208641073Y-81380622D01*
X208501711Y-81380622D01*
X208501711Y-81644389D01*
X208501636Y-81720217D01*
X208501228Y-81786883D01*
X208500246Y-81836667D01*
X208498450Y-81872584D01*
X208495599Y-81897650D01*
X208491453Y-81914881D01*
X208485771Y-81927292D01*
X208478314Y-81937900D01*
X208476024Y-81940706D01*
X208444846Y-81963348D01*
X208410466Y-81964912D01*
X208377534Y-81945067D01*
X208370555Y-81936991D01*
X208365083Y-81926393D01*
X208361063Y-81910549D01*
X208358272Y-81886573D01*
X208356488Y-81851574D01*
X208355489Y-81802664D01*
X208355052Y-81736954D01*
X208354956Y-81651556D01*
X208354956Y-81380622D01*
X208209020Y-81380622D01*
X208197920Y-81380621D01*
X208141402Y-81380396D01*
X208102558Y-81379257D01*
X208077165Y-81376457D01*
X208061004Y-81371250D01*
X208049852Y-81362889D01*
X208039489Y-81350626D01*
X208023641Y-81319938D01*
X208026743Y-81286158D01*
X208052387Y-81253622D01*
X208057329Y-81249905D01*
X208067538Y-81245069D01*
X208082964Y-81241306D01*
X208106086Y-81238483D01*
X208139383Y-81236470D01*
X208185337Y-81235133D01*
X208246428Y-81234342D01*
X208325135Y-81233963D01*
X208423940Y-81233867D01*
X208443967Y-81233868D01*
G36*
X208443967Y-81233868D02*
G01*
X208538090Y-81233958D01*
X208612605Y-81234298D01*
X208670011Y-81235039D01*
X208712811Y-81236335D01*
X208743504Y-81238337D01*
X208764591Y-81241196D01*
X208778573Y-81245066D01*
X208787950Y-81250098D01*
X208795222Y-81256445D01*
X208814028Y-81289162D01*
X208815475Y-81326739D01*
X208799117Y-81359978D01*
X208797757Y-81361431D01*
X208786554Y-81369792D01*
X208769452Y-81375347D01*
X208742282Y-81378640D01*
X208700878Y-81380218D01*
X208641073Y-81380622D01*
X208501711Y-81380622D01*
X208501711Y-81644389D01*
X208501636Y-81720217D01*
X208501228Y-81786883D01*
X208500246Y-81836667D01*
X208498450Y-81872584D01*
X208495599Y-81897650D01*
X208491453Y-81914881D01*
X208485771Y-81927292D01*
X208478314Y-81937900D01*
X208476024Y-81940706D01*
X208444846Y-81963348D01*
X208410466Y-81964912D01*
X208377534Y-81945067D01*
X208370555Y-81936991D01*
X208365083Y-81926393D01*
X208361063Y-81910549D01*
X208358272Y-81886573D01*
X208356488Y-81851574D01*
X208355489Y-81802664D01*
X208355052Y-81736954D01*
X208354956Y-81651556D01*
X208354956Y-81380622D01*
X208209020Y-81380622D01*
X208197920Y-81380621D01*
X208141402Y-81380396D01*
X208102558Y-81379257D01*
X208077165Y-81376457D01*
X208061004Y-81371250D01*
X208049852Y-81362889D01*
X208039489Y-81350626D01*
X208023641Y-81319938D01*
X208026743Y-81286158D01*
X208052387Y-81253622D01*
X208057329Y-81249905D01*
X208067538Y-81245069D01*
X208082964Y-81241306D01*
X208106086Y-81238483D01*
X208139383Y-81236470D01*
X208185337Y-81235133D01*
X208246428Y-81234342D01*
X208325135Y-81233963D01*
X208423940Y-81233867D01*
X208443967Y-81233868D01*
G37*
X207767934Y-81256445D02*
X207773566Y-81262635D01*
X207778656Y-81270841D01*
X207782743Y-81282617D01*
X207785921Y-81300076D01*
X207788287Y-81325330D01*
X207789938Y-81360490D01*
X207790969Y-81407669D01*
X207791477Y-81468977D01*
X207791559Y-81546527D01*
X207791309Y-81642431D01*
X207790825Y-81758800D01*
X207790757Y-81772975D01*
X207790171Y-81834737D01*
X207788848Y-81878420D01*
X207786303Y-81907801D01*
X207782048Y-81926655D01*
X207775596Y-81938759D01*
X207766462Y-81947889D01*
X207733004Y-81965306D01*
X207698056Y-81962404D01*
X207667153Y-81937900D01*
X207658144Y-81924697D01*
X207650692Y-81906161D01*
X207646324Y-81880133D01*
X207644269Y-81841587D01*
X207643756Y-81785500D01*
X207643756Y-81662845D01*
X207147045Y-81662845D01*
X207147045Y-81797671D01*
X207146972Y-81833462D01*
X207146209Y-81879792D01*
X207144033Y-81910326D01*
X207139736Y-81929357D01*
X207132612Y-81941174D01*
X207121955Y-81950071D01*
X207089704Y-81965141D01*
X207054417Y-81962473D01*
X207023686Y-81937900D01*
X207019031Y-81931645D01*
X207013095Y-81921121D01*
X207008564Y-81907191D01*
X207005248Y-81887117D01*
X207002959Y-81858160D01*
X207001508Y-81817580D01*
X207000705Y-81762640D01*
X207000362Y-81690599D01*
X207000289Y-81598720D01*
X207000289Y-81289285D01*
X207027998Y-81261576D01*
X207059377Y-81239333D01*
X207092606Y-81236644D01*
X207124467Y-81256445D01*
X207132753Y-81266215D01*
X207140165Y-81282107D01*
X207144502Y-81306075D01*
X207146538Y-81342948D01*
X207147045Y-81397556D01*
X207147045Y-81516089D01*
X207643756Y-81516089D01*
X207643756Y-81400576D01*
X207644194Y-81348878D01*
X207646158Y-81314354D01*
X207650674Y-81291778D01*
X207658767Y-81275926D01*
X207671465Y-81261576D01*
X207702843Y-81239333D01*
X207736072Y-81236644D01*
X207767934Y-81256445D01*
G36*
X207767934Y-81256445D02*
G01*
X207773566Y-81262635D01*
X207778656Y-81270841D01*
X207782743Y-81282617D01*
X207785921Y-81300076D01*
X207788287Y-81325330D01*
X207789938Y-81360490D01*
X207790969Y-81407669D01*
X207791477Y-81468977D01*
X207791559Y-81546527D01*
X207791309Y-81642431D01*
X207790825Y-81758800D01*
X207790757Y-81772975D01*
X207790171Y-81834737D01*
X207788848Y-81878420D01*
X207786303Y-81907801D01*
X207782048Y-81926655D01*
X207775596Y-81938759D01*
X207766462Y-81947889D01*
X207733004Y-81965306D01*
X207698056Y-81962404D01*
X207667153Y-81937900D01*
X207658144Y-81924697D01*
X207650692Y-81906161D01*
X207646324Y-81880133D01*
X207644269Y-81841587D01*
X207643756Y-81785500D01*
X207643756Y-81662845D01*
X207147045Y-81662845D01*
X207147045Y-81797671D01*
X207146972Y-81833462D01*
X207146209Y-81879792D01*
X207144033Y-81910326D01*
X207139736Y-81929357D01*
X207132612Y-81941174D01*
X207121955Y-81950071D01*
X207089704Y-81965141D01*
X207054417Y-81962473D01*
X207023686Y-81937900D01*
X207019031Y-81931645D01*
X207013095Y-81921121D01*
X207008564Y-81907191D01*
X207005248Y-81887117D01*
X207002959Y-81858160D01*
X207001508Y-81817580D01*
X207000705Y-81762640D01*
X207000362Y-81690599D01*
X207000289Y-81598720D01*
X207000289Y-81289285D01*
X207027998Y-81261576D01*
X207059377Y-81239333D01*
X207092606Y-81236644D01*
X207124467Y-81256445D01*
X207132753Y-81266215D01*
X207140165Y-81282107D01*
X207144502Y-81306075D01*
X207146538Y-81342948D01*
X207147045Y-81397556D01*
X207147045Y-81516089D01*
X207643756Y-81516089D01*
X207643756Y-81400576D01*
X207644194Y-81348878D01*
X207646158Y-81314354D01*
X207650674Y-81291778D01*
X207658767Y-81275926D01*
X207671465Y-81261576D01*
X207702843Y-81239333D01*
X207736072Y-81236644D01*
X207767934Y-81256445D01*
G37*
X212473333Y-81845196D02*
X212471363Y-81877975D01*
X212468435Y-81900895D01*
X212464358Y-81916697D01*
X212458943Y-81928119D01*
X212452003Y-81937900D01*
X212428606Y-81967645D01*
X212262914Y-81967051D01*
X212228118Y-81966753D01*
X212129635Y-81963322D01*
X212048673Y-81955639D01*
X211981579Y-81943082D01*
X211924696Y-81925027D01*
X211874369Y-81900852D01*
X211871010Y-81898935D01*
X211813198Y-81862217D01*
X211770844Y-81825251D01*
X211738028Y-81781766D01*
X211708828Y-81725489D01*
X211704546Y-81715873D01*
X211681969Y-81652687D01*
X211676234Y-81607133D01*
X211825479Y-81607133D01*
X211831092Y-81631861D01*
X211836818Y-81647739D01*
X211869748Y-81707647D01*
X211917086Y-81753400D01*
X211980852Y-81786536D01*
X212063061Y-81808590D01*
X212065855Y-81809092D01*
X212112140Y-81815055D01*
X212168536Y-81819283D01*
X212223474Y-81820889D01*
X212317356Y-81820889D01*
X212317356Y-81380622D01*
X212229867Y-81381070D01*
X212162947Y-81383546D01*
X212070549Y-81394798D01*
X211991234Y-81414337D01*
X211929260Y-81441311D01*
X211898320Y-81462040D01*
X211870200Y-81491806D01*
X211846860Y-81534234D01*
X211839733Y-81550200D01*
X211827909Y-81582702D01*
X211825479Y-81607133D01*
X211676234Y-81607133D01*
X211674997Y-81597309D01*
X211683599Y-81542283D01*
X211707741Y-81480151D01*
X211708537Y-81478458D01*
X211748988Y-81409036D01*
X211799673Y-81352438D01*
X211862398Y-81307870D01*
X211938974Y-81274541D01*
X212031209Y-81251661D01*
X212140912Y-81238436D01*
X212269891Y-81234075D01*
X212273463Y-81234070D01*
X212333483Y-81234210D01*
X212375414Y-81235246D01*
X212403528Y-81237840D01*
X212422097Y-81242653D01*
X212435394Y-81250344D01*
X212447691Y-81261576D01*
X212475400Y-81289285D01*
X212475400Y-81598720D01*
X212475375Y-81660326D01*
X212475150Y-81739111D01*
X212474532Y-81799821D01*
X212473975Y-81820889D01*
X212473333Y-81845196D01*
G36*
X212473333Y-81845196D02*
G01*
X212471363Y-81877975D01*
X212468435Y-81900895D01*
X212464358Y-81916697D01*
X212458943Y-81928119D01*
X212452003Y-81937900D01*
X212428606Y-81967645D01*
X212262914Y-81967051D01*
X212228118Y-81966753D01*
X212129635Y-81963322D01*
X212048673Y-81955639D01*
X211981579Y-81943082D01*
X211924696Y-81925027D01*
X211874369Y-81900852D01*
X211871010Y-81898935D01*
X211813198Y-81862217D01*
X211770844Y-81825251D01*
X211738028Y-81781766D01*
X211708828Y-81725489D01*
X211704546Y-81715873D01*
X211681969Y-81652687D01*
X211676234Y-81607133D01*
X211825479Y-81607133D01*
X211831092Y-81631861D01*
X211836818Y-81647739D01*
X211869748Y-81707647D01*
X211917086Y-81753400D01*
X211980852Y-81786536D01*
X212063061Y-81808590D01*
X212065855Y-81809092D01*
X212112140Y-81815055D01*
X212168536Y-81819283D01*
X212223474Y-81820889D01*
X212317356Y-81820889D01*
X212317356Y-81380622D01*
X212229867Y-81381070D01*
X212162947Y-81383546D01*
X212070549Y-81394798D01*
X211991234Y-81414337D01*
X211929260Y-81441311D01*
X211898320Y-81462040D01*
X211870200Y-81491806D01*
X211846860Y-81534234D01*
X211839733Y-81550200D01*
X211827909Y-81582702D01*
X211825479Y-81607133D01*
X211676234Y-81607133D01*
X211674997Y-81597309D01*
X211683599Y-81542283D01*
X211707741Y-81480151D01*
X211708537Y-81478458D01*
X211748988Y-81409036D01*
X211799673Y-81352438D01*
X211862398Y-81307870D01*
X211938974Y-81274541D01*
X212031209Y-81251661D01*
X212140912Y-81238436D01*
X212269891Y-81234075D01*
X212273463Y-81234070D01*
X212333483Y-81234210D01*
X212375414Y-81235246D01*
X212403528Y-81237840D01*
X212422097Y-81242653D01*
X212435394Y-81250344D01*
X212447691Y-81261576D01*
X212475400Y-81289285D01*
X212475400Y-81598720D01*
X212475375Y-81660326D01*
X212475150Y-81739111D01*
X212474532Y-81799821D01*
X212473975Y-81820889D01*
X212473333Y-81845196D01*
G37*
X219565017Y-81419227D02*
X219565070Y-81499841D01*
X219564822Y-81600756D01*
X219564783Y-81676417D01*
X219564528Y-81754326D01*
X219563884Y-81814336D01*
X219562680Y-81859064D01*
X219560743Y-81891126D01*
X219557903Y-81913140D01*
X219553988Y-81927724D01*
X219548826Y-81937494D01*
X219542245Y-81945067D01*
X219535277Y-81951301D01*
X219522279Y-81958601D01*
X219503131Y-81963354D01*
X219473728Y-81966092D01*
X219429962Y-81967345D01*
X219367728Y-81967645D01*
X219318782Y-81967269D01*
X219211922Y-81962841D01*
X219122694Y-81952753D01*
X219047896Y-81936165D01*
X218984325Y-81912235D01*
X218928779Y-81880121D01*
X218878054Y-81838982D01*
X218872066Y-81833130D01*
X218835199Y-81784621D01*
X218804099Y-81723813D01*
X218782617Y-81659569D01*
X218777336Y-81620826D01*
X218924553Y-81620826D01*
X218942835Y-81671761D01*
X218972505Y-81717678D01*
X219019202Y-81760087D01*
X219080592Y-81789890D01*
X219159738Y-81809026D01*
X219161228Y-81809264D01*
X219210199Y-81815056D01*
X219268893Y-81819196D01*
X219324934Y-81820804D01*
X219418067Y-81820889D01*
X219418067Y-81380622D01*
X219341867Y-81380608D01*
X219338839Y-81380617D01*
X219287719Y-81382582D01*
X219227616Y-81387307D01*
X219170908Y-81393835D01*
X219120950Y-81403131D01*
X219046198Y-81429400D01*
X218988689Y-81468699D01*
X218947188Y-81521733D01*
X218925971Y-81573000D01*
X218924553Y-81620826D01*
X218777336Y-81620826D01*
X218774600Y-81600756D01*
X218775879Y-81579539D01*
X218788191Y-81522123D01*
X218810720Y-81462213D01*
X218839950Y-81408163D01*
X218872367Y-81368332D01*
X218891908Y-81351310D01*
X218946620Y-81312122D01*
X219006923Y-81281993D01*
X219076119Y-81260032D01*
X219157511Y-81245350D01*
X219254400Y-81237059D01*
X219370089Y-81234267D01*
X219409571Y-81233866D01*
X219455282Y-81233453D01*
X219491083Y-81235257D01*
X219518174Y-81241539D01*
X219537756Y-81254559D01*
X219551030Y-81276578D01*
X219559198Y-81309855D01*
X219563460Y-81356651D01*
X219564057Y-81380622D01*
X219565017Y-81419227D01*
G36*
X219565017Y-81419227D02*
G01*
X219565070Y-81499841D01*
X219564822Y-81600756D01*
X219564783Y-81676417D01*
X219564528Y-81754326D01*
X219563884Y-81814336D01*
X219562680Y-81859064D01*
X219560743Y-81891126D01*
X219557903Y-81913140D01*
X219553988Y-81927724D01*
X219548826Y-81937494D01*
X219542245Y-81945067D01*
X219535277Y-81951301D01*
X219522279Y-81958601D01*
X219503131Y-81963354D01*
X219473728Y-81966092D01*
X219429962Y-81967345D01*
X219367728Y-81967645D01*
X219318782Y-81967269D01*
X219211922Y-81962841D01*
X219122694Y-81952753D01*
X219047896Y-81936165D01*
X218984325Y-81912235D01*
X218928779Y-81880121D01*
X218878054Y-81838982D01*
X218872066Y-81833130D01*
X218835199Y-81784621D01*
X218804099Y-81723813D01*
X218782617Y-81659569D01*
X218777336Y-81620826D01*
X218924553Y-81620826D01*
X218942835Y-81671761D01*
X218972505Y-81717678D01*
X219019202Y-81760087D01*
X219080592Y-81789890D01*
X219159738Y-81809026D01*
X219161228Y-81809264D01*
X219210199Y-81815056D01*
X219268893Y-81819196D01*
X219324934Y-81820804D01*
X219418067Y-81820889D01*
X219418067Y-81380622D01*
X219341867Y-81380608D01*
X219338839Y-81380617D01*
X219287719Y-81382582D01*
X219227616Y-81387307D01*
X219170908Y-81393835D01*
X219120950Y-81403131D01*
X219046198Y-81429400D01*
X218988689Y-81468699D01*
X218947188Y-81521733D01*
X218925971Y-81573000D01*
X218924553Y-81620826D01*
X218777336Y-81620826D01*
X218774600Y-81600756D01*
X218775879Y-81579539D01*
X218788191Y-81522123D01*
X218810720Y-81462213D01*
X218839950Y-81408163D01*
X218872367Y-81368332D01*
X218891908Y-81351310D01*
X218946620Y-81312122D01*
X219006923Y-81281993D01*
X219076119Y-81260032D01*
X219157511Y-81245350D01*
X219254400Y-81237059D01*
X219370089Y-81234267D01*
X219409571Y-81233866D01*
X219455282Y-81233453D01*
X219491083Y-81235257D01*
X219518174Y-81241539D01*
X219537756Y-81254559D01*
X219551030Y-81276578D01*
X219559198Y-81309855D01*
X219563460Y-81356651D01*
X219564057Y-81380622D01*
X219565017Y-81419227D01*
G37*
X214620093Y-81232692D02*
X214631501Y-81238829D01*
X214642050Y-81249491D01*
X214653336Y-81263611D01*
X214657789Y-81269572D01*
X214663788Y-81280068D01*
X214668367Y-81293893D01*
X214671719Y-81313798D01*
X214674033Y-81342532D01*
X214675501Y-81382845D01*
X214676313Y-81437487D01*
X214676660Y-81509207D01*
X214676734Y-81600756D01*
X214676711Y-81659286D01*
X214676492Y-81738373D01*
X214675883Y-81799316D01*
X214674692Y-81844862D01*
X214672729Y-81877763D01*
X214669803Y-81900768D01*
X214665723Y-81916626D01*
X214660297Y-81928086D01*
X214653336Y-81937900D01*
X214622908Y-81962293D01*
X214587965Y-81965172D01*
X214550984Y-81946082D01*
X214546800Y-81942607D01*
X214538624Y-81934079D01*
X214532564Y-81922528D01*
X214528181Y-81904696D01*
X214525039Y-81877324D01*
X214522702Y-81837154D01*
X214520731Y-81780928D01*
X214518689Y-81705389D01*
X214513045Y-81486258D01*
X214247756Y-81726899D01*
X214173922Y-81793675D01*
X214108742Y-81851791D01*
X214056548Y-81896749D01*
X214015473Y-81929671D01*
X213983655Y-81951679D01*
X213959226Y-81963894D01*
X213940324Y-81967439D01*
X213925083Y-81963436D01*
X213911639Y-81953007D01*
X213898127Y-81937274D01*
X213891882Y-81928791D01*
X213886250Y-81918213D01*
X213882039Y-81904055D01*
X213879087Y-81883603D01*
X213877232Y-81854142D01*
X213876313Y-81812961D01*
X213876168Y-81757344D01*
X213876635Y-81684579D01*
X213877552Y-81591951D01*
X213880867Y-81276999D01*
X213907518Y-81255433D01*
X213933583Y-81239241D01*
X213966441Y-81236470D01*
X214000972Y-81255423D01*
X214005284Y-81259008D01*
X214013416Y-81267537D01*
X214019445Y-81279129D01*
X214023806Y-81297035D01*
X214026934Y-81324506D01*
X214029263Y-81364794D01*
X214031229Y-81421151D01*
X214033267Y-81496829D01*
X214038911Y-81716678D01*
X214219534Y-81552884D01*
X214306272Y-81474251D01*
X214382043Y-81405858D01*
X214444180Y-81350508D01*
X214494278Y-81307138D01*
X214533935Y-81274681D01*
X214564748Y-81252073D01*
X214588314Y-81238248D01*
X214606230Y-81232143D01*
X214620093Y-81232692D01*
G36*
X214620093Y-81232692D02*
G01*
X214631501Y-81238829D01*
X214642050Y-81249491D01*
X214653336Y-81263611D01*
X214657789Y-81269572D01*
X214663788Y-81280068D01*
X214668367Y-81293893D01*
X214671719Y-81313798D01*
X214674033Y-81342532D01*
X214675501Y-81382845D01*
X214676313Y-81437487D01*
X214676660Y-81509207D01*
X214676734Y-81600756D01*
X214676711Y-81659286D01*
X214676492Y-81738373D01*
X214675883Y-81799316D01*
X214674692Y-81844862D01*
X214672729Y-81877763D01*
X214669803Y-81900768D01*
X214665723Y-81916626D01*
X214660297Y-81928086D01*
X214653336Y-81937900D01*
X214622908Y-81962293D01*
X214587965Y-81965172D01*
X214550984Y-81946082D01*
X214546800Y-81942607D01*
X214538624Y-81934079D01*
X214532564Y-81922528D01*
X214528181Y-81904696D01*
X214525039Y-81877324D01*
X214522702Y-81837154D01*
X214520731Y-81780928D01*
X214518689Y-81705389D01*
X214513045Y-81486258D01*
X214247756Y-81726899D01*
X214173922Y-81793675D01*
X214108742Y-81851791D01*
X214056548Y-81896749D01*
X214015473Y-81929671D01*
X213983655Y-81951679D01*
X213959226Y-81963894D01*
X213940324Y-81967439D01*
X213925083Y-81963436D01*
X213911639Y-81953007D01*
X213898127Y-81937274D01*
X213891882Y-81928791D01*
X213886250Y-81918213D01*
X213882039Y-81904055D01*
X213879087Y-81883603D01*
X213877232Y-81854142D01*
X213876313Y-81812961D01*
X213876168Y-81757344D01*
X213876635Y-81684579D01*
X213877552Y-81591951D01*
X213880867Y-81276999D01*
X213907518Y-81255433D01*
X213933583Y-81239241D01*
X213966441Y-81236470D01*
X214000972Y-81255423D01*
X214005284Y-81259008D01*
X214013416Y-81267537D01*
X214019445Y-81279129D01*
X214023806Y-81297035D01*
X214026934Y-81324506D01*
X214029263Y-81364794D01*
X214031229Y-81421151D01*
X214033267Y-81496829D01*
X214038911Y-81716678D01*
X214219534Y-81552884D01*
X214306272Y-81474251D01*
X214382043Y-81405858D01*
X214444180Y-81350508D01*
X214494278Y-81307138D01*
X214533935Y-81274681D01*
X214564748Y-81252073D01*
X214588314Y-81238248D01*
X214606230Y-81232143D01*
X214620093Y-81232692D01*
G37*
X215417350Y-81238979D02*
X215523357Y-81255294D01*
X215617169Y-81283345D01*
X215695965Y-81322252D01*
X215756919Y-81371134D01*
X215782989Y-81403995D01*
X215812497Y-81453194D01*
X215837768Y-81507052D01*
X215855418Y-81558219D01*
X215862058Y-81599344D01*
X215860498Y-81619059D01*
X215847557Y-81670392D01*
X215824394Y-81726918D01*
X215794502Y-81780835D01*
X215761373Y-81824339D01*
X215751177Y-81834687D01*
X215684092Y-81886462D01*
X215603966Y-81926354D01*
X215517756Y-81950756D01*
X215462792Y-81958868D01*
X215369339Y-81965473D01*
X215279558Y-81963386D01*
X215197069Y-81953140D01*
X215125486Y-81935270D01*
X215068428Y-81910308D01*
X215029511Y-81878788D01*
X215028136Y-81876812D01*
X215021048Y-81851586D01*
X215016809Y-81804335D01*
X215015400Y-81734871D01*
X215016260Y-81672638D01*
X215020980Y-81625256D01*
X215032670Y-81593153D01*
X215054439Y-81573600D01*
X215089398Y-81563870D01*
X215140656Y-81561233D01*
X215211323Y-81562961D01*
X215259943Y-81565973D01*
X215310139Y-81574166D01*
X215342633Y-81588219D01*
X215360092Y-81609454D01*
X215365183Y-81639194D01*
X215365077Y-81643736D01*
X215356375Y-81678530D01*
X215332365Y-81701947D01*
X215291100Y-81715147D01*
X215230631Y-81719289D01*
X215162156Y-81719289D01*
X215162156Y-81757641D01*
X215162206Y-81766776D01*
X215164427Y-81784027D01*
X215173694Y-81794321D01*
X215195075Y-81801259D01*
X215233636Y-81808441D01*
X215239110Y-81809375D01*
X215336060Y-81819278D01*
X215426052Y-81816359D01*
X215506960Y-81801629D01*
X215576659Y-81776099D01*
X215633024Y-81740778D01*
X215673929Y-81696679D01*
X215697251Y-81644812D01*
X215700863Y-81586188D01*
X215695345Y-81557294D01*
X215668661Y-81501404D01*
X215622473Y-81455745D01*
X215557491Y-81420908D01*
X215474429Y-81397490D01*
X215449755Y-81393041D01*
X215360426Y-81382542D01*
X215280619Y-81383771D01*
X215202526Y-81396706D01*
X215167383Y-81403496D01*
X215121945Y-81404513D01*
X215090630Y-81391982D01*
X215070477Y-81365195D01*
X215064093Y-81336948D01*
X215073579Y-81305724D01*
X215082908Y-81292299D01*
X215117143Y-81268767D01*
X215169765Y-81250895D01*
X215238281Y-81239399D01*
X215320200Y-81234992D01*
X215417350Y-81238979D01*
G36*
X215417350Y-81238979D02*
G01*
X215523357Y-81255294D01*
X215617169Y-81283345D01*
X215695965Y-81322252D01*
X215756919Y-81371134D01*
X215782989Y-81403995D01*
X215812497Y-81453194D01*
X215837768Y-81507052D01*
X215855418Y-81558219D01*
X215862058Y-81599344D01*
X215860498Y-81619059D01*
X215847557Y-81670392D01*
X215824394Y-81726918D01*
X215794502Y-81780835D01*
X215761373Y-81824339D01*
X215751177Y-81834687D01*
X215684092Y-81886462D01*
X215603966Y-81926354D01*
X215517756Y-81950756D01*
X215462792Y-81958868D01*
X215369339Y-81965473D01*
X215279558Y-81963386D01*
X215197069Y-81953140D01*
X215125486Y-81935270D01*
X215068428Y-81910308D01*
X215029511Y-81878788D01*
X215028136Y-81876812D01*
X215021048Y-81851586D01*
X215016809Y-81804335D01*
X215015400Y-81734871D01*
X215016260Y-81672638D01*
X215020980Y-81625256D01*
X215032670Y-81593153D01*
X215054439Y-81573600D01*
X215089398Y-81563870D01*
X215140656Y-81561233D01*
X215211323Y-81562961D01*
X215259943Y-81565973D01*
X215310139Y-81574166D01*
X215342633Y-81588219D01*
X215360092Y-81609454D01*
X215365183Y-81639194D01*
X215365077Y-81643736D01*
X215356375Y-81678530D01*
X215332365Y-81701947D01*
X215291100Y-81715147D01*
X215230631Y-81719289D01*
X215162156Y-81719289D01*
X215162156Y-81757641D01*
X215162206Y-81766776D01*
X215164427Y-81784027D01*
X215173694Y-81794321D01*
X215195075Y-81801259D01*
X215233636Y-81808441D01*
X215239110Y-81809375D01*
X215336060Y-81819278D01*
X215426052Y-81816359D01*
X215506960Y-81801629D01*
X215576659Y-81776099D01*
X215633024Y-81740778D01*
X215673929Y-81696679D01*
X215697251Y-81644812D01*
X215700863Y-81586188D01*
X215695345Y-81557294D01*
X215668661Y-81501404D01*
X215622473Y-81455745D01*
X215557491Y-81420908D01*
X215474429Y-81397490D01*
X215449755Y-81393041D01*
X215360426Y-81382542D01*
X215280619Y-81383771D01*
X215202526Y-81396706D01*
X215167383Y-81403496D01*
X215121945Y-81404513D01*
X215090630Y-81391982D01*
X215070477Y-81365195D01*
X215064093Y-81336948D01*
X215073579Y-81305724D01*
X215082908Y-81292299D01*
X215117143Y-81268767D01*
X215169765Y-81250895D01*
X215238281Y-81239399D01*
X215320200Y-81234992D01*
X215417350Y-81238979D01*
G37*
X213468003Y-81263611D02*
X213472952Y-81270295D01*
X213478796Y-81280866D01*
X213483257Y-81294953D01*
X213486521Y-81315278D01*
X213488774Y-81344565D01*
X213490202Y-81385537D01*
X213490992Y-81440917D01*
X213491329Y-81513428D01*
X213491400Y-81605794D01*
X213491371Y-81671711D01*
X213491139Y-81750028D01*
X213490519Y-81810296D01*
X213489326Y-81855193D01*
X213487379Y-81887402D01*
X213484494Y-81909600D01*
X213480488Y-81924469D01*
X213475179Y-81934689D01*
X213468383Y-81942938D01*
X213463868Y-81947595D01*
X213455638Y-81954082D01*
X213444278Y-81958994D01*
X213427010Y-81962549D01*
X213401055Y-81964967D01*
X213363636Y-81966467D01*
X213311973Y-81967267D01*
X213243289Y-81967587D01*
X213154806Y-81967645D01*
X213135131Y-81967638D01*
X213048106Y-81967372D01*
X212980454Y-81966606D01*
X212929499Y-81965192D01*
X212892567Y-81962980D01*
X212866983Y-81959822D01*
X212850071Y-81955569D01*
X212839157Y-81950071D01*
X212828664Y-81940085D01*
X212815403Y-81908968D01*
X212816586Y-81873080D01*
X212832750Y-81841533D01*
X212834939Y-81839257D01*
X212843627Y-81832989D01*
X212856969Y-81828323D01*
X212877952Y-81825027D01*
X212909563Y-81822868D01*
X212954790Y-81821614D01*
X213016620Y-81821031D01*
X213098039Y-81820889D01*
X213344645Y-81820889D01*
X213344645Y-81662845D01*
X213182206Y-81662845D01*
X213146538Y-81662764D01*
X213090768Y-81661967D01*
X213051630Y-81659962D01*
X213025176Y-81656321D01*
X213007459Y-81650612D01*
X212994529Y-81642407D01*
X212990886Y-81639223D01*
X212972478Y-81608248D01*
X212971844Y-81571912D01*
X212989383Y-81538293D01*
X212989445Y-81538224D01*
X212999116Y-81529598D01*
X213012409Y-81523542D01*
X213033117Y-81519611D01*
X213065028Y-81517356D01*
X213111934Y-81516331D01*
X213177624Y-81516089D01*
X213345771Y-81516089D01*
X213342386Y-81451178D01*
X213339000Y-81386267D01*
X213096923Y-81383214D01*
X213071907Y-81382886D01*
X212990287Y-81381406D01*
X212927968Y-81379022D01*
X212882354Y-81375027D01*
X212850852Y-81368713D01*
X212830867Y-81359374D01*
X212819804Y-81346303D01*
X212815069Y-81328792D01*
X212814067Y-81306135D01*
X212814073Y-81303770D01*
X212815227Y-81283739D01*
X212820024Y-81267946D01*
X212830832Y-81255890D01*
X212850017Y-81247067D01*
X212879945Y-81240975D01*
X212922983Y-81237111D01*
X212981499Y-81234974D01*
X213057857Y-81234060D01*
X213154426Y-81233867D01*
X213444606Y-81233867D01*
X213468003Y-81263611D01*
G36*
X213468003Y-81263611D02*
G01*
X213472952Y-81270295D01*
X213478796Y-81280866D01*
X213483257Y-81294953D01*
X213486521Y-81315278D01*
X213488774Y-81344565D01*
X213490202Y-81385537D01*
X213490992Y-81440917D01*
X213491329Y-81513428D01*
X213491400Y-81605794D01*
X213491371Y-81671711D01*
X213491139Y-81750028D01*
X213490519Y-81810296D01*
X213489326Y-81855193D01*
X213487379Y-81887402D01*
X213484494Y-81909600D01*
X213480488Y-81924469D01*
X213475179Y-81934689D01*
X213468383Y-81942938D01*
X213463868Y-81947595D01*
X213455638Y-81954082D01*
X213444278Y-81958994D01*
X213427010Y-81962549D01*
X213401055Y-81964967D01*
X213363636Y-81966467D01*
X213311973Y-81967267D01*
X213243289Y-81967587D01*
X213154806Y-81967645D01*
X213135131Y-81967638D01*
X213048106Y-81967372D01*
X212980454Y-81966606D01*
X212929499Y-81965192D01*
X212892567Y-81962980D01*
X212866983Y-81959822D01*
X212850071Y-81955569D01*
X212839157Y-81950071D01*
X212828664Y-81940085D01*
X212815403Y-81908968D01*
X212816586Y-81873080D01*
X212832750Y-81841533D01*
X212834939Y-81839257D01*
X212843627Y-81832989D01*
X212856969Y-81828323D01*
X212877952Y-81825027D01*
X212909563Y-81822868D01*
X212954790Y-81821614D01*
X213016620Y-81821031D01*
X213098039Y-81820889D01*
X213344645Y-81820889D01*
X213344645Y-81662845D01*
X213182206Y-81662845D01*
X213146538Y-81662764D01*
X213090768Y-81661967D01*
X213051630Y-81659962D01*
X213025176Y-81656321D01*
X213007459Y-81650612D01*
X212994529Y-81642407D01*
X212990886Y-81639223D01*
X212972478Y-81608248D01*
X212971844Y-81571912D01*
X212989383Y-81538293D01*
X212989445Y-81538224D01*
X212999116Y-81529598D01*
X213012409Y-81523542D01*
X213033117Y-81519611D01*
X213065028Y-81517356D01*
X213111934Y-81516331D01*
X213177624Y-81516089D01*
X213345771Y-81516089D01*
X213342386Y-81451178D01*
X213339000Y-81386267D01*
X213096923Y-81383214D01*
X213071907Y-81382886D01*
X212990287Y-81381406D01*
X212927968Y-81379022D01*
X212882354Y-81375027D01*
X212850852Y-81368713D01*
X212830867Y-81359374D01*
X212819804Y-81346303D01*
X212815069Y-81328792D01*
X212814067Y-81306135D01*
X212814073Y-81303770D01*
X212815227Y-81283739D01*
X212820024Y-81267946D01*
X212830832Y-81255890D01*
X212850017Y-81247067D01*
X212879945Y-81240975D01*
X212922983Y-81237111D01*
X212981499Y-81234974D01*
X213057857Y-81234060D01*
X213154426Y-81233867D01*
X213444606Y-81233867D01*
X213468003Y-81263611D01*
G37*
X218144934Y-81233883D02*
X218222031Y-81234075D01*
X218280977Y-81234660D01*
X218324564Y-81235851D01*
X218355583Y-81237864D01*
X218376825Y-81240912D01*
X218391082Y-81245209D01*
X218401145Y-81250972D01*
X218409806Y-81258412D01*
X218411591Y-81260093D01*
X218418835Y-81267632D01*
X218424477Y-81276650D01*
X218428717Y-81289784D01*
X218431756Y-81309672D01*
X218433794Y-81338951D01*
X218435030Y-81380258D01*
X218435665Y-81436231D01*
X218435900Y-81509507D01*
X218435934Y-81602723D01*
X218435897Y-81675513D01*
X218435648Y-81753689D01*
X218435012Y-81813903D01*
X218433815Y-81858782D01*
X218431884Y-81890952D01*
X218429046Y-81913039D01*
X218425127Y-81927670D01*
X218419955Y-81937470D01*
X218413356Y-81945067D01*
X218410022Y-81948244D01*
X218401500Y-81954354D01*
X218389498Y-81959029D01*
X218371287Y-81962459D01*
X218344140Y-81964836D01*
X218305329Y-81966352D01*
X218252124Y-81967198D01*
X218181798Y-81967565D01*
X218091622Y-81967645D01*
X218049514Y-81967633D01*
X217968367Y-81967451D01*
X217905875Y-81966898D01*
X217859309Y-81965782D01*
X217825941Y-81963913D01*
X217803044Y-81961098D01*
X217787888Y-81957146D01*
X217777746Y-81951866D01*
X217769889Y-81945067D01*
X217755163Y-81923467D01*
X217747311Y-81894267D01*
X217752810Y-81870360D01*
X217769889Y-81843467D01*
X217774868Y-81838859D01*
X217784643Y-81832572D01*
X217798759Y-81827946D01*
X217820254Y-81824730D01*
X217852168Y-81822670D01*
X217897542Y-81821512D01*
X217959413Y-81821002D01*
X218040822Y-81820889D01*
X218289178Y-81820889D01*
X218289178Y-81662845D01*
X218128001Y-81662845D01*
X218092183Y-81662699D01*
X218026559Y-81660976D01*
X217979318Y-81656541D01*
X217947583Y-81648437D01*
X217928477Y-81635706D01*
X217919123Y-81617392D01*
X217916645Y-81592538D01*
X217917442Y-81572282D01*
X217922694Y-81550456D01*
X217935488Y-81535104D01*
X217958828Y-81525109D01*
X217995717Y-81519353D01*
X218049159Y-81516719D01*
X218122158Y-81516089D01*
X218290305Y-81516089D01*
X218286919Y-81451178D01*
X218283534Y-81386267D01*
X218035817Y-81383218D01*
X217973226Y-81382339D01*
X217904765Y-81380895D01*
X217853861Y-81378964D01*
X217817608Y-81376314D01*
X217793101Y-81372710D01*
X217777435Y-81367921D01*
X217767706Y-81361713D01*
X217761691Y-81355310D01*
X217748682Y-81323628D01*
X217752243Y-81287942D01*
X217772018Y-81256884D01*
X217775269Y-81253961D01*
X217784249Y-81247610D01*
X217796353Y-81242757D01*
X217814359Y-81239203D01*
X217841047Y-81236746D01*
X217879197Y-81235185D01*
X217931586Y-81234318D01*
X218000994Y-81233946D01*
X218090201Y-81233867D01*
X218144934Y-81233883D01*
G36*
X218144934Y-81233883D02*
G01*
X218222031Y-81234075D01*
X218280977Y-81234660D01*
X218324564Y-81235851D01*
X218355583Y-81237864D01*
X218376825Y-81240912D01*
X218391082Y-81245209D01*
X218401145Y-81250972D01*
X218409806Y-81258412D01*
X218411591Y-81260093D01*
X218418835Y-81267632D01*
X218424477Y-81276650D01*
X218428717Y-81289784D01*
X218431756Y-81309672D01*
X218433794Y-81338951D01*
X218435030Y-81380258D01*
X218435665Y-81436231D01*
X218435900Y-81509507D01*
X218435934Y-81602723D01*
X218435897Y-81675513D01*
X218435648Y-81753689D01*
X218435012Y-81813903D01*
X218433815Y-81858782D01*
X218431884Y-81890952D01*
X218429046Y-81913039D01*
X218425127Y-81927670D01*
X218419955Y-81937470D01*
X218413356Y-81945067D01*
X218410022Y-81948244D01*
X218401500Y-81954354D01*
X218389498Y-81959029D01*
X218371287Y-81962459D01*
X218344140Y-81964836D01*
X218305329Y-81966352D01*
X218252124Y-81967198D01*
X218181798Y-81967565D01*
X218091622Y-81967645D01*
X218049514Y-81967633D01*
X217968367Y-81967451D01*
X217905875Y-81966898D01*
X217859309Y-81965782D01*
X217825941Y-81963913D01*
X217803044Y-81961098D01*
X217787888Y-81957146D01*
X217777746Y-81951866D01*
X217769889Y-81945067D01*
X217755163Y-81923467D01*
X217747311Y-81894267D01*
X217752810Y-81870360D01*
X217769889Y-81843467D01*
X217774868Y-81838859D01*
X217784643Y-81832572D01*
X217798759Y-81827946D01*
X217820254Y-81824730D01*
X217852168Y-81822670D01*
X217897542Y-81821512D01*
X217959413Y-81821002D01*
X218040822Y-81820889D01*
X218289178Y-81820889D01*
X218289178Y-81662845D01*
X218128001Y-81662845D01*
X218092183Y-81662699D01*
X218026559Y-81660976D01*
X217979318Y-81656541D01*
X217947583Y-81648437D01*
X217928477Y-81635706D01*
X217919123Y-81617392D01*
X217916645Y-81592538D01*
X217917442Y-81572282D01*
X217922694Y-81550456D01*
X217935488Y-81535104D01*
X217958828Y-81525109D01*
X217995717Y-81519353D01*
X218049159Y-81516719D01*
X218122158Y-81516089D01*
X218290305Y-81516089D01*
X218286919Y-81451178D01*
X218283534Y-81386267D01*
X218035817Y-81383218D01*
X217973226Y-81382339D01*
X217904765Y-81380895D01*
X217853861Y-81378964D01*
X217817608Y-81376314D01*
X217793101Y-81372710D01*
X217777435Y-81367921D01*
X217767706Y-81361713D01*
X217761691Y-81355310D01*
X217748682Y-81323628D01*
X217752243Y-81287942D01*
X217772018Y-81256884D01*
X217775269Y-81253961D01*
X217784249Y-81247610D01*
X217796353Y-81242757D01*
X217814359Y-81239203D01*
X217841047Y-81236746D01*
X217879197Y-81235185D01*
X217931586Y-81234318D01*
X218000994Y-81233946D01*
X218090201Y-81233867D01*
X218144934Y-81233883D01*
G37*
X209577902Y-81243278D02*
X209595863Y-81261789D01*
X209616463Y-81292871D01*
X209641295Y-81338556D01*
X209671950Y-81400878D01*
X209710020Y-81481871D01*
X209724654Y-81513254D01*
X209754403Y-81576438D01*
X209780497Y-81631044D01*
X209801492Y-81674090D01*
X209815939Y-81702593D01*
X209822391Y-81713570D01*
X209823750Y-81712989D01*
X209833742Y-81699042D01*
X209851033Y-81669504D01*
X209873630Y-81627887D01*
X209899538Y-81577703D01*
X209915511Y-81546214D01*
X209944461Y-81490861D01*
X209966949Y-81451844D01*
X209985165Y-81426366D01*
X210001296Y-81411631D01*
X210017530Y-81404842D01*
X210036057Y-81403200D01*
X210046560Y-81403675D01*
X210062676Y-81407882D01*
X210077990Y-81418746D01*
X210094588Y-81439019D01*
X210114557Y-81471454D01*
X210139983Y-81518804D01*
X210172952Y-81583822D01*
X210182685Y-81603077D01*
X210207143Y-81649746D01*
X210227378Y-81685909D01*
X210241511Y-81708297D01*
X210247660Y-81713645D01*
X210249027Y-81710373D01*
X210258402Y-81689464D01*
X210275262Y-81652525D01*
X210298179Y-81602674D01*
X210325720Y-81543026D01*
X210356455Y-81476698D01*
X210383170Y-81419477D01*
X210412793Y-81357488D01*
X210435864Y-81311749D01*
X210453843Y-81279708D01*
X210468190Y-81258814D01*
X210480366Y-81246518D01*
X210491832Y-81240266D01*
X210501242Y-81237374D01*
X210526347Y-81237225D01*
X210553490Y-81252568D01*
X210554790Y-81253553D01*
X210576874Y-81276188D01*
X210587923Y-81298413D01*
X210587969Y-81299053D01*
X210583428Y-81316715D01*
X210570564Y-81351281D01*
X210550805Y-81399626D01*
X210525581Y-81458625D01*
X210496319Y-81525155D01*
X210464450Y-81596091D01*
X210431401Y-81668307D01*
X210398601Y-81738680D01*
X210367480Y-81804085D01*
X210339465Y-81861397D01*
X210315986Y-81907492D01*
X210298472Y-81939246D01*
X210288351Y-81953533D01*
X210253943Y-81966902D01*
X210212246Y-81960541D01*
X210206881Y-81955844D01*
X210191052Y-81933693D01*
X210168850Y-81896932D01*
X210142433Y-81849215D01*
X210113960Y-81794193D01*
X210034186Y-81634950D01*
X209960999Y-81781542D01*
X209951303Y-81800832D01*
X209924325Y-81853180D01*
X209900296Y-81897970D01*
X209881532Y-81930954D01*
X209870346Y-81947889D01*
X209869200Y-81949132D01*
X209841079Y-81964419D01*
X209806017Y-81966102D01*
X209774976Y-81953533D01*
X209772550Y-81950684D01*
X209760290Y-81930059D01*
X209740552Y-81892508D01*
X209714648Y-81840680D01*
X209683885Y-81777223D01*
X209649575Y-81704785D01*
X209613025Y-81626016D01*
X209592785Y-81581893D01*
X209556012Y-81501165D01*
X209527555Y-81437487D01*
X209506531Y-81388552D01*
X209492054Y-81352057D01*
X209483239Y-81325695D01*
X209479204Y-81307161D01*
X209479062Y-81294152D01*
X209481930Y-81284361D01*
X209496587Y-81263478D01*
X209523190Y-81243177D01*
X209523945Y-81242835D01*
X209543535Y-81235834D01*
X209560990Y-81235304D01*
X209577902Y-81243278D01*
G36*
X209577902Y-81243278D02*
G01*
X209595863Y-81261789D01*
X209616463Y-81292871D01*
X209641295Y-81338556D01*
X209671950Y-81400878D01*
X209710020Y-81481871D01*
X209724654Y-81513254D01*
X209754403Y-81576438D01*
X209780497Y-81631044D01*
X209801492Y-81674090D01*
X209815939Y-81702593D01*
X209822391Y-81713570D01*
X209823750Y-81712989D01*
X209833742Y-81699042D01*
X209851033Y-81669504D01*
X209873630Y-81627887D01*
X209899538Y-81577703D01*
X209915511Y-81546214D01*
X209944461Y-81490861D01*
X209966949Y-81451844D01*
X209985165Y-81426366D01*
X210001296Y-81411631D01*
X210017530Y-81404842D01*
X210036057Y-81403200D01*
X210046560Y-81403675D01*
X210062676Y-81407882D01*
X210077990Y-81418746D01*
X210094588Y-81439019D01*
X210114557Y-81471454D01*
X210139983Y-81518804D01*
X210172952Y-81583822D01*
X210182685Y-81603077D01*
X210207143Y-81649746D01*
X210227378Y-81685909D01*
X210241511Y-81708297D01*
X210247660Y-81713645D01*
X210249027Y-81710373D01*
X210258402Y-81689464D01*
X210275262Y-81652525D01*
X210298179Y-81602674D01*
X210325720Y-81543026D01*
X210356455Y-81476698D01*
X210383170Y-81419477D01*
X210412793Y-81357488D01*
X210435864Y-81311749D01*
X210453843Y-81279708D01*
X210468190Y-81258814D01*
X210480366Y-81246518D01*
X210491832Y-81240266D01*
X210501242Y-81237374D01*
X210526347Y-81237225D01*
X210553490Y-81252568D01*
X210554790Y-81253553D01*
X210576874Y-81276188D01*
X210587923Y-81298413D01*
X210587969Y-81299053D01*
X210583428Y-81316715D01*
X210570564Y-81351281D01*
X210550805Y-81399626D01*
X210525581Y-81458625D01*
X210496319Y-81525155D01*
X210464450Y-81596091D01*
X210431401Y-81668307D01*
X210398601Y-81738680D01*
X210367480Y-81804085D01*
X210339465Y-81861397D01*
X210315986Y-81907492D01*
X210298472Y-81939246D01*
X210288351Y-81953533D01*
X210253943Y-81966902D01*
X210212246Y-81960541D01*
X210206881Y-81955844D01*
X210191052Y-81933693D01*
X210168850Y-81896932D01*
X210142433Y-81849215D01*
X210113960Y-81794193D01*
X210034186Y-81634950D01*
X209960999Y-81781542D01*
X209951303Y-81800832D01*
X209924325Y-81853180D01*
X209900296Y-81897970D01*
X209881532Y-81930954D01*
X209870346Y-81947889D01*
X209869200Y-81949132D01*
X209841079Y-81964419D01*
X209806017Y-81966102D01*
X209774976Y-81953533D01*
X209772550Y-81950684D01*
X209760290Y-81930059D01*
X209740552Y-81892508D01*
X209714648Y-81840680D01*
X209683885Y-81777223D01*
X209649575Y-81704785D01*
X209613025Y-81626016D01*
X209592785Y-81581893D01*
X209556012Y-81501165D01*
X209527555Y-81437487D01*
X209506531Y-81388552D01*
X209492054Y-81352057D01*
X209483239Y-81325695D01*
X209479204Y-81307161D01*
X209479062Y-81294152D01*
X209481930Y-81284361D01*
X209496587Y-81263478D01*
X209523190Y-81243177D01*
X209523945Y-81242835D01*
X209543535Y-81235834D01*
X209560990Y-81235304D01*
X209577902Y-81243278D01*
G37*
X217129053Y-81234736D02*
X217195300Y-81240166D01*
X217250600Y-81249764D01*
X217301483Y-81264625D01*
X217372795Y-81297758D01*
X217423952Y-81340440D01*
X217454775Y-81392505D01*
X217465089Y-81453783D01*
X217464152Y-81485032D01*
X217458360Y-81509829D01*
X217443553Y-81531499D01*
X217415580Y-81558849D01*
X217407602Y-81566178D01*
X217383892Y-81587081D01*
X217361498Y-81604051D01*
X217337465Y-81618005D01*
X217308837Y-81629856D01*
X217272660Y-81640520D01*
X217225980Y-81650911D01*
X217165841Y-81661946D01*
X217089290Y-81674538D01*
X216993371Y-81689604D01*
X216975008Y-81692638D01*
X216912678Y-81706258D01*
X216867460Y-81721992D01*
X216841176Y-81739063D01*
X216835647Y-81756697D01*
X216838268Y-81760968D01*
X216856200Y-81776033D01*
X216884326Y-81792667D01*
X216897126Y-81798657D01*
X216918424Y-81805850D01*
X216944810Y-81810627D01*
X216980654Y-81813446D01*
X217030328Y-81814764D01*
X217098200Y-81815037D01*
X217115985Y-81814964D01*
X217183606Y-81813853D01*
X217248545Y-81811628D01*
X217304170Y-81808562D01*
X217343851Y-81804927D01*
X217379362Y-81800859D01*
X217408615Y-81800076D01*
X217427515Y-81804676D01*
X217442629Y-81815351D01*
X217446285Y-81818944D01*
X217462627Y-81850718D01*
X217461307Y-81886372D01*
X217442350Y-81916990D01*
X217421980Y-81928596D01*
X217385996Y-81941291D01*
X217343572Y-81951341D01*
X217340122Y-81951940D01*
X217297452Y-81957156D01*
X217240066Y-81961530D01*
X217175049Y-81964618D01*
X217109489Y-81965977D01*
X217093257Y-81966018D01*
X216994944Y-81963541D01*
X216914892Y-81955535D01*
X216849713Y-81941003D01*
X216796017Y-81918949D01*
X216750416Y-81888376D01*
X216709523Y-81848286D01*
X216689402Y-81822059D01*
X216677776Y-81792512D01*
X216674867Y-81752795D01*
X216675008Y-81740826D01*
X216678881Y-81708145D01*
X216691265Y-81681619D01*
X216716430Y-81650771D01*
X216737642Y-81628631D01*
X216764038Y-81606085D01*
X216793755Y-81587717D01*
X216829985Y-81572461D01*
X216875917Y-81559249D01*
X216934744Y-81547014D01*
X217009656Y-81534689D01*
X217103845Y-81521206D01*
X217149157Y-81514196D01*
X217217111Y-81499637D01*
X217266247Y-81483137D01*
X217295814Y-81465239D01*
X217305064Y-81446485D01*
X217293248Y-81427415D01*
X217259616Y-81408571D01*
X217256570Y-81407357D01*
X217210211Y-81395279D01*
X217147561Y-81387079D01*
X217074127Y-81382919D01*
X216995417Y-81382961D01*
X216916939Y-81387369D01*
X216844200Y-81396305D01*
X216840273Y-81396954D01*
X216791457Y-81404661D01*
X216759205Y-81408273D01*
X216738208Y-81407676D01*
X216723154Y-81402754D01*
X216708734Y-81393396D01*
X216707564Y-81392525D01*
X216683047Y-81362151D01*
X216678254Y-81326650D01*
X216694060Y-81292069D01*
X216698606Y-81287613D01*
X216728220Y-81272473D01*
X216775202Y-81259350D01*
X216835506Y-81248550D01*
X216905088Y-81240381D01*
X216979903Y-81235151D01*
X217055906Y-81233167D01*
X217129053Y-81234736D01*
G36*
X217129053Y-81234736D02*
G01*
X217195300Y-81240166D01*
X217250600Y-81249764D01*
X217301483Y-81264625D01*
X217372795Y-81297758D01*
X217423952Y-81340440D01*
X217454775Y-81392505D01*
X217465089Y-81453783D01*
X217464152Y-81485032D01*
X217458360Y-81509829D01*
X217443553Y-81531499D01*
X217415580Y-81558849D01*
X217407602Y-81566178D01*
X217383892Y-81587081D01*
X217361498Y-81604051D01*
X217337465Y-81618005D01*
X217308837Y-81629856D01*
X217272660Y-81640520D01*
X217225980Y-81650911D01*
X217165841Y-81661946D01*
X217089290Y-81674538D01*
X216993371Y-81689604D01*
X216975008Y-81692638D01*
X216912678Y-81706258D01*
X216867460Y-81721992D01*
X216841176Y-81739063D01*
X216835647Y-81756697D01*
X216838268Y-81760968D01*
X216856200Y-81776033D01*
X216884326Y-81792667D01*
X216897126Y-81798657D01*
X216918424Y-81805850D01*
X216944810Y-81810627D01*
X216980654Y-81813446D01*
X217030328Y-81814764D01*
X217098200Y-81815037D01*
X217115985Y-81814964D01*
X217183606Y-81813853D01*
X217248545Y-81811628D01*
X217304170Y-81808562D01*
X217343851Y-81804927D01*
X217379362Y-81800859D01*
X217408615Y-81800076D01*
X217427515Y-81804676D01*
X217442629Y-81815351D01*
X217446285Y-81818944D01*
X217462627Y-81850718D01*
X217461307Y-81886372D01*
X217442350Y-81916990D01*
X217421980Y-81928596D01*
X217385996Y-81941291D01*
X217343572Y-81951341D01*
X217340122Y-81951940D01*
X217297452Y-81957156D01*
X217240066Y-81961530D01*
X217175049Y-81964618D01*
X217109489Y-81965977D01*
X217093257Y-81966018D01*
X216994944Y-81963541D01*
X216914892Y-81955535D01*
X216849713Y-81941003D01*
X216796017Y-81918949D01*
X216750416Y-81888376D01*
X216709523Y-81848286D01*
X216689402Y-81822059D01*
X216677776Y-81792512D01*
X216674867Y-81752795D01*
X216675008Y-81740826D01*
X216678881Y-81708145D01*
X216691265Y-81681619D01*
X216716430Y-81650771D01*
X216737642Y-81628631D01*
X216764038Y-81606085D01*
X216793755Y-81587717D01*
X216829985Y-81572461D01*
X216875917Y-81559249D01*
X216934744Y-81547014D01*
X217009656Y-81534689D01*
X217103845Y-81521206D01*
X217149157Y-81514196D01*
X217217111Y-81499637D01*
X217266247Y-81483137D01*
X217295814Y-81465239D01*
X217305064Y-81446485D01*
X217293248Y-81427415D01*
X217259616Y-81408571D01*
X217256570Y-81407357D01*
X217210211Y-81395279D01*
X217147561Y-81387079D01*
X217074127Y-81382919D01*
X216995417Y-81382961D01*
X216916939Y-81387369D01*
X216844200Y-81396305D01*
X216840273Y-81396954D01*
X216791457Y-81404661D01*
X216759205Y-81408273D01*
X216738208Y-81407676D01*
X216723154Y-81402754D01*
X216708734Y-81393396D01*
X216707564Y-81392525D01*
X216683047Y-81362151D01*
X216678254Y-81326650D01*
X216694060Y-81292069D01*
X216698606Y-81287613D01*
X216728220Y-81272473D01*
X216775202Y-81259350D01*
X216835506Y-81248550D01*
X216905088Y-81240381D01*
X216979903Y-81235151D01*
X217055906Y-81233167D01*
X217129053Y-81234736D01*
G37*
X213276911Y-76926833D02*
X213372468Y-76944323D01*
X213536758Y-76989364D01*
X213690789Y-77052456D01*
X213836709Y-77134715D01*
X213976666Y-77237257D01*
X214112808Y-77361199D01*
X214156673Y-77406461D01*
X214268958Y-77538665D01*
X214362172Y-77676632D01*
X214438919Y-77824550D01*
X214501803Y-77986603D01*
X214505620Y-77998191D01*
X214555707Y-78184192D01*
X214589099Y-78380321D01*
X214605784Y-78582368D01*
X214605751Y-78786125D01*
X214588991Y-78987381D01*
X214555492Y-79181928D01*
X214505244Y-79365556D01*
X214461390Y-79482853D01*
X214383548Y-79645751D01*
X214290028Y-79799666D01*
X214183022Y-79941471D01*
X214064719Y-80068039D01*
X213937311Y-80176241D01*
X213859806Y-80228920D01*
X213732925Y-80298550D01*
X213595443Y-80357268D01*
X213453916Y-80402387D01*
X213314902Y-80431222D01*
X213300797Y-80432906D01*
X213257353Y-80436234D01*
X213199923Y-80439075D01*
X213134322Y-80441173D01*
X213066367Y-80442268D01*
X212939578Y-80439940D01*
X212791873Y-80426936D01*
X212653979Y-80401933D01*
X212520214Y-80364118D01*
X212496762Y-80355689D01*
X212448812Y-80336208D01*
X212392340Y-80311273D01*
X212330579Y-80282522D01*
X212266763Y-80251590D01*
X212204126Y-80220115D01*
X212145903Y-80189734D01*
X212095327Y-80162083D01*
X212055633Y-80138799D01*
X212030054Y-80121518D01*
X212021825Y-80111879D01*
X212023276Y-80108784D01*
X212034450Y-80088879D01*
X212055334Y-80053220D01*
X212084465Y-80004259D01*
X212120381Y-79944446D01*
X212161620Y-79876233D01*
X212206717Y-79802071D01*
X212387985Y-79504808D01*
X212434515Y-79549339D01*
X212525923Y-79627665D01*
X212639534Y-79702239D01*
X212757322Y-79756274D01*
X212877759Y-79789090D01*
X212999317Y-79800011D01*
X213040785Y-79798668D01*
X213158280Y-79780412D01*
X213268289Y-79741417D01*
X213369630Y-79682470D01*
X213461121Y-79604357D01*
X213541580Y-79507864D01*
X213609827Y-79393778D01*
X213626108Y-79359524D01*
X213672182Y-79236040D01*
X213707306Y-79097718D01*
X213731397Y-78948361D01*
X213744373Y-78791773D01*
X213746149Y-78631756D01*
X213736643Y-78472114D01*
X213715772Y-78316650D01*
X213683452Y-78169166D01*
X213639599Y-78033467D01*
X213602182Y-77946876D01*
X213537385Y-77833488D01*
X213461972Y-77739870D01*
X213375618Y-77665759D01*
X213277995Y-77610894D01*
X213168777Y-77575012D01*
X213047639Y-77557851D01*
X212978238Y-77556680D01*
X212855368Y-77570941D01*
X212739864Y-77606041D01*
X212633153Y-77661482D01*
X212536664Y-77736764D01*
X212520920Y-77751240D01*
X212490350Y-77777762D01*
X212468009Y-77794938D01*
X212457891Y-77799587D01*
X212455906Y-77797397D01*
X212441441Y-77778521D01*
X212417600Y-77745197D01*
X212386229Y-77700180D01*
X212349174Y-77646225D01*
X212308283Y-77586085D01*
X212265402Y-77522518D01*
X212222378Y-77458276D01*
X212181057Y-77396115D01*
X212143286Y-77338791D01*
X212110912Y-77289057D01*
X212085782Y-77249668D01*
X212069742Y-77223380D01*
X212064639Y-77212947D01*
X212069250Y-77208741D01*
X212088467Y-77203733D01*
X212098038Y-77201186D01*
X212126009Y-77190049D01*
X212167648Y-77171602D01*
X212219195Y-77147525D01*
X212276890Y-77119499D01*
X212288157Y-77113954D01*
X212465887Y-77034689D01*
X212635690Y-76975185D01*
X212799630Y-76935045D01*
X212959771Y-76913871D01*
X213118177Y-76911266D01*
X213276911Y-76926833D01*
G36*
X213276911Y-76926833D02*
G01*
X213372468Y-76944323D01*
X213536758Y-76989364D01*
X213690789Y-77052456D01*
X213836709Y-77134715D01*
X213976666Y-77237257D01*
X214112808Y-77361199D01*
X214156673Y-77406461D01*
X214268958Y-77538665D01*
X214362172Y-77676632D01*
X214438919Y-77824550D01*
X214501803Y-77986603D01*
X214505620Y-77998191D01*
X214555707Y-78184192D01*
X214589099Y-78380321D01*
X214605784Y-78582368D01*
X214605751Y-78786125D01*
X214588991Y-78987381D01*
X214555492Y-79181928D01*
X214505244Y-79365556D01*
X214461390Y-79482853D01*
X214383548Y-79645751D01*
X214290028Y-79799666D01*
X214183022Y-79941471D01*
X214064719Y-80068039D01*
X213937311Y-80176241D01*
X213859806Y-80228920D01*
X213732925Y-80298550D01*
X213595443Y-80357268D01*
X213453916Y-80402387D01*
X213314902Y-80431222D01*
X213300797Y-80432906D01*
X213257353Y-80436234D01*
X213199923Y-80439075D01*
X213134322Y-80441173D01*
X213066367Y-80442268D01*
X212939578Y-80439940D01*
X212791873Y-80426936D01*
X212653979Y-80401933D01*
X212520214Y-80364118D01*
X212496762Y-80355689D01*
X212448812Y-80336208D01*
X212392340Y-80311273D01*
X212330579Y-80282522D01*
X212266763Y-80251590D01*
X212204126Y-80220115D01*
X212145903Y-80189734D01*
X212095327Y-80162083D01*
X212055633Y-80138799D01*
X212030054Y-80121518D01*
X212021825Y-80111879D01*
X212023276Y-80108784D01*
X212034450Y-80088879D01*
X212055334Y-80053220D01*
X212084465Y-80004259D01*
X212120381Y-79944446D01*
X212161620Y-79876233D01*
X212206717Y-79802071D01*
X212387985Y-79504808D01*
X212434515Y-79549339D01*
X212525923Y-79627665D01*
X212639534Y-79702239D01*
X212757322Y-79756274D01*
X212877759Y-79789090D01*
X212999317Y-79800011D01*
X213040785Y-79798668D01*
X213158280Y-79780412D01*
X213268289Y-79741417D01*
X213369630Y-79682470D01*
X213461121Y-79604357D01*
X213541580Y-79507864D01*
X213609827Y-79393778D01*
X213626108Y-79359524D01*
X213672182Y-79236040D01*
X213707306Y-79097718D01*
X213731397Y-78948361D01*
X213744373Y-78791773D01*
X213746149Y-78631756D01*
X213736643Y-78472114D01*
X213715772Y-78316650D01*
X213683452Y-78169166D01*
X213639599Y-78033467D01*
X213602182Y-77946876D01*
X213537385Y-77833488D01*
X213461972Y-77739870D01*
X213375618Y-77665759D01*
X213277995Y-77610894D01*
X213168777Y-77575012D01*
X213047639Y-77557851D01*
X212978238Y-77556680D01*
X212855368Y-77570941D01*
X212739864Y-77606041D01*
X212633153Y-77661482D01*
X212536664Y-77736764D01*
X212520920Y-77751240D01*
X212490350Y-77777762D01*
X212468009Y-77794938D01*
X212457891Y-77799587D01*
X212455906Y-77797397D01*
X212441441Y-77778521D01*
X212417600Y-77745197D01*
X212386229Y-77700180D01*
X212349174Y-77646225D01*
X212308283Y-77586085D01*
X212265402Y-77522518D01*
X212222378Y-77458276D01*
X212181057Y-77396115D01*
X212143286Y-77338791D01*
X212110912Y-77289057D01*
X212085782Y-77249668D01*
X212069742Y-77223380D01*
X212064639Y-77212947D01*
X212069250Y-77208741D01*
X212088467Y-77203733D01*
X212098038Y-77201186D01*
X212126009Y-77190049D01*
X212167648Y-77171602D01*
X212219195Y-77147525D01*
X212276890Y-77119499D01*
X212288157Y-77113954D01*
X212465887Y-77034689D01*
X212635690Y-76975185D01*
X212799630Y-76935045D01*
X212959771Y-76913871D01*
X213118177Y-76911266D01*
X213276911Y-76926833D01*
G37*
X209474194Y-79207511D02*
X209473468Y-79284958D01*
X209464889Y-79436394D01*
X209446033Y-79573083D01*
X209416037Y-79699076D01*
X209374036Y-79818425D01*
X209319169Y-79935181D01*
X209252367Y-80045979D01*
X209161563Y-80159539D01*
X209057908Y-80255011D01*
X208942087Y-80331873D01*
X208814786Y-80389597D01*
X208676689Y-80427658D01*
X208638993Y-80433466D01*
X208559952Y-80439196D01*
X208471829Y-80439383D01*
X208382436Y-80434339D01*
X208299584Y-80424378D01*
X208231087Y-80409812D01*
X208200235Y-80400164D01*
X208122930Y-80369923D01*
X208045879Y-80332417D01*
X207976400Y-80291414D01*
X207921815Y-80250679D01*
X207899116Y-80231305D01*
X207876401Y-80213462D01*
X207864979Y-80206578D01*
X207863737Y-80208224D01*
X207860928Y-80226005D01*
X207858976Y-80259170D01*
X207858245Y-80302533D01*
X207858245Y-80398489D01*
X207000096Y-80398489D01*
X207034361Y-80337774D01*
X207039555Y-80328668D01*
X207047915Y-80314049D01*
X207055488Y-80299973D01*
X207062312Y-80285340D01*
X207068427Y-80269049D01*
X207073873Y-80249998D01*
X207078687Y-80227086D01*
X207082908Y-80199213D01*
X207086577Y-80165278D01*
X207089731Y-80124179D01*
X207092411Y-80074815D01*
X207094654Y-80016086D01*
X207096499Y-79946890D01*
X207097987Y-79866126D01*
X207099155Y-79772694D01*
X207100044Y-79665492D01*
X207100691Y-79543420D01*
X207101136Y-79405376D01*
X207101418Y-79250259D01*
X207101575Y-79076968D01*
X207101648Y-78884403D01*
X207101674Y-78671462D01*
X207101685Y-78535330D01*
X207903400Y-78535330D01*
X207903400Y-79685521D01*
X207973956Y-79731889D01*
X208014617Y-79755591D01*
X208068746Y-79781439D01*
X208117889Y-79799629D01*
X208181365Y-79815351D01*
X208277531Y-79826341D01*
X208362100Y-79818165D01*
X208435419Y-79790605D01*
X208497837Y-79743442D01*
X208549702Y-79676458D01*
X208591360Y-79589433D01*
X208623162Y-79482150D01*
X208625745Y-79469809D01*
X208634200Y-79408572D01*
X208639863Y-79331492D01*
X208642776Y-79243802D01*
X208642983Y-79150734D01*
X208640530Y-79057520D01*
X208635461Y-78969394D01*
X208627819Y-78891588D01*
X208617648Y-78829333D01*
X208616367Y-78823466D01*
X208587326Y-78712921D01*
X208552810Y-78622375D01*
X208511656Y-78549753D01*
X208462699Y-78492981D01*
X208404774Y-78449984D01*
X208372820Y-78434415D01*
X208299984Y-78415522D01*
X208218643Y-78412265D01*
X208133519Y-78424189D01*
X208049333Y-78450840D01*
X207970808Y-78491762D01*
X207903400Y-78535330D01*
X207101685Y-78535330D01*
X207101693Y-78437045D01*
X207101889Y-76752178D01*
X208007217Y-76752178D01*
X207982785Y-76788867D01*
X207976518Y-76798447D01*
X207950408Y-76844781D01*
X207932669Y-76891902D01*
X207921108Y-76947051D01*
X207913531Y-77017467D01*
X207913039Y-77024450D01*
X207911262Y-77062441D01*
X207909644Y-77116376D01*
X207908199Y-77183503D01*
X207906940Y-77261071D01*
X207905880Y-77346328D01*
X207905029Y-77436524D01*
X207904403Y-77528907D01*
X207904012Y-77620725D01*
X207903870Y-77709227D01*
X207903990Y-77791662D01*
X207904383Y-77865279D01*
X207905062Y-77927326D01*
X207906041Y-77975051D01*
X207907332Y-78005704D01*
X207908947Y-78016533D01*
X207917157Y-78012133D01*
X207938847Y-77997162D01*
X207968214Y-77975248D01*
X208017079Y-77941036D01*
X208105325Y-77894514D01*
X208204116Y-77860846D01*
X208316710Y-77839031D01*
X208446364Y-77828065D01*
X208538870Y-77827019D01*
X208660211Y-77836814D01*
X208770299Y-77860974D01*
X208873589Y-77900585D01*
X208974538Y-77956732D01*
X209019703Y-77987683D01*
X209125111Y-78078915D01*
X209216738Y-78187906D01*
X209294532Y-78314526D01*
X209358441Y-78458645D01*
X209408414Y-78620132D01*
X209444398Y-78798859D01*
X209466343Y-78994695D01*
X209472100Y-79150734D01*
X209474194Y-79207511D01*
G36*
X209474194Y-79207511D02*
G01*
X209473468Y-79284958D01*
X209464889Y-79436394D01*
X209446033Y-79573083D01*
X209416037Y-79699076D01*
X209374036Y-79818425D01*
X209319169Y-79935181D01*
X209252367Y-80045979D01*
X209161563Y-80159539D01*
X209057908Y-80255011D01*
X208942087Y-80331873D01*
X208814786Y-80389597D01*
X208676689Y-80427658D01*
X208638993Y-80433466D01*
X208559952Y-80439196D01*
X208471829Y-80439383D01*
X208382436Y-80434339D01*
X208299584Y-80424378D01*
X208231087Y-80409812D01*
X208200235Y-80400164D01*
X208122930Y-80369923D01*
X208045879Y-80332417D01*
X207976400Y-80291414D01*
X207921815Y-80250679D01*
X207899116Y-80231305D01*
X207876401Y-80213462D01*
X207864979Y-80206578D01*
X207863737Y-80208224D01*
X207860928Y-80226005D01*
X207858976Y-80259170D01*
X207858245Y-80302533D01*
X207858245Y-80398489D01*
X207000096Y-80398489D01*
X207034361Y-80337774D01*
X207039555Y-80328668D01*
X207047915Y-80314049D01*
X207055488Y-80299973D01*
X207062312Y-80285340D01*
X207068427Y-80269049D01*
X207073873Y-80249998D01*
X207078687Y-80227086D01*
X207082908Y-80199213D01*
X207086577Y-80165278D01*
X207089731Y-80124179D01*
X207092411Y-80074815D01*
X207094654Y-80016086D01*
X207096499Y-79946890D01*
X207097987Y-79866126D01*
X207099155Y-79772694D01*
X207100044Y-79665492D01*
X207100691Y-79543420D01*
X207101136Y-79405376D01*
X207101418Y-79250259D01*
X207101575Y-79076968D01*
X207101648Y-78884403D01*
X207101674Y-78671462D01*
X207101685Y-78535330D01*
X207903400Y-78535330D01*
X207903400Y-79685521D01*
X207973956Y-79731889D01*
X208014617Y-79755591D01*
X208068746Y-79781439D01*
X208117889Y-79799629D01*
X208181365Y-79815351D01*
X208277531Y-79826341D01*
X208362100Y-79818165D01*
X208435419Y-79790605D01*
X208497837Y-79743442D01*
X208549702Y-79676458D01*
X208591360Y-79589433D01*
X208623162Y-79482150D01*
X208625745Y-79469809D01*
X208634200Y-79408572D01*
X208639863Y-79331492D01*
X208642776Y-79243802D01*
X208642983Y-79150734D01*
X208640530Y-79057520D01*
X208635461Y-78969394D01*
X208627819Y-78891588D01*
X208617648Y-78829333D01*
X208616367Y-78823466D01*
X208587326Y-78712921D01*
X208552810Y-78622375D01*
X208511656Y-78549753D01*
X208462699Y-78492981D01*
X208404774Y-78449984D01*
X208372820Y-78434415D01*
X208299984Y-78415522D01*
X208218643Y-78412265D01*
X208133519Y-78424189D01*
X208049333Y-78450840D01*
X207970808Y-78491762D01*
X207903400Y-78535330D01*
X207101685Y-78535330D01*
X207101693Y-78437045D01*
X207101889Y-76752178D01*
X208007217Y-76752178D01*
X207982785Y-76788867D01*
X207976518Y-76798447D01*
X207950408Y-76844781D01*
X207932669Y-76891902D01*
X207921108Y-76947051D01*
X207913531Y-77017467D01*
X207913039Y-77024450D01*
X207911262Y-77062441D01*
X207909644Y-77116376D01*
X207908199Y-77183503D01*
X207906940Y-77261071D01*
X207905880Y-77346328D01*
X207905029Y-77436524D01*
X207904403Y-77528907D01*
X207904012Y-77620725D01*
X207903870Y-77709227D01*
X207903990Y-77791662D01*
X207904383Y-77865279D01*
X207905062Y-77927326D01*
X207906041Y-77975051D01*
X207907332Y-78005704D01*
X207908947Y-78016533D01*
X207917157Y-78012133D01*
X207938847Y-77997162D01*
X207968214Y-77975248D01*
X208017079Y-77941036D01*
X208105325Y-77894514D01*
X208204116Y-77860846D01*
X208316710Y-77839031D01*
X208446364Y-77828065D01*
X208538870Y-77827019D01*
X208660211Y-77836814D01*
X208770299Y-77860974D01*
X208873589Y-77900585D01*
X208974538Y-77956732D01*
X209019703Y-77987683D01*
X209125111Y-78078915D01*
X209216738Y-78187906D01*
X209294532Y-78314526D01*
X209358441Y-78458645D01*
X209408414Y-78620132D01*
X209444398Y-78798859D01*
X209466343Y-78994695D01*
X209472100Y-79150734D01*
X209474194Y-79207511D01*
G37*
X212015955Y-79608267D02*
X212015461Y-79642163D01*
X212011832Y-79717002D01*
X212004222Y-79779201D01*
X211991888Y-79835784D01*
X211947513Y-79961876D01*
X211884600Y-80076479D01*
X211804438Y-80177368D01*
X211707940Y-80263724D01*
X211596022Y-80334732D01*
X211469597Y-80389576D01*
X211329578Y-80427438D01*
X211293349Y-80433151D01*
X211214355Y-80439113D01*
X211126041Y-80439446D01*
X211036275Y-80434459D01*
X210952922Y-80424466D01*
X210883851Y-80409778D01*
X210797387Y-80379549D01*
X210687486Y-80324857D01*
X210590156Y-80257343D01*
X210528067Y-80206356D01*
X210524805Y-80302422D01*
X210521543Y-80398489D01*
X210098650Y-80398489D01*
X210087743Y-80398486D01*
X209993256Y-80398180D01*
X209906531Y-80397416D01*
X209830037Y-80396251D01*
X209766243Y-80394742D01*
X209717618Y-80392947D01*
X209686633Y-80390921D01*
X209675756Y-80388722D01*
X209675778Y-80388263D01*
X209682814Y-80372710D01*
X209698634Y-80349871D01*
X209702934Y-80344438D01*
X209713977Y-80330406D01*
X209723511Y-80316986D01*
X209731661Y-80302522D01*
X209738552Y-80285356D01*
X209744311Y-80263834D01*
X209749062Y-80236298D01*
X209752931Y-80201092D01*
X209756044Y-80156560D01*
X209758525Y-80101046D01*
X209760500Y-80032893D01*
X209762094Y-79950445D01*
X209763434Y-79852046D01*
X209764644Y-79736039D01*
X209765849Y-79600768D01*
X209766795Y-79489386D01*
X210567578Y-79489386D01*
X210567578Y-79685262D01*
X210612248Y-79741773D01*
X210624985Y-79757012D01*
X210671804Y-79799644D01*
X210732455Y-79835472D01*
X210743097Y-79840650D01*
X210781876Y-79857545D01*
X210816892Y-79867709D01*
X210856922Y-79873125D01*
X210910741Y-79875778D01*
X210928848Y-79876183D01*
X211004211Y-79873340D01*
X211064943Y-79861420D01*
X211116652Y-79838837D01*
X211164946Y-79804011D01*
X211170003Y-79799598D01*
X211218472Y-79743960D01*
X211246659Y-79680133D01*
X211255952Y-79605082D01*
X211248720Y-79533493D01*
X211223996Y-79470445D01*
X211179449Y-79412558D01*
X211124519Y-79365608D01*
X211052094Y-79325761D01*
X210965540Y-79298063D01*
X210862870Y-79281896D01*
X210742094Y-79276642D01*
X210733207Y-79276657D01*
X210677860Y-79277455D01*
X210630936Y-79279288D01*
X210597153Y-79281911D01*
X210581228Y-79285074D01*
X210577143Y-79291541D01*
X210572772Y-79313675D01*
X210569804Y-79352788D01*
X210568114Y-79410739D01*
X210567578Y-79489386D01*
X209766795Y-79489386D01*
X209767175Y-79444578D01*
X209768428Y-79301812D01*
X209769851Y-79156742D01*
X209771376Y-79030827D01*
X209773133Y-78922236D01*
X209775251Y-78829134D01*
X209777860Y-78749691D01*
X209781090Y-78682073D01*
X209785069Y-78624449D01*
X209789928Y-78574985D01*
X209795797Y-78531850D01*
X209802804Y-78493210D01*
X209811080Y-78457234D01*
X209820754Y-78422089D01*
X209831956Y-78385942D01*
X209844816Y-78346961D01*
X209860290Y-78303891D01*
X209903194Y-78211671D01*
X209956935Y-78131899D01*
X210025776Y-78057765D01*
X210103385Y-77994205D01*
X210207961Y-77932525D01*
X210327444Y-77885002D01*
X210462708Y-77851367D01*
X210614626Y-77831352D01*
X210784072Y-77824689D01*
X210842090Y-77825087D01*
X210907598Y-77827135D01*
X210968893Y-77831504D01*
X211030297Y-77838835D01*
X211096132Y-77849769D01*
X211170720Y-77864947D01*
X211258384Y-77885009D01*
X211363445Y-77910597D01*
X211392006Y-77917620D01*
X211467254Y-77935576D01*
X211537588Y-77951620D01*
X211598767Y-77964828D01*
X211646554Y-77974274D01*
X211676711Y-77979031D01*
X211704983Y-77982710D01*
X211731260Y-77987987D01*
X211741259Y-77992742D01*
X211738152Y-78001581D01*
X211727394Y-78028872D01*
X211710064Y-78071706D01*
X211687326Y-78127225D01*
X211660347Y-78192572D01*
X211630290Y-78264889D01*
X211623693Y-78280679D01*
X211585107Y-78371284D01*
X211553968Y-78441017D01*
X211530117Y-78490205D01*
X211513398Y-78519174D01*
X211503654Y-78528252D01*
X211495966Y-78526205D01*
X211469615Y-78516560D01*
X211431182Y-78500990D01*
X211386022Y-78481615D01*
X211291493Y-78443614D01*
X211154680Y-78402580D01*
X211013489Y-78377412D01*
X210975514Y-78373411D01*
X210872259Y-78371247D01*
X210785152Y-78384422D01*
X210713329Y-78413556D01*
X210655931Y-78459266D01*
X210612096Y-78522172D01*
X210580962Y-78602892D01*
X210561670Y-78702045D01*
X210554250Y-78761024D01*
X210716136Y-78754245D01*
X210842695Y-78752613D01*
X210994151Y-78758994D01*
X211142596Y-78773577D01*
X211278778Y-78795682D01*
X211343445Y-78810621D01*
X211475690Y-78853541D01*
X211597962Y-78910140D01*
X211707885Y-78978817D01*
X211803083Y-79057970D01*
X211881180Y-79145996D01*
X211939799Y-79241293D01*
X211963795Y-79293664D01*
X211989432Y-79364390D01*
X212005678Y-79435612D01*
X212014022Y-79514512D01*
X212015890Y-79605082D01*
X212015955Y-79608267D01*
G36*
X212015955Y-79608267D02*
G01*
X212015461Y-79642163D01*
X212011832Y-79717002D01*
X212004222Y-79779201D01*
X211991888Y-79835784D01*
X211947513Y-79961876D01*
X211884600Y-80076479D01*
X211804438Y-80177368D01*
X211707940Y-80263724D01*
X211596022Y-80334732D01*
X211469597Y-80389576D01*
X211329578Y-80427438D01*
X211293349Y-80433151D01*
X211214355Y-80439113D01*
X211126041Y-80439446D01*
X211036275Y-80434459D01*
X210952922Y-80424466D01*
X210883851Y-80409778D01*
X210797387Y-80379549D01*
X210687486Y-80324857D01*
X210590156Y-80257343D01*
X210528067Y-80206356D01*
X210524805Y-80302422D01*
X210521543Y-80398489D01*
X210098650Y-80398489D01*
X210087743Y-80398486D01*
X209993256Y-80398180D01*
X209906531Y-80397416D01*
X209830037Y-80396251D01*
X209766243Y-80394742D01*
X209717618Y-80392947D01*
X209686633Y-80390921D01*
X209675756Y-80388722D01*
X209675778Y-80388263D01*
X209682814Y-80372710D01*
X209698634Y-80349871D01*
X209702934Y-80344438D01*
X209713977Y-80330406D01*
X209723511Y-80316986D01*
X209731661Y-80302522D01*
X209738552Y-80285356D01*
X209744311Y-80263834D01*
X209749062Y-80236298D01*
X209752931Y-80201092D01*
X209756044Y-80156560D01*
X209758525Y-80101046D01*
X209760500Y-80032893D01*
X209762094Y-79950445D01*
X209763434Y-79852046D01*
X209764644Y-79736039D01*
X209765849Y-79600768D01*
X209766795Y-79489386D01*
X210567578Y-79489386D01*
X210567578Y-79685262D01*
X210612248Y-79741773D01*
X210624985Y-79757012D01*
X210671804Y-79799644D01*
X210732455Y-79835472D01*
X210743097Y-79840650D01*
X210781876Y-79857545D01*
X210816892Y-79867709D01*
X210856922Y-79873125D01*
X210910741Y-79875778D01*
X210928848Y-79876183D01*
X211004211Y-79873340D01*
X211064943Y-79861420D01*
X211116652Y-79838837D01*
X211164946Y-79804011D01*
X211170003Y-79799598D01*
X211218472Y-79743960D01*
X211246659Y-79680133D01*
X211255952Y-79605082D01*
X211248720Y-79533493D01*
X211223996Y-79470445D01*
X211179449Y-79412558D01*
X211124519Y-79365608D01*
X211052094Y-79325761D01*
X210965540Y-79298063D01*
X210862870Y-79281896D01*
X210742094Y-79276642D01*
X210733207Y-79276657D01*
X210677860Y-79277455D01*
X210630936Y-79279288D01*
X210597153Y-79281911D01*
X210581228Y-79285074D01*
X210577143Y-79291541D01*
X210572772Y-79313675D01*
X210569804Y-79352788D01*
X210568114Y-79410739D01*
X210567578Y-79489386D01*
X209766795Y-79489386D01*
X209767175Y-79444578D01*
X209768428Y-79301812D01*
X209769851Y-79156742D01*
X209771376Y-79030827D01*
X209773133Y-78922236D01*
X209775251Y-78829134D01*
X209777860Y-78749691D01*
X209781090Y-78682073D01*
X209785069Y-78624449D01*
X209789928Y-78574985D01*
X209795797Y-78531850D01*
X209802804Y-78493210D01*
X209811080Y-78457234D01*
X209820754Y-78422089D01*
X209831956Y-78385942D01*
X209844816Y-78346961D01*
X209860290Y-78303891D01*
X209903194Y-78211671D01*
X209956935Y-78131899D01*
X210025776Y-78057765D01*
X210103385Y-77994205D01*
X210207961Y-77932525D01*
X210327444Y-77885002D01*
X210462708Y-77851367D01*
X210614626Y-77831352D01*
X210784072Y-77824689D01*
X210842090Y-77825087D01*
X210907598Y-77827135D01*
X210968893Y-77831504D01*
X211030297Y-77838835D01*
X211096132Y-77849769D01*
X211170720Y-77864947D01*
X211258384Y-77885009D01*
X211363445Y-77910597D01*
X211392006Y-77917620D01*
X211467254Y-77935576D01*
X211537588Y-77951620D01*
X211598767Y-77964828D01*
X211646554Y-77974274D01*
X211676711Y-77979031D01*
X211704983Y-77982710D01*
X211731260Y-77987987D01*
X211741259Y-77992742D01*
X211738152Y-78001581D01*
X211727394Y-78028872D01*
X211710064Y-78071706D01*
X211687326Y-78127225D01*
X211660347Y-78192572D01*
X211630290Y-78264889D01*
X211623693Y-78280679D01*
X211585107Y-78371284D01*
X211553968Y-78441017D01*
X211530117Y-78490205D01*
X211513398Y-78519174D01*
X211503654Y-78528252D01*
X211495966Y-78526205D01*
X211469615Y-78516560D01*
X211431182Y-78500990D01*
X211386022Y-78481615D01*
X211291493Y-78443614D01*
X211154680Y-78402580D01*
X211013489Y-78377412D01*
X210975514Y-78373411D01*
X210872259Y-78371247D01*
X210785152Y-78384422D01*
X210713329Y-78413556D01*
X210655931Y-78459266D01*
X210612096Y-78522172D01*
X210580962Y-78602892D01*
X210561670Y-78702045D01*
X210554250Y-78761024D01*
X210716136Y-78754245D01*
X210842695Y-78752613D01*
X210994151Y-78758994D01*
X211142596Y-78773577D01*
X211278778Y-78795682D01*
X211343445Y-78810621D01*
X211475690Y-78853541D01*
X211597962Y-78910140D01*
X211707885Y-78978817D01*
X211803083Y-79057970D01*
X211881180Y-79145996D01*
X211939799Y-79241293D01*
X211963795Y-79293664D01*
X211989432Y-79364390D01*
X212005678Y-79435612D01*
X212014022Y-79514512D01*
X212015890Y-79605082D01*
X212015955Y-79608267D01*
G37*
X219563814Y-77076592D02*
X219564259Y-77207811D01*
X219564562Y-77355016D01*
X219564748Y-77519149D01*
X219564842Y-77701152D01*
X219564871Y-77901965D01*
X219564861Y-78122532D01*
X219564836Y-78363792D01*
X219564822Y-78626689D01*
X219564822Y-78668840D01*
X219564846Y-78929468D01*
X219564885Y-79168596D01*
X219564908Y-79387160D01*
X219564887Y-79586095D01*
X219564793Y-79766335D01*
X219564595Y-79928815D01*
X219564263Y-80074470D01*
X219563769Y-80204234D01*
X219563083Y-80319043D01*
X219562176Y-80419830D01*
X219561017Y-80507530D01*
X219559578Y-80583079D01*
X219557829Y-80647411D01*
X219555740Y-80701461D01*
X219553283Y-80746163D01*
X219550427Y-80782452D01*
X219547143Y-80811263D01*
X219543402Y-80833531D01*
X219539174Y-80850190D01*
X219534429Y-80862175D01*
X219529139Y-80870421D01*
X219523273Y-80875862D01*
X219516802Y-80879434D01*
X219509697Y-80882070D01*
X219501928Y-80884706D01*
X219493466Y-80888277D01*
X219489108Y-80889945D01*
X219480595Y-80891911D01*
X219467894Y-80893711D01*
X219450085Y-80895355D01*
X219426249Y-80896847D01*
X219395466Y-80898197D01*
X219356817Y-80899411D01*
X219309382Y-80900497D01*
X219252243Y-80901461D01*
X219184479Y-80902311D01*
X219105171Y-80903053D01*
X219013399Y-80903697D01*
X218908244Y-80904247D01*
X218788787Y-80904713D01*
X218654108Y-80905100D01*
X218503288Y-80905416D01*
X218335406Y-80905669D01*
X218149545Y-80905866D01*
X217944783Y-80906013D01*
X217720202Y-80906118D01*
X217474882Y-80906189D01*
X217207904Y-80906232D01*
X217169521Y-80906237D01*
X216904122Y-80906280D01*
X216660250Y-80906325D01*
X216436983Y-80906348D01*
X216233396Y-80906324D01*
X216048567Y-80906230D01*
X215881573Y-80906043D01*
X215731490Y-80905739D01*
X215597396Y-80905294D01*
X215478366Y-80904685D01*
X215373479Y-80903889D01*
X215281810Y-80902880D01*
X215202437Y-80901637D01*
X215134437Y-80900135D01*
X215076886Y-80898351D01*
X215028862Y-80896261D01*
X214989440Y-80893842D01*
X214957699Y-80891070D01*
X214932714Y-80887921D01*
X214913564Y-80884372D01*
X214899323Y-80880398D01*
X214889071Y-80875978D01*
X214881882Y-80871086D01*
X214876835Y-80865700D01*
X214873005Y-80859796D01*
X214869471Y-80853349D01*
X214865308Y-80846337D01*
X214864225Y-80844487D01*
X214862013Y-80838980D01*
X214859986Y-80830668D01*
X214858138Y-80818609D01*
X214856461Y-80801863D01*
X214854945Y-80779487D01*
X214853583Y-80750540D01*
X214852367Y-80714080D01*
X214851289Y-80669167D01*
X214850340Y-80614857D01*
X214849512Y-80550210D01*
X214848797Y-80474284D01*
X214848187Y-80386138D01*
X214848142Y-80377293D01*
X215139578Y-80377293D01*
X215143460Y-80378565D01*
X215166720Y-80380591D01*
X215209074Y-80382426D01*
X215268332Y-80384027D01*
X215342307Y-80385349D01*
X215428810Y-80386348D01*
X215525652Y-80386980D01*
X215630645Y-80387200D01*
X216328851Y-80387200D01*
X217483290Y-80387200D01*
X217482656Y-80311000D01*
X217483774Y-80268960D01*
X217489504Y-80233134D01*
X217502090Y-80195572D01*
X217523768Y-80147377D01*
X217526989Y-80140697D01*
X217552388Y-80091159D01*
X217579196Y-80043169D01*
X217602117Y-80006266D01*
X217606685Y-79999634D01*
X217628716Y-79968393D01*
X217660893Y-79923454D01*
X217701657Y-79866947D01*
X217749445Y-79801004D01*
X217802698Y-79727757D01*
X217859855Y-79649336D01*
X217919355Y-79567872D01*
X217979637Y-79485498D01*
X218039140Y-79404344D01*
X218096305Y-79326542D01*
X218149570Y-79254223D01*
X218197374Y-79189518D01*
X218238157Y-79134559D01*
X218270358Y-79091476D01*
X218292416Y-79062402D01*
X218302771Y-79049467D01*
X218307244Y-79045151D01*
X218311436Y-79043112D01*
X218314843Y-79045726D01*
X218317525Y-79054786D01*
X218319541Y-79072085D01*
X218320948Y-79099414D01*
X218321805Y-79138565D01*
X218322170Y-79191333D01*
X218322103Y-79259507D01*
X218321660Y-79344882D01*
X218320902Y-79449249D01*
X218319885Y-79574400D01*
X218319508Y-79619100D01*
X218318369Y-79740195D01*
X218317172Y-79841488D01*
X218315836Y-79925062D01*
X218314277Y-79993004D01*
X218312415Y-80047399D01*
X218310166Y-80090332D01*
X218307448Y-80123889D01*
X218304179Y-80150155D01*
X218300278Y-80171216D01*
X218295661Y-80189157D01*
X218287392Y-80215570D01*
X218263783Y-80277572D01*
X218237885Y-80330373D01*
X218212735Y-80367445D01*
X218211539Y-80368875D01*
X218209368Y-80373224D01*
X218211528Y-80376826D01*
X218219844Y-80379751D01*
X218236140Y-80382069D01*
X218262241Y-80383851D01*
X218299971Y-80385167D01*
X218351156Y-80386086D01*
X218417620Y-80386678D01*
X218501187Y-80387015D01*
X218603683Y-80387165D01*
X218726932Y-80387200D01*
X219258496Y-80387200D01*
X219219723Y-80329583D01*
X219213632Y-80320693D01*
X219203176Y-80305869D01*
X219193779Y-80292222D01*
X219185383Y-80278565D01*
X219177933Y-80263711D01*
X219171373Y-80246470D01*
X219165646Y-80225655D01*
X219160695Y-80200080D01*
X219156466Y-80168555D01*
X219152901Y-80129893D01*
X219149944Y-80082907D01*
X219147540Y-80026408D01*
X219145631Y-79959209D01*
X219144162Y-79880122D01*
X219143076Y-79787960D01*
X219142318Y-79681534D01*
X219141830Y-79559657D01*
X219141558Y-79421141D01*
X219141443Y-79264799D01*
X219141431Y-79089442D01*
X219141465Y-78893882D01*
X219141489Y-78676933D01*
X219141480Y-78554313D01*
X219141443Y-78349247D01*
X219141427Y-78164916D01*
X219141488Y-78000134D01*
X219141684Y-77853716D01*
X219142070Y-77724474D01*
X219142705Y-77611222D01*
X219143644Y-77512775D01*
X219144945Y-77427944D01*
X219146664Y-77355544D01*
X219148859Y-77294389D01*
X219151585Y-77243292D01*
X219154901Y-77201067D01*
X219158862Y-77166527D01*
X219163525Y-77138486D01*
X219168947Y-77115758D01*
X219175186Y-77097156D01*
X219182297Y-77081493D01*
X219190338Y-77067584D01*
X219199366Y-77054241D01*
X219209436Y-77040279D01*
X219220607Y-77024511D01*
X219260397Y-76966667D01*
X218200514Y-76966667D01*
X218238511Y-77029766D01*
X218253193Y-77054805D01*
X218267731Y-77082386D01*
X218279827Y-77110500D01*
X218289732Y-77141351D01*
X218297694Y-77177144D01*
X218303961Y-77220083D01*
X218308782Y-77272374D01*
X218312406Y-77336219D01*
X218315081Y-77413825D01*
X218317057Y-77507394D01*
X218318582Y-77619133D01*
X218319904Y-77751245D01*
X218320813Y-77871234D01*
X218321220Y-77987863D01*
X218320967Y-78083331D01*
X218320057Y-78157356D01*
X218318493Y-78209655D01*
X218316279Y-78239949D01*
X218313420Y-78247956D01*
X218310361Y-78244658D01*
X218292206Y-78223208D01*
X218262475Y-78186689D01*
X218222839Y-78137242D01*
X218174971Y-78077007D01*
X218120543Y-78008127D01*
X218061227Y-77932743D01*
X217998695Y-77852996D01*
X217934621Y-77771028D01*
X217870675Y-77688980D01*
X217808531Y-77608994D01*
X217749861Y-77533211D01*
X217696337Y-77463773D01*
X217649630Y-77402821D01*
X217611414Y-77352496D01*
X217583361Y-77314940D01*
X217567143Y-77292295D01*
X217521835Y-77220012D01*
X217481861Y-77140263D01*
X217460330Y-77071988D01*
X217457027Y-77014644D01*
X217462316Y-76966667D01*
X216330556Y-76966917D01*
X216370067Y-76997522D01*
X216379448Y-77004889D01*
X216442383Y-77059238D01*
X216511197Y-77127059D01*
X216587796Y-77210316D01*
X216674088Y-77310978D01*
X216691252Y-77331647D01*
X216732033Y-77381209D01*
X216781788Y-77442126D01*
X216839155Y-77512698D01*
X216902769Y-77591224D01*
X216971269Y-77676004D01*
X217043290Y-77765337D01*
X217117470Y-77857522D01*
X217132717Y-77876502D01*
X217192446Y-77950860D01*
X217266853Y-78043648D01*
X217339331Y-78134188D01*
X217408514Y-78220778D01*
X217473041Y-78301718D01*
X217531547Y-78375306D01*
X217582670Y-78439844D01*
X217625047Y-78493629D01*
X217657315Y-78534962D01*
X217678110Y-78562142D01*
X217686069Y-78573468D01*
X217684311Y-78577571D01*
X217671430Y-78598134D01*
X217647085Y-78634361D01*
X217612447Y-78684624D01*
X217568686Y-78747292D01*
X217516975Y-78820736D01*
X217458484Y-78903327D01*
X217394384Y-78993436D01*
X217325846Y-79089431D01*
X217254043Y-79189685D01*
X217180144Y-79292568D01*
X217105321Y-79396450D01*
X217030745Y-79499701D01*
X216957587Y-79600692D01*
X216887019Y-79697794D01*
X216820211Y-79789377D01*
X216758335Y-79873811D01*
X216702561Y-79949467D01*
X216654062Y-80014716D01*
X216614007Y-80067928D01*
X216583569Y-80107473D01*
X216563144Y-80132826D01*
X216517099Y-80187095D01*
X216466812Y-80243575D01*
X216420015Y-80293469D01*
X216328851Y-80387200D01*
X215630645Y-80387200D01*
X215699556Y-80387149D01*
X215797807Y-80386891D01*
X215887230Y-80386437D01*
X215965533Y-80385810D01*
X216030423Y-80385035D01*
X216079611Y-80384135D01*
X216110804Y-80383134D01*
X216121711Y-80382057D01*
X216120522Y-80378837D01*
X216110376Y-80361252D01*
X216093240Y-80334958D01*
X216084740Y-80322491D01*
X216075529Y-80308422D01*
X216067433Y-80294151D01*
X216060385Y-80278279D01*
X216054317Y-80259409D01*
X216049161Y-80236141D01*
X216044851Y-80207078D01*
X216041319Y-80170821D01*
X216038497Y-80125970D01*
X216036318Y-80071128D01*
X216034714Y-80004897D01*
X216033619Y-79925877D01*
X216032965Y-79832671D01*
X216032684Y-79723879D01*
X216032709Y-79598103D01*
X216032972Y-79453945D01*
X216033406Y-79290007D01*
X216033945Y-79104889D01*
X216034479Y-78926032D01*
X216035005Y-78767174D01*
X216035550Y-78628116D01*
X216036145Y-78507465D01*
X216036819Y-78403828D01*
X216037603Y-78315811D01*
X216038526Y-78242023D01*
X216039619Y-78181069D01*
X216040912Y-78131557D01*
X216042435Y-78092093D01*
X216044219Y-78061284D01*
X216046292Y-78037738D01*
X216048686Y-78020060D01*
X216051430Y-78006859D01*
X216054556Y-77996740D01*
X216058092Y-77988311D01*
X216061991Y-77980175D01*
X216081638Y-77943344D01*
X216100425Y-77913191D01*
X216101472Y-77911708D01*
X216115802Y-77889459D01*
X216121711Y-77876502D01*
X216120704Y-77876049D01*
X216103505Y-77874603D01*
X216066856Y-77873280D01*
X216013162Y-77872116D01*
X215944830Y-77871147D01*
X215864264Y-77870411D01*
X215773870Y-77869942D01*
X215676053Y-77869778D01*
X215230395Y-77869778D01*
X215227320Y-79046645D01*
X215224245Y-80223511D01*
X215197607Y-80282422D01*
X215185685Y-80306983D01*
X215168446Y-80337234D01*
X215155274Y-80354360D01*
X215147276Y-80362391D01*
X215139578Y-80377293D01*
X214848142Y-80377293D01*
X214847674Y-80284829D01*
X214847250Y-80169417D01*
X214846906Y-80038960D01*
X214846634Y-79892516D01*
X214846427Y-79729144D01*
X214846276Y-79547901D01*
X214846172Y-79347848D01*
X214846108Y-79128041D01*
X214846076Y-78887539D01*
X214846067Y-78625402D01*
X214846067Y-76433831D01*
X214884449Y-76395449D01*
X214911555Y-76371711D01*
X214938453Y-76359911D01*
X214974760Y-76357067D01*
X215026689Y-76357067D01*
X215026689Y-76445006D01*
X215028627Y-76494902D01*
X215047399Y-76605323D01*
X215084417Y-76706787D01*
X215137569Y-76797952D01*
X215204746Y-76877473D01*
X215283838Y-76944005D01*
X215372734Y-76996206D01*
X215469325Y-77032730D01*
X215571500Y-77052234D01*
X215677150Y-77053373D01*
X215784164Y-77034805D01*
X215890432Y-76995184D01*
X215987419Y-76937316D01*
X216072493Y-76862484D01*
X216141215Y-76774415D01*
X216192118Y-76675416D01*
X216223735Y-76567793D01*
X216234600Y-76453854D01*
X216234600Y-76357067D01*
X217854953Y-76357067D01*
X218066097Y-76357080D01*
X218270220Y-76357130D01*
X218453886Y-76357230D01*
X218618191Y-76357392D01*
X218764229Y-76357629D01*
X218893094Y-76357953D01*
X219005883Y-76358375D01*
X219103688Y-76358909D01*
X219187604Y-76359567D01*
X219258727Y-76360361D01*
X219318150Y-76361304D01*
X219366968Y-76362408D01*
X219406277Y-76363684D01*
X219437169Y-76365147D01*
X219460741Y-76366807D01*
X219478086Y-76368678D01*
X219490299Y-76370772D01*
X219498475Y-76373100D01*
X219503708Y-76375676D01*
X219509704Y-76379245D01*
X219516479Y-76382778D01*
X219522678Y-76386288D01*
X219528326Y-76390718D01*
X219533447Y-76397008D01*
X219538069Y-76406101D01*
X219542215Y-76418939D01*
X219545913Y-76436462D01*
X219549187Y-76459613D01*
X219552063Y-76489334D01*
X219554567Y-76526565D01*
X219556724Y-76572249D01*
X219558560Y-76627327D01*
X219560100Y-76692741D01*
X219561370Y-76769433D01*
X219562395Y-76858344D01*
X219563201Y-76960417D01*
X219563234Y-76966667D01*
X219563814Y-77076592D01*
G36*
X219563814Y-77076592D02*
G01*
X219564259Y-77207811D01*
X219564562Y-77355016D01*
X219564748Y-77519149D01*
X219564842Y-77701152D01*
X219564871Y-77901965D01*
X219564861Y-78122532D01*
X219564836Y-78363792D01*
X219564822Y-78626689D01*
X219564822Y-78668840D01*
X219564846Y-78929468D01*
X219564885Y-79168596D01*
X219564908Y-79387160D01*
X219564887Y-79586095D01*
X219564793Y-79766335D01*
X219564595Y-79928815D01*
X219564263Y-80074470D01*
X219563769Y-80204234D01*
X219563083Y-80319043D01*
X219562176Y-80419830D01*
X219561017Y-80507530D01*
X219559578Y-80583079D01*
X219557829Y-80647411D01*
X219555740Y-80701461D01*
X219553283Y-80746163D01*
X219550427Y-80782452D01*
X219547143Y-80811263D01*
X219543402Y-80833531D01*
X219539174Y-80850190D01*
X219534429Y-80862175D01*
X219529139Y-80870421D01*
X219523273Y-80875862D01*
X219516802Y-80879434D01*
X219509697Y-80882070D01*
X219501928Y-80884706D01*
X219493466Y-80888277D01*
X219489108Y-80889945D01*
X219480595Y-80891911D01*
X219467894Y-80893711D01*
X219450085Y-80895355D01*
X219426249Y-80896847D01*
X219395466Y-80898197D01*
X219356817Y-80899411D01*
X219309382Y-80900497D01*
X219252243Y-80901461D01*
X219184479Y-80902311D01*
X219105171Y-80903053D01*
X219013399Y-80903697D01*
X218908244Y-80904247D01*
X218788787Y-80904713D01*
X218654108Y-80905100D01*
X218503288Y-80905416D01*
X218335406Y-80905669D01*
X218149545Y-80905866D01*
X217944783Y-80906013D01*
X217720202Y-80906118D01*
X217474882Y-80906189D01*
X217207904Y-80906232D01*
X217169521Y-80906237D01*
X216904122Y-80906280D01*
X216660250Y-80906325D01*
X216436983Y-80906348D01*
X216233396Y-80906324D01*
X216048567Y-80906230D01*
X215881573Y-80906043D01*
X215731490Y-80905739D01*
X215597396Y-80905294D01*
X215478366Y-80904685D01*
X215373479Y-80903889D01*
X215281810Y-80902880D01*
X215202437Y-80901637D01*
X215134437Y-80900135D01*
X215076886Y-80898351D01*
X215028862Y-80896261D01*
X214989440Y-80893842D01*
X214957699Y-80891070D01*
X214932714Y-80887921D01*
X214913564Y-80884372D01*
X214899323Y-80880398D01*
X214889071Y-80875978D01*
X214881882Y-80871086D01*
X214876835Y-80865700D01*
X214873005Y-80859796D01*
X214869471Y-80853349D01*
X214865308Y-80846337D01*
X214864225Y-80844487D01*
X214862013Y-80838980D01*
X214859986Y-80830668D01*
X214858138Y-80818609D01*
X214856461Y-80801863D01*
X214854945Y-80779487D01*
X214853583Y-80750540D01*
X214852367Y-80714080D01*
X214851289Y-80669167D01*
X214850340Y-80614857D01*
X214849512Y-80550210D01*
X214848797Y-80474284D01*
X214848187Y-80386138D01*
X214848142Y-80377293D01*
X215139578Y-80377293D01*
X215143460Y-80378565D01*
X215166720Y-80380591D01*
X215209074Y-80382426D01*
X215268332Y-80384027D01*
X215342307Y-80385349D01*
X215428810Y-80386348D01*
X215525652Y-80386980D01*
X215630645Y-80387200D01*
X216328851Y-80387200D01*
X217483290Y-80387200D01*
X217482656Y-80311000D01*
X217483774Y-80268960D01*
X217489504Y-80233134D01*
X217502090Y-80195572D01*
X217523768Y-80147377D01*
X217526989Y-80140697D01*
X217552388Y-80091159D01*
X217579196Y-80043169D01*
X217602117Y-80006266D01*
X217606685Y-79999634D01*
X217628716Y-79968393D01*
X217660893Y-79923454D01*
X217701657Y-79866947D01*
X217749445Y-79801004D01*
X217802698Y-79727757D01*
X217859855Y-79649336D01*
X217919355Y-79567872D01*
X217979637Y-79485498D01*
X218039140Y-79404344D01*
X218096305Y-79326542D01*
X218149570Y-79254223D01*
X218197374Y-79189518D01*
X218238157Y-79134559D01*
X218270358Y-79091476D01*
X218292416Y-79062402D01*
X218302771Y-79049467D01*
X218307244Y-79045151D01*
X218311436Y-79043112D01*
X218314843Y-79045726D01*
X218317525Y-79054786D01*
X218319541Y-79072085D01*
X218320948Y-79099414D01*
X218321805Y-79138565D01*
X218322170Y-79191333D01*
X218322103Y-79259507D01*
X218321660Y-79344882D01*
X218320902Y-79449249D01*
X218319885Y-79574400D01*
X218319508Y-79619100D01*
X218318369Y-79740195D01*
X218317172Y-79841488D01*
X218315836Y-79925062D01*
X218314277Y-79993004D01*
X218312415Y-80047399D01*
X218310166Y-80090332D01*
X218307448Y-80123889D01*
X218304179Y-80150155D01*
X218300278Y-80171216D01*
X218295661Y-80189157D01*
X218287392Y-80215570D01*
X218263783Y-80277572D01*
X218237885Y-80330373D01*
X218212735Y-80367445D01*
X218211539Y-80368875D01*
X218209368Y-80373224D01*
X218211528Y-80376826D01*
X218219844Y-80379751D01*
X218236140Y-80382069D01*
X218262241Y-80383851D01*
X218299971Y-80385167D01*
X218351156Y-80386086D01*
X218417620Y-80386678D01*
X218501187Y-80387015D01*
X218603683Y-80387165D01*
X218726932Y-80387200D01*
X219258496Y-80387200D01*
X219219723Y-80329583D01*
X219213632Y-80320693D01*
X219203176Y-80305869D01*
X219193779Y-80292222D01*
X219185383Y-80278565D01*
X219177933Y-80263711D01*
X219171373Y-80246470D01*
X219165646Y-80225655D01*
X219160695Y-80200080D01*
X219156466Y-80168555D01*
X219152901Y-80129893D01*
X219149944Y-80082907D01*
X219147540Y-80026408D01*
X219145631Y-79959209D01*
X219144162Y-79880122D01*
X219143076Y-79787960D01*
X219142318Y-79681534D01*
X219141830Y-79559657D01*
X219141558Y-79421141D01*
X219141443Y-79264799D01*
X219141431Y-79089442D01*
X219141465Y-78893882D01*
X219141489Y-78676933D01*
X219141480Y-78554313D01*
X219141443Y-78349247D01*
X219141427Y-78164916D01*
X219141488Y-78000134D01*
X219141684Y-77853716D01*
X219142070Y-77724474D01*
X219142705Y-77611222D01*
X219143644Y-77512775D01*
X219144945Y-77427944D01*
X219146664Y-77355544D01*
X219148859Y-77294389D01*
X219151585Y-77243292D01*
X219154901Y-77201067D01*
X219158862Y-77166527D01*
X219163525Y-77138486D01*
X219168947Y-77115758D01*
X219175186Y-77097156D01*
X219182297Y-77081493D01*
X219190338Y-77067584D01*
X219199366Y-77054241D01*
X219209436Y-77040279D01*
X219220607Y-77024511D01*
X219260397Y-76966667D01*
X218200514Y-76966667D01*
X218238511Y-77029766D01*
X218253193Y-77054805D01*
X218267731Y-77082386D01*
X218279827Y-77110500D01*
X218289732Y-77141351D01*
X218297694Y-77177144D01*
X218303961Y-77220083D01*
X218308782Y-77272374D01*
X218312406Y-77336219D01*
X218315081Y-77413825D01*
X218317057Y-77507394D01*
X218318582Y-77619133D01*
X218319904Y-77751245D01*
X218320813Y-77871234D01*
X218321220Y-77987863D01*
X218320967Y-78083331D01*
X218320057Y-78157356D01*
X218318493Y-78209655D01*
X218316279Y-78239949D01*
X218313420Y-78247956D01*
X218310361Y-78244658D01*
X218292206Y-78223208D01*
X218262475Y-78186689D01*
X218222839Y-78137242D01*
X218174971Y-78077007D01*
X218120543Y-78008127D01*
X218061227Y-77932743D01*
X217998695Y-77852996D01*
X217934621Y-77771028D01*
X217870675Y-77688980D01*
X217808531Y-77608994D01*
X217749861Y-77533211D01*
X217696337Y-77463773D01*
X217649630Y-77402821D01*
X217611414Y-77352496D01*
X217583361Y-77314940D01*
X217567143Y-77292295D01*
X217521835Y-77220012D01*
X217481861Y-77140263D01*
X217460330Y-77071988D01*
X217457027Y-77014644D01*
X217462316Y-76966667D01*
X216330556Y-76966917D01*
X216370067Y-76997522D01*
X216379448Y-77004889D01*
X216442383Y-77059238D01*
X216511197Y-77127059D01*
X216587796Y-77210316D01*
X216674088Y-77310978D01*
X216691252Y-77331647D01*
X216732033Y-77381209D01*
X216781788Y-77442126D01*
X216839155Y-77512698D01*
X216902769Y-77591224D01*
X216971269Y-77676004D01*
X217043290Y-77765337D01*
X217117470Y-77857522D01*
X217132717Y-77876502D01*
X217192446Y-77950860D01*
X217266853Y-78043648D01*
X217339331Y-78134188D01*
X217408514Y-78220778D01*
X217473041Y-78301718D01*
X217531547Y-78375306D01*
X217582670Y-78439844D01*
X217625047Y-78493629D01*
X217657315Y-78534962D01*
X217678110Y-78562142D01*
X217686069Y-78573468D01*
X217684311Y-78577571D01*
X217671430Y-78598134D01*
X217647085Y-78634361D01*
X217612447Y-78684624D01*
X217568686Y-78747292D01*
X217516975Y-78820736D01*
X217458484Y-78903327D01*
X217394384Y-78993436D01*
X217325846Y-79089431D01*
X217254043Y-79189685D01*
X217180144Y-79292568D01*
X217105321Y-79396450D01*
X217030745Y-79499701D01*
X216957587Y-79600692D01*
X216887019Y-79697794D01*
X216820211Y-79789377D01*
X216758335Y-79873811D01*
X216702561Y-79949467D01*
X216654062Y-80014716D01*
X216614007Y-80067928D01*
X216583569Y-80107473D01*
X216563144Y-80132826D01*
X216517099Y-80187095D01*
X216466812Y-80243575D01*
X216420015Y-80293469D01*
X216328851Y-80387200D01*
X215630645Y-80387200D01*
X215699556Y-80387149D01*
X215797807Y-80386891D01*
X215887230Y-80386437D01*
X215965533Y-80385810D01*
X216030423Y-80385035D01*
X216079611Y-80384135D01*
X216110804Y-80383134D01*
X216121711Y-80382057D01*
X216120522Y-80378837D01*
X216110376Y-80361252D01*
X216093240Y-80334958D01*
X216084740Y-80322491D01*
X216075529Y-80308422D01*
X216067433Y-80294151D01*
X216060385Y-80278279D01*
X216054317Y-80259409D01*
X216049161Y-80236141D01*
X216044851Y-80207078D01*
X216041319Y-80170821D01*
X216038497Y-80125970D01*
X216036318Y-80071128D01*
X216034714Y-80004897D01*
X216033619Y-79925877D01*
X216032965Y-79832671D01*
X216032684Y-79723879D01*
X216032709Y-79598103D01*
X216032972Y-79453945D01*
X216033406Y-79290007D01*
X216033945Y-79104889D01*
X216034479Y-78926032D01*
X216035005Y-78767174D01*
X216035550Y-78628116D01*
X216036145Y-78507465D01*
X216036819Y-78403828D01*
X216037603Y-78315811D01*
X216038526Y-78242023D01*
X216039619Y-78181069D01*
X216040912Y-78131557D01*
X216042435Y-78092093D01*
X216044219Y-78061284D01*
X216046292Y-78037738D01*
X216048686Y-78020060D01*
X216051430Y-78006859D01*
X216054556Y-77996740D01*
X216058092Y-77988311D01*
X216061991Y-77980175D01*
X216081638Y-77943344D01*
X216100425Y-77913191D01*
X216101472Y-77911708D01*
X216115802Y-77889459D01*
X216121711Y-77876502D01*
X216120704Y-77876049D01*
X216103505Y-77874603D01*
X216066856Y-77873280D01*
X216013162Y-77872116D01*
X215944830Y-77871147D01*
X215864264Y-77870411D01*
X215773870Y-77869942D01*
X215676053Y-77869778D01*
X215230395Y-77869778D01*
X215227320Y-79046645D01*
X215224245Y-80223511D01*
X215197607Y-80282422D01*
X215185685Y-80306983D01*
X215168446Y-80337234D01*
X215155274Y-80354360D01*
X215147276Y-80362391D01*
X215139578Y-80377293D01*
X214848142Y-80377293D01*
X214847674Y-80284829D01*
X214847250Y-80169417D01*
X214846906Y-80038960D01*
X214846634Y-79892516D01*
X214846427Y-79729144D01*
X214846276Y-79547901D01*
X214846172Y-79347848D01*
X214846108Y-79128041D01*
X214846076Y-78887539D01*
X214846067Y-78625402D01*
X214846067Y-76433831D01*
X214884449Y-76395449D01*
X214911555Y-76371711D01*
X214938453Y-76359911D01*
X214974760Y-76357067D01*
X215026689Y-76357067D01*
X215026689Y-76445006D01*
X215028627Y-76494902D01*
X215047399Y-76605323D01*
X215084417Y-76706787D01*
X215137569Y-76797952D01*
X215204746Y-76877473D01*
X215283838Y-76944005D01*
X215372734Y-76996206D01*
X215469325Y-77032730D01*
X215571500Y-77052234D01*
X215677150Y-77053373D01*
X215784164Y-77034805D01*
X215890432Y-76995184D01*
X215987419Y-76937316D01*
X216072493Y-76862484D01*
X216141215Y-76774415D01*
X216192118Y-76675416D01*
X216223735Y-76567793D01*
X216234600Y-76453854D01*
X216234600Y-76357067D01*
X217854953Y-76357067D01*
X218066097Y-76357080D01*
X218270220Y-76357130D01*
X218453886Y-76357230D01*
X218618191Y-76357392D01*
X218764229Y-76357629D01*
X218893094Y-76357953D01*
X219005883Y-76358375D01*
X219103688Y-76358909D01*
X219187604Y-76359567D01*
X219258727Y-76360361D01*
X219318150Y-76361304D01*
X219366968Y-76362408D01*
X219406277Y-76363684D01*
X219437169Y-76365147D01*
X219460741Y-76366807D01*
X219478086Y-76368678D01*
X219490299Y-76370772D01*
X219498475Y-76373100D01*
X219503708Y-76375676D01*
X219509704Y-76379245D01*
X219516479Y-76382778D01*
X219522678Y-76386288D01*
X219528326Y-76390718D01*
X219533447Y-76397008D01*
X219538069Y-76406101D01*
X219542215Y-76418939D01*
X219545913Y-76436462D01*
X219549187Y-76459613D01*
X219552063Y-76489334D01*
X219554567Y-76526565D01*
X219556724Y-76572249D01*
X219558560Y-76627327D01*
X219560100Y-76692741D01*
X219561370Y-76769433D01*
X219562395Y-76858344D01*
X219563201Y-76960417D01*
X219563234Y-76966667D01*
X219563814Y-77076592D01*
G37*
%TD*%
M02*
