%TF.GenerationSoftware,KiCad,Pcbnew,9.0.2*%
%TF.CreationDate,2025-05-19T15:19:16+02:00*%
%TF.ProjectId,ESC-TFG-KiCad,4553432d-5446-4472-9d4b-694361642e6b,v1.0*%
%TF.SameCoordinates,Original*%
%TF.FileFunction,Paste,Top*%
%TF.FilePolarity,Positive*%
%FSLAX46Y46*%
G04 Gerber Fmt 4.6, Leading zero omitted, Abs format (unit mm)*
G04 Created by KiCad (PCBNEW 9.0.2) date 2025-05-19 15:19:16*
%MOMM*%
%LPD*%
G01*
G04 APERTURE LIST*
G04 Aperture macros list*
%AMRoundRect*
0 Rectangle with rounded corners*
0 $1 Rounding radius*
0 $2 $3 $4 $5 $6 $7 $8 $9 X,Y pos of 4 corners*
0 Add a 4 corners polygon primitive as box body*
4,1,4,$2,$3,$4,$5,$6,$7,$8,$9,$2,$3,0*
0 Add four circle primitives for the rounded corners*
1,1,$1+$1,$2,$3*
1,1,$1+$1,$4,$5*
1,1,$1+$1,$6,$7*
1,1,$1+$1,$8,$9*
0 Add four rect primitives between the rounded corners*
20,1,$1+$1,$2,$3,$4,$5,0*
20,1,$1+$1,$4,$5,$6,$7,0*
20,1,$1+$1,$6,$7,$8,$9,0*
20,1,$1+$1,$8,$9,$2,$3,0*%
%AMFreePoly0*
4,1,9,3.862500,-0.866500,0.737500,-0.866500,0.737500,-0.450000,-0.737500,-0.450000,-0.737500,0.450000,0.737500,0.450000,0.737500,0.866500,3.862500,0.866500,3.862500,-0.866500,3.862500,-0.866500,$1*%
G04 Aperture macros list end*
%ADD10RoundRect,0.225000X0.250000X-0.225000X0.250000X0.225000X-0.250000X0.225000X-0.250000X-0.225000X0*%
%ADD11RoundRect,0.200000X0.200000X0.275000X-0.200000X0.275000X-0.200000X-0.275000X0.200000X-0.275000X0*%
%ADD12RoundRect,0.225000X-0.250000X0.225000X-0.250000X-0.225000X0.250000X-0.225000X0.250000X0.225000X0*%
%ADD13RoundRect,0.200000X-0.200000X-0.275000X0.200000X-0.275000X0.200000X0.275000X-0.200000X0.275000X0*%
%ADD14RoundRect,0.225000X-0.225000X-0.250000X0.225000X-0.250000X0.225000X0.250000X-0.225000X0.250000X0*%
%ADD15RoundRect,0.200000X0.275000X-0.200000X0.275000X0.200000X-0.275000X0.200000X-0.275000X-0.200000X0*%
%ADD16RoundRect,0.243750X0.456250X-0.243750X0.456250X0.243750X-0.456250X0.243750X-0.456250X-0.243750X0*%
%ADD17RoundRect,0.250000X0.450000X-0.262500X0.450000X0.262500X-0.450000X0.262500X-0.450000X-0.262500X0*%
%ADD18RoundRect,0.243750X-0.243750X-0.456250X0.243750X-0.456250X0.243750X0.456250X-0.243750X0.456250X0*%
%ADD19RoundRect,0.097500X-0.502500X-0.227500X0.502500X-0.227500X0.502500X0.227500X-0.502500X0.227500X0*%
%ADD20RoundRect,0.225000X0.225000X-0.425000X0.225000X0.425000X-0.225000X0.425000X-0.225000X-0.425000X0*%
%ADD21FreePoly0,90.000000*%
%ADD22RoundRect,0.250000X0.550000X-1.050000X0.550000X1.050000X-0.550000X1.050000X-0.550000X-1.050000X0*%
%ADD23RoundRect,0.218750X0.218750X0.381250X-0.218750X0.381250X-0.218750X-0.381250X0.218750X-0.381250X0*%
%ADD24RoundRect,0.200000X-0.275000X0.200000X-0.275000X-0.200000X0.275000X-0.200000X0.275000X0.200000X0*%
%ADD25RoundRect,0.250000X-0.250000X0.250000X-0.250000X-0.250000X0.250000X-0.250000X0.250000X0.250000X0*%
%ADD26RoundRect,0.250000X0.315000X0.315000X-0.315000X0.315000X-0.315000X-0.315000X0.315000X-0.315000X0*%
%ADD27RoundRect,0.062500X0.375000X0.062500X-0.375000X0.062500X-0.375000X-0.062500X0.375000X-0.062500X0*%
%ADD28RoundRect,0.062500X0.062500X0.375000X-0.062500X0.375000X-0.062500X-0.375000X0.062500X-0.375000X0*%
%ADD29RoundRect,0.225000X0.375000X-0.225000X0.375000X0.225000X-0.375000X0.225000X-0.375000X-0.225000X0*%
%ADD30RoundRect,0.100000X-0.637500X-0.100000X0.637500X-0.100000X0.637500X0.100000X-0.637500X0.100000X0*%
%ADD31RoundRect,0.243750X0.243750X0.456250X-0.243750X0.456250X-0.243750X-0.456250X0.243750X-0.456250X0*%
%ADD32RoundRect,0.250000X-0.550000X1.050000X-0.550000X-1.050000X0.550000X-1.050000X0.550000X1.050000X0*%
%ADD33RoundRect,0.250000X-0.250000X-0.250000X0.250000X-0.250000X0.250000X0.250000X-0.250000X0.250000X0*%
%ADD34RoundRect,0.250000X0.312500X1.450000X-0.312500X1.450000X-0.312500X-1.450000X0.312500X-1.450000X0*%
%ADD35R,0.300000X1.150000*%
%ADD36RoundRect,0.225000X0.225000X0.250000X-0.225000X0.250000X-0.225000X-0.250000X0.225000X-0.250000X0*%
%ADD37R,1.300000X1.100000*%
%ADD38RoundRect,0.100000X0.155000X0.100000X-0.155000X0.100000X-0.155000X-0.100000X0.155000X-0.100000X0*%
%ADD39RoundRect,0.150000X-0.587500X-0.150000X0.587500X-0.150000X0.587500X0.150000X-0.587500X0.150000X0*%
%ADD40RoundRect,0.250000X-0.450000X0.262500X-0.450000X-0.262500X0.450000X-0.262500X0.450000X0.262500X0*%
%ADD41RoundRect,0.150000X0.150000X-0.825000X0.150000X0.825000X-0.150000X0.825000X-0.150000X-0.825000X0*%
%ADD42RoundRect,0.225000X-0.375000X0.225000X-0.375000X-0.225000X0.375000X-0.225000X0.375000X0.225000X0*%
%ADD43RoundRect,0.250000X-0.900000X1.000000X-0.900000X-1.000000X0.900000X-1.000000X0.900000X1.000000X0*%
%ADD44RoundRect,0.250000X-1.425000X0.362500X-1.425000X-0.362500X1.425000X-0.362500X1.425000X0.362500X0*%
%ADD45RoundRect,0.250000X0.262500X0.450000X-0.262500X0.450000X-0.262500X-0.450000X0.262500X-0.450000X0*%
%ADD46RoundRect,0.250000X-1.000000X-0.650000X1.000000X-0.650000X1.000000X0.650000X-1.000000X0.650000X0*%
%ADD47RoundRect,0.250000X0.250000X0.250000X-0.250000X0.250000X-0.250000X-0.250000X0.250000X-0.250000X0*%
%ADD48RoundRect,0.100000X-0.100000X0.155000X-0.100000X-0.155000X0.100000X-0.155000X0.100000X0.155000X0*%
%ADD49RoundRect,0.150000X-0.150000X0.825000X-0.150000X-0.825000X0.150000X-0.825000X0.150000X0.825000X0*%
%ADD50RoundRect,0.250000X0.250000X-0.250000X0.250000X0.250000X-0.250000X0.250000X-0.250000X-0.250000X0*%
%ADD51RoundRect,0.250000X-1.050000X-0.550000X1.050000X-0.550000X1.050000X0.550000X-1.050000X0.550000X0*%
%ADD52RoundRect,0.250000X1.000000X0.650000X-1.000000X0.650000X-1.000000X-0.650000X1.000000X-0.650000X0*%
G04 APERTURE END LIST*
D10*
%TO.C,C7*%
X151806000Y-97912000D03*
X151806000Y-96362000D03*
%TD*%
D11*
%TO.C,R41*%
X118024000Y-79229000D03*
X116374000Y-79229000D03*
%TD*%
%TO.C,R12*%
X167478800Y-110855000D03*
X165828800Y-110855000D03*
%TD*%
D12*
%TO.C,C41*%
X165967000Y-79216000D03*
X165967000Y-80766000D03*
%TD*%
%TO.C,C51*%
X212195000Y-79160000D03*
X212195000Y-80710000D03*
%TD*%
D13*
%TO.C,R70*%
X110976980Y-95424000D03*
X112626980Y-95424000D03*
%TD*%
D14*
%TO.C,C16*%
X133062000Y-88693000D03*
X134612000Y-88693000D03*
%TD*%
D15*
%TO.C,R23*%
X90055000Y-99109000D03*
X90055000Y-97459000D03*
%TD*%
D16*
%TO.C,D8*%
X109834000Y-118967500D03*
X109834000Y-117092500D03*
%TD*%
D17*
%TO.C,R54*%
X181715000Y-72084501D03*
X181715000Y-70259501D03*
%TD*%
D18*
%TO.C,D15*%
X84766500Y-93519000D03*
X86641500Y-93519000D03*
%TD*%
D11*
%TO.C,R3*%
X216069000Y-94198000D03*
X214419000Y-94198000D03*
%TD*%
D19*
%TO.C,SW2*%
X159101000Y-110850000D03*
X159101000Y-108700000D03*
X154801000Y-110850000D03*
X154801000Y-108700000D03*
%TD*%
D20*
%TO.C,U1*%
X104651000Y-109566000D03*
D21*
X106151000Y-109478500D03*
D20*
X107651000Y-109566000D03*
%TD*%
D22*
%TO.C,C23*%
X93831000Y-79251000D03*
X93831000Y-75651000D03*
%TD*%
D23*
%TO.C,L1*%
X164744500Y-89963000D03*
X162619500Y-89963000D03*
%TD*%
D11*
%TO.C,R63*%
X210480000Y-79173000D03*
X208830000Y-79173000D03*
%TD*%
D24*
%TO.C,R24*%
X109834000Y-113903000D03*
X109834000Y-115553000D03*
%TD*%
D22*
%TO.C,C47*%
X201019000Y-78179000D03*
X201019000Y-74579000D03*
%TD*%
D11*
%TO.C,R48*%
X155108000Y-69577001D03*
X153458000Y-69577001D03*
%TD*%
D25*
%TO.C,D2*%
X214863000Y-88249000D03*
X214863000Y-90749000D03*
%TD*%
D26*
%TO.C,U3*%
X158859000Y-95808000D03*
X158859000Y-94408000D03*
X158859000Y-93008000D03*
X158859000Y-91608000D03*
X157459000Y-95808000D03*
X157459000Y-94408000D03*
X157459000Y-93008000D03*
X157459000Y-91608000D03*
X156059000Y-95808000D03*
X156059000Y-94408000D03*
X156059000Y-93008000D03*
X156059000Y-91608000D03*
X154659000Y-95808000D03*
X154659000Y-94408000D03*
X154659000Y-93008000D03*
X154659000Y-91608000D03*
D27*
X160196500Y-96458000D03*
X160196500Y-95958000D03*
X160196500Y-95458000D03*
X160196500Y-94958000D03*
X160196500Y-94458000D03*
X160196500Y-93958000D03*
X160196500Y-93458000D03*
X160196500Y-92958000D03*
X160196500Y-92458000D03*
X160196500Y-91958000D03*
X160196500Y-91458000D03*
X160196500Y-90958000D03*
D28*
X159509000Y-90270500D03*
X159009000Y-90270500D03*
X158509000Y-90270500D03*
X158009000Y-90270500D03*
X157509000Y-90270500D03*
X157009000Y-90270500D03*
X156509000Y-90270500D03*
X156009000Y-90270500D03*
X155509000Y-90270500D03*
X155009000Y-90270500D03*
X154509000Y-90270500D03*
X154009000Y-90270500D03*
D27*
X153321500Y-90958000D03*
X153321500Y-91458000D03*
X153321500Y-91958000D03*
X153321500Y-92458000D03*
X153321500Y-92958000D03*
X153321500Y-93458000D03*
X153321500Y-93958000D03*
X153321500Y-94458000D03*
X153321500Y-94958000D03*
X153321500Y-95458000D03*
X153321500Y-95958000D03*
X153321500Y-96458000D03*
D28*
X154009000Y-97145500D03*
X154509000Y-97145500D03*
X155009000Y-97145500D03*
X155509000Y-97145500D03*
X156009000Y-97145500D03*
X156509000Y-97145500D03*
X157009000Y-97145500D03*
X157509000Y-97145500D03*
X158009000Y-97145500D03*
X158509000Y-97145500D03*
X159009000Y-97145500D03*
X159509000Y-97145500D03*
%TD*%
D29*
%TO.C,D28*%
X184255000Y-72822001D03*
X184255000Y-69522001D03*
%TD*%
D30*
%TO.C,U4*%
X124685000Y-88704000D03*
X124685000Y-89354000D03*
X124685000Y-90004000D03*
X124685000Y-90654000D03*
X124685000Y-91304000D03*
X124685000Y-91954000D03*
X124685000Y-92604000D03*
X124685000Y-93254000D03*
X130410000Y-93254000D03*
X130410000Y-92604000D03*
X130410000Y-91954000D03*
X130410000Y-91304000D03*
X130410000Y-90654000D03*
X130410000Y-90004000D03*
X130410000Y-89354000D03*
X130410000Y-88704000D03*
%TD*%
D15*
%TO.C,R49*%
X153775000Y-82340000D03*
X153775000Y-80690000D03*
%TD*%
D13*
%TO.C,R30*%
X133520000Y-105584000D03*
X135170000Y-105584000D03*
%TD*%
D15*
%TO.C,R42*%
X140059000Y-72053001D03*
X140059000Y-70403001D03*
%TD*%
%TO.C,R47*%
X166221000Y-68370001D03*
X166221000Y-66720001D03*
%TD*%
D29*
%TO.C,D25*%
X164189000Y-68433001D03*
X164189000Y-65133001D03*
%TD*%
D12*
%TO.C,C24*%
X97641000Y-78708000D03*
X97641000Y-80258000D03*
%TD*%
D24*
%TO.C,R7*%
X216006000Y-95659000D03*
X216006000Y-97309000D03*
%TD*%
D31*
%TO.C,D9*%
X153867000Y-100628000D03*
X151992000Y-100628000D03*
%TD*%
D32*
%TO.C,C2*%
X106151000Y-113944000D03*
X106151000Y-117544000D03*
%TD*%
D10*
%TO.C,C26*%
X95355000Y-72003000D03*
X95355000Y-70453000D03*
%TD*%
D24*
%TO.C,R18*%
X219562000Y-79486000D03*
X219562000Y-81136000D03*
%TD*%
D11*
%TO.C,R52*%
X164252000Y-79229000D03*
X162602000Y-79229000D03*
%TD*%
D33*
%TO.C,D26*%
X162685000Y-82531000D03*
X165185000Y-82531000D03*
%TD*%
D11*
%TO.C,R69*%
X115928980Y-97075000D03*
X114278980Y-97075000D03*
%TD*%
D34*
%TO.C,F1*%
X136482500Y-110664000D03*
X132207500Y-110664000D03*
%TD*%
D12*
%TO.C,C3*%
X215244000Y-107774000D03*
X215244000Y-109324000D03*
%TD*%
D35*
%TO.C,J2*%
X141003000Y-112486000D03*
X141803000Y-112486000D03*
X143103000Y-112486000D03*
X144103000Y-112486000D03*
X144603000Y-112486000D03*
X145603000Y-112486000D03*
X146903000Y-112486000D03*
X147703000Y-112486000D03*
X147403000Y-112486000D03*
X146603000Y-112486000D03*
X146103000Y-112486000D03*
X145103000Y-112486000D03*
X143603000Y-112486000D03*
X142603000Y-112486000D03*
X142103000Y-112486000D03*
X141303000Y-112486000D03*
%TD*%
D11*
%TO.C,R40*%
X118786000Y-70085000D03*
X117136000Y-70085000D03*
%TD*%
%TO.C,R1*%
X106214000Y-111426000D03*
X104564000Y-111426000D03*
%TD*%
D36*
%TO.C,C53*%
X105972980Y-98726000D03*
X104422980Y-98726000D03*
%TD*%
D14*
%TO.C,C13*%
X166195000Y-93581000D03*
X167745000Y-93581000D03*
%TD*%
%TO.C,C1*%
X107916000Y-111426000D03*
X109466000Y-111426000D03*
%TD*%
D11*
%TO.C,R68*%
X112626980Y-97075000D03*
X110976980Y-97075000D03*
%TD*%
D32*
%TO.C,C4*%
X218546000Y-105965000D03*
X218546000Y-109565000D03*
%TD*%
D24*
%TO.C,R20*%
X128372500Y-96758000D03*
X128372500Y-98408000D03*
%TD*%
%TO.C,R13*%
X171378200Y-109268000D03*
X171378200Y-110918000D03*
%TD*%
D13*
%TO.C,R74*%
X117580980Y-95424000D03*
X119230980Y-95424000D03*
%TD*%
D14*
%TO.C,C52*%
X208880000Y-80697000D03*
X210430000Y-80697000D03*
%TD*%
D12*
%TO.C,C34*%
X143869000Y-78708000D03*
X143869000Y-80258000D03*
%TD*%
D29*
%TO.C,D18*%
X91799000Y-72878000D03*
X91799000Y-69578000D03*
%TD*%
D10*
%TO.C,C36*%
X141583000Y-72003001D03*
X141583000Y-70453001D03*
%TD*%
D37*
%TO.C,Y1*%
X169603000Y-93517000D03*
X171703000Y-93517000D03*
X171703000Y-91867000D03*
X169603000Y-91867000D03*
%TD*%
D13*
%TO.C,R29*%
X127424000Y-105584000D03*
X129074000Y-105584000D03*
%TD*%
D11*
%TO.C,R73*%
X122532980Y-97075000D03*
X120882980Y-97075000D03*
%TD*%
D24*
%TO.C,R21*%
X126721500Y-96758000D03*
X126721500Y-98408000D03*
%TD*%
D38*
%TO.C,D7*%
X127731000Y-117403000D03*
X127731000Y-118403000D03*
X129021000Y-117903000D03*
%TD*%
D11*
%TO.C,R34*%
X109388000Y-72117000D03*
X107738000Y-72117000D03*
%TD*%
D39*
%TO.C,Q1*%
X91911500Y-97334000D03*
X91911500Y-99234000D03*
X93786500Y-98284000D03*
%TD*%
D11*
%TO.C,R64*%
X106022980Y-97075000D03*
X104372980Y-97075000D03*
%TD*%
%TO.C,R37*%
X108880000Y-69577000D03*
X107230000Y-69577000D03*
%TD*%
%TO.C,R56*%
X201844000Y-72061001D03*
X200194000Y-72061001D03*
%TD*%
D13*
%TO.C,R14*%
X175226800Y-110855000D03*
X176876800Y-110855000D03*
%TD*%
D37*
%TO.C,Y2*%
X169603000Y-97454000D03*
X171703000Y-97454000D03*
X171703000Y-95804000D03*
X169603000Y-95804000D03*
%TD*%
D40*
%TO.C,R57*%
X197971000Y-69624501D03*
X197971000Y-71449501D03*
%TD*%
D32*
%TO.C,C17*%
X135615000Y-91084000D03*
X135615000Y-94684000D03*
%TD*%
D10*
%TO.C,C48*%
X197717000Y-76900000D03*
X197717000Y-75350000D03*
%TD*%
D15*
%TO.C,R55*%
X190351000Y-66917001D03*
X190351000Y-65267001D03*
%TD*%
D22*
%TO.C,C27*%
X108563000Y-78235000D03*
X108563000Y-74635000D03*
%TD*%
D12*
%TO.C,C12*%
X216260000Y-82711000D03*
X216260000Y-84261000D03*
%TD*%
D41*
%TO.C,U5*%
X99800000Y-78656000D03*
X101070000Y-78656000D03*
X102340000Y-78656000D03*
X103610000Y-78656000D03*
X103610000Y-73706000D03*
X102340000Y-73706000D03*
X101070000Y-73706000D03*
X99800000Y-73706000D03*
%TD*%
D29*
%TO.C,D23*%
X138027000Y-72878001D03*
X138027000Y-69578001D03*
%TD*%
D11*
%TO.C,R45*%
X155616000Y-72117001D03*
X153966000Y-72117001D03*
%TD*%
D40*
%TO.C,R46*%
X151743000Y-69680501D03*
X151743000Y-71505501D03*
%TD*%
D36*
%TO.C,C20*%
X153216000Y-88501000D03*
X151666000Y-88501000D03*
%TD*%
D11*
%TO.C,R62*%
X211242000Y-70029001D03*
X209592000Y-70029001D03*
%TD*%
D36*
%TO.C,C9*%
X151692000Y-90025000D03*
X150142000Y-90025000D03*
%TD*%
D15*
%TO.C,R36*%
X119993000Y-68370000D03*
X119993000Y-66720000D03*
%TD*%
D36*
%TO.C,C54*%
X109274980Y-98726000D03*
X107724980Y-98726000D03*
%TD*%
D14*
%TO.C,C6*%
X154525000Y-113839000D03*
X156075000Y-113839000D03*
%TD*%
D24*
%TO.C,R15*%
X217911000Y-82661000D03*
X217911000Y-84311000D03*
%TD*%
D36*
%TO.C,C11*%
X159377000Y-107235000D03*
X157827000Y-107235000D03*
%TD*%
D15*
%TO.C,R53*%
X186287000Y-71997001D03*
X186287000Y-70347001D03*
%TD*%
D42*
%TO.C,D22*%
X143869000Y-73769000D03*
X143869000Y-77069000D03*
%TD*%
D15*
%TO.C,R60*%
X200003000Y-82284000D03*
X200003000Y-80634000D03*
%TD*%
D19*
%TO.C,SW1*%
X159101000Y-117454000D03*
X159101000Y-115304000D03*
X154801000Y-117454000D03*
X154801000Y-115304000D03*
%TD*%
D24*
%TO.C,R4*%
X214482000Y-95659000D03*
X214482000Y-97309000D03*
%TD*%
D12*
%TO.C,C44*%
X190097000Y-78652000D03*
X190097000Y-80202000D03*
%TD*%
D43*
%TO.C,D24*%
X196321000Y-91496000D03*
X196321000Y-95796000D03*
%TD*%
D15*
%TO.C,R6*%
X102595000Y-111489000D03*
X102595000Y-109839000D03*
%TD*%
D14*
%TO.C,C19*%
X166195000Y-95867000D03*
X167745000Y-95867000D03*
%TD*%
D16*
%TO.C,D10*%
X215244000Y-105295500D03*
X215244000Y-103420500D03*
%TD*%
D29*
%TO.C,D20*%
X117961000Y-68433000D03*
X117961000Y-65133000D03*
%TD*%
D36*
%TO.C,C58*%
X122482980Y-98726000D03*
X120932980Y-98726000D03*
%TD*%
D11*
%TO.C,R51*%
X165014000Y-70085001D03*
X163364000Y-70085001D03*
%TD*%
D24*
%TO.C,R27*%
X214482000Y-100231000D03*
X214482000Y-101881000D03*
%TD*%
D12*
%TO.C,C15*%
X216260000Y-79536000D03*
X216260000Y-81086000D03*
%TD*%
%TO.C,C39*%
X155807000Y-80740000D03*
X155807000Y-82290000D03*
%TD*%
D14*
%TO.C,C18*%
X166195000Y-97391000D03*
X167745000Y-97391000D03*
%TD*%
D22*
%TO.C,C33*%
X140059000Y-79251000D03*
X140059000Y-75651000D03*
%TD*%
D12*
%TO.C,C21*%
X132313000Y-92617000D03*
X132313000Y-94167000D03*
%TD*%
D15*
%TO.C,R44*%
X144123000Y-66973001D03*
X144123000Y-65323001D03*
%TD*%
D44*
%TO.C,R39*%
X113135000Y-69662500D03*
X113135000Y-75587500D03*
%TD*%
D11*
%TO.C,R72*%
X119230980Y-97075000D03*
X117580980Y-97075000D03*
%TD*%
D45*
%TO.C,R22*%
X93761500Y-95490000D03*
X91936500Y-95490000D03*
%TD*%
D13*
%TO.C,R5*%
X214419000Y-98770000D03*
X216069000Y-98770000D03*
%TD*%
D24*
%TO.C,R17*%
X145292400Y-105775000D03*
X145292400Y-107425000D03*
%TD*%
D10*
%TO.C,C30*%
X115929000Y-68320000D03*
X115929000Y-66770000D03*
%TD*%
D12*
%TO.C,C49*%
X202035000Y-80684000D03*
X202035000Y-82234000D03*
%TD*%
D11*
%TO.C,R65*%
X109324980Y-97075000D03*
X107674980Y-97075000D03*
%TD*%
D18*
%TO.C,D16*%
X133407500Y-107489000D03*
X135282500Y-107489000D03*
%TD*%
D13*
%TO.C,R8*%
X154475000Y-107235000D03*
X156125000Y-107235000D03*
%TD*%
D15*
%TO.C,R31*%
X93831000Y-72053000D03*
X93831000Y-70403000D03*
%TD*%
%TO.C,R19*%
X217911000Y-81136000D03*
X217911000Y-79486000D03*
%TD*%
D44*
%TO.C,R61*%
X205591000Y-69606501D03*
X205591000Y-75531501D03*
%TD*%
D36*
%TO.C,C56*%
X115878980Y-98726000D03*
X114328980Y-98726000D03*
%TD*%
D13*
%TO.C,R66*%
X104372980Y-95424000D03*
X106022980Y-95424000D03*
%TD*%
D41*
%TO.C,U9*%
X192256000Y-78600000D03*
X193526000Y-78600000D03*
X194796000Y-78600000D03*
X196066000Y-78600000D03*
X196066000Y-73650000D03*
X194796000Y-73650000D03*
X193526000Y-73650000D03*
X192256000Y-73650000D03*
%TD*%
D11*
%TO.C,R2*%
X159427000Y-113839000D03*
X157777000Y-113839000D03*
%TD*%
D33*
%TO.C,D21*%
X116457000Y-82531000D03*
X118957000Y-82531000D03*
%TD*%
D41*
%TO.C,U7*%
X146028000Y-78656000D03*
X147298000Y-78656000D03*
X148568000Y-78656000D03*
X149838000Y-78656000D03*
X149838000Y-73706000D03*
X148568000Y-73706000D03*
X147298000Y-73706000D03*
X146028000Y-73706000D03*
%TD*%
D11*
%TO.C,R59*%
X201336000Y-69521001D03*
X199686000Y-69521001D03*
%TD*%
D44*
%TO.C,R50*%
X159363000Y-69662501D03*
X159363000Y-75587501D03*
%TD*%
D22*
%TO.C,C37*%
X154791000Y-78235000D03*
X154791000Y-74635000D03*
%TD*%
D15*
%TO.C,R33*%
X97895000Y-66973000D03*
X97895000Y-65323000D03*
%TD*%
D13*
%TO.C,R28*%
X84879000Y-95424000D03*
X86529000Y-95424000D03*
%TD*%
D10*
%TO.C,C28*%
X105261000Y-76956000D03*
X105261000Y-75406000D03*
%TD*%
D15*
%TO.C,R38*%
X107547000Y-82340000D03*
X107547000Y-80690000D03*
%TD*%
D22*
%TO.C,C43*%
X186287000Y-79195000D03*
X186287000Y-75595000D03*
%TD*%
D17*
%TO.C,R32*%
X89259000Y-72140500D03*
X89259000Y-70315500D03*
%TD*%
D15*
%TO.C,R26*%
X216006000Y-101881000D03*
X216006000Y-100231000D03*
%TD*%
D14*
%TO.C,C14*%
X166195000Y-92057000D03*
X167745000Y-92057000D03*
%TD*%
D12*
%TO.C,C31*%
X119739000Y-79216000D03*
X119739000Y-80766000D03*
%TD*%
D46*
%TO.C,D11*%
X125741000Y-113204000D03*
X129741000Y-113204000D03*
%TD*%
D13*
%TO.C,R67*%
X107674980Y-95424000D03*
X109324980Y-95424000D03*
%TD*%
%TO.C,R9*%
X139362000Y-109648000D03*
X141012000Y-109648000D03*
%TD*%
D17*
%TO.C,R43*%
X135487000Y-72140501D03*
X135487000Y-70315501D03*
%TD*%
D24*
%TO.C,R16*%
X143514400Y-105775000D03*
X143514400Y-107425000D03*
%TD*%
D10*
%TO.C,C46*%
X187811000Y-71947001D03*
X187811000Y-70397001D03*
%TD*%
D14*
%TO.C,C32*%
X116424000Y-80753000D03*
X117974000Y-80753000D03*
%TD*%
D47*
%TO.C,D13*%
X135595000Y-113966000D03*
X133095000Y-113966000D03*
%TD*%
D48*
%TO.C,D4*%
X172859400Y-111093600D03*
X173859400Y-111093600D03*
X173359400Y-109803600D03*
%TD*%
D14*
%TO.C,C10*%
X166209000Y-89963000D03*
X167759000Y-89963000D03*
%TD*%
D22*
%TO.C,C5*%
X218419000Y-91553000D03*
X218419000Y-87953000D03*
%TD*%
D49*
%TO.C,U6*%
X119866000Y-72182000D03*
X118596000Y-72182000D03*
X117326000Y-72182000D03*
X116056000Y-72182000D03*
X116056000Y-77132000D03*
X117326000Y-77132000D03*
X118596000Y-77132000D03*
X119866000Y-77132000D03*
%TD*%
D14*
%TO.C,C8*%
X161953000Y-96629000D03*
X163503000Y-96629000D03*
%TD*%
D50*
%TO.C,D1*%
X102595000Y-116994000D03*
X102595000Y-114494000D03*
%TD*%
D11*
%TO.C,R11*%
X149394000Y-109648000D03*
X147744000Y-109648000D03*
%TD*%
D12*
%TO.C,C29*%
X109579000Y-80740000D03*
X109579000Y-82290000D03*
%TD*%
D40*
%TO.C,R35*%
X105515000Y-69680500D03*
X105515000Y-71505500D03*
%TD*%
D51*
%TO.C,C22*%
X125941000Y-108886000D03*
X129541000Y-108886000D03*
%TD*%
D43*
%TO.C,D29*%
X186923000Y-91496000D03*
X186923000Y-95796000D03*
%TD*%
D10*
%TO.C,C38*%
X151489000Y-76956000D03*
X151489000Y-75406000D03*
%TD*%
D13*
%TO.C,R25*%
X148754000Y-100628000D03*
X150404000Y-100628000D03*
%TD*%
D49*
%TO.C,U10*%
X212322000Y-72126000D03*
X211052000Y-72126000D03*
X209782000Y-72126000D03*
X208512000Y-72126000D03*
X208512000Y-77076000D03*
X209782000Y-77076000D03*
X211052000Y-77076000D03*
X212322000Y-77076000D03*
%TD*%
D24*
%TO.C,R10*%
X219562000Y-82661000D03*
X219562000Y-84311000D03*
%TD*%
D13*
%TO.C,R71*%
X114278980Y-95424000D03*
X115928980Y-95424000D03*
%TD*%
D36*
%TO.C,C55*%
X112576980Y-98726000D03*
X111026980Y-98726000D03*
%TD*%
%TO.C,C57*%
X119180980Y-98726000D03*
X117630980Y-98726000D03*
%TD*%
D49*
%TO.C,U8*%
X166094000Y-72182000D03*
X164824000Y-72182000D03*
X163554000Y-72182000D03*
X162284000Y-72182000D03*
X162284000Y-77132000D03*
X163554000Y-77132000D03*
X164824000Y-77132000D03*
X166094000Y-77132000D03*
%TD*%
D10*
%TO.C,C50*%
X208385000Y-68264001D03*
X208385000Y-66714001D03*
%TD*%
D38*
%TO.C,D6*%
X123794000Y-117403000D03*
X123794000Y-118403000D03*
X125084000Y-117903000D03*
%TD*%
D29*
%TO.C,D30*%
X210417000Y-68377001D03*
X210417000Y-65077001D03*
%TD*%
D42*
%TO.C,D27*%
X190097000Y-73713000D03*
X190097000Y-77013000D03*
%TD*%
D48*
%TO.C,D5*%
X143878000Y-110775600D03*
X144878000Y-110775600D03*
X144378000Y-109485600D03*
%TD*%
D15*
%TO.C,R58*%
X212449000Y-68314001D03*
X212449000Y-66664001D03*
%TD*%
D52*
%TO.C,D14*%
X83513000Y-98599000D03*
X79513000Y-98599000D03*
%TD*%
D48*
%TO.C,D3*%
X168846200Y-111093600D03*
X169846200Y-111093600D03*
X169346200Y-109803600D03*
%TD*%
D43*
%TO.C,D19*%
X205973000Y-91496000D03*
X205973000Y-95796000D03*
%TD*%
D14*
%TO.C,C42*%
X162652000Y-80753000D03*
X164202000Y-80753000D03*
%TD*%
D33*
%TO.C,D31*%
X208913000Y-82475000D03*
X211413000Y-82475000D03*
%TD*%
D42*
%TO.C,D17*%
X97641000Y-73769000D03*
X97641000Y-77069000D03*
%TD*%
D10*
%TO.C,C40*%
X162157000Y-68320001D03*
X162157000Y-66770001D03*
%TD*%
D13*
%TO.C,R75*%
X120882980Y-95424000D03*
X122532980Y-95424000D03*
%TD*%
M02*
